<?xml version="1.0" standalone="no"?>
<!DOCTYPE svg PUBLIC "-//W3C//DTD SVG 1.1//EN" "http://www.w3.org/Graphics/SVG/1.1/DTD/svg11.dtd" >
<svg xmlns="http://www.w3.org/2000/svg" xmlns:xlink="http://www.w3.org/1999/xlink" version="1.1">
<metadata>
Created by FontForge 20170910 at Fri Feb  7 02:30:49 2014
 By Jimmy Wärting
Designed at Bitstream in 1990 on the base of Copperplate Gothic by Frederic W. Gaudy. An old extended grotesque. For use in advertising and display typography and for labels on the plates on the doors of law offices and banks. Bold weight and Cyrillic version for Regular weight were designed in ParaType in 2003 by Isabella Chaeva.
</metadata>
<defs>
<font id="EngraversGothic" horiz-adv-x="500" >
  <font-face 
    font-family="Engravers Gothic"
    font-weight="400"
    font-stretch="normal"
    units-per-em="1000"
    panose-1="2 11 5 7 2 2 3 2 2 4"
    ascent="882"
    descent="-118"
    x-height="416"
    cap-height="539"
    bbox="-315 -236 1181 833"
    underline-thickness="50"
    underline-position="-100"
    unicode-range="U+0020-FB02"
  />
<missing-glyph 
d="M58 8h384v496h-384v-496zM50 0v512h400v-512h-400z" />
    <glyph glyph-name="afii10017.var.accented" unicode="&#x410;`" horiz-adv-x="598" 
d="M179 208h237l-119 239zM5 0l264 539h56l267 -539h-73l-73 145h-298l-71 -145h-72zM283 595h-45l102 171h74z" />
    <glyph glyph-name="afii10022.var.accented" unicode="&#x415;`" horiz-adv-x="556" 
d="M86 0v539h424v-62h-357v-158h216v-62h-216v-195h379v-62h-446zM262 595h-45l102 171h74z" />
    <glyph glyph-name="afii10026.var.accented" unicode="&#x418;`" horiz-adv-x="625" 
d="M540 0h-67v418l-343 -418h-44v539h67v-418l342 418h45v-539zM296 595h-45l102 171h74z" />
    <glyph glyph-name="afii10032.var.accented" unicode="&#x41e;`" horiz-adv-x="644" 
d="M322 49c120 0 210 92 210 219c0 128 -90 220 -210 220s-210 -92 -210 -220s90 -219 210 -219zM322 -14c-161 0 -279 118 -279 282s118 283 279 283s280 -119 280 -283s-119 -282 -280 -282zM306 595h-45l102 171h74z" />
    <glyph glyph-name="afii10037.var.accented" unicode="&#x423;`" horiz-adv-x="582" 
d="M153 0l105 178l-239 361h86l199 -296l185 296h78l-337 -539h-77zM275 595h-45l102 171h74z" />
    <glyph glyph-name="afii10045.var.accented" unicode="&#x42b;`" horiz-adv-x="759" 
d="M153 253v-191h213c24 0 58 1 82 25c17 17 25 44 25 73c0 35 -14 55 -26 67c-27 24 -65 26 -85 26h-209zM605 -2v544h68v-544h-68zM153 316h214c40 0 90 -3 136 -49c29 -31 40 -67 40 -108c0 -57 -20 -92 -40 -112c-27 -27 -71 -47 -143 -47h-274v539h67v-223zM363 595
h-45l102 171h74z" />
    <glyph glyph-name="afii10047.var.accented" unicode="&#x42d;`" horiz-adv-x="604" 
d="M43 114l53 41c19 -35 45 -61 72 -77c39 -23 80 -29 119 -29c43 0 93 6 134 42c45 39 64 102 65 157h-283v62h283c-3 47 -21 92 -52 123c-23 26 -69 55 -143 55c-44 0 -83 -9 -116 -28c-15 -8 -44 -27 -69 -64l-52 39c29 36 62 62 95 81c45 25 89 35 145 35
s135 -11 197 -76c58 -61 69 -137 69 -196c0 -71 -16 -153 -79 -218c-56 -57 -121 -75 -196 -75c-53 0 -106 10 -149 35c-39 23 -72 58 -93 93zM286 595h-45l102 171h74z" />
    <glyph glyph-name="afii10048.var.accented" unicode="&#x42e;`" horiz-adv-x="835" 
d="M515 488c-51 0 -97 -15 -137 -55c-33 -33 -65 -85 -65 -165c0 -85 36 -138 65 -164c40 -39 88 -55 144 -55s100 19 136 54c41 40 65 93 65 165c0 76 -28 130 -65 165c-38 37 -86 55 -143 55zM154 326h97c12 69 45 117 74 146c49 51 117 79 193 79c80 0 146 -31 191 -75
c51 -51 84 -122 84 -206c0 -98 -41 -166 -80 -205c-53 -56 -117 -79 -194 -79c-101 0 -165 44 -196 78c-44 47 -76 117 -77 200h-92v-264h-68v539h68v-213zM401 595h-45l102 171h74z" />
    <glyph glyph-name="afii10049.var.accented" unicode="&#x42f;`" horiz-adv-x="602" 
d="M452 294v183h-234c-13 0 -47 -1 -70 -18c-19 -15 -31 -40 -31 -75s13 -55 28 -67s37 -23 76 -23h231zM519 0h-67v231h-182l-157 -231h-74l158 236c-32 3 -78 12 -109 43c-25 25 -41 63 -41 106c0 47 18 87 43 111c23 23 63 43 131 43h298v-539zM285 595h-45l102 171h74z
" />
    <glyph glyph-name="afii10023.var.accented" unicode="&#x401;`" horiz-adv-x="556" 
d="M366 637c0 24 19 44 43 44s44 -20 44 -44c0 -25 -20 -44 -44 -44s-43 19 -43 44zM153 637c0 24 20 44 44 44s43 -20 43 -44c0 -25 -19 -44 -43 -44s-44 19 -44 44zM86 0v539h424v-62h-357v-158h216v-62h-216v-195h379v-62h-446zM290 595h-45l102 171h74z" />
    <glyph glyph-name="afii10065.var.accented" unicode="&#x430;`" horiz-adv-x="459" 
d="M147 161h163l-81 160zM-4 0l212 417h41l214 -417h-70l-54 106h-220l-54 -106h-69zM214 470h-45l102 171h74z" />
    <glyph glyph-name="afii10070.var.accented" unicode="&#x435;`" horiz-adv-x="512" 
d="M76 0v417h391v-61h-326v-104h214v-60h-214v-132h344v-60h-409zM240 470h-45l102 171h74z" />
    <glyph glyph-name="afii10074.var.accented" unicode="&#x438;`" horiz-adv-x="519" 
d="M442 0h-64v307l-259 -307h-42v417h64v-308l259 308h42v-417zM243 470h-45l102 171h74z" />
    <glyph glyph-name="afii10080.var.accented" unicode="&#x43e;`" horiz-adv-x="591" 
d="M295 48c116 0 189 71 189 160s-74 160 -189 160c-114 0 -188 -70 -188 -160s74 -160 188 -160zM295 -13c-152 0 -255 97 -255 221s103 220 255 220c154 0 256 -96 256 -220s-102 -221 -256 -221zM279 470h-45l102 171h74z" />
    <glyph glyph-name="afii10085.var.accented" unicode="&#x443;`" horiz-adv-x="469" 
d="M110 0l86 131l-190 286h81l151 -226l147 226h74l-275 -417h-74zM219 470h-45l102 171h74z" />
    <glyph glyph-name="afii10093.var.accented" unicode="&#x44b;`" horiz-adv-x="673" 
d="M142 197v-136h190c17 0 39 3 52 14c15 11 21 33 21 54c0 24 -9 42 -21 53c-17 15 -39 15 -59 15h-183zM530 -1v419h65v-419h-65zM142 258h190c35 0 71 -3 103 -34c13 -12 37 -41 37 -94c0 -43 -16 -76 -37 -96c-32 -31 -74 -34 -101 -34h-257v417h65v-159zM320 470h-45
l102 171h74z" />
    <glyph glyph-name="afii10095.var.accented" unicode="&#x44d;`" horiz-adv-x="560" 
d="M45 81l46 45c23 -25 48 -44 75 -56c33 -15 68 -21 105 -21c40 0 83 5 119 32c27 19 51 53 59 101h-242v60h241c-7 29 -21 67 -64 95s-94 31 -123 31c-37 0 -69 -6 -100 -21c-25 -12 -46 -30 -65 -53l-52 35c31 36 63 58 90 71c45 23 91 28 132 28c115 0 174 -48 197 -71
c33 -33 57 -79 57 -143c0 -88 -42 -141 -62 -161c-56 -56 -127 -66 -183 -66c-47 0 -95 8 -134 24c-36 15 -71 42 -96 70zM264 470h-45l102 171h74z" />
    <glyph glyph-name="afii10096.var.accented" unicode="&#x44e;`" horiz-adv-x="749" 
d="M455 368c-39 0 -87 -6 -130 -45c-37 -35 -50 -76 -50 -115c0 -47 22 -86 50 -113c35 -32 90 -47 135 -47c48 0 100 18 131 45c33 28 51 72 51 115c0 41 -16 79 -47 110c-44 41 -99 50 -140 50zM141 255h75c9 37 29 85 82 124c39 28 91 49 158 49c79 0 145 -28 188 -68
c27 -27 65 -74 65 -152c0 -72 -32 -120 -64 -151c-33 -30 -90 -70 -187 -70c-81 0 -146 29 -189 73c-27 28 -54 71 -57 134h-71v-194h-65v417h65v-162zM358 470h-45l102 171h74z" />
    <glyph glyph-name="afii10097.var.accented" unicode="&#x44f;`" horiz-adv-x="546" 
d="M404 231v125h-227c-31 0 -45 -9 -52 -16c-8 -8 -17 -21 -17 -44c0 -19 5 -35 20 -47c23 -18 63 -18 87 -18h189zM404 173h-158l-129 -173h-78l133 175c-27 3 -71 12 -100 40c-23 23 -31 47 -31 78c0 37 13 67 33 87c33 32 82 36 115 36h280v-416h-65v173zM257 470h-45
l102 171h74z" />
    <glyph glyph-name="afii10071.var.accented" unicode="&#x451;`" horiz-adv-x="512" 
d="M320 519c0 24 19 44 43 44s44 -20 44 -44c0 -25 -20 -44 -44 -44s-43 19 -43 44zM134 519c0 24 20 44 44 44s43 -20 43 -44c0 -25 -19 -44 -43 -44s-44 19 -44 44zM76 0v417h391v-61h-326v-104h214v-60h-214v-132h344v-60h-409zM257 470h-45l102 171h74z" />
    <glyph glyph-name="fi" unicode="fi" horiz-adv-x="631" 
d="M492 -1v419h66v-419h-66zM136 192v-192h-65v417h385v-61h-320v-104h207v-60h-207z" />
    <glyph glyph-name="fl" unicode="fl" horiz-adv-x="831" 
d="M486 0v417h65v-357h300v-60h-365zM136 192v-192h-65v417h380v-61h-315v-104h207v-60h-207z" />
    <glyph glyph-name=".notdef" 
d="M58 8h384v496h-384v-496zM50 0v512h400v-512h-400z" />
    <glyph glyph-name="NULL" horiz-adv-x="0" 
 />
    <glyph glyph-name="CR" horiz-adv-x="333" 
 />
    <glyph glyph-name="space" unicode=" " horiz-adv-x="333" 
 />
    <glyph glyph-name="exclam" unicode="!" horiz-adv-x="333" 
d="M196 140h-58l-8 399h74zM167 75c23 0 40 -18 40 -45s-17 -44 -40 -44s-41 17 -41 44s18 45 41 45z" />
    <glyph glyph-name="quotedbl" unicode="&#x22;" horiz-adv-x="278" 
d="M230 700v-270h-49v270h49zM97 700v-270h-49v270h49z" />
    <glyph glyph-name="numbersign" unicode="#" horiz-adv-x="741" 
d="M462 392h-130l-47 -136h130zM419 635l-67 -191h129l68 191h58l-67 -191h144l-18 -52h-145l-48 -136h156l-18 -52h-156l-72 -204h-59l73 204h-131l-74 -204h-58l73 204h-150l19 52h149l49 136h-162l17 52h163l69 191h58z" />
    <glyph glyph-name="dollar" unicode="$" horiz-adv-x="667" 
d="M362 247v-202c97 7 152 49 152 108c0 55 -52 94 -152 94zM87 77l37 54c59 -45 120 -72 181 -81v200c-129 7 -196 53 -196 132c0 78 75 140 196 143v80h57v-85c72 -12 132 -37 191 -80l-34 -51c-49 39 -98 61 -157 72v-154c143 -3 219 -65 219 -156
c0 -88 -83 -165 -219 -165v-114h-57v117c-81 9 -153 38 -218 88zM305 310v155c-83 -4 -129 -39 -129 -80c0 -43 43 -68 129 -75z" />
    <glyph glyph-name="percent" unicode="%" horiz-adv-x="843" 
d="M663 44c52 0 91 41 91 97s-39 98 -91 98c-51 0 -90 -41 -90 -98c0 -56 39 -97 90 -97zM663 -14c-88 0 -153 64 -153 155s65 155 153 155c89 0 154 -64 154 -155s-66 -155 -154 -155zM523 513h70l-274 -513h-70zM179 272c52 0 91 42 91 98s-39 97 -91 97
c-51 0 -90 -40 -90 -97c0 -56 39 -98 90 -98zM179 214c-87 0 -154 64 -154 155s66 156 154 156c89 0 153 -65 153 -156s-65 -155 -153 -155z" />
    <glyph glyph-name="ampersand" unicode="&#x26;" horiz-adv-x="618" 
d="M437 121l-166 195c-89 -38 -133 -89 -133 -153c0 -68 52 -115 129 -115c59 0 115 24 170 73zM537 229l43 -55c-15 -21 -32 -40 -53 -59l96 -111h-86l-60 68c-69 -59 -132 -87 -209 -87c-123 0 -201 68 -201 175c0 87 53 149 162 204l-148 175h354l37 -59h-253l264 -311
c16 16 35 35 54 60z" />
    <glyph glyph-name="quotesingle" unicode="'" horiz-adv-x="144" 
d="M97 700v-270h-49v270h49z" />
    <glyph glyph-name="parenleft" unicode="(" horiz-adv-x="273" 
d="M190 551l32 -38c-71 -60 -100 -136 -100 -244s29 -185 100 -245l-32 -38c-92 84 -133 170 -133 283s41 198 133 282z" />
    <glyph glyph-name="parenright" unicode=")" horiz-adv-x="273" 
d="M51 513l32 38c92 -84 133 -169 133 -282s-41 -199 -133 -283l-32 38c71 60 100 137 100 245s-29 184 -100 244z" />
    <glyph glyph-name="asterisk" unicode="*" 
d="M249 356l-69 -101l-43 30l78 97l-114 30l18 50l108 -40v117h45v-117l109 38l17 -49l-115 -31l79 -95l-44 -32z" />
    <glyph glyph-name="plus" unicode="+" horiz-adv-x="760" 
d="M404 534v-238h232v-48h-232v-238h-48v238h-232v48h232v238h48z" />
    <glyph glyph-name="comma" unicode="," horiz-adv-x="333" 
d="M139 -102l-18 17c19 29 34 57 43 85h-4c-19 0 -35 17 -35 44c0 28 18 48 42 48c25 0 46 -23 46 -66c0 -36 -25 -79 -74 -128z" />
    <glyph glyph-name="hyphen" unicode="-" horiz-adv-x="257" 
d="M23 298h211v-59h-211v59z" />
    <glyph glyph-name="period" unicode="." horiz-adv-x="333" 
d="M167 75c23 0 40 -18 40 -45s-17 -44 -40 -44s-41 17 -41 44s18 45 41 45z" />
    <glyph glyph-name="slash" unicode="/" horiz-adv-x="278" 
d="M238 551h59l-257 -644h-59z" />
    <glyph glyph-name="zero" unicode="0" horiz-adv-x="667" 
d="M333 48c135 0 227 91 227 207s-91 207 -227 207s-227 -91 -227 -207s93 -207 227 -207zM333 -14c-176 0 -296 117 -296 269s120 270 296 270s297 -118 297 -270s-121 -269 -297 -269z" />
    <glyph glyph-name="one" unicode="1" horiz-adv-x="667" 
d="M298 -3v516h68v-516h-68z" />
    <glyph glyph-name="two" unicode="2" horiz-adv-x="667" 
d="M575 0h-458c-1 35 -2 57 -2 64c0 102 32 157 151 199c150 54 229 66 229 119c0 43 -47 80 -127 80c-68 0 -133 -28 -208 -80l-40 52c79 60 155 91 242 91c125 0 203 -66 203 -144c0 -88 -94 -106 -211 -154c-116 -48 -171 -58 -171 -139c0 -8 1 -17 2 -26h390v-62z" />
    <glyph glyph-name="three" unicode="3" horiz-adv-x="667" 
d="M57 105l42 51c79 -74 153 -108 248 -108c122 0 195 56 195 112c0 61 -57 91 -171 91h-23v62c6 -1 12 -1 17 -1h17c81 0 121 20 121 69c0 47 -47 81 -131 81c-71 0 -140 -25 -209 -75l-40 55c73 55 159 83 252 83c124 0 197 -59 197 -144c0 -39 -16 -71 -47 -95
c58 -25 87 -67 87 -124c0 -92 -100 -176 -261 -176c-119 0 -210 35 -294 119z" />
    <glyph glyph-name="four" unicode="4" horiz-adv-x="667" 
d="M159 187h307v244zM466 0v124h-410v63l410 326h67v-326h86v-63h-86v-124h-67z" />
    <glyph glyph-name="five" unicode="5" horiz-adv-x="667" 
d="M81 81l34 57c84 -59 153 -89 230 -89c100 0 169 60 169 135c0 63 -65 116 -176 116c-64 0 -116 -17 -176 -52h-42v265h415v-63h-348v-114c53 17 102 27 151 27c152 0 246 -82 246 -187c0 -101 -94 -190 -242 -190c-92 0 -177 31 -261 95z" />
    <glyph glyph-name="six" unicode="6" horiz-adv-x="667" 
d="M133 226c11 -96 115 -177 241 -177c105 0 176 60 176 124c0 70 -79 125 -183 125c-80 0 -154 -24 -234 -72zM588 437l-39 -47c-60 48 -127 72 -192 72c-124 0 -207 -62 -223 -162c79 41 148 61 231 61c151 0 255 -79 255 -187c0 -107 -93 -188 -246 -188
c-191 0 -316 124 -316 273c0 155 120 266 296 266c91 0 162 -28 234 -88z" />
    <glyph glyph-name="seven" unicode="7" horiz-adv-x="667" 
d="M184 0l315 450h-395v63h521l-362 -513h-79z" />
    <glyph glyph-name="eight" unicode="8" horiz-adv-x="667" 
d="M146 159c0 -64 66 -110 187 -110s186 46 186 110c0 75 -63 97 -186 97s-187 -22 -187 -97zM497 292c61 -29 92 -73 92 -132c0 -101 -93 -174 -256 -174c-164 0 -257 70 -257 173c0 61 31 105 93 133c-38 25 -57 56 -57 94c0 81 80 138 221 138s221 -57 221 -138
c0 -38 -19 -69 -57 -94zM484 389c0 40 -52 73 -151 73c-97 0 -150 -32 -150 -75c0 -41 50 -68 150 -68s151 26 151 70z" />
    <glyph glyph-name="nine" unicode="9" horiz-adv-x="667" 
d="M533 285c-13 96 -113 177 -241 177c-105 0 -176 -61 -176 -125c0 -70 80 -125 184 -125c80 0 153 25 233 73zM78 74l40 46c60 -48 127 -71 192 -71c124 0 207 61 223 161c-79 -41 -148 -60 -231 -60c-151 0 -256 79 -256 187c0 107 94 188 247 188
c191 0 316 -124 316 -273c0 -155 -120 -266 -296 -266c-91 0 -163 28 -235 88z" />
    <glyph glyph-name="colon" unicode=":" horiz-adv-x="333" 
d="M167 75c23 0 40 -18 40 -45s-17 -44 -40 -44s-41 17 -41 44s18 45 41 45zM167 355c23 0 40 -17 40 -44s-17 -45 -40 -45s-41 18 -41 45s18 44 41 44z" />
    <glyph glyph-name="semicolon" unicode=";" horiz-adv-x="333" 
d="M167 355c23 0 40 -17 40 -44s-17 -45 -40 -45s-41 18 -41 45s18 44 41 44zM139 -102l-18 17c19 29 34 57 43 85h-4c-19 0 -35 17 -35 44c0 28 18 48 42 48c25 0 46 -23 46 -66c0 -36 -25 -79 -74 -128z" />
    <glyph glyph-name="less" unicode="&#x3c;" horiz-adv-x="823" 
d="M694 501l-489 -203l489 -202v-53l-565 235v40l565 236v-53z" />
    <glyph glyph-name="equal" unicode="=" horiz-adv-x="781" 
d="M657 196v-48h-533v48h533zM657 378v-48h-533v48h533z" />
    <glyph glyph-name="greater" unicode="&#x3e;" horiz-adv-x="823" 
d="M129 501v53l565 -236v-40l-565 -235v53l489 202z" />
    <glyph glyph-name="question" unicode="?" horiz-adv-x="361" 
d="M125 131v87c0 45 20 65 41 86l83 83c15 15 18 24 18 43c0 35 -30 60 -78 60c-53 0 -89 -27 -100 -75l-62 23c20 75 74 113 163 113c92 0 145 -50 145 -127c0 -32 -13 -57 -38 -81l-85 -83c-13 -13 -20 -33 -20 -59v-70h-67zM160 75c23 0 41 -18 41 -45s-18 -44 -41 -44
s-41 17 -41 44s18 45 41 45z" />
    <glyph glyph-name="at" unicode="@" horiz-adv-x="726" 
d="M459 361l7 32h47l-39 -160c-8 -31 -12 -43 -12 -56s5 -22 10 -27c7 -7 18 -9 26 -9c28 0 60 10 88 39c24 25 51 69 51 144c0 80 -33 127 -66 156c-47 40 -113 57 -180 57c-107 0 -178 -43 -221 -86c-37 -37 -79 -102 -79 -203c0 -84 33 -140 66 -175
c59 -60 136 -73 207 -73c67 0 145 13 216 76l23 -39c-87 -64 -170 -77 -242 -77s-169 11 -240 82c-55 55 -81 134 -81 210c0 77 29 162 89 226c56 60 139 101 260 101c95 0 164 -26 209 -62c45 -35 88 -94 88 -183c0 -80 -31 -138 -66 -174c-39 -40 -81 -54 -128 -54
c-15 0 -38 1 -54 17c-9 9 -16 28 -16 47c-9 -20 -23 -36 -42 -48c-21 -13 -38 -16 -62 -16c-27 0 -58 5 -82 30c-17 19 -30 46 -30 91c0 64 23 115 55 148c31 31 64 42 108 42c20 0 41 -3 60 -16c11 -8 23 -20 30 -40zM437 260l12 57c-1 24 -12 39 -23 50
c-14 13 -32 20 -55 20c-33 0 -55 -11 -75 -32c-31 -31 -47 -82 -47 -131c0 -21 5 -47 18 -64c17 -21 41 -24 56 -24c29 0 52 10 70 29c21 23 37 64 44 95z" />
    <glyph glyph-name="A" unicode="A" horiz-adv-x="588" 
d="M174 208h237l-119 239zM0 0l264 539h56l267 -539h-73l-73 145h-298l-71 -145h-72z" />
    <glyph glyph-name="B" unicode="B" horiz-adv-x="653" 
d="M148 326h258c57 0 87 27 87 75c0 51 -29 76 -87 76h-258v-151zM148 62h282c64 0 99 40 99 101c0 60 -35 101 -99 101h-282v-202zM81 0v539h319c108 0 161 -46 161 -134c0 -45 -16 -78 -49 -99c58 -33 87 -81 87 -144c0 -99 -67 -162 -182 -162h-336z" />
    <glyph glyph-name="C" unicode="C" horiz-adv-x="604" 
d="M511 172l54 -40c-51 -95 -139 -146 -248 -146c-161 0 -279 118 -279 282s118 283 279 283c100 0 185 -46 236 -126l-56 -40c-35 65 -101 103 -180 103c-120 0 -210 -92 -210 -220s90 -219 210 -219c84 0 151 42 194 123z" />
    <glyph glyph-name="D" unicode="D" horiz-adv-x="632" 
d="M312 477h-164v-415h164c139 0 214 87 214 207c0 121 -80 208 -214 208zM81 539h231c175 0 283 -115 283 -271c0 -155 -103 -268 -283 -268h-231v539z" />
    <glyph glyph-name="E" unicode="E" horiz-adv-x="546" 
d="M81 0v539h424v-62h-357v-158h216v-62h-216v-195h379v-62h-446z" />
    <glyph glyph-name="F" unicode="F" horiz-adv-x="495" 
d="M81 0v539h424v-62h-357v-158h216v-62h-216v-257h-67z" />
    <glyph glyph-name="G" unicode="G" horiz-adv-x="618" 
d="M494 146v79h-147v62h214v-162c-52 -91 -137 -139 -244 -139c-161 0 -279 118 -279 282s118 283 279 283c100 0 185 -46 236 -126l-56 -40c-35 65 -101 103 -180 103c-120 0 -210 -92 -210 -220s90 -219 210 -219c75 0 134 32 177 97z" />
    <glyph glyph-name="H" unicode="H" horiz-adv-x="616" 
d="M81 0v539h68v-213h318v213h67v-539h-67v264h-318v-264h-68z" />
    <glyph glyph-name="I" unicode="I" horiz-adv-x="231" 
d="M82 -2v541h68v-541h-68z" />
    <glyph glyph-name="J" unicode="J" horiz-adv-x="537" 
d="M19 232h67v-84c0 -72 51 -99 163 -99c117 0 147 34 147 141v349h67v-367c0 -132 -63 -186 -226 -186c-148 0 -218 51 -218 160v86z" />
    <glyph glyph-name="K" unicode="K" horiz-adv-x="586" 
d="M81 0v539h67v-268l309 268h88l-218 -191l251 -348h-81l-218 302l-131 -110v-192h-67z" />
    <glyph glyph-name="L" unicode="L" 
d="M81 0v539h67v-477h352v-62h-419z" />
    <glyph glyph-name="M" unicode="M" horiz-adv-x="715" 
d="M78 0v539h62l218 -330l219 330h61v-539h-66v421l-214 -319l-214 319v-421h-66z" />
    <glyph glyph-name="N" unicode="N" horiz-adv-x="613" 
d="M81 0v539h35l350 -403v403h67v-539h-34l-351 403v-403h-67z" />
    <glyph glyph-name="O" unicode="O" horiz-adv-x="634" 
d="M317 49c120 0 210 92 210 219c0 128 -90 220 -210 220s-210 -92 -210 -220s90 -219 210 -219zM317 -14c-161 0 -279 118 -279 282s118 283 279 283s280 -119 280 -283s-119 -282 -280 -282z" />
    <glyph glyph-name="P" unicode="P" horiz-adv-x="586" 
d="M145 299h238c69 0 103 29 103 88c0 56 -35 90 -100 90h-241v-178zM78 0v539h309c107 0 169 -55 169 -146c0 -90 -60 -157 -160 -157h-251v-236h-67z" />
    <glyph glyph-name="Q" unicode="Q" horiz-adv-x="634" 
d="M324 50l-33 69h75l27 -57c84 33 134 110 134 206c0 127 -90 220 -210 220s-210 -92 -210 -220c0 -125 87 -218 208 -218h9zM382 -71l-29 59c-8 -1 -15 -2 -22 -2h-20c-152 0 -273 118 -273 282s118 283 279 283s280 -119 280 -283c0 -123 -63 -218 -176 -265l36 -74h-75z
" />
    <glyph glyph-name="R" unicode="R" horiz-adv-x="597" 
d="M145 299h238c69 0 103 29 103 88c0 56 -35 90 -100 90h-241v-178zM78 0v539h309c107 0 169 -55 169 -150c0 -75 -49 -139 -128 -152l135 -237h-74l-135 236h-209v-236h-67z" />
    <glyph glyph-name="S" unicode="S" horiz-adv-x="597" 
d="M30 81l39 58c77 -60 161 -91 241 -91c103 0 168 49 168 113c0 49 -42 89 -126 96c-91 8 -166 7 -222 34c-51 25 -77 62 -77 111c0 83 81 149 209 149c92 0 179 -31 258 -88l-39 -56c-67 54 -140 81 -218 81c-85 0 -140 -38 -140 -83c0 -19 9 -35 26 -48
c45 -35 123 -27 222 -38c113 -13 178 -77 178 -160c0 -93 -86 -173 -238 -173c-107 0 -197 30 -281 95z" />
    <glyph glyph-name="T" unicode="T" horiz-adv-x="441" 
d="M187 0v477h-227v62h521v-62h-227v-477h-67z" />
    <glyph glyph-name="U" unicode="U" horiz-adv-x="579" 
d="M134 539v-349c0 -112 32 -141 155 -141s155 29 155 141v349h67v-367c0 -132 -63 -186 -222 -186s-222 54 -222 186v367h67z" />
    <glyph glyph-name="V" unicode="V" horiz-adv-x="549" 
d="M295 0h-42l-260 539h73l208 -432l208 432h74z" />
    <glyph glyph-name="W" unicode="W" horiz-adv-x="720" 
d="M170 0l-176 539h66l134 -416l137 416h60l137 -415l134 415h64l-175 -539h-49l-142 434l-141 -434h-49z" />
    <glyph glyph-name="X" unicode="X" horiz-adv-x="549" 
d="M14 0l220 271l-217 268h82l177 -216l176 216h81l-217 -265l223 -274h-86l-179 222l-181 -222h-79z" />
    <glyph glyph-name="Y" unicode="Y" horiz-adv-x="454" 
d="M193 0v270l-243 269h84l193 -213l192 213h85l-244 -270v-269h-67z" />
    <glyph glyph-name="Z" unicode="Z" horiz-adv-x="509" 
d="M-2 0l364 477h-333v62h455l-356 -477h354v-62h-484z" />
    <glyph glyph-name="bracketleft" unicode="[" horiz-adv-x="273" 
d="M56 0v539h156v-58h-94v-423h94v-58h-156z" />
    <glyph glyph-name="backslash" unicode="\" horiz-adv-x="278" 
d="M238 -93l-257 644h59l257 -644h-59z" />
    <glyph glyph-name="bracketright" unicode="]" horiz-adv-x="273" 
d="M218 0h-157v58h94v423h-94v58h157v-539z" />
    <glyph glyph-name="asciicircum" unicode="^" horiz-adv-x="1000" 
d="M534 712l259 -272h-70l-223 222l-224 -222h-70l260 272h68z" />
    <glyph glyph-name="underscore" unicode="_" 
d="M500 -187v-49h-500v49h500z" />
    <glyph glyph-name="grave" unicode="`" 
d="M266 470l-131 171h74l102 -171h-45z" />
    <glyph glyph-name="a" unicode="a" horiz-adv-x="449" 
d="M142 161h163l-81 160zM-9 0l212 417h41l214 -417h-70l-54 106h-220l-54 -106h-69z" />
    <glyph glyph-name="b" unicode="b" horiz-adv-x="544" 
d="M326 356h-189v-98h190c42 0 63 16 63 49s-21 49 -64 49zM348 197h-211v-137h211c47 0 72 26 72 69s-25 68 -72 68zM72 0v416h256c86 0 129 -34 129 -103c0 -35 -13 -60 -40 -77c47 -27 70 -64 70 -111c0 -76 -51 -125 -146 -125h-269z" />
    <glyph glyph-name="c" unicode="c" horiz-adv-x="551" 
d="M460 138l52 -36c-47 -75 -125 -115 -225 -115c-148 0 -252 94 -252 220c0 125 104 221 252 221c92 0 169 -35 214 -98l-52 -36c-35 47 -91 74 -162 74c-108 0 -185 -68 -185 -160s78 -160 185 -160c73 0 131 30 173 90z" />
    <glyph glyph-name="d" unicode="d" horiz-adv-x="516" 
d="M72 417h185c141 0 227 -90 227 -210s-82 -207 -227 -207h-185v417zM258 357h-121v-297h121c104 0 159 61 159 148c0 84 -60 149 -159 149z" />
    <glyph glyph-name="e" unicode="e" horiz-adv-x="502" 
d="M71 0v417h391v-61h-326v-104h214v-60h-214v-132h344v-60h-409z" />
    <glyph glyph-name="f" unicode="f" horiz-adv-x="470" 
d="M136 192v-192h-65v417h385v-61h-320v-104h207v-60h-207z" />
    <glyph glyph-name="g" unicode="g" horiz-adv-x="574" 
d="M354 162v60h172v-126c-48 -72 -125 -109 -229 -109c-158 0 -262 96 -262 220s106 221 262 221c97 0 171 -33 221 -98l-50 -36c-35 47 -98 74 -171 74c-117 0 -195 -71 -195 -160s75 -160 195 -160c76 0 139 32 163 69v45h-106z" />
    <glyph glyph-name="h" unicode="h" horiz-adv-x="565" 
d="M136 194v-194h-65v417h65v-162h293v162h65v-417h-65v194h-293z" />
    <glyph glyph-name="i" unicode="i" horiz-adv-x="211" 
d="M72 -1v419h66v-419h-66z" />
    <glyph glyph-name="j" unicode="j" horiz-adv-x="447" 
d="M24 178h65v-44c0 -61 38 -87 119 -87c85 0 108 30 108 122v247h65v-268c0 -116 -52 -161 -181 -161c-119 0 -176 43 -176 138v53z" />
    <glyph glyph-name="k" unicode="k" horiz-adv-x="475" 
d="M72 0v416h65v-185l221 185h86l-175 -148l201 -268h-73l-174 230l-86 -73v-157h-65z" />
    <glyph glyph-name="l" unicode="l" horiz-adv-x="449" 
d="M71 0v417h65v-357h310v-60h-375z" />
    <glyph glyph-name="m" unicode="m" horiz-adv-x="593" 
d="M71 0v417h54l171 -244l171 244h54v-417h-65v300l-160 -232l-160 232v-300h-65z" />
    <glyph glyph-name="n" unicode="n" horiz-adv-x="507" 
d="M72 0v417h34l265 -293v293h64v-417h-34l-265 292v-292h-64z" />
    <glyph glyph-name="o" unicode="o" horiz-adv-x="581" 
d="M290 48c116 0 189 71 189 160s-74 160 -189 160c-114 0 -188 -70 -188 -160s74 -160 188 -160zM290 -13c-152 0 -255 97 -255 221s103 220 255 220c154 0 256 -96 256 -220s-102 -221 -256 -221z" />
    <glyph glyph-name="p" unicode="p" horiz-adv-x="532" 
d="M137 243h238c45 0 69 21 69 57c0 35 -23 56 -66 56h-241v-113zM137 182v-182h-65v417h303c87 0 136 -43 136 -116c0 -67 -48 -119 -129 -119h-245z" />
    <glyph glyph-name="q" unicode="q" horiz-adv-x="581" 
d="M340 100l33 -40c69 29 106 84 106 148c0 89 -74 160 -189 160c-114 0 -188 -70 -188 -160c0 -88 73 -160 183 -160h9c3 0 6 0 9 1l-42 51h79zM414 12l57 -69h-80l-41 49c-31 -3 -49 -5 -60 -5c-152 0 -255 97 -255 221s103 220 255 220c154 0 256 -96 256 -220
c0 -93 -56 -160 -132 -196z" />
    <glyph glyph-name="r" unicode="r" horiz-adv-x="542" 
d="M137 243h222c46 0 69 19 69 57c0 37 -23 56 -69 56h-222v-113zM137 182v-182h-65v416h287c85 0 136 -43 136 -116c0 -59 -39 -106 -103 -117l116 -183h-71l-118 182h-182z" />
    <glyph glyph-name="s" unicode="s" horiz-adv-x="495" 
d="M35 53l32 55c60 -40 131 -61 191 -61c79 0 124 36 124 81c0 49 -42 69 -130 72c-128 3 -199 20 -199 109c0 69 64 119 172 119c71 0 139 -20 202 -60l-33 -54c-55 36 -117 55 -170 55c-67 0 -105 -25 -105 -60c0 -40 42 -51 130 -51c134 0 201 -45 201 -134
c0 -75 -69 -137 -185 -137c-80 0 -162 23 -230 66z" />
    <glyph glyph-name="t" unicode="t" horiz-adv-x="405" 
d="M170 0v359h-176v58h417v-58h-176v-359h-65z" />
    <glyph glyph-name="u" unicode="u" horiz-adv-x="556" 
d="M72 416h65v-267c0 -82 31 -102 141 -102s141 20 141 102v267h65v-284c0 -104 -62 -145 -207 -145c-147 0 -205 42 -205 145v284z" />
    <glyph glyph-name="v" unicode="v" horiz-adv-x="472" 
d="M253 0h-34l-209 417h69l157 -312l154 312h72z" />
    <glyph glyph-name="w" unicode="w" horiz-adv-x="613" 
d="M150 0l-141 417h64l102 -305l105 305h54l105 -305l102 305h64l-140 -417h-47l-111 321l-111 -321h-46z" />
    <glyph glyph-name="x" unicode="x" horiz-adv-x="451" 
d="M10 0l175 209l-173 208h79l134 -160l134 160h80l-174 -206l176 -211h-79l-137 163l-138 -163h-77z" />
    <glyph glyph-name="y" unicode="y" horiz-adv-x="447" 
d="M191 0v213l-190 204h84l138 -148l136 148h87l-191 -203v-214h-64z" />
    <glyph glyph-name="z" unicode="z" horiz-adv-x="437" 
d="M17 0l270 356h-246v61h366l-272 -357h270v-60h-388z" />
    <glyph glyph-name="braceleft" unicode="{" 
d="M417 649h-18c-21 0 -62 0 -86 -24c-21 -23 -23 -61 -23 -100v-98c0 -57 -4 -106 -37 -137c-15 -15 -36 -25 -59 -30c21 -7 44 -18 59 -31c33 -31 37 -80 37 -137v-98c0 -39 2 -77 23 -100c24 -24 65 -24 86 -24h18v-52h-23c-44 0 -99 5 -131 37c-24 27 -33 73 -33 137
v105c0 45 -5 87 -32 111c-24 21 -63 26 -91 26c-9 0 -15 -1 -22 -1v53c7 0 13 -1 22 -1c28 0 67 5 91 26c27 24 32 66 32 111v105c0 64 9 110 33 137c32 32 87 37 131 37h23v-52z" />
    <glyph glyph-name="bar" unicode="|" 
d="M277 764v-1000h-53v1000h53z" />
    <glyph glyph-name="braceright" unicode="}" 
d="M84 649v52h23c44 0 99 -5 131 -37c24 -27 33 -73 33 -137v-105c0 -45 5 -87 32 -111c24 -21 63 -26 91 -26c9 0 15 1 22 1v-53c-7 0 -13 1 -22 1c-28 0 -67 -5 -91 -26c-27 -24 -32 -66 -32 -111v-105c0 -64 -9 -110 -33 -137c-32 -32 -87 -37 -131 -37h-23v52h18
c21 0 62 0 86 24c21 23 23 61 23 100v98c0 57 4 106 37 137c15 13 38 24 59 31c-23 5 -44 15 -59 30c-33 31 -37 80 -37 137v98c0 39 -2 77 -23 100c-24 24 -65 24 -86 24h-18z" />
    <glyph glyph-name="asciitilde" unicode="~" horiz-adv-x="761" 
d="M675 366v-55c-41 -36 -97 -70 -162 -70c-43 0 -83 12 -118 27l-30 12c-31 12 -67 28 -102 28c-25 0 -82 -5 -176 -78v55c72 56 129 71 174 71c44 0 81 -15 112 -28l32 -14c29 -13 66 -26 103 -26c25 0 86 5 167 78z" />
    <glyph glyph-name="uni00A0" unicode="&#xa0;" horiz-adv-x="333" 
 />
    <glyph glyph-name="exclamdown" unicode="&#xa1;" horiz-adv-x="333" 
d="M196 397l8 -399h-74l8 399h58zM167 462c-23 0 -41 18 -41 45s18 44 41 44s40 -17 40 -44s-17 -45 -40 -45z" />
    <glyph glyph-name="cent" unicode="&#xa2;" horiz-adv-x="667" 
d="M542 378l-53 -37c-24 39 -60 62 -107 71v-315c55 13 87 37 116 88l54 -36c-36 -66 -93 -104 -170 -113v-164h-58v163c-117 16 -195 105 -195 220c0 117 78 203 195 219v131h58v-132c69 -7 123 -39 160 -95zM324 98v315c-76 -13 -128 -77 -128 -158s48 -141 128 -157z" />
    <glyph glyph-name="sterling" unicode="&#xa3;" horiz-adv-x="667" 
d="M116 0l4 62h59l-14 162h-76v63h71l-5 42c-1 9 -2 19 -2 28c0 104 74 168 198 168c88 0 166 -32 242 -91l-40 -52c-75 52 -137 80 -200 80c-83 0 -134 -45 -134 -113c0 -9 1 -22 2 -34l3 -28h167v-63h-161l14 -162h351v-62h-479z" />
    <glyph glyph-name="currency" unicode="&#xa4;" horiz-adv-x="606" 
d="M461 433c0 85 -69 157 -157 157c-87 0 -159 -72 -159 -157c0 -87 72 -159 159 -159c88 0 157 73 157 159zM76 691l100 -100c39 29 81 44 127 44c48 0 91 -15 128 -44l100 100l32 -32l-100 -100c29 -39 43 -81 43 -127c0 -45 -14 -87 -43 -126l100 -101l-32 -32l-100 100
c-39 -29 -81 -44 -128 -44c-45 0 -88 15 -127 44l-100 -100l-32 32l100 101c-28 39 -44 79 -44 126s16 88 44 127l-100 100z" />
    <glyph glyph-name="yen" unicode="&#xa5;" horiz-adv-x="667" 
d="M463 371h128v-45h-167l-53 -56h220v-45h-226v-225h-65v225h-225v45h218l-50 56h-168v45h127l-138 153h82l187 -207l186 207h83z" />
    <glyph glyph-name="brokenbar" unicode="&#xa6;" 
d="M277 199v-370h-53v370h53zM277 699v-370h-53v370h53z" />
    <glyph glyph-name="section" unicode="&#xa7;" 
d="M115 37h64v-2c0 -43 26 -65 73 -65c39 0 64 20 64 53c0 35 -28 54 -84 85l-68 37c-51 28 -76 63 -76 106s22 79 67 108c-23 19 -34 44 -34 75c0 68 50 117 125 117c80 0 130 -44 130 -119v-4h-64c-1 41 -27 66 -66 66c-37 0 -59 -20 -59 -51c0 -28 19 -45 56 -65l93 -50
c51 -27 75 -60 75 -109c0 -47 -28 -91 -69 -107c26 -22 39 -49 39 -81c0 -66 -56 -120 -136 -120c-77 0 -130 48 -130 124v2zM222 196l83 -48c24 15 37 38 37 61c0 35 -23 50 -66 73l-81 46c-27 -15 -40 -34 -40 -56c0 -35 24 -51 67 -76z" />
    <glyph glyph-name="dieresis" unicode="&#xa8;" 
d="M285 525c0 24 19 44 43 44s44 -20 44 -44c0 -25 -20 -44 -44 -44s-43 19 -43 44zM128 525c0 24 20 44 44 44s43 -20 43 -44c0 -25 -19 -44 -43 -44s-44 19 -44 44z" />
    <glyph glyph-name="copyright" unicode="&#xa9;" horiz-adv-x="655" 
d="M461 223l39 -26c-35 -55 -92 -85 -164 -85c-109 0 -184 69 -184 161s75 161 184 161c68 0 123 -25 156 -72l-39 -25c-24 33 -66 53 -117 53c-80 0 -135 -49 -135 -117c0 -66 57 -116 135 -116c54 0 96 22 125 66zM572 269c0 67 -26 126 -70 173c-48 45 -107 73 -175 73
c-67 0 -125 -26 -172 -71c-47 -49 -72 -111 -72 -175c0 -65 26 -126 71 -173c47 -47 108 -71 173 -71s127 24 176 72c44 44 69 104 69 172zM327 560c79 0 151 -29 207 -85c55 -55 83 -126 83 -205s-28 -149 -83 -202c-57 -56 -130 -88 -207 -88c-76 0 -148 31 -204 87
s-85 127 -85 203c0 77 31 150 87 206c55 56 123 84 202 84z" />
    <glyph glyph-name="ordfeminine" unicode="&#xaa;" horiz-adv-x="294" 
d="M92 301h107l-53 96zM-8 204l140 250h27l141 -250h-46l-36 64h-145l-35 -64h-46z" />
    <glyph glyph-name="guillemotleft" unicode="&#xab;" horiz-adv-x="416" 
d="M181 41l-158 118v97l158 119v-71l-124 -96l124 -98v-69zM381 41l-158 118v97l158 119v-71l-124 -96l124 -98v-69z" />
    <glyph glyph-name="logicalnot" unicode="&#xac;" horiz-adv-x="833" 
d="M709 419v-245h-47v196h-538v49h585z" />
    <glyph glyph-name="uni00AD" unicode="&#xad;" horiz-adv-x="257" 
d="M23 298h211v-59h-211v59z" />
    <glyph glyph-name="registered" unicode="&#xae;" horiz-adv-x="655" 
d="M327 560c79 0 151 -29 207 -85c55 -55 83 -126 83 -205s-28 -149 -83 -202c-57 -56 -130 -88 -207 -88c-76 0 -148 31 -204 87s-85 127 -85 203c0 77 31 150 87 206c55 56 123 84 202 84zM572 269c0 67 -27 126 -70 173c-48 47 -107 73 -175 73c-67 0 -125 -26 -172 -71
c-47 -49 -72 -111 -72 -175c0 -65 26 -126 71 -173c48 -45 108 -71 173 -71s127 24 176 72c44 44 69 104 69 172zM227 295h162c33 0 50 14 50 42c0 27 -17 40 -50 40h-162v-82zM227 250v-132h-47v303h209c63 0 100 -31 100 -84c0 -43 -29 -78 -76 -86l84 -133h-52l-86 132
h-132z" />
    <glyph glyph-name="overscore" unicode="&#xaf;" 
d="M125 480v57h250v-57h-250z" />
    <glyph glyph-name="degree" unicode="&#xb0;" horiz-adv-x="329" 
d="M266 573c0 56 -45 102 -101 102s-102 -46 -102 -102s46 -101 102 -101s101 45 101 101zM165 709c75 0 135 -60 135 -136c0 -74 -60 -136 -136 -136s-135 60 -135 136s60 136 136 136z" />
    <glyph glyph-name="plusminus" unicode="&#xb1;" horiz-adv-x="761" 
d="M637 83v-48h-513v48h513zM405 524v-170h232v-48h-232v-160h-48v160h-233v48h233v170h48z" />
    <glyph glyph-name="twosuperior" unicode="&#xb2;" horiz-adv-x="437" 
d="M377 204h-303c0 23 -1 34 -1 38c0 61 21 95 100 120c100 32 151 39 151 71c0 27 -32 48 -84 48c-45 0 -89 -17 -137 -48l-27 31c52 36 103 55 160 55c84 0 134 -39 134 -86c0 -51 -48 -63 -121 -87c-95 -29 -131 -41 -131 -89v-8c0 -2 0 -5 1 -8h258v-37z" />
    <glyph glyph-name="threesuperior" unicode="&#xb3;" horiz-adv-x="437" 
d="M35 267l27 31c55 -45 100 -65 164 -65c81 0 129 32 129 67c0 37 -38 55 -113 55h-15v37c4 -1 8 -1 11 -1h11c55 0 80 11 80 42c0 27 -31 48 -86 48c-47 0 -93 -15 -138 -45l-27 33c49 33 104 50 167 50c81 0 130 -35 130 -86c0 -23 -10 -42 -31 -57c38 -15 57 -40 57 -75
c0 -53 -66 -105 -172 -105c-79 0 -138 20 -194 71z" />
    <glyph glyph-name="acute" unicode="&#xb4;" 
d="M234 470h-45l102 171h74z" />
    <glyph glyph-name="mu" unicode="&#xb5;" horiz-adv-x="546" 
d="M174 407l-37 -176c-4 -19 -9 -54 -9 -77s4 -57 29 -84s58 -30 83 -30c35 0 62 7 93 38c36 35 57 86 76 170l37 169h64l-54 -251c-13 -61 -15 -75 -15 -86s2 -18 7 -23s12 -8 21 -8c8 0 16 2 24 7l11 -57c-17 -7 -35 -10 -51 -10c-28 0 -44 8 -55 19c-15 15 -21 40 -21 59
c-13 -23 -34 -43 -58 -58c-25 -15 -58 -21 -87 -21c-33 0 -61 8 -86 23c-27 17 -39 38 -46 53l-56 -272h-64l130 615h64z" />
    <glyph glyph-name="mu" unicode="&#x3bc;" horiz-adv-x="546" 
d="M174 407l-37 -176c-4 -19 -9 -54 -9 -77s4 -57 29 -84s58 -30 83 -30c35 0 62 7 93 38c36 35 57 86 76 170l37 169h64l-54 -251c-13 -61 -15 -75 -15 -86s2 -18 7 -23s12 -8 21 -8c8 0 16 2 24 7l11 -57c-17 -7 -35 -10 -51 -10c-28 0 -44 8 -55 19c-15 15 -21 40 -21 59
c-13 -23 -34 -43 -58 -58c-25 -15 -58 -21 -87 -21c-33 0 -61 8 -86 23c-27 17 -39 38 -46 53l-56 -272h-64l130 615h64z" />
    <glyph glyph-name="paragraph" unicode="&#xb6;" horiz-adv-x="526" 
d="M485 678h-62v-678h-50v678h-98v-678h-50v382c-116 5 -184 73 -184 170c0 100 75 170 192 170h252v-44z" />
    <glyph glyph-name="middot" unicode="&#xb7;" horiz-adv-x="333" 
d="M125 261c0 24 18 42 41 42s43 -18 43 -42c0 -23 -19 -42 -43 -42c-23 0 -41 19 -41 42z" />
    <glyph glyph-name="cedilla" unicode="&#xb8;" 
d="M133 -204v37c59 -12 87 -17 115 -17c12 0 38 0 53 15c7 7 11 18 11 32c0 13 -4 23 -12 31c-13 13 -34 17 -57 17h-12c-4 0 -8 0 -12 -1v90h31v-54h10c47 0 72 -14 85 -27c17 -17 21 -38 21 -54c0 -31 -11 -50 -22 -61c-25 -27 -64 -28 -87 -28c-36 0 -73 5 -124 20z" />
    <glyph glyph-name="onesuperior" unicode="&#xb9;" horiz-adv-x="438" 
d="M195 202v311h45v-311h-45z" />
    <glyph glyph-name="ordmasculine" unicode="&#xba;" horiz-adv-x="381" 
d="M189 233c77 0 125 41 125 96c0 53 -49 96 -125 96s-124 -41 -124 -96s48 -96 124 -96zM189 196c-101 0 -168 59 -168 133c0 75 67 132 168 132c102 0 169 -57 169 -132c0 -76 -67 -133 -169 -133z" />
    <glyph glyph-name="guillemotright" unicode="&#xbb;" horiz-adv-x="416" 
d="M236 41v69l123 98l-123 96v71l157 -119v-97zM35 41v69l124 98l-124 96v71l158 -119v-97z" />
    <glyph glyph-name="onequarter" unicode="&#xbc;" horiz-adv-x="990" 
d="M670 105h194v136zM864 0v69h-259v36l259 182h42v-182h54v-36h-54v-69h-42zM669 524h62l-432 -538h-63zM186 222v290h43v-290h-43z" />
    <glyph glyph-name="onehalf" unicode="&#xbd;" horiz-adv-x="990" 
d="M932 0h-288c-1 19 -2 32 -2 36c0 57 21 88 96 111c94 29 144 39 144 67c0 24 -29 45 -80 45c-43 0 -84 -16 -131 -45l-25 29c49 34 99 51 152 51c80 0 128 -37 128 -81c0 -46 -47 -60 -120 -82c-75 -19 -121 -37 -121 -82c0 -3 1 -7 2 -14h245v-35zM669 524h62l-432 -538
h-63zM186 222v290h43v-290h-43z" />
    <glyph glyph-name="threequarters" unicode="&#xbe;" horiz-adv-x="1004" 
d="M684 105h194v136zM878 0v69h-259v36l259 182h42v-182h54v-36h-54v-69h-42zM683 524h62l-432 -538h-63zM33 283l26 28c51 -41 94 -60 157 -60c76 0 122 31 122 63c0 34 -36 51 -107 51h-15v34h22c51 0 76 13 76 38c0 27 -30 46 -83 46c-45 0 -88 -14 -131 -42l-26 31
c47 31 100 46 159 46c79 0 124 -33 124 -81c0 -21 -10 -39 -29 -53c37 -14 55 -37 55 -69c0 -51 -64 -99 -165 -99c-75 0 -132 20 -185 67z" />
    <glyph glyph-name="questiondown" unicode="&#xbf;" horiz-adv-x="361" 
d="M236 406v-87c0 -45 -20 -65 -41 -86l-83 -83c-15 -15 -18 -24 -18 -43c0 -35 30 -60 78 -60c53 0 89 27 100 75l62 -23c-20 -75 -74 -113 -162 -113c-92 0 -146 50 -146 127c0 32 13 57 38 81l85 83c13 13 20 33 20 59v70h67zM201 462c-23 0 -41 18 -41 45s18 44 41 44
s41 -17 41 -44s-18 -45 -41 -45z" />
    <glyph glyph-name="Agrave" unicode="&#xc0;" horiz-adv-x="588" 
d="M174 208h237l-119 239zM0 0l264 539h56l267 -539h-73l-73 145h-298l-71 -145h-72zM291 595l-131 171h74l102 -171h-45z" />
    <glyph glyph-name="Aacute" unicode="&#xc1;" horiz-adv-x="588" 
d="M174 208h237l-119 239zM0 0l264 539h56l267 -539h-73l-73 145h-298l-71 -145h-72zM299 595h-45l102 171h74z" />
    <glyph glyph-name="Acircumflex" unicode="&#xc2;" horiz-adv-x="588" 
d="M174 208h237l-119 239zM0 0l264 539h56l267 -539h-73l-73 145h-298l-71 -145h-72zM159 593l98 171h74l98 -171h-45l-90 129l-90 -129h-45z" />
    <glyph glyph-name="Atilde" unicode="&#xc3;" horiz-adv-x="588" 
d="M174 208h237l-119 239zM0 0l264 539h56l267 -539h-73l-73 145h-298l-71 -145h-72zM395 702h40c-17 -59 -48 -89 -93 -89c-9 0 -20 2 -32 5l-47 15c-7 3 -15 4 -26 4c-20 0 -35 -12 -45 -35h-39c15 59 48 89 95 89c10 0 19 -1 26 -4l47 -15c11 -4 20 -6 27 -6
c23 0 36 12 47 36z" />
    <glyph glyph-name="Adieresis" unicode="&#xc4;" horiz-adv-x="588" 
d="M174 208h237l-119 239zM0 0l264 539h56l267 -539h-73l-73 145h-298l-71 -145h-72zM329 665c0 24 19 44 43 44s44 -20 44 -44c0 -25 -20 -44 -44 -44s-43 19 -43 44zM172 665c0 24 20 44 44 44s43 -20 43 -44c0 -25 -19 -44 -43 -44s-44 19 -44 44z" />
    <glyph glyph-name="Aring" unicode="&#xc5;" horiz-adv-x="588" 
d="M174 208h237l-119 239zM0 0l264 539h56l267 -539h-73l-73 145h-298l-71 -145h-72zM221 715c0 -41 32 -73 73 -73c40 0 73 32 73 73s-33 74 -73 74c-41 0 -73 -33 -73 -74zM177 716c0 65 50 117 117 117c64 0 118 -52 118 -117c0 -64 -54 -118 -118 -118
c-67 0 -117 54 -117 118z" />
    <glyph glyph-name="AE" unicode="&#xc6;" horiz-adv-x="859" 
d="M414 0v145h-283l-85 -145h-71l313 539h73h477v-62h-357v-158h217v-62h-217v-195h380v-62h-447zM166 208h248v269h-91z" />
    <glyph glyph-name="Ccedilla" unicode="&#xc7;" horiz-adv-x="604" 
d="M511 172l54 -40c-16 -31 -44 -72 -97 -105c-47 -29 -91 -39 -132 -40v-41h10c35 0 67 -8 86 -28c9 -9 20 -25 20 -56c0 -20 -4 -40 -21 -57c-25 -25 -64 -29 -89 -29c-33 0 -68 5 -123 20v37c79 -17 110 -17 115 -17c16 0 37 3 48 11c7 4 16 14 16 37c0 20 -9 32 -24 39
c-12 7 -32 8 -49 8h-11c-3 0 -6 0 -9 -1v77c-91 3 -153 43 -189 79c-45 47 -78 117 -78 202c0 104 47 170 79 202c37 37 100 81 200 81c49 0 95 -10 138 -34c49 -27 79 -61 98 -92l-56 -40c-19 37 -45 58 -68 73c-28 19 -65 30 -112 30c-69 0 -116 -29 -144 -56
c-33 -31 -66 -84 -66 -164c0 -69 27 -126 63 -161s91 -58 147 -58c44 0 88 11 129 43c11 9 42 35 65 80z" />
    <glyph glyph-name="Egrave" unicode="&#xc8;" horiz-adv-x="546" 
d="M81 0v539h424v-62h-357v-158h216v-62h-216v-195h379v-62h-446zM289 595l-131 171h74l102 -171h-45z" />
    <glyph glyph-name="Eacute" unicode="&#xc9;" horiz-adv-x="546" 
d="M81 0v539h424v-62h-357v-158h216v-62h-216v-195h379v-62h-446zM289 595h-45l102 171h74z" />
    <glyph glyph-name="Ecircumflex" unicode="&#xca;" horiz-adv-x="546" 
d="M81 0v539h424v-62h-357v-158h216v-62h-216v-195h379v-62h-446zM165 593l98 171h74l98 -171h-45l-90 129l-90 -129h-45z" />
    <glyph glyph-name="Edieresis" unicode="&#xcb;" horiz-adv-x="546" 
d="M81 0v539h424v-62h-357v-158h216v-62h-216v-195h379v-62h-446zM330 665c0 24 19 44 43 44s44 -20 44 -44c0 -25 -20 -44 -44 -44s-43 19 -43 44zM173 665c0 24 20 44 44 44s43 -20 43 -44c0 -25 -19 -44 -43 -44s-44 19 -44 44z" />
    <glyph glyph-name="Igrave" unicode="&#xcc;" horiz-adv-x="231" 
d="M82 -2v541h68v-541h-68zM112 595l-131 171h74l102 -171h-45z" />
    <glyph glyph-name="Iacute" unicode="&#xcd;" horiz-adv-x="231" 
d="M82 -2v541h68v-541h-68zM125 595h-45l102 171h74z" />
    <glyph glyph-name="Icircumflex" unicode="&#xce;" horiz-adv-x="231" 
d="M82 -2v541h68v-541h-68zM-18 593l98 171h74l98 -171h-45l-90 129l-90 -129h-45z" />
    <glyph glyph-name="Idieresis" unicode="&#xcf;" horiz-adv-x="231" 
d="M82 -2v541h68v-541h-68zM152 665c0 24 19 44 43 44s44 -20 44 -44c0 -25 -20 -44 -44 -44s-43 19 -43 44zM-5 665c0 24 20 44 44 44s43 -20 43 -44c0 -25 -19 -44 -43 -44s-44 19 -44 44z" />
    <glyph glyph-name="Eth" unicode="&#xd0;" horiz-adv-x="669" 
d="M348 477h-164v-154h189v-56h-189v-205h164c139 0 214 87 214 207c0 121 -80 208 -214 208zM117 539h231c175 0 283 -115 283 -271c0 -155 -103 -268 -283 -268h-231v267h-116v56h116v216z" />
    <glyph glyph-name="Ntilde" unicode="&#xd1;" horiz-adv-x="613" 
d="M81 0v539h35l350 -403v403h67v-539h-34l-351 403v-403h-67zM407 702h40c-17 -59 -48 -89 -93 -89c-9 0 -20 2 -32 5l-47 15c-7 3 -15 4 -26 4c-20 0 -35 -12 -45 -35h-39c15 59 48 89 95 89c10 0 19 -1 26 -4l47 -15c11 -4 20 -6 27 -6c23 0 36 12 47 36z" />
    <glyph glyph-name="Ograve" unicode="&#xd2;" horiz-adv-x="634" 
d="M317 49c120 0 210 92 210 219c0 128 -90 220 -210 220s-210 -92 -210 -220s90 -219 210 -219zM317 -14c-161 0 -279 118 -279 282s118 283 279 283s280 -119 280 -283s-119 -282 -280 -282zM321 595l-131 171h74l102 -171h-45z" />
    <glyph glyph-name="Oacute" unicode="&#xd3;" horiz-adv-x="634" 
d="M317 49c120 0 210 92 210 219c0 128 -90 220 -210 220s-210 -92 -210 -220s90 -219 210 -219zM317 -14c-161 0 -279 118 -279 282s118 283 279 283s280 -119 280 -283s-119 -282 -280 -282zM314 595h-45l102 171h74z" />
    <glyph glyph-name="Ocircumflex" unicode="&#xd4;" horiz-adv-x="634" 
d="M317 49c120 0 210 92 210 219c0 128 -90 220 -210 220s-210 -92 -210 -220s90 -219 210 -219zM317 -14c-161 0 -279 118 -279 282s118 283 279 283s280 -119 280 -283s-119 -282 -280 -282zM182 593l98 171h74l98 -171h-45l-90 129l-90 -129h-45z" />
    <glyph glyph-name="Otilde" unicode="&#xd5;" horiz-adv-x="634" 
d="M317 49c120 0 210 92 210 219c0 128 -90 220 -210 220s-210 -92 -210 -220s90 -219 210 -219zM317 -14c-161 0 -279 118 -279 282s118 283 279 283s280 -119 280 -283s-119 -282 -280 -282zM418 702h40c-17 -59 -48 -89 -93 -89c-9 0 -20 2 -32 5l-47 15
c-7 3 -15 4 -26 4c-20 0 -35 -12 -45 -35h-39c15 59 48 89 95 89c10 0 19 -1 26 -4l47 -15c11 -4 20 -6 27 -6c23 0 36 12 47 36z" />
    <glyph glyph-name="Odieresis" unicode="&#xd6;" horiz-adv-x="634" 
d="M317 49c120 0 210 92 210 219c0 128 -90 220 -210 220s-210 -92 -210 -220s90 -219 210 -219zM317 -14c-161 0 -279 118 -279 282s118 283 279 283s280 -119 280 -283s-119 -282 -280 -282zM352 665c0 24 19 44 43 44s44 -20 44 -44c0 -25 -20 -44 -44 -44s-43 19 -43 44
zM195 665c0 24 20 44 44 44s43 -20 43 -44c0 -25 -19 -44 -43 -44s-44 19 -44 44z" />
    <glyph glyph-name="multiply" unicode="&#xd7;" horiz-adv-x="735" 
d="M183 477l186 -186l182 182l34 -34l-182 -182l186 -186l-34 -34l-186 186l-182 -182l-34 34l182 182l-186 186z" />
    <glyph glyph-name="Oslash" unicode="&#xd8;" horiz-adv-x="634" 
d="M490 565h77l-60 -85c59 -51 90 -127 90 -212c0 -164 -119 -282 -280 -282c-49 0 -95 12 -139 35l-34 -49h-77l60 85c-59 51 -89 126 -89 211c0 164 118 283 279 283c49 0 95 -12 139 -35zM167 111l252 352c-33 17 -67 25 -102 25c-120 0 -210 -92 -210 -220
c0 -63 19 -110 60 -157zM468 425l-253 -352c35 -17 66 -24 102 -24c120 0 210 92 210 219c0 61 -18 110 -59 157z" />
    <glyph glyph-name="Ugrave" unicode="&#xd9;" horiz-adv-x="579" 
d="M134 539v-349c0 -112 32 -141 155 -141s155 29 155 141v349h67v-367c0 -132 -63 -186 -222 -186s-222 54 -222 186v367h67zM305 595l-131 171h74l102 -171h-45z" />
    <glyph glyph-name="Uacute" unicode="&#xda;" horiz-adv-x="579" 
d="M134 539v-349c0 -112 32 -141 155 -141s155 29 155 141v349h67v-367c0 -132 -63 -186 -222 -186s-222 54 -222 186v367h67zM299 595h-45l102 171h74z" />
    <glyph glyph-name="Ucircumflex" unicode="&#xdb;" horiz-adv-x="579" 
d="M134 539v-349c0 -112 32 -141 155 -141s155 29 155 141v349h67v-367c0 -132 -63 -186 -222 -186s-222 54 -222 186v367h67zM155 593l98 171h74l98 -171h-45l-90 129l-90 -129h-45z" />
    <glyph glyph-name="Udieresis" unicode="&#xdc;" horiz-adv-x="579" 
d="M134 539v-349c0 -112 32 -141 155 -141s155 29 155 141v349h67v-367c0 -132 -63 -186 -222 -186s-222 54 -222 186v367h67zM327 665c0 24 19 44 43 44s44 -20 44 -44c0 -25 -20 -44 -44 -44s-43 19 -43 44zM170 665c0 24 20 44 44 44s43 -20 43 -44
c0 -25 -19 -44 -43 -44s-44 19 -44 44z" />
    <glyph glyph-name="Yacute" unicode="&#xdd;" horiz-adv-x="454" 
d="M193 0v270l-243 269h84l193 -213l192 213h85l-244 -270v-269h-67zM239 595h-45l102 171h74z" />
    <glyph glyph-name="Thorn" unicode="&#xde;" horiz-adv-x="586" 
d="M145 372v-179h238c68 0 103 32 103 89c0 56 -35 90 -100 90h-241zM78 539h67v-105h242c107 0 169 -55 169 -150c0 -85 -58 -153 -160 -153h-251v-131h-67v539z" />
    <glyph glyph-name="germandbls" unicode="&#xdf;" horiz-adv-x="960" 
d="M35 53l32 55c60 -40 131 -61 191 -61c79 0 124 36 124 81c0 49 -42 69 -130 72c-128 3 -199 20 -199 109c0 69 64 119 172 119c71 0 139 -20 202 -60l-33 -54c-55 36 -117 55 -170 55c-67 0 -105 -25 -105 -60c0 -40 42 -51 130 -51c134 0 201 -45 201 -134
c0 -75 -69 -137 -185 -137c-80 0 -162 23 -230 66zM500 53l32 55c60 -40 131 -61 191 -61c79 0 124 36 124 81c0 49 -42 69 -130 72c-128 3 -199 20 -199 109c0 69 64 119 172 119c71 0 139 -20 202 -60l-33 -54c-55 36 -117 55 -170 55c-67 0 -105 -25 -105 -60
c0 -40 42 -51 130 -51c134 0 201 -45 201 -134c0 -75 -69 -137 -185 -137c-80 0 -162 23 -230 66z" />
    <glyph glyph-name="agrave" unicode="&#xe0;" horiz-adv-x="449" 
d="M142 161h163l-81 160zM-9 0l212 417h41l214 -417h-70l-54 106h-220l-54 -106h-69zM212 470l-131 171h74l102 -171h-45z" />
    <glyph glyph-name="aacute" unicode="&#xe1;" horiz-adv-x="449" 
d="M142 161h163l-81 160zM-9 0l212 417h41l214 -417h-70l-54 106h-220l-54 -106h-69zM249 470h-45l102 171h74z" />
    <glyph glyph-name="acircumflex" unicode="&#xe2;" horiz-adv-x="449" 
d="M142 161h163l-81 160zM-9 0l212 417h41l214 -417h-70l-54 106h-220l-54 -106h-69zM91 453l98 171h74l98 -171h-45l-90 129l-90 -129h-45z" />
    <glyph glyph-name="atilde" unicode="&#xe3;" horiz-adv-x="449" 
d="M142 161h163l-81 160zM-9 0l212 417h41l214 -417h-70l-54 106h-220l-54 -106h-69zM327 577h40c-17 -59 -48 -89 -93 -89c-9 0 -20 2 -32 5l-47 15c-7 3 -15 4 -26 4c-20 0 -35 -12 -45 -35h-39c15 59 48 89 95 89c10 0 19 -1 26 -4l47 -15c11 -4 20 -6 27 -6
c23 0 36 12 47 36z" />
    <glyph glyph-name="adieresis" unicode="&#xe4;" horiz-adv-x="449" 
d="M142 161h163l-81 160zM-9 0l212 417h41l214 -417h-70l-54 106h-220l-54 -106h-69zM261 525c0 24 19 44 43 44s44 -20 44 -44c0 -25 -20 -44 -44 -44s-43 19 -43 44zM104 525c0 24 20 44 44 44s43 -20 43 -44c0 -25 -19 -44 -43 -44s-44 19 -44 44z" />
    <glyph glyph-name="aring" unicode="&#xe5;" horiz-adv-x="449" 
d="M142 161h163l-81 160zM-9 0l212 417h41l214 -417h-70l-54 106h-220l-54 -106h-69zM161 549c0 -35 28 -63 63 -63s63 28 63 63s-28 64 -63 64s-63 -29 -63 -64zM124 550c0 55 43 100 100 100c56 0 101 -45 101 -100c0 -56 -45 -101 -101 -101c-57 0 -100 45 -100 101z" />
    <glyph glyph-name="ae" unicode="&#xe6;" horiz-adv-x="810" 
d="M157 161h222v195h-110zM123 106l-61 -106h-70l240 417h72h468v-61h-328v-104h213v-60h-213v-132h344v-60h-409v106h-256z" />
    <glyph glyph-name="ccedilla" unicode="&#xe7;" horiz-adv-x="551" 
d="M460 138l52 -36c-25 -38 -55 -66 -92 -85c-31 -16 -73 -27 -116 -30v-41h10c35 0 67 -8 86 -28c9 -9 20 -25 20 -56c0 -20 -4 -40 -21 -57c-25 -25 -64 -29 -89 -29c-33 0 -68 5 -123 20v37c79 -17 110 -17 115 -17c16 0 37 3 48 11c7 4 16 14 16 37c0 20 -9 32 -24 39
c-12 7 -32 8 -49 8h-11c-3 0 -6 0 -9 -1v77c-75 3 -138 32 -177 71c-35 35 -61 88 -61 149c0 59 23 112 63 151c24 21 81 70 189 70c56 0 98 -13 129 -28c40 -20 66 -45 85 -70l-52 -36c-16 23 -38 41 -71 56c-39 17 -76 18 -92 18c-55 0 -107 -19 -142 -55
c-24 -25 -42 -61 -42 -105c0 -43 18 -80 42 -105c29 -31 79 -55 143 -55c49 0 86 13 113 32c24 16 45 38 60 58z" />
    <glyph glyph-name="egrave" unicode="&#xe8;" horiz-adv-x="502" 
d="M71 0v417h391v-61h-326v-104h214v-60h-214v-132h344v-60h-409zM267 470l-131 171h74l102 -171h-45z" />
    <glyph glyph-name="eacute" unicode="&#xe9;" horiz-adv-x="502" 
d="M71 0v417h391v-61h-326v-104h214v-60h-214v-132h344v-60h-409zM269 470h-45l102 171h74z" />
    <glyph glyph-name="ecircumflex" unicode="&#xea;" horiz-adv-x="502" 
d="M71 0v417h391v-61h-326v-104h214v-60h-214v-132h344v-60h-409zM135 453l98 171h74l98 -171h-45l-90 129l-90 -129h-45z" />
    <glyph glyph-name="edieresis" unicode="&#xeb;" horiz-adv-x="502" 
d="M71 0v417h391v-61h-326v-104h214v-60h-214v-132h344v-60h-409zM305 525c0 24 19 44 43 44s44 -20 44 -44c0 -25 -20 -44 -44 -44s-43 19 -43 44zM148 525c0 24 20 44 44 44s43 -20 43 -44c0 -25 -19 -44 -43 -44s-44 19 -44 44z" />
    <glyph glyph-name="igrave" unicode="&#xec;" horiz-adv-x="211" 
d="M72 -1v419h66v-419h-66zM102 470l-131 171h74l102 -171h-45z" />
    <glyph glyph-name="iacute" unicode="&#xed;" horiz-adv-x="211" 
d="M72 -1v419h66v-419h-66zM115 470h-45l102 171h74z" />
    <glyph glyph-name="icircumflex" unicode="&#xee;" horiz-adv-x="211" 
d="M72 -1v419h66v-419h-66zM-32 453l98 171h74l98 -171h-45l-90 129l-90 -129h-45z" />
    <glyph glyph-name="idieresis" unicode="&#xef;" horiz-adv-x="211" 
d="M72 -1v419h66v-419h-66zM142 525c0 24 19 44 43 44s44 -20 44 -44c0 -25 -20 -44 -44 -44s-43 19 -43 44zM-15 525c0 24 20 44 44 44s43 -20 43 -44c0 -25 -19 -44 -43 -44s-44 19 -44 44z" />
    <glyph glyph-name="eth" unicode="&#xf0;" horiz-adv-x="544" 
d="M433 201c-19 17 -48 37 -73 49c-31 15 -69 23 -104 23c-42 0 -77 -10 -104 -30c-31 -23 -47 -53 -47 -84c0 -29 12 -58 35 -77c27 -24 69 -34 104 -34c47 0 95 14 128 45c29 27 52 71 61 108zM145 437l-6 55c25 4 52 7 77 7c44 0 81 -6 110 -13l86 59l27 -35l-63 -43
c36 -19 68 -47 87 -74c28 -40 41 -91 41 -136c0 -73 -27 -150 -76 -201s-108 -69 -177 -69c-56 0 -112 12 -153 44c-36 28 -62 75 -62 132c0 40 17 93 74 132c43 29 90 39 141 39c41 0 74 -7 109 -20c28 -11 57 -29 80 -45c0 27 -5 70 -44 111c-19 21 -44 37 -73 47l-92 -66
l-26 38l65 42c-15 3 -32 4 -51 4c-23 0 -46 -1 -74 -8z" />
    <glyph glyph-name="ntilde" unicode="&#xf1;" horiz-adv-x="507" 
d="M72 0v417h34l265 -293v293h64v-417h-34l-265 292v-292h-64zM351 577h40c-17 -59 -48 -89 -93 -89c-9 0 -20 2 -32 5l-47 15c-7 3 -15 4 -26 4c-20 0 -35 -12 -45 -35h-39c15 59 48 89 95 89c10 0 19 -1 26 -4l47 -15c11 -4 20 -6 27 -6c23 0 36 12 47 36z" />
    <glyph glyph-name="ograve" unicode="&#xf2;" horiz-adv-x="581" 
d="M290 48c116 0 189 71 189 160s-74 160 -189 160c-114 0 -188 -70 -188 -160s74 -160 188 -160zM290 -13c-152 0 -255 97 -255 221s103 220 255 220c154 0 256 -96 256 -220s-102 -221 -256 -221zM296 470l-131 171h74l102 -171h-45z" />
    <glyph glyph-name="oacute" unicode="&#xf3;" horiz-adv-x="581" 
d="M290 48c116 0 189 71 189 160s-74 160 -189 160c-114 0 -188 -70 -188 -160s74 -160 188 -160zM290 -13c-152 0 -255 97 -255 221s103 220 255 220c154 0 256 -96 256 -220s-102 -221 -256 -221zM304 470h-45l102 171h74z" />
    <glyph glyph-name="ocircumflex" unicode="&#xf4;" horiz-adv-x="581" 
d="M290 48c116 0 189 71 189 160s-74 160 -189 160c-114 0 -188 -70 -188 -160s74 -160 188 -160zM290 -13c-152 0 -255 97 -255 221s103 220 255 220c154 0 256 -96 256 -220s-102 -221 -256 -221zM155 453l98 171h74l98 -171h-45l-90 129l-90 -129h-45z" />
    <glyph glyph-name="otilde" unicode="&#xf5;" horiz-adv-x="581" 
d="M290 48c116 0 189 71 189 160s-74 160 -189 160c-114 0 -188 -70 -188 -160s74 -160 188 -160zM290 -13c-152 0 -255 97 -255 221s103 220 255 220c154 0 256 -96 256 -220s-102 -221 -256 -221zM401 577h40c-17 -59 -48 -89 -93 -89c-9 0 -20 2 -32 5l-47 15
c-7 3 -15 4 -26 4c-20 0 -35 -12 -45 -35h-39c15 59 48 89 95 89c10 0 19 -1 26 -4l47 -15c11 -4 20 -6 27 -6c23 0 36 12 47 36z" />
    <glyph glyph-name="odieresis" unicode="&#xf6;" horiz-adv-x="581" 
d="M290 48c116 0 189 71 189 160s-74 160 -189 160c-114 0 -188 -70 -188 -160s74 -160 188 -160zM290 -13c-152 0 -255 97 -255 221s103 220 255 220c154 0 256 -96 256 -220s-102 -221 -256 -221zM325 525c0 24 19 44 43 44s44 -20 44 -44c0 -25 -20 -44 -44 -44
s-43 19 -43 44zM168 525c0 24 20 44 44 44s43 -20 43 -44c0 -25 -19 -44 -43 -44s-44 19 -44 44z" />
    <glyph glyph-name="divide" unicode="&#xf7;" horiz-adv-x="781" 
d="M391 153c29 0 52 -23 52 -52c0 -28 -21 -52 -52 -52c-29 0 -52 23 -52 52s24 52 52 52zM657 287v-48h-533v48h533zM391 478c29 0 52 -24 52 -53c0 -28 -21 -52 -52 -52s-52 23 -52 52s24 53 52 53z" />
    <glyph glyph-name="oslash" unicode="&#xf8;" horiz-adv-x="534" 
d="M31 -19l67 77c-39 44 -55 93 -55 150c0 127 96 220 224 220c47 0 85 -10 125 -34l34 41h77l-67 -78c39 -44 55 -92 55 -149c0 -128 -96 -221 -224 -221c-47 0 -85 10 -125 34l-34 -40h-77zM140 106l213 243c-27 17 -54 23 -86 23c-91 0 -159 -69 -159 -164
c0 -38 11 -72 32 -102zM394 311l-212 -244c27 -16 53 -22 85 -22c93 0 160 69 160 163c0 40 -11 74 -33 103z" />
    <glyph glyph-name="ugrave" unicode="&#xf9;" horiz-adv-x="556" 
d="M72 416h65v-267c0 -82 31 -102 141 -102s141 20 141 102v267h65v-284c0 -104 -62 -145 -207 -145c-147 0 -205 42 -205 145v284zM294 470l-131 171h74l102 -171h-45z" />
    <glyph glyph-name="uacute" unicode="&#xfa;" horiz-adv-x="556" 
d="M72 416h65v-267c0 -82 31 -102 141 -102s141 20 141 102v267h65v-284c0 -104 -62 -145 -207 -145c-147 0 -205 42 -205 145v284zM262 470h-45l102 171h74z" />
    <glyph glyph-name="ucircumflex" unicode="&#xfb;" horiz-adv-x="556" 
d="M72 416h65v-267c0 -82 31 -102 141 -102s141 20 141 102v267h65v-284c0 -104 -62 -145 -207 -145c-147 0 -205 42 -205 145v284zM143 453l98 171h74l98 -171h-45l-90 129l-90 -129h-45z" />
    <glyph glyph-name="udieresis" unicode="&#xfc;" horiz-adv-x="556" 
d="M72 416h65v-267c0 -82 31 -102 141 -102s141 20 141 102v267h65v-284c0 -104 -62 -145 -207 -145c-147 0 -205 42 -205 145v284zM313 525c0 24 19 44 43 44s44 -20 44 -44c0 -25 -20 -44 -44 -44s-43 19 -43 44zM156 525c0 24 20 44 44 44s43 -20 43 -44
c0 -25 -19 -44 -43 -44s-44 19 -44 44z" />
    <glyph glyph-name="yacute" unicode="&#xfd;" horiz-adv-x="447" 
d="M191 0v213l-190 204h84l138 -148l136 148h87l-191 -203v-214h-64zM239 470h-45l102 171h74z" />
    <glyph glyph-name="thorn" unicode="&#xfe;" horiz-adv-x="532" 
d="M137 168h238c45 0 69 21 69 57c0 35 -23 56 -66 56h-241v-113zM137 107v-107h-65v417h65v-75h238c87 0 136 -43 136 -116c0 -67 -48 -119 -129 -119h-245z" />
    <glyph glyph-name="ydieresis" unicode="&#xff;" horiz-adv-x="447" 
d="M191 0v213l-190 204h84l138 -148l136 148h87l-191 -203v-214h-64zM260 525c0 24 19 44 43 44s44 -20 44 -44c0 -25 -20 -44 -44 -44s-43 19 -43 44zM103 525c0 24 20 44 44 44s43 -20 43 -44c0 -25 -19 -44 -43 -44s-44 19 -44 44z" />
    <glyph glyph-name="Amacron" unicode="&#x100;" horiz-adv-x="588" 
d="M174 208h237l-119 239zM0 0l264 539h56l267 -539h-73l-73 145h-298l-71 -145h-72zM165 626v57h250v-57h-250z" />
    <glyph glyph-name="amacron" unicode="&#x101;" horiz-adv-x="449" 
d="M142 161h163l-81 160zM-9 0l212 417h41l214 -417h-70l-54 106h-220l-54 -106h-69zM101 480v57h250v-57h-250z" />
    <glyph glyph-name="Abreve" unicode="&#x102;" horiz-adv-x="588" 
d="M174 208h237l-119 239zM0 0l264 539h56l267 -539h-73l-73 145h-298l-71 -145h-72zM160 708h37c4 -47 31 -67 90 -67s86 19 89 67h38c-5 -84 -43 -121 -127 -121c-83 0 -122 37 -127 121z" />
    <glyph glyph-name="abreve" unicode="&#x103;" horiz-adv-x="449" 
d="M142 161h163l-81 160zM-9 0l212 417h41l214 -417h-70l-54 106h-220l-54 -106h-69zM92 601h39c4 -51 34 -71 95 -71s90 20 94 71h40c-7 -89 -46 -128 -134 -128c-87 0 -127 39 -134 128z" />
    <glyph glyph-name="Aogonek" unicode="&#x104;" horiz-adv-x="588" 
d="M174 208h237l-119 239zM0 0l264 539h56l267 -539c-15 -13 -34 -33 -46 -49c-17 -23 -25 -45 -25 -66c0 -12 3 -24 10 -31c9 -9 31 -11 43 -11h37v-51h-35c-24 0 -61 2 -84 25c-11 11 -19 26 -19 51c0 32 15 57 32 78c16 20 38 39 57 54h-43l-73 145h-298l-71 -145h-72z
" />
    <glyph glyph-name="aogonek" unicode="&#x105;" horiz-adv-x="449" 
d="M428 0h-40l-54 106h-220l-54 -106h-69l212 417h41l214 -417c-47 -41 -71 -80 -71 -115c0 -31 14 -42 53 -42h37v-51h-35c-69 0 -103 23 -103 79c0 41 30 84 89 129zM142 161h163l-81 160z" />
    <glyph glyph-name="Cacute" unicode="&#x106;" horiz-adv-x="604" 
d="M511 172l54 -40c-51 -95 -139 -146 -248 -146c-161 0 -279 118 -279 282s118 283 279 283c100 0 185 -46 236 -126l-56 -40c-35 65 -101 103 -180 103c-120 0 -210 -92 -210 -220s90 -219 210 -219c84 0 151 42 194 123zM324 595h-45l102 171h74z" />
    <glyph glyph-name="cacute" unicode="&#x107;" horiz-adv-x="551" 
d="M460 138l52 -36c-47 -75 -125 -115 -225 -115c-148 0 -252 94 -252 220c0 125 104 221 252 221c92 0 169 -35 214 -98l-52 -36c-35 47 -91 74 -162 74c-108 0 -185 -68 -185 -160s78 -160 185 -160c73 0 131 30 173 90zM304 470h-45l102 171h74z" />
    <glyph glyph-name="Ccircumflex" unicode="&#x108;" horiz-adv-x="604" 
d="M511 172l54 -40c-51 -95 -139 -146 -248 -146c-161 0 -279 118 -279 282s118 283 279 283c100 0 185 -46 236 -126l-56 -40c-35 65 -101 103 -180 103c-120 0 -210 -92 -210 -220s90 -219 210 -219c84 0 151 42 194 123zM180 593l98 171h74l98 -171h-45l-90 129l-90 -129
h-45z" />
    <glyph glyph-name="ccircumflex" unicode="&#x109;" horiz-adv-x="551" 
d="M460 138l52 -36c-47 -75 -125 -115 -225 -115c-148 0 -252 94 -252 220c0 125 104 221 252 221c92 0 169 -35 214 -98l-52 -36c-35 47 -91 74 -162 74c-108 0 -185 -68 -185 -160s78 -160 185 -160c73 0 131 30 173 90zM150 453l98 171h74l98 -171h-45l-90 129l-90 -129
h-45z" />
    <glyph glyph-name="Cdotaccent" unicode="&#x10a;" horiz-adv-x="604" 
d="M511 172l54 -40c-51 -95 -139 -146 -248 -146c-161 0 -279 118 -279 282s118 283 279 283c100 0 185 -46 236 -126l-56 -40c-35 65 -101 103 -180 103c-120 0 -210 -92 -210 -220s90 -219 210 -219c84 0 151 42 194 123zM254 670c0 27 22 49 49 49s48 -22 48 -49
s-21 -48 -48 -48s-49 21 -49 48z" />
    <glyph glyph-name="cdotaccent" unicode="&#x10b;" horiz-adv-x="551" 
d="M460 138l52 -36c-47 -75 -125 -115 -225 -115c-148 0 -252 94 -252 220c0 125 104 221 252 221c92 0 169 -35 214 -98l-52 -36c-35 47 -91 74 -162 74c-108 0 -185 -68 -185 -160s78 -160 185 -160c73 0 131 30 173 90zM227 545c0 27 22 49 49 49s48 -22 48 -49
s-21 -48 -48 -48s-49 21 -49 48z" />
    <glyph glyph-name="Ccaron" unicode="&#x10c;" horiz-adv-x="604" 
d="M511 172l54 -40c-51 -95 -139 -146 -248 -146c-161 0 -279 118 -279 282s118 283 279 283c100 0 185 -46 236 -126l-56 -40c-35 65 -101 103 -180 103c-120 0 -210 -92 -210 -220s90 -219 210 -219c84 0 151 42 194 123zM180 773h45l90 -128l90 128h45l-98 -171h-74z" />
    <glyph glyph-name="ccaron" unicode="&#x10d;" horiz-adv-x="551" 
d="M460 138l52 -36c-47 -75 -125 -115 -225 -115c-148 0 -252 94 -252 220c0 125 104 221 252 221c92 0 169 -35 214 -98l-52 -36c-35 47 -91 74 -162 74c-108 0 -185 -68 -185 -160s78 -160 185 -160c73 0 131 30 173 90zM155 633h45l90 -128l90 128h45l-98 -171h-74z" />
    <glyph glyph-name="Dcaron" unicode="&#x10e;" horiz-adv-x="632" 
d="M312 477h-164v-415h164c139 0 214 87 214 207c0 121 -80 208 -214 208zM81 539h231c175 0 283 -115 283 -271c0 -155 -103 -268 -283 -268h-231v539zM165 773h45l90 -128l90 128h45l-98 -171h-74z" />
    <glyph glyph-name="dcaron" unicode="&#x10f;" horiz-adv-x="516" 
d="M72 417h185c141 0 227 -90 227 -210s-82 -207 -227 -207h-185v417zM258 357h-121v-297h121c104 0 159 61 159 148c0 84 -60 149 -159 149zM123 633h45l90 -128l90 128h45l-98 -171h-74z" />
    <glyph glyph-name="Dcroat" unicode="&#x110;" horiz-adv-x="669" 
d="M348 477h-164v-154h189v-56h-189v-205h164c139 0 214 87 214 207c0 121 -80 208 -214 208zM117 539h231c175 0 283 -115 283 -271c0 -155 -103 -268 -283 -268h-231v267h-116v56h116v216z" />
    <glyph glyph-name="dslash" unicode="&#x111;" horiz-adv-x="531" 
d="M87 417h185c141 0 227 -90 227 -210s-82 -207 -227 -207h-185v194h-82v54h82v169zM273 357h-121v-109h157v-54h-157v-134h121c104 0 159 61 159 148c0 84 -60 149 -159 149z" />
    <glyph glyph-name="Emacron" unicode="&#x112;" horiz-adv-x="546" 
d="M81 0v539h424v-62h-357v-158h216v-62h-216v-195h379v-62h-446zM170 626v57h250v-57h-250z" />
    <glyph glyph-name="emacron" unicode="&#x113;" horiz-adv-x="502" 
d="M71 0v417h391v-61h-326v-104h214v-60h-214v-132h344v-60h-409zM145 480v57h250v-57h-250z" />
    <glyph glyph-name="Edotaccent" unicode="&#x116;" horiz-adv-x="546" 
d="M81 0v539h424v-62h-357v-158h216v-62h-216v-195h379v-62h-446zM246 670c0 27 22 49 49 49s48 -22 48 -49s-21 -48 -48 -48s-49 21 -49 48z" />
    <glyph glyph-name="edotaccent" unicode="&#x117;" horiz-adv-x="502" 
d="M71 0v417h391v-61h-326v-104h214v-60h-214v-132h344v-60h-409zM216 545c0 27 22 49 49 49s48 -22 48 -49s-21 -48 -48 -48s-49 21 -49 48z" />
    <glyph glyph-name="Eogonek" unicode="&#x118;" horiz-adv-x="546" 
d="M81 0v539h424v-62h-357v-158h216v-62h-216v-195h379v-62c-15 -13 -34 -33 -46 -49c-17 -23 -25 -45 -25 -66c0 -12 3 -24 10 -31c9 -9 31 -11 43 -11h37v-51h-35c-24 0 -61 2 -84 25c-11 11 -19 26 -19 51c0 32 15 57 32 78c16 20 38 39 57 54h-416z" />
    <glyph glyph-name="eogonek" unicode="&#x119;" horiz-adv-x="502" 
d="M71 0v417h391v-61h-326v-104h214v-60h-214v-132h344v-60c-15 -13 -34 -33 -46 -49c-17 -23 -25 -45 -25 -66c0 -12 3 -24 10 -31c9 -9 31 -11 43 -11h37v-51h-35c-24 0 -61 2 -84 25c-11 11 -19 26 -19 51c0 32 15 57 32 78c16 20 38 39 57 54h-379z" />
    <glyph glyph-name="Ecaron" unicode="&#x11a;" horiz-adv-x="546" 
d="M81 0v539h424v-62h-357v-158h216v-62h-216v-195h379v-62h-446zM160 773h45l90 -128l90 128h45l-98 -171h-74z" />
    <glyph glyph-name="ecaron" unicode="&#x11b;" horiz-adv-x="502" 
d="M71 0v417h391v-61h-326v-104h214v-60h-214v-132h344v-60h-409zM140 633h45l90 -128l90 128h45l-98 -171h-74z" />
    <glyph glyph-name="Gcircumflex" unicode="&#x11c;" horiz-adv-x="618" 
d="M494 146v79h-147v62h214v-162c-52 -91 -137 -139 -244 -139c-161 0 -279 118 -279 282s118 283 279 283c100 0 185 -46 236 -126l-56 -40c-35 65 -101 103 -180 103c-120 0 -210 -92 -210 -220s90 -219 210 -219c75 0 134 32 177 97zM180 593l98 171h74l98 -171h-45
l-90 129l-90 -129h-45z" />
    <glyph glyph-name="gcircumflex" unicode="&#x11d;" horiz-adv-x="574" 
d="M354 162v60h172v-126c-48 -72 -125 -109 -229 -109c-158 0 -262 96 -262 220s106 221 262 221c97 0 171 -33 221 -98l-50 -36c-35 47 -98 74 -171 74c-117 0 -195 -71 -195 -160s75 -160 195 -160c76 0 139 32 163 69v45h-106zM160 453l98 171h74l98 -171h-45l-90 129
l-90 -129h-45z" />
    <glyph glyph-name="Gbreve" unicode="&#x11e;" horiz-adv-x="618" 
d="M494 146v79h-147v62h214v-162c-52 -91 -137 -139 -244 -139c-161 0 -279 118 -279 282s118 283 279 283c100 0 185 -46 236 -126l-56 -40c-35 65 -101 103 -180 103c-120 0 -210 -92 -210 -220s90 -219 210 -219c75 0 134 32 177 97zM186 708h37c4 -47 31 -67 90 -67
s86 19 89 67h38c-5 -84 -43 -121 -127 -121c-83 0 -122 37 -127 121z" />
    <glyph glyph-name="gbreve" unicode="&#x11f;" horiz-adv-x="574" 
d="M354 162v60h172v-126c-48 -72 -125 -109 -229 -109c-158 0 -262 96 -262 220s106 221 262 221c97 0 171 -33 221 -98l-50 -36c-35 47 -98 74 -171 74c-117 0 -195 -71 -195 -160s75 -160 195 -160c76 0 139 32 163 69v45h-106zM161 601h39c4 -51 34 -71 95 -71
s90 20 94 71h40c-7 -89 -46 -128 -134 -128c-87 0 -127 39 -134 128z" />
    <glyph glyph-name="Gdotaccent" unicode="&#x120;" horiz-adv-x="618" 
d="M494 146v79h-147v62h214v-162c-52 -91 -137 -139 -244 -139c-161 0 -279 118 -279 282s118 283 279 283c100 0 185 -46 236 -126l-56 -40c-35 65 -101 103 -180 103c-120 0 -210 -92 -210 -220s90 -219 210 -219c75 0 134 32 177 97zM260 670c0 27 22 49 49 49
s48 -22 48 -49s-21 -48 -48 -48s-49 21 -49 48z" />
    <glyph glyph-name="gdotaccent" unicode="&#x121;" horiz-adv-x="574" 
d="M354 162v60h172v-126c-48 -72 -125 -109 -229 -109c-158 0 -262 96 -262 220s106 221 262 221c97 0 171 -33 221 -98l-50 -36c-35 47 -98 74 -171 74c-117 0 -195 -71 -195 -160s75 -160 195 -160c76 0 139 32 163 69v45h-106zM238 545c0 27 22 49 49 49s48 -22 48 -49
s-21 -48 -48 -48s-49 21 -49 48z" />
    <glyph glyph-name="Gcommaaccent" unicode="&#x122;" horiz-adv-x="618" 
d="M494 146v79h-147v62h214v-162c-52 -91 -137 -139 -244 -139c-161 0 -279 118 -279 282s118 283 279 283c100 0 185 -46 236 -126l-56 -40c-35 65 -101 103 -180 103c-120 0 -210 -92 -210 -220s90 -219 210 -219c75 0 134 32 177 97zM299 -236l-17 16c7 11 16 29 23 40
c7 12 11 23 14 38h-2c-6 0 -12 1 -17 4c-3 1 -5 3 -6 4c-8 7 -12 20 -12 32c0 16 5 28 14 36c7 7 15 10 26 10s20 -5 29 -14c13 -15 15 -32 15 -44c0 -23 -7 -45 -20 -66c-17 -28 -38 -48 -47 -56z" />
    <glyph glyph-name="gcommaaccent" unicode="&#x123;" horiz-adv-x="574" 
d="M315 653l17 -16c-24 -39 -32 -57 -37 -78h2c12 0 35 -7 35 -40s-21 -46 -40 -46c-21 0 -44 19 -44 58c0 50 38 98 67 122zM354 162v60h172v-126c-15 -20 -38 -51 -81 -74c-33 -19 -81 -35 -148 -35c-100 0 -165 37 -204 77c-35 35 -58 84 -58 143c0 53 17 105 64 149
c39 37 103 72 199 72c19 0 74 -1 127 -25c29 -13 62 -34 93 -73l-50 -36c-19 23 -43 41 -71 54c-31 13 -63 20 -98 20c-72 0 -124 -25 -155 -57c-28 -29 -42 -64 -42 -104c0 -41 14 -76 43 -103c28 -28 75 -56 152 -56c35 0 68 6 103 21c25 11 43 24 60 48v45h-106z" />
    <glyph glyph-name="Hcircumflex" unicode="&#x124;" horiz-adv-x="616" 
d="M81 0v539h68v-213h318v213h67v-539h-67v264h-318v-264h-68zM173 593l98 171h74l98 -171h-45l-90 129l-90 -129h-45z" />
    <glyph glyph-name="hcircumflex" unicode="&#x125;" horiz-adv-x="565" 
d="M136 194v-194h-65v417h65v-162h293v162h65v-417h-65v194h-293zM149 453l98 171h74l98 -171h-45l-90 129l-90 -129h-45z" />
    <glyph glyph-name="Hbar" unicode="&#x126;" horiz-adv-x="616" 
d="M22 402v57h59v80h68v-80h318v80h67v-80h59v-57h-59v-402h-67v264h-318v-264h-68v402h-59zM149 326h318v76h-318v-76z" />
    <glyph glyph-name="hbar" unicode="&#x127;" horiz-adv-x="565" 
d="M18 330v52h53v35h65v-35h293v35h65v-35h53v-52h-53v-330h-65v194h-293v-194h-65v330h-53zM136 255h293v75h-293v-75z" />
    <glyph glyph-name="Imacron" unicode="&#x12a;" horiz-adv-x="231" 
d="M82 -2v541h68v-541h-68zM-8 626v57h250v-57h-250z" />
    <glyph glyph-name="imacron" unicode="&#x12b;" horiz-adv-x="211" 
d="M72 -1v419h66v-419h-66zM-18 480v57h250v-57h-250z" />
    <glyph glyph-name="Iogonek" unicode="&#x12e;" horiz-adv-x="231" 
d="M82 -2v544h68v-544c-11 -11 -33 -31 -45 -47c-13 -17 -25 -42 -25 -66c0 -12 3 -24 10 -31c9 -9 31 -11 43 -11h37v-51h-35c-24 0 -61 2 -84 25c-11 11 -19 26 -19 51c0 35 15 58 32 78s39 40 54 52h-36z" />
    <glyph glyph-name="iogonek" unicode="&#x12f;" horiz-adv-x="211" 
d="M72 -1v419h66v-419c-47 -41 -70 -79 -70 -114c0 -31 14 -42 53 -42h37v-51h-35c-69 0 -103 23 -103 79c0 41 29 83 88 128h-36z" />
    <glyph glyph-name="Idot" unicode="&#x130;" horiz-adv-x="231" 
d="M82 -2v541h68v-541h-68zM68 670c0 27 22 49 49 49s48 -22 48 -49s-21 -48 -48 -48s-49 21 -49 48z" />
    <glyph glyph-name="dotlessi" unicode="&#x131;" horiz-adv-x="211" 
d="M72 -1v419h66v-419h-66z" />
    <glyph glyph-name="Jcircumflex" unicode="&#x134;" horiz-adv-x="537" 
d="M19 232h67v-84c0 -72 51 -99 163 -99c117 0 147 34 147 141v349h67v-367c0 -132 -63 -186 -226 -186c-148 0 -218 51 -218 160v86zM294 593l98 171h74l98 -171h-45l-90 129l-90 -129h-45z" />
    <glyph glyph-name="jcircumflex" unicode="&#x135;" horiz-adv-x="447" 
d="M24 178h65v-44c0 -61 38 -87 119 -87c85 0 108 30 108 122v247h65v-268c0 -116 -52 -161 -181 -161c-119 0 -176 43 -176 138v53zM215 453l98 171h74l98 -171h-45l-90 129l-90 -129h-45z" />
    <glyph glyph-name="Kcommaaccent" unicode="&#x136;" horiz-adv-x="586" 
d="M81 0v539h67v-268l309 268h88l-218 -191l251 -348h-81l-218 302l-131 -110v-192h-67zM299 -236l-17 16c7 11 16 29 23 40c7 12 11 23 14 38h-2c-6 0 -12 1 -17 4c-3 1 -5 3 -6 4c-8 7 -12 20 -12 32c0 16 5 28 14 36c7 7 15 10 26 10s20 -5 29 -14c13 -15 15 -32 15 -44
c0 -23 -7 -45 -20 -66c-17 -28 -38 -48 -47 -56z" />
    <glyph glyph-name="kcommaaccent" unicode="&#x137;" horiz-adv-x="475" 
d="M72 0v416h65v-185l221 185h86l-175 -148l201 -268h-73l-174 230l-86 -73v-157h-65zM249 -236l-17 16c7 11 16 29 23 40c7 12 11 23 14 38h-2c-6 0 -12 1 -17 4c-3 1 -5 3 -6 4c-8 7 -12 20 -12 32c0 16 5 28 14 36c7 7 15 10 26 10s20 -5 29 -14c13 -15 15 -32 15 -44
c0 -23 -7 -45 -20 -66c-17 -28 -38 -48 -47 -56z" />
    <glyph glyph-name="Lacute" unicode="&#x139;" 
d="M81 0v539h67v-477h352v-62h-419zM155 595h-45l102 171h74z" />
    <glyph glyph-name="lacute" unicode="&#x13a;" horiz-adv-x="449" 
d="M71 0v417h65v-357h310v-60h-375zM170 470h-45l102 171h74z" />
    <glyph glyph-name="Lcommaaccent" unicode="&#x13b;" 
d="M81 0v539h67v-477h352v-62h-419zM269 -236l-17 16c7 11 16 29 23 40c7 12 11 23 14 38h-2c-6 0 -12 1 -17 4c-3 1 -5 3 -6 4c-8 7 -12 20 -12 32c0 16 5 28 14 36c7 7 15 10 26 10s20 -5 29 -14c13 -15 15 -32 15 -44c0 -23 -7 -45 -20 -66c-17 -28 -38 -48 -47 -56z" />
    <glyph glyph-name="lcommaaccent" unicode="&#x13c;" horiz-adv-x="449" 
d="M71 0v417h65v-357h310v-60h-375zM239 -236l-17 16c7 11 16 29 23 40c7 12 11 23 14 38h-2c-6 0 -12 1 -17 4c-3 1 -5 3 -6 4c-8 7 -12 20 -12 32c0 16 5 28 14 36c7 7 15 10 26 10s20 -5 29 -14c13 -15 15 -32 15 -44c0 -23 -7 -45 -20 -66c-17 -28 -38 -48 -47 -56z" />
    <glyph glyph-name="Lcaron" unicode="&#x13d;" 
d="M81 0v539h67v-477h352v-62h-419zM254 363l-17 16c7 11 16 29 23 40c7 12 11 23 14 38h-2c-6 0 -12 1 -17 4c-3 1 -5 3 -6 4c-8 7 -12 20 -12 32c0 16 5 28 14 36c7 7 15 10 26 10s20 -5 29 -14c13 -15 15 -32 15 -44c0 -23 -7 -45 -20 -66c-17 -28 -38 -48 -47 -56z" />
    <glyph glyph-name="lcaron" unicode="&#x13e;" horiz-adv-x="449" 
d="M71 0v417h65v-357h310v-60h-375zM218 246l-17 16c7 11 16 29 23 40c7 12 11 23 14 38h-2c-6 0 -12 1 -17 4c-3 1 -5 3 -6 4c-8 7 -12 20 -12 32c0 16 5 28 14 36c7 7 15 10 26 10s20 -5 29 -14c13 -15 15 -32 15 -44c0 -23 -7 -45 -20 -66c-17 -28 -38 -48 -47 -56z" />
    <glyph glyph-name="Ldot" unicode="&#x13f;" 
d="M284 312c0 27 22 49 49 49s48 -22 48 -49s-21 -48 -48 -48s-49 21 -49 48zM81 0v539h67v-477h352v-62h-419z" />
    <glyph glyph-name="ldot" unicode="&#x140;" horiz-adv-x="449" 
d="M71 0v417h65v-357h310v-60h-375zM231 230c0 27 22 49 49 49s48 -22 48 -49s-21 -48 -48 -48s-49 21 -49 48z" />
    <glyph glyph-name="Lslash" unicode="&#x141;" horiz-adv-x="569" 
d="M150 0v245l-150 -85v64l150 85v230h67v-200l176 102v-64l-176 -102v-213h352v-62h-419z" />
    <glyph glyph-name="lslash" unicode="&#x142;" horiz-adv-x="468" 
d="M88 0v167l-88 -50v61l88 50v189h65v-152l136 79v-62l-136 -79v-143h311v-60h-376z" />
    <glyph glyph-name="Nacute" unicode="&#x143;" horiz-adv-x="613" 
d="M81 0v539h35l350 -403v403h67v-539h-34l-351 403v-403h-67zM309 595h-45l102 171h74z" />
    <glyph glyph-name="nacute" unicode="&#x144;" horiz-adv-x="507" 
d="M72 0v417h34l265 -293v293h64v-417h-34l-265 292v-292h-64zM254 470h-45l102 171h74z" />
    <glyph glyph-name="Ncommaaccent" unicode="&#x145;" horiz-adv-x="613" 
d="M81 0v539h35l350 -403v403h67v-539h-34l-351 403v-403h-67zM294 -236l-17 16c7 11 16 29 23 40c7 12 11 23 14 38h-2c-6 0 -12 1 -17 4c-3 1 -5 3 -6 4c-8 7 -12 20 -12 32c0 16 5 28 14 36c7 7 15 10 26 10s20 -5 29 -14c13 -15 15 -32 15 -44c0 -23 -7 -45 -20 -66
c-17 -28 -38 -48 -47 -56z" />
    <glyph glyph-name="ncommaaccent" unicode="&#x146;" horiz-adv-x="507" 
d="M72 0v417h34l265 -293v293h64v-417h-34l-265 292v-292h-64zM239 -236l-17 16c7 11 16 29 23 40c7 12 11 23 14 38h-2c-6 0 -12 1 -17 4c-3 1 -5 3 -6 4c-8 7 -12 20 -12 32c0 16 5 28 14 36c7 7 15 10 26 10s20 -5 29 -14c13 -15 15 -32 15 -44c0 -23 -7 -45 -20 -66
c-17 -28 -38 -48 -47 -56z" />
    <glyph glyph-name="Ncaron" unicode="&#x147;" horiz-adv-x="613" 
d="M81 0v539h35l350 -403v403h67v-539h-34l-351 403v-403h-67zM160 773h45l90 -128l90 128h45l-98 -171h-74z" />
    <glyph glyph-name="ncaron" unicode="&#x148;" horiz-adv-x="507" 
d="M72 0v417h34l265 -293v293h64v-417h-34l-265 292v-292h-64zM111 633h45l90 -128l90 128h45l-98 -171h-74z" />
    <glyph glyph-name="Omacron" unicode="&#x14c;" horiz-adv-x="634" 
d="M317 49c120 0 210 92 210 219c0 128 -90 220 -210 220s-210 -92 -210 -220s90 -219 210 -219zM317 -14c-161 0 -279 118 -279 282s118 283 279 283s280 -119 280 -283s-119 -282 -280 -282zM192 626v57h250v-57h-250z" />
    <glyph glyph-name="omacron" unicode="&#x14d;" horiz-adv-x="581" 
d="M290 48c116 0 189 71 189 160s-74 160 -189 160c-114 0 -188 -70 -188 -160s74 -160 188 -160zM290 -13c-152 0 -255 97 -255 221s103 220 255 220c154 0 256 -96 256 -220s-102 -221 -256 -221zM165 480v57h250v-57h-250z" />
    <glyph glyph-name="Obreve" unicode="&#x14e;" horiz-adv-x="634" 
d="M317 49c120 0 210 92 210 219c0 128 -90 220 -210 220s-210 -92 -210 -220s90 -219 210 -219zM317 -14c-161 0 -279 118 -279 282s118 283 279 283s280 -119 280 -283s-119 -282 -280 -282zM191 708h37c4 -47 31 -67 90 -67s86 19 89 67h38c-5 -84 -43 -121 -127 -121
c-83 0 -122 37 -127 121z" />
    <glyph glyph-name="obreve" unicode="&#x14f;" horiz-adv-x="581" 
d="M290 48c116 0 189 71 189 160s-74 160 -189 160c-114 0 -188 -70 -188 -160s74 -160 188 -160zM290 -13c-152 0 -255 97 -255 221s103 220 255 220c154 0 256 -96 256 -220s-102 -221 -256 -221zM156 601h39c4 -51 34 -71 95 -71s90 20 94 71h40
c-7 -89 -46 -128 -134 -128c-87 0 -127 39 -134 128z" />
    <glyph glyph-name="Ohungarumlaut" unicode="&#x150;" horiz-adv-x="634" 
d="M317 49c120 0 210 92 210 219c0 128 -90 220 -210 220s-210 -92 -210 -220s90 -219 210 -219zM317 -14c-161 0 -279 118 -279 282s118 283 279 283s280 -119 280 -283s-119 -282 -280 -282zM346 597l82 171h65l-111 -171h-36zM231 597l73 171h65l-102 -171h-36z" />
    <glyph glyph-name="ohungarumlaut" unicode="&#x151;" horiz-adv-x="581" 
d="M290 48c116 0 189 71 189 160s-74 160 -189 160c-114 0 -188 -70 -188 -160s74 -160 188 -160zM290 -13c-152 0 -255 97 -255 221s103 220 255 220c154 0 256 -96 256 -220s-102 -221 -256 -221zM319 472l82 171h65l-111 -171h-36zM204 472l73 171h65l-102 -171h-36z" />
    <glyph glyph-name="OE" unicode="&#x152;" horiz-adv-x="986" 
d="M522 0v81c-51 -63 -119 -95 -205 -95c-161 0 -279 118 -279 282s118 283 279 283c89 0 152 -29 205 -96v84h425v-62h-357v-158h216v-62h-216v-195h379v-62h-447zM317 49c120 0 210 92 210 219c0 128 -90 220 -210 220s-210 -92 -210 -220s90 -219 210 -219z" />
    <glyph glyph-name="oe" unicode="&#x153;" horiz-adv-x="907" 
d="M476 417h392v-61h-327v-104h214v-60h-214v-132h344v-60h-409v54c-52 -47 -110 -67 -186 -67c-152 0 -255 97 -255 221s102 220 262 220c73 0 127 -18 179 -66v55zM290 48c116 0 189 71 189 160s-74 160 -189 160c-114 0 -188 -70 -188 -160s74 -160 188 -160z" />
    <glyph glyph-name="Racute" unicode="&#x154;" horiz-adv-x="597" 
d="M145 299h238c69 0 103 29 103 88c0 56 -35 90 -100 90h-241v-178zM78 0v539h309c107 0 169 -55 169 -150c0 -75 -49 -139 -128 -152l135 -237h-74l-135 236h-209v-236h-67zM314 595h-45l102 171h74z" />
    <glyph glyph-name="racute" unicode="&#x155;" horiz-adv-x="542" 
d="M137 243h222c46 0 69 19 69 57c0 37 -23 56 -69 56h-222v-113zM137 182v-182h-65v416h287c85 0 136 -43 136 -116c0 -59 -39 -106 -103 -117l116 -183h-71l-118 182h-182zM274 470h-45l102 171h74z" />
    <glyph glyph-name="Rcommaaccent" unicode="&#x156;" horiz-adv-x="597" 
d="M145 299h238c69 0 103 29 103 88c0 56 -35 90 -100 90h-241v-178zM78 0v539h309c107 0 169 -55 169 -150c0 -75 -49 -139 -128 -152l135 -237h-74l-135 236h-209v-236h-67zM294 -236l-17 16c7 11 16 29 23 40c7 12 11 23 14 38h-2c-6 0 -12 1 -17 4c-3 1 -5 3 -6 4
c-8 7 -12 20 -12 32c0 16 5 28 14 36c7 7 15 10 26 10s20 -5 29 -14c13 -15 15 -32 15 -44c0 -23 -7 -45 -20 -66c-17 -28 -38 -48 -47 -56z" />
    <glyph glyph-name="rcommaaccent" unicode="&#x157;" horiz-adv-x="542" 
d="M137 243h222c46 0 69 19 69 57c0 37 -23 56 -69 56h-222v-113zM137 182v-182h-65v416h287c85 0 136 -43 136 -116c0 -59 -39 -106 -103 -117l116 -183h-71l-118 182h-182zM264 -236l-17 16c7 11 16 29 23 40c7 12 11 23 14 38h-2c-6 0 -12 1 -17 4c-3 1 -5 3 -6 4
c-8 7 -12 20 -12 32c0 16 5 28 14 36c7 7 15 10 26 10s20 -5 29 -14c13 -15 15 -32 15 -44c0 -23 -7 -45 -20 -66c-17 -28 -38 -48 -47 -56z" />
    <glyph glyph-name="Rcaron" unicode="&#x158;" horiz-adv-x="597" 
d="M145 299h238c69 0 103 29 103 88c0 56 -35 90 -100 90h-241v-178zM78 0v539h309c107 0 169 -55 169 -150c0 -75 -49 -139 -128 -152l135 -237h-74l-135 236h-209v-236h-67zM163 773h45l90 -128l90 128h45l-98 -171h-74z" />
    <glyph glyph-name="rcaron" unicode="&#x159;" horiz-adv-x="542" 
d="M137 243h222c46 0 69 19 69 57c0 37 -23 56 -69 56h-222v-113zM137 182v-182h-65v416h287c85 0 136 -43 136 -116c0 -59 -39 -106 -103 -117l116 -183h-71l-118 182h-182zM136 633h45l90 -128l90 128h45l-98 -171h-74z" />
    <glyph glyph-name="Sacute" unicode="&#x15a;" horiz-adv-x="597" 
d="M30 81l39 58c77 -60 161 -91 241 -91c103 0 168 49 168 113c0 49 -42 89 -126 96c-91 8 -166 7 -222 34c-51 25 -77 62 -77 111c0 83 81 149 209 149c92 0 179 -31 258 -88l-39 -56c-67 54 -140 81 -218 81c-85 0 -140 -38 -140 -83c0 -19 9 -35 26 -48
c45 -35 123 -27 222 -38c113 -13 178 -77 178 -160c0 -93 -86 -173 -238 -173c-107 0 -197 30 -281 95zM282 595h-45l102 171h74z" />
    <glyph glyph-name="sacute" unicode="&#x15b;" horiz-adv-x="495" 
d="M35 53l32 55c60 -40 131 -61 191 -61c79 0 124 36 124 81c0 49 -42 69 -130 72c-128 3 -199 20 -199 109c0 69 64 119 172 119c71 0 139 -20 202 -60l-33 -54c-55 36 -117 55 -170 55c-67 0 -105 -25 -105 -60c0 -40 42 -51 130 -51c134 0 201 -45 201 -134
c0 -75 -69 -137 -185 -137c-80 0 -162 23 -230 66zM239 470h-45l102 171h74z" />
    <glyph glyph-name="Scircumflex" unicode="&#x15c;" horiz-adv-x="597" 
d="M30 81l39 58c77 -60 161 -91 241 -91c103 0 168 49 168 113c0 49 -42 89 -126 96c-91 8 -166 7 -222 34c-51 25 -77 62 -77 111c0 83 81 149 209 149c92 0 179 -31 258 -88l-39 -56c-67 54 -140 81 -218 81c-85 0 -140 -38 -140 -83c0 -19 9 -35 26 -48
c45 -35 123 -27 222 -38c113 -13 178 -77 178 -160c0 -93 -86 -173 -238 -173c-107 0 -197 30 -281 95zM145 593l98 171h74l98 -171h-45l-90 129l-90 -129h-45z" />
    <glyph glyph-name="scircumflex" unicode="&#x15d;" horiz-adv-x="495" 
d="M35 53l32 55c60 -40 131 -61 191 -61c79 0 124 36 124 81c0 49 -42 69 -130 72c-128 3 -199 20 -199 109c0 69 64 119 172 119c71 0 139 -20 202 -60l-33 -54c-55 36 -117 55 -170 55c-67 0 -105 -25 -105 -60c0 -40 42 -51 130 -51c134 0 201 -45 201 -134
c0 -75 -69 -137 -185 -137c-80 0 -162 23 -230 66zM101 453l98 171h74l98 -171h-45l-90 129l-90 -129h-45z" />
    <glyph glyph-name="Scedilla" unicode="&#x15e;" horiz-adv-x="597" 
d="M30 81l39 58c33 -27 75 -51 116 -67s80 -24 125 -24c36 0 82 5 121 32s47 58 47 81c0 36 -21 58 -37 69c-36 25 -87 26 -130 30l-72 6c-64 5 -118 20 -153 55c-24 24 -33 50 -33 79c0 32 11 77 62 112c54 35 119 39 147 39c105 0 194 -41 258 -88l-39 -56
c-72 61 -158 81 -218 81c-56 0 -90 -17 -94 -20c-42 -21 -46 -54 -46 -63c0 -18 7 -33 20 -44c24 -21 64 -30 112 -33l87 -6c30 -3 112 -10 165 -61c25 -24 42 -56 42 -97c0 -33 -7 -77 -50 -116c-47 -43 -114 -62 -174 -62h-12v-40h10c47 0 72 -14 85 -27
c17 -17 21 -38 21 -54c0 -31 -11 -50 -22 -61c-25 -27 -64 -28 -87 -28c-36 0 -73 5 -124 20v37c59 -12 87 -17 115 -17c12 0 38 0 53 15c7 7 11 18 11 32c0 13 -4 23 -12 31c-13 13 -34 17 -57 17h-12c-4 0 -8 0 -12 -1v77c-37 1 -78 8 -123 23c-48 16 -90 40 -129 71z" />
    <glyph glyph-name="scedilla" unicode="&#x15f;" horiz-adv-x="495" 
d="M35 53l32 55c32 -23 62 -34 95 -45c29 -9 61 -16 96 -16c41 0 81 10 104 34c11 12 20 28 20 47c0 20 -8 34 -17 43c-21 20 -63 27 -90 28l-74 3c-23 0 -90 5 -122 37c-21 20 -26 45 -26 66c0 30 10 55 29 75c32 35 88 48 144 48c39 0 81 -7 114 -18c31 -11 62 -26 87 -42
l-33 -54c-39 25 -102 55 -170 55c-81 0 -105 -35 -105 -62c0 -12 6 -21 13 -28c15 -13 53 -20 130 -21c84 -3 130 -24 155 -48c17 -17 33 -41 33 -80c0 -31 -10 -66 -38 -93c-35 -33 -91 -50 -139 -50h-4v-41h10c47 0 72 -14 85 -27c17 -17 21 -38 21 -54
c0 -31 -11 -50 -22 -61c-25 -27 -64 -28 -87 -28c-36 0 -73 5 -124 20v37c59 -12 87 -17 115 -17c12 0 38 0 53 15c7 7 11 18 11 32c0 13 -4 23 -12 31c-13 13 -34 17 -57 17h-12c-4 0 -8 0 -12 -1v78c-35 1 -77 8 -112 20c-28 11 -62 26 -91 45z" />
    <glyph glyph-name="Scaron" unicode="&#x160;" horiz-adv-x="597" 
d="M30 81l39 58c77 -60 161 -91 241 -91c103 0 168 49 168 113c0 49 -42 89 -126 96c-91 8 -166 7 -222 34c-51 25 -77 62 -77 111c0 83 81 149 209 149c92 0 179 -31 258 -88l-39 -56c-67 54 -140 81 -218 81c-85 0 -140 -38 -140 -83c0 -19 9 -35 26 -48
c45 -35 123 -27 222 -38c113 -13 178 -77 178 -160c0 -93 -86 -173 -238 -173c-107 0 -197 30 -281 95zM150 773h45l90 -128l90 128h45l-98 -171h-74z" />
    <glyph glyph-name="scaron" unicode="&#x161;" horiz-adv-x="495" 
d="M35 53l32 55c60 -40 131 -61 191 -61c79 0 124 36 124 81c0 49 -42 69 -130 72c-128 3 -199 20 -199 109c0 69 64 119 172 119c71 0 139 -20 202 -60l-33 -54c-55 36 -117 55 -170 55c-67 0 -105 -25 -105 -60c0 -40 42 -51 130 -51c134 0 201 -45 201 -134
c0 -75 -69 -137 -185 -137c-80 0 -162 23 -230 66zM101 633h45l90 -128l90 128h45l-98 -171h-74z" />
    <glyph glyph-name="Tcedilla" unicode="&#x162;" horiz-adv-x="417" 
d="M175 0v477h-227v62h521v-62h-227v-477h-18v-54h10c47 0 72 -14 85 -27c17 -17 21 -38 21 -54c0 -31 -11 -50 -22 -61c-25 -27 -64 -28 -87 -28c-36 0 -73 5 -124 20v37c59 -12 87 -17 115 -17c12 0 38 0 53 15c7 7 11 18 11 32c0 13 -4 23 -12 31c-13 13 -34 17 -57 17
h-12c-4 0 -8 0 -12 -1v90h-18z" />
    <glyph glyph-name="tcedilla" unicode="&#x163;" horiz-adv-x="405" 
d="M170 0v359h-176v58h417v-58h-176v-359h-17v-54h10c47 0 72 -14 85 -27c17 -17 21 -38 21 -54c0 -31 -11 -50 -22 -61c-25 -27 -64 -28 -87 -28c-36 0 -73 5 -124 20v37c59 -12 87 -17 115 -17c12 0 38 0 53 15c7 7 11 18 11 32c0 13 -4 23 -12 31c-13 13 -34 17 -57 17
c-8 0 -16 0 -24 -1v90h-17z" />
    <glyph glyph-name="Tcaron" unicode="&#x164;" horiz-adv-x="441" 
d="M187 0v477h-227v62h521v-62h-227v-477h-67zM75 773h45l90 -128l90 128h45l-98 -171h-74z" />
    <glyph glyph-name="tcaron" unicode="&#x165;" horiz-adv-x="405" 
d="M170 0v359h-176v58h417v-58h-176v-359h-65zM68 633h45l90 -128l90 128h45l-98 -171h-74z" />
    <glyph glyph-name="Utilde" unicode="&#x168;" horiz-adv-x="579" 
d="M134 539v-349c0 -112 32 -141 155 -141s155 29 155 141v349h67v-367c0 -132 -63 -186 -222 -186s-222 54 -222 186v367h67zM390 702h40c-17 -59 -48 -89 -93 -89c-9 0 -20 2 -32 5l-47 15c-7 3 -15 4 -26 4c-20 0 -35 -12 -45 -35h-39c15 59 48 89 95 89
c10 0 19 -1 26 -4l47 -15c11 -4 20 -6 27 -6c23 0 36 12 47 36z" />
    <glyph glyph-name="utilde" unicode="&#x169;" horiz-adv-x="556" 
d="M72 416h65v-267c0 -82 31 -102 141 -102s141 20 141 102v267h65v-284c0 -104 -62 -145 -207 -145c-147 0 -205 42 -205 145v284zM379 577h40c-17 -59 -48 -89 -93 -89c-9 0 -20 2 -32 5l-47 15c-7 3 -15 4 -26 4c-20 0 -35 -12 -45 -35h-39c15 59 48 89 95 89
c10 0 19 -1 26 -4l47 -15c11 -4 20 -6 27 -6c23 0 36 12 47 36z" />
    <glyph glyph-name="Umacron" unicode="&#x16a;" horiz-adv-x="579" 
d="M134 539v-349c0 -112 32 -141 155 -141s155 29 155 141v349h67v-367c0 -132 -63 -186 -222 -186s-222 54 -222 186v367h67zM164 626v57h250v-57h-250z" />
    <glyph glyph-name="umacron" unicode="&#x16b;" horiz-adv-x="556" 
d="M72 416h65v-267c0 -82 31 -102 141 -102s141 20 141 102v267h65v-284c0 -104 -62 -145 -207 -145c-147 0 -205 42 -205 145v284zM153 480v57h250v-57h-250z" />
    <glyph glyph-name="Ubreve" unicode="&#x16c;" horiz-adv-x="579" 
d="M134 539v-349c0 -112 32 -141 155 -141s155 29 155 141v349h67v-367c0 -132 -63 -186 -222 -186s-222 54 -222 186v367h67zM161 708h37c4 -47 31 -67 90 -67s86 19 89 67h38c-5 -84 -43 -121 -127 -121c-83 0 -122 37 -127 121z" />
    <glyph glyph-name="ubreve" unicode="&#x16d;" horiz-adv-x="556" 
d="M72 416h65v-267c0 -82 31 -102 141 -102s141 20 141 102v267h65v-284c0 -104 -62 -145 -207 -145c-147 0 -205 42 -205 145v284zM144 601h39c4 -51 34 -71 95 -71s90 20 94 71h40c-7 -89 -46 -128 -134 -128c-87 0 -127 39 -134 128z" />
    <glyph glyph-name="Uring" unicode="&#x16e;" horiz-adv-x="579" 
d="M134 539v-349c0 -112 32 -141 155 -141s155 29 155 141v349h67v-367c0 -132 -63 -186 -222 -186s-222 54 -222 186v367h67zM216 715c0 -41 32 -73 73 -73c40 0 73 32 73 73s-33 74 -73 74c-41 0 -73 -33 -73 -74zM172 716c0 65 50 117 117 117c64 0 118 -52 118 -117
c0 -64 -54 -118 -118 -118c-67 0 -117 54 -117 118z" />
    <glyph glyph-name="uring" unicode="&#x16f;" horiz-adv-x="556" 
d="M72 416h65v-267c0 -82 31 -102 141 -102s141 20 141 102v267h65v-284c0 -104 -62 -145 -207 -145c-147 0 -205 42 -205 145v284zM215 549c0 -35 28 -63 63 -63s63 28 63 63s-28 64 -63 64s-63 -29 -63 -64zM178 550c0 55 43 100 100 100c56 0 101 -45 101 -100
c0 -56 -45 -101 -101 -101c-57 0 -100 45 -100 101z" />
    <glyph glyph-name="Uhungarumlaut" unicode="&#x170;" horiz-adv-x="579" 
d="M134 539v-349c0 -112 32 -141 155 -141s155 29 155 141v349h67v-367c0 -132 -63 -186 -222 -186s-222 54 -222 186v367h67zM318 597l82 171h65l-111 -171h-36zM203 597l73 171h65l-102 -171h-36z" />
    <glyph glyph-name="uhungarumlaut" unicode="&#x171;" horiz-adv-x="556" 
d="M72 416h65v-267c0 -82 31 -102 141 -102s141 20 141 102v267h65v-284c0 -104 -62 -145 -207 -145c-147 0 -205 42 -205 145v284zM307 472l82 171h65l-111 -171h-36zM192 472l73 171h65l-102 -171h-36z" />
    <glyph glyph-name="Uogonek" unicode="&#x172;" horiz-adv-x="579" 
d="M134 539v-354c0 -28 0 -79 31 -107c27 -24 73 -29 124 -29c45 0 96 4 124 29c29 26 31 75 31 112v349h67v-367c0 -35 -2 -94 -45 -137c-24 -24 -54 -32 -62 -35c-15 -13 -37 -35 -50 -54c-11 -17 -22 -38 -22 -61c0 -12 3 -24 10 -31c9 -9 31 -11 43 -11h37v-51h-35
c-24 0 -61 2 -84 25c-11 11 -19 26 -19 51c0 31 14 55 27 72s31 35 50 50c-27 -3 -46 -4 -73 -4c-47 0 -129 4 -176 49c-40 39 -45 94 -45 137v367h67z" />
    <glyph glyph-name="uogonek" unicode="&#x173;" horiz-adv-x="556" 
d="M72 416h65v-267c0 -23 0 -56 23 -77c19 -17 51 -25 118 -25c75 0 103 10 118 25c23 21 23 54 23 77v267h65v-284c0 -28 -3 -66 -34 -98c-5 -5 -23 -21 -52 -32c-19 -15 -37 -35 -49 -51c-17 -23 -25 -45 -25 -66c0 -12 3 -24 10 -31c9 -9 31 -11 43 -11h37v-51h-35
c-24 0 -61 2 -84 25c-11 11 -19 26 -19 51c0 32 15 57 32 78s37 38 46 45c-28 -3 -50 -4 -77 -4c-56 0 -129 3 -169 43c-32 31 -36 71 -36 102v284z" />
    <glyph glyph-name="Ydieresis" unicode="&#x178;" horiz-adv-x="454" 
d="M193 0v270l-243 269h84l193 -213l192 213h85l-244 -270v-269h-67zM263 665c0 24 19 44 43 44s44 -20 44 -44c0 -25 -20 -44 -44 -44s-43 19 -43 44zM106 665c0 24 20 44 44 44s43 -20 43 -44c0 -25 -19 -44 -43 -44s-44 19 -44 44z" />
    <glyph glyph-name="Zacute" unicode="&#x179;" horiz-adv-x="509" 
d="M-2 0l364 477h-333v62h455l-356 -477h354v-62h-484zM259 595h-45l102 171h74z" />
    <glyph glyph-name="zacute" unicode="&#x17a;" horiz-adv-x="437" 
d="M17 0l270 356h-246v61h366l-272 -357h270v-60h-388zM225 470h-45l102 171h74z" />
    <glyph glyph-name="Zdotaccent" unicode="&#x17b;" horiz-adv-x="509" 
d="M-2 0l364 477h-333v62h455l-356 -477h354v-62h-484zM205 670c0 27 22 49 49 49s48 -22 48 -49s-21 -48 -48 -48s-49 21 -49 48z" />
    <glyph glyph-name="zdotaccent" unicode="&#x17c;" horiz-adv-x="437" 
d="M17 0l270 356h-246v61h366l-272 -357h270v-60h-388zM171 545c0 27 22 49 49 49s48 -22 48 -49s-21 -48 -48 -48s-49 21 -49 48z" />
    <glyph glyph-name="Zcaron" unicode="&#x17d;" horiz-adv-x="509" 
d="M-2 0l364 477h-333v62h455l-356 -477h354v-62h-484zM119 773h45l90 -128l90 128h45l-98 -171h-74z" />
    <glyph glyph-name="zcaron" unicode="&#x17e;" horiz-adv-x="437" 
d="M17 0l270 356h-246v61h366l-272 -357h270v-60h-388zM85 633h45l90 -128l90 128h45l-98 -171h-74z" />
    <glyph glyph-name="uni018F" unicode="&#x18f;" horiz-adv-x="620" 
d="M44 287h460c0 57 -21 111 -54 146c-23 26 -69 55 -143 55c-44 0 -83 -9 -116 -28c-15 -8 -44 -27 -69 -64l-52 39c29 36 62 62 95 81c45 25 89 35 145 35s135 -11 197 -76c58 -61 69 -137 69 -196c0 -69 -16 -153 -79 -218c-47 -47 -109 -75 -196 -75
c-104 0 -162 50 -191 85c-39 47 -66 116 -66 204v12zM500 225h-378c4 -61 33 -103 57 -126c41 -40 87 -50 132 -50c43 0 90 7 131 50c31 32 51 81 58 126z" />
    <glyph glyph-name="florin" unicode="&#x192;" horiz-adv-x="667" 
d="M369 282l-53 -245c-24 -109 -73 -165 -180 -165c-28 0 -62 7 -103 18l22 59c31 -9 57 -14 76 -14c68 0 102 34 117 106l52 241h-120l13 63h120l20 95c23 111 76 165 180 165c28 0 62 -7 103 -18l-22 -59c-31 9 -57 14 -76 14c-67 0 -103 -34 -118 -106l-18 -91h136
l-13 -63h-136z" />
    <glyph glyph-name="uni01CF" unicode="&#x1cf;" horiz-adv-x="231" 
d="M82 -2v541h68v-541h-68zM-18 773h45l90 -128l90 128h45l-98 -171h-74z" />
    <glyph glyph-name="uni01D0" unicode="&#x1d0;" horiz-adv-x="211" 
d="M72 -1v419h66v-419h-66zM-28 633h45l90 -128l90 128h45l-98 -171h-74z" />
    <glyph glyph-name="uni01DD" unicode="&#x1dd;" horiz-adv-x="580" 
d="M40 222h431c-3 35 -16 82 -67 115c-43 28 -94 31 -123 31c-37 0 -69 -6 -100 -21c-25 -12 -46 -30 -65 -53l-52 35c31 36 63 58 90 71c45 23 91 28 132 28c115 0 174 -48 197 -71c32 -33 57 -78 57 -145c0 -68 -26 -122 -62 -159c-56 -56 -127 -66 -183 -66
c-101 0 -158 33 -193 66c-21 21 -62 71 -62 159v10zM465 162h-345c7 -36 27 -62 52 -81c37 -27 78 -32 119 -32c40 0 83 5 119 32c24 19 44 46 55 81z" />
    <glyph glyph-name="Gcaron" unicode="&#x1e6;" horiz-adv-x="618" 
d="M494 146v79h-147v62h214v-162c-52 -91 -137 -139 -244 -139c-161 0 -279 118 -279 282s118 283 279 283c100 0 185 -46 236 -126l-56 -40c-35 65 -101 103 -180 103c-120 0 -210 -92 -210 -220s90 -219 210 -219c75 0 134 32 177 97zM180 773h45l90 -128l90 128h45
l-98 -171h-74z" />
    <glyph glyph-name="gcaron" unicode="&#x1e7;" horiz-adv-x="574" 
d="M354 162v60h172v-126c-48 -72 -125 -109 -229 -109c-158 0 -262 96 -262 220s106 221 262 221c97 0 171 -33 221 -98l-50 -36c-35 47 -98 74 -171 74c-117 0 -195 -71 -195 -160s75 -160 195 -160c76 0 139 32 163 69v45h-106zM160 633h45l90 -128l90 128h45l-98 -171
h-74z" />
    <glyph glyph-name="Scommaaccent" unicode="&#x218;" horiz-adv-x="597" 
d="M30 81l39 58c77 -60 161 -91 241 -91c103 0 168 49 168 113c0 49 -42 89 -126 96c-91 8 -166 7 -222 34c-51 25 -77 62 -77 111c0 83 81 149 209 149c92 0 179 -31 258 -88l-39 -56c-67 54 -140 81 -218 81c-85 0 -140 -38 -140 -83c0 -19 9 -35 26 -48
c45 -35 123 -27 222 -38c113 -13 178 -77 178 -160c0 -93 -86 -173 -238 -173c-107 0 -197 30 -281 95zM289 -236l-17 16c7 11 16 29 23 40c7 12 11 23 14 38h-2c-6 0 -12 1 -17 4c-3 1 -5 3 -6 4c-8 7 -12 20 -12 32c0 16 5 28 14 36c7 7 15 10 26 10s20 -5 29 -14
c13 -15 15 -32 15 -44c0 -23 -7 -45 -20 -66c-17 -28 -38 -48 -47 -56z" />
    <glyph glyph-name="scommaaccent" unicode="&#x219;" horiz-adv-x="495" 
d="M35 53l32 55c60 -40 131 -61 191 -61c79 0 124 36 124 81c0 49 -42 69 -130 72c-128 3 -199 20 -199 109c0 69 64 119 172 119c71 0 139 -20 202 -60l-33 -54c-55 36 -117 55 -170 55c-67 0 -105 -25 -105 -60c0 -40 42 -51 130 -51c134 0 201 -45 201 -134
c0 -75 -69 -137 -185 -137c-80 0 -162 23 -230 66zM234 -236l-17 16c7 11 16 29 23 40c7 12 11 23 14 38h-2c-6 0 -12 1 -17 4c-3 1 -5 3 -6 4c-8 7 -12 20 -12 32c0 16 5 28 14 36c7 7 15 10 26 10s20 -5 29 -14c13 -15 15 -32 15 -44c0 -23 -7 -45 -20 -66
c-17 -28 -38 -48 -47 -56z" />
    <glyph glyph-name="Tcommaaccent" unicode="&#x21a;" horiz-adv-x="441" 
d="M187 0v477h-227v62h521v-62h-227v-477h-67zM186 -236l-17 16c7 11 16 29 23 40c7 12 11 23 14 38h-2c-6 0 -12 1 -17 4c-3 1 -5 3 -6 4c-8 7 -12 20 -12 32c0 16 5 28 14 36c7 7 15 10 26 10s20 -5 29 -14c13 -15 15 -32 15 -44c0 -23 -7 -45 -20 -66
c-17 -28 -38 -48 -47 -56z" />
    <glyph glyph-name="tcommaaccent" unicode="&#x21b;" horiz-adv-x="405" 
d="M170 0v359h-176v58h417v-58h-176v-359h-65zM180 -236l-17 16c7 11 16 29 23 40c7 12 11 23 14 38h-2c-6 0 -12 1 -17 4c-3 1 -5 3 -6 4c-8 7 -12 20 -12 32c0 16 5 28 14 36c7 7 15 10 26 10s20 -5 29 -14c13 -15 15 -32 15 -44c0 -23 -7 -45 -20 -66
c-17 -28 -38 -48 -47 -56z" />
    <glyph glyph-name="uni0228" unicode="&#x228;" horiz-adv-x="546" 
d="M81 0v539h424v-62h-357v-158h216v-62h-216v-195h379v-62h-200v-54h10c47 0 72 -14 85 -27c17 -17 21 -38 21 -54c0 -31 -11 -50 -22 -61c-25 -27 -64 -28 -87 -28c-36 0 -73 5 -124 20v37c59 -12 87 -17 115 -17c12 0 38 0 53 15c7 7 11 18 11 32c0 13 -4 23 -12 31
c-13 13 -34 17 -57 17h-12c-4 0 -8 0 -12 -1v90h-215z" />
    <glyph glyph-name="uni0229" unicode="&#x229;" horiz-adv-x="502" 
d="M480 60v-60h-189v-54h10c47 0 72 -14 85 -27c17 -17 21 -38 21 -54c0 -31 -11 -50 -22 -61c-25 -27 -64 -28 -87 -28c-36 0 -73 5 -124 20v37c59 -12 87 -17 115 -17c12 0 38 0 53 15c7 7 11 18 11 32c0 13 -4 23 -12 31c-13 13 -34 17 -57 17h-12c-4 0 -8 0 -12 -1v90
h-189v417h391v-61h-326v-104h214v-60h-214v-132h344z" />
    <glyph glyph-name="uni0237" unicode="&#x237;" horiz-adv-x="447" 
d="M24 178h65v-44c0 -61 38 -87 119 -87c85 0 108 30 108 122v247h65v-268c0 -116 -52 -161 -181 -161c-119 0 -176 43 -176 138v53z" />
    <glyph glyph-name="uni0259" unicode="&#x259;" horiz-adv-x="580" 
d="M40 222h431c-3 35 -16 82 -67 115c-43 28 -94 31 -123 31c-37 0 -69 -6 -100 -21c-25 -12 -46 -30 -65 -53l-52 35c31 36 63 58 90 71c45 23 91 28 132 28c115 0 174 -48 197 -71c32 -33 57 -78 57 -145c0 -68 -26 -122 -62 -159c-56 -56 -127 -66 -183 -66
c-101 0 -158 33 -193 66c-21 21 -62 71 -62 159v10zM465 162h-345c7 -36 27 -62 52 -81c37 -27 78 -32 119 -32c40 0 83 5 119 32c24 19 44 46 55 81z" />
    <glyph glyph-name="afii57929" unicode="&#x2bc;" horiz-adv-x="333" 
d="M138 246l-17 16c7 11 16 29 23 40c7 12 11 23 14 38h-2c-6 0 -12 1 -17 4c-3 1 -5 3 -6 4c-8 7 -12 20 -12 32c0 16 5 28 14 36c7 7 15 10 26 10s20 -5 29 -14c13 -15 15 -32 15 -44c0 -23 -7 -45 -20 -66c-17 -28 -38 -48 -47 -56z" />
    <glyph glyph-name="circumflex" unicode="&#x2c6;" 
d="M115 453l98 171h74l98 -171h-45l-90 129l-90 -129h-45z" />
    <glyph glyph-name="caron" unicode="&#x2c7;" 
d="M115 633h45l90 -128l90 128h45l-98 -171h-74z" />
    <glyph glyph-name="breve" unicode="&#x2d8;" 
d="M116 601h39c4 -51 34 -71 95 -71s90 20 94 71h40c-7 -89 -46 -128 -134 -128c-87 0 -127 39 -134 128z" />
    <glyph glyph-name="dotaccent" unicode="&#x2d9;" 
d="M201 545c0 27 22 49 49 49s48 -22 48 -49s-21 -48 -48 -48s-49 21 -49 48z" />
    <glyph glyph-name="ring" unicode="&#x2da;" horiz-adv-x="466" 
d="M170 549c0 -35 28 -63 63 -63s63 28 63 63s-28 64 -63 64s-63 -29 -63 -64zM133 550c0 55 43 100 100 100c56 0 101 -45 101 -100c0 -56 -45 -101 -101 -101c-57 0 -100 45 -100 101z" />
    <glyph glyph-name="ogonek" unicode="&#x2db;" 
d="M252 0h30c-47 -41 -71 -80 -71 -115c0 -31 14 -42 53 -42h37v-51h-35c-69 0 -103 23 -103 79c0 41 30 84 89 129z" />
    <glyph glyph-name="tilde" unicode="&#x2dc;" 
d="M351 577h40c-17 -59 -48 -89 -93 -89c-9 0 -20 2 -32 5l-47 15c-7 3 -15 4 -26 4c-20 0 -35 -12 -45 -35h-39c15 59 48 89 95 89c10 0 19 -1 26 -4l47 -15c11 -4 20 -6 27 -6c23 0 36 12 47 36z" />
    <glyph glyph-name="hungarumlaut" unicode="&#x2dd;" 
d="M279 472l82 171h65l-111 -171h-36zM164 472l73 171h65l-102 -171h-36z" />
    <glyph glyph-name="acutecomb" unicode="&#x301;" horiz-adv-x="2" 
d="M-240 470h-45l117 154h74z" />
    <glyph glyph-name="uni0313" unicode="&#x313;" horiz-adv-x="333" 
d="M144 246l-17 16c7 11 16 29 23 40c7 12 11 23 14 38h-2c-6 0 -12 1 -17 4c-3 1 -5 3 -6 4c-8 7 -12 20 -12 32c0 16 5 28 14 36c7 7 15 10 26 10s20 -5 29 -14c13 -15 15 -32 15 -44c0 -23 -7 -45 -20 -66c-17 -28 -38 -48 -47 -56z" />
    <glyph glyph-name="uni0315" unicode="&#x315;" horiz-adv-x="333" 
d="M144 246l-17 16c7 11 16 29 23 40c7 12 11 23 14 38h-2c-6 0 -12 1 -17 4c-3 1 -5 3 -6 4c-8 7 -12 20 -12 32c0 16 5 28 14 36c7 7 15 10 26 10s20 -5 29 -14c13 -15 15 -32 15 -44c0 -23 -7 -45 -20 -66c-17 -28 -38 -48 -47 -56z" />
    <glyph glyph-name="uni0326" unicode="&#x326;" horiz-adv-x="333" 
d="M144 -236l-17 16c7 11 16 29 23 40c7 12 11 23 14 38h-2c-6 0 -12 1 -17 4c-3 1 -5 3 -6 4c-8 7 -12 20 -12 32c0 16 5 28 14 36c7 7 15 10 26 10s20 -5 29 -14c13 -15 15 -32 15 -44c0 -23 -7 -45 -20 -66c-17 -28 -38 -48 -47 -56z" />
    <glyph glyph-name="anoteleia" unicode="&#x387;" horiz-adv-x="333" 
d="M125 261c0 24 18 42 41 42s43 -18 43 -42c0 -23 -19 -42 -43 -42c-23 0 -41 19 -41 42z" />
    <glyph glyph-name="uni0394" unicode="&#x394;" horiz-adv-x="588" 
d="M103 63h379l-190 384zM0 0l264 539h56l267 -539h-75h-440h-72z" />
    <glyph glyph-name="uni0394" unicode="&#x2206;" horiz-adv-x="588" 
d="M103 63h379l-190 384zM0 0l264 539h56l267 -539h-75h-440h-72z" />
    <glyph glyph-name="uni03A9" unicode="&#x3a9;" horiz-adv-x="622" 
d="M381 0v109c33 11 69 35 92 62c25 31 38 77 38 116c0 57 -21 112 -54 147c-45 45 -103 54 -146 54c-42 0 -103 -9 -146 -54c-35 -35 -54 -89 -54 -145c0 -41 14 -87 38 -118c23 -27 59 -51 92 -62v-109h-165v62h113v12c-35 13 -74 37 -99 68c-28 35 -48 83 -48 143
c0 89 34 156 77 197c32 29 90 69 191 69c87 0 150 -30 193 -69c47 -43 77 -109 77 -190c0 -64 -19 -115 -48 -150c-25 -31 -64 -55 -99 -68v-12h113v-62h-165z" />
    <glyph glyph-name="uni03A9" unicode="&#x2126;" horiz-adv-x="622" 
d="M381 0v109c33 11 69 35 92 62c25 31 38 77 38 116c0 57 -21 112 -54 147c-45 45 -103 54 -146 54c-42 0 -103 -9 -146 -54c-35 -35 -54 -89 -54 -145c0 -41 14 -87 38 -118c23 -27 59 -51 92 -62v-109h-165v62h113v12c-35 13 -74 37 -99 68c-28 35 -48 83 -48 143
c0 89 34 156 77 197c32 29 90 69 191 69c87 0 150 -30 193 -69c47 -43 77 -109 77 -190c0 -64 -19 -115 -48 -150c-25 -31 -64 -55 -99 -68v-12h113v-62h-165z" />
    <glyph glyph-name="pi" unicode="&#x3c0;" horiz-adv-x="597" 
d="M506 357l-41 -191c-13 -53 -15 -71 -15 -86c0 -5 0 -16 7 -23c5 -5 13 -8 22 -8c11 0 18 4 23 7l11 -57c-13 -7 -28 -10 -45 -10c-26 0 -46 6 -60 19c-11 11 -20 27 -20 58c0 12 2 35 13 90l42 201h-248l-75 -357h-64l76 357h-9c-13 0 -42 -2 -66 -22l-27 53
c23 16 50 29 101 29h446l-12 -60h-59z" />
    <glyph glyph-name="afii10023" unicode="&#x401;" horiz-adv-x="556" 
d="M366 637c0 24 19 44 43 44s44 -20 44 -44c0 -25 -20 -44 -44 -44s-43 19 -43 44zM153 637c0 24 20 44 44 44s43 -20 43 -44c0 -25 -19 -44 -43 -44s-44 19 -44 44zM86 0v539h424v-62h-357v-158h216v-62h-216v-195h379v-62h-446z" />
    <glyph glyph-name="afii10051" unicode="&#x402;" horiz-adv-x="661" 
d="M163 0v477h-163v62h470v-62h-240v-151h168c39 0 112 -4 158 -41c24 -19 50 -53 50 -110c0 -55 -21 -91 -44 -114c-35 -35 -96 -60 -180 -60c-27 0 -54 2 -83 9l11 62c20 -4 42 -8 69 -8c51 0 102 9 133 40c15 15 26 39 26 66c0 43 -22 64 -41 75s-48 18 -99 18h-168v-263
h-67z" />
    <glyph glyph-name="afii10052" unicode="&#x403;" horiz-adv-x="489" 
d="M86 0v539h408v-62h-341v-477h-67zM294 595h-45l102 171h74z" />
    <glyph glyph-name="afii10053" unicode="&#x404;" horiz-adv-x="604" 
d="M507 155l53 -41c-25 -43 -59 -74 -92 -93c-36 -21 -84 -35 -144 -35c-100 0 -165 38 -202 75c-45 45 -79 120 -79 212c0 88 33 158 76 202c60 61 133 76 194 76c80 0 127 -23 146 -34c36 -20 67 -51 90 -82l-55 -40c-12 20 -32 47 -71 68c-37 20 -73 25 -106 25
c-55 0 -100 -12 -143 -55c-45 -45 -56 -95 -57 -123h283v-62h-284c3 -57 23 -118 74 -158c44 -35 90 -41 130 -41c39 0 78 4 117 29c29 19 54 49 70 77z" />
    <glyph glyph-name="afii10054" unicode="&#x405;" horiz-adv-x="597" 
d="M30 81l39 58c77 -60 161 -91 241 -91c103 0 168 49 168 113c0 49 -42 89 -126 96c-91 8 -166 7 -222 34c-51 25 -77 62 -77 111c0 83 81 149 209 149c92 0 179 -31 258 -88l-39 -56c-67 54 -140 81 -218 81c-85 0 -140 -38 -140 -83c0 -19 9 -35 26 -48
c45 -35 123 -27 222 -38c113 -13 178 -77 178 -160c0 -93 -86 -173 -238 -173c-107 0 -197 30 -281 95z" />
    <glyph glyph-name="afii10055" unicode="&#x406;" horiz-adv-x="231" 
d="M82 -2v544h68v-544h-68z" />
    <glyph glyph-name="afii10056" unicode="&#x407;" horiz-adv-x="231" 
d="M131 665c0 24 19 44 43 44s44 -20 44 -44c0 -25 -20 -44 -44 -44s-43 19 -43 44zM13 665c0 24 21 44 45 44s43 -20 43 -44c0 -25 -19 -44 -43 -44s-45 19 -45 44zM82 -2v544h68v-544h-68z" />
    <glyph glyph-name="afii10057" unicode="&#x408;" horiz-adv-x="537" 
d="M19 232h67v-84c0 -72 51 -99 163 -99c117 0 147 34 147 141v349h67v-367c0 -132 -63 -186 -226 -186c-148 0 -218 51 -218 160v86z" />
    <glyph glyph-name="afii10058" unicode="&#x409;" horiz-adv-x="829" 
d="M427 253l80 -191h136c24 0 59 1 83 25c16 17 24 45 24 72c0 35 -13 56 -26 68c-19 19 -52 26 -75 26h-222zM5 0l244 539h58l94 -223h242c40 0 90 -3 136 -49c29 -31 40 -67 40 -108c0 -57 -20 -92 -40 -112c-27 -27 -71 -47 -143 -47h-104h-70l-186 445l-199 -445h-72z
" />
    <glyph glyph-name="afii10059" unicode="&#x40a;" horiz-adv-x="950" 
d="M539 253v-191h214c24 0 59 1 83 25c16 16 24 45 24 73c0 35 -14 56 -26 67c-27 24 -65 26 -85 26h-210zM539 316h215c40 0 90 -3 136 -49c29 -31 40 -67 40 -108c0 -57 -20 -92 -40 -112c-27 -27 -71 -47 -143 -47h-275v254h-318v-254h-68v539h68v-223h318v223h67v-223z
" />
    <glyph glyph-name="afii10060" unicode="&#x40b;" horiz-adv-x="661" 
d="M163 0v477h-163v62h470v-62h-240v-151h177c64 0 125 -4 162 -40c33 -32 37 -78 37 -106v-180h-68v173c0 37 -13 57 -24 66c-27 24 -76 24 -105 24h-179v-263h-67z" />
    <glyph glyph-name="afii10061" unicode="&#x40c;" horiz-adv-x="596" 
d="M86 0v539h67v-268l309 268h88l-218 -191l251 -348h-81l-218 302l-131 -110v-192h-67zM299 595h-45l102 171h74z" />
    <glyph glyph-name="afii10062" unicode="&#x40e;" horiz-adv-x="582" 
d="M153 0l105 178l-239 361h86l199 -296l185 296h78l-337 -539h-77zM390 715h50c0 -28 -8 -66 -33 -91c-32 -32 -77 -32 -109 -32s-77 0 -109 32c-25 24 -33 62 -33 91h50c0 -10 2 -44 31 -57c16 -8 46 -9 61 -9s46 1 63 10c23 12 29 37 29 56z" />
    <glyph glyph-name="afii10145" unicode="&#x40f;" horiz-adv-x="614" 
d="M86 539h68v-477h307v477h67v-539h-191v-120h-60v120h-191v539z" />
    <glyph glyph-name="afii10017" unicode="&#x410;" horiz-adv-x="598" 
d="M179 208h237l-119 239zM5 0l264 539h56l267 -539h-73l-73 145h-298l-71 -145h-72z" />
    <glyph glyph-name="afii10018" unicode="&#x411;" horiz-adv-x="640" 
d="M153 62h255c35 0 60 11 75 24s28 36 28 77c0 39 -14 61 -27 74c-27 25 -69 27 -87 27h-244v-202zM86 0v539h443v-62h-376v-151h229c65 0 123 -10 162 -53c16 -19 37 -52 37 -108c0 -61 -25 -98 -46 -118c-42 -42 -102 -47 -136 -47h-313z" />
    <glyph glyph-name="afii10019" unicode="&#x412;" horiz-adv-x="663" 
d="M153 326h258c57 0 87 27 87 75c0 51 -29 76 -87 76h-258v-151zM153 62h282c64 0 99 40 99 101c0 60 -35 101 -99 101h-282v-202zM86 0v539h319c108 0 161 -46 161 -134c0 -45 -16 -78 -49 -99c58 -33 87 -81 87 -144c0 -99 -67 -162 -182 -162h-336z" />
    <glyph glyph-name="afii10020" unicode="&#x413;" horiz-adv-x="489" 
d="M86 0v539h408v-62h-341v-477h-67z" />
    <glyph glyph-name="afii10021" unicode="&#x414;" horiz-adv-x="590" 
d="M128 62h331l-171 385zM542 0h-495v-120h-60v182h69l205 477h56l214 -477h71v-182h-60v120z" />
    <glyph glyph-name="afii10022" unicode="&#x415;" horiz-adv-x="556" 
d="M86 0v539h424v-62h-357v-158h216v-62h-216v-195h379v-62h-446z" />
    <glyph glyph-name="afii10024" unicode="&#x416;" horiz-adv-x="814" 
d="M373 0v195l-79 81l-200 -276h-81l233 322l-205 218h82l250 -266v268h68v-268l250 266h82l-205 -218l233 -322h-81l-200 276l-79 -82v-194h-68z" />
    <glyph glyph-name="afii10025" unicode="&#x417;" horiz-adv-x="613" 
d="M101 418l-38 53c31 19 67 39 102 52c43 16 95 28 147 28c8 0 99 0 157 -37c52 -33 68 -82 68 -122c0 -51 -30 -86 -71 -103c24 -11 46 -27 61 -44c15 -19 27 -45 27 -81c0 -35 -10 -97 -74 -137c-56 -37 -138 -41 -180 -41c-45 0 -97 5 -148 24c-37 13 -76 34 -112 65
l41 55c32 -27 66 -44 98 -57c47 -19 89 -25 132 -25c64 0 99 15 116 24c51 27 56 71 56 89c0 30 -14 53 -42 68c-24 15 -63 25 -152 25h-99v64h102c81 0 114 6 133 15c31 15 43 41 43 64s-11 52 -52 71c-37 19 -80 20 -103 20c-35 0 -74 -5 -117 -20
c-31 -12 -67 -31 -95 -50z" />
    <glyph glyph-name="afii10026" unicode="&#x418;" horiz-adv-x="625" 
d="M540 0h-67v418l-343 -418h-44v539h67v-418l342 418h45v-539z" />
    <glyph glyph-name="afii10027" unicode="&#x419;" horiz-adv-x="617" 
d="M405 685h50c0 -28 -8 -66 -33 -91c-32 -32 -77 -32 -109 -32s-77 0 -109 32c-25 24 -33 62 -33 91h50c0 -10 2 -44 31 -57c16 -8 46 -9 61 -9s46 1 63 10c23 12 29 37 29 56zM540 0h-67v418l-343 -418h-44v539h67v-418l342 418h45v-539z" />
    <glyph glyph-name="afii10028" unicode="&#x41a;" horiz-adv-x="596" 
d="M86 0v539h67v-268l309 268h88l-218 -191l251 -348h-81l-218 302l-131 -110v-192h-67z" />
    <glyph glyph-name="afii10029" unicode="&#x41b;" horiz-adv-x="569" 
d="M5 0l249 539h56l253 -539h-73l-209 445l-204 -445h-72z" />
    <glyph glyph-name="afii10030" unicode="&#x41c;" horiz-adv-x="705" 
d="M83 0v539h62l208 -330l209 330h61v-539h-66v421l-204 -319l-204 319v-421h-66z" />
    <glyph glyph-name="afii10031" unicode="&#x41d;" horiz-adv-x="626" 
d="M86 0v539h68v-213h318v213h67v-539h-67v264h-318v-264h-68z" />
    <glyph glyph-name="afii10032" unicode="&#x41e;" horiz-adv-x="644" 
d="M322 49c120 0 210 92 210 219c0 128 -90 220 -210 220s-210 -92 -210 -220s90 -219 210 -219zM322 -14c-161 0 -279 118 -279 282s118 283 279 283s280 -119 280 -283s-119 -282 -280 -282z" />
    <glyph glyph-name="afii10033" unicode="&#x41f;" horiz-adv-x="626" 
d="M86 0v539h453v-539h-67v477h-318v-477h-68z" />
    <glyph glyph-name="afii10034" unicode="&#x420;" horiz-adv-x="596" 
d="M150 299h238c69 0 103 29 103 88c0 56 -35 90 -100 90h-241v-178zM83 0v539h309c107 0 169 -55 169 -146c0 -90 -60 -157 -160 -157h-251v-236h-67z" />
    <glyph glyph-name="afii10035" unicode="&#x421;" horiz-adv-x="614" 
d="M516 172l54 -40c-51 -95 -139 -146 -248 -146c-161 0 -279 118 -279 282s118 283 279 283c100 0 185 -46 236 -126l-56 -40c-35 65 -101 103 -180 103c-120 0 -210 -92 -210 -220s90 -219 210 -219c84 0 151 42 194 123z" />
    <glyph glyph-name="afii10036" unicode="&#x422;" horiz-adv-x="427" 
d="M180 0v477h-227v62h521v-62h-227v-477h-67z" />
    <glyph glyph-name="afii10037" unicode="&#x423;" horiz-adv-x="582" 
d="M153 0l105 178l-239 361h86l199 -296l185 296h78l-337 -539h-77z" />
    <glyph glyph-name="afii10038" unicode="&#x424;" horiz-adv-x="675" 
d="M304 432h-70c-43 0 -81 -12 -102 -33c-23 -23 -31 -56 -31 -87c0 -39 14 -69 35 -88c31 -27 75 -28 99 -28h69v236zM371 432v-236h69c22 0 69 1 99 28c21 19 35 51 35 88c0 31 -8 66 -31 87c-21 21 -59 33 -102 33h-70zM304 133h-72c-76 0 -121 23 -146 46
c-23 21 -51 62 -51 137c0 69 26 110 49 131c27 25 71 48 147 48h73v70h67v-70h73c76 0 120 -23 147 -48c23 -23 49 -62 49 -131c0 -64 -19 -108 -51 -137c-25 -23 -70 -46 -146 -46h-72v-133h-67v133z" />
    <glyph glyph-name="afii10039" unicode="&#x425;" horiz-adv-x="559" 
d="M19 0l220 271l-217 268h82l177 -216l176 216h81l-217 -265l223 -274h-86l-179 222l-181 -222h-79z" />
    <glyph glyph-name="afii10040" unicode="&#x426;" horiz-adv-x="590" 
d="M86 539h68v-477h277v477h67v-477h81v-182h-60v120h-433v539z" />
    <glyph glyph-name="afii10041" unicode="&#x427;" horiz-adv-x="570" 
d="M483 539v-539h-67v244h-162c-50 0 -121 0 -161 40c-35 33 -38 79 -38 106v149h68v-143c0 -17 2 -45 25 -65c17 -15 45 -25 104 -25h164v233h67z" />
    <glyph glyph-name="afii10042" unicode="&#x428;" horiz-adv-x="779" 
d="M86 539h68v-477h202v477h67v-477h202v477h67v-539h-606v539z" />
    <glyph glyph-name="afii10043" unicode="&#x429;" horiz-adv-x="794" 
d="M86 539h68v-477h202v477h67v-477h202v477h67v-477h91v-182h-60v120h-637v539z" />
    <glyph glyph-name="afii10044" unicode="&#x42a;" horiz-adv-x="682" 
d="M264 253v-191h221c24 0 58 1 82 25c17 17 25 44 25 73c0 35 -14 55 -26 67c-27 24 -65 26 -85 26h-217zM264 316h222c40 0 90 -3 136 -49c29 -31 40 -67 40 -108c0 -57 -20 -92 -40 -112c-27 -27 -71 -47 -143 -47h-282v477h-192v62h259v-223z" />
    <glyph glyph-name="afii10045" unicode="&#x42b;" horiz-adv-x="759" 
d="M153 253v-191h213c24 0 58 1 82 25c17 17 25 44 25 73c0 35 -14 55 -26 67c-27 24 -65 26 -85 26h-209zM605 -2v544h68v-544h-68zM153 316h214c40 0 90 -3 136 -49c29 -31 40 -67 40 -108c0 -57 -20 -92 -40 -112c-27 -27 -71 -47 -143 -47h-274v539h67v-223z" />
    <glyph glyph-name="afii10046" unicode="&#x42c;" horiz-adv-x="571" 
d="M153 253v-191h221c24 0 58 1 82 25c17 17 25 44 25 73c0 35 -14 55 -26 67c-27 24 -65 26 -85 26h-217zM153 316h222c40 0 90 -3 136 -49c29 -31 40 -67 40 -108c0 -57 -20 -92 -40 -112c-27 -27 -71 -47 -143 -47h-282v539h67v-223z" />
    <glyph glyph-name="afii10047" unicode="&#x42d;" horiz-adv-x="604" 
d="M43 114l53 41c19 -35 45 -61 72 -77c39 -23 80 -29 119 -29c43 0 93 6 134 42c45 39 64 102 65 157h-283v62h283c-3 47 -21 92 -52 123c-23 26 -69 55 -143 55c-44 0 -83 -9 -116 -28c-15 -8 -44 -27 -69 -64l-52 39c29 36 62 62 95 81c45 25 89 35 145 35
s135 -11 197 -76c58 -61 69 -137 69 -196c0 -71 -16 -153 -79 -218c-56 -57 -121 -75 -196 -75c-53 0 -106 10 -149 35c-39 23 -72 58 -93 93z" />
    <glyph glyph-name="afii10048" unicode="&#x42e;" horiz-adv-x="835" 
d="M515 488c-51 0 -97 -15 -137 -55c-33 -33 -65 -85 -65 -165c0 -85 36 -138 65 -164c40 -39 88 -55 144 -55s100 19 136 54c41 40 65 93 65 165c0 76 -28 130 -65 165c-38 37 -86 55 -143 55zM154 326h97c12 69 45 117 74 146c49 51 117 79 193 79c80 0 146 -31 191 -75
c51 -51 84 -122 84 -206c0 -98 -41 -166 -80 -205c-53 -56 -117 -79 -194 -79c-101 0 -165 44 -196 78c-44 47 -76 117 -77 200h-92v-264h-68v539h68v-213z" />
    <glyph glyph-name="afii10049" unicode="&#x42f;" horiz-adv-x="602" 
d="M452 294v183h-234c-13 0 -47 -1 -70 -18c-19 -15 -31 -40 -31 -75s13 -55 28 -67s37 -23 76 -23h231zM519 0h-67v231h-182l-157 -231h-74l158 236c-32 3 -78 12 -109 43c-25 25 -41 63 -41 106c0 47 18 87 43 111c23 23 63 43 131 43h298v-539z" />
    <glyph glyph-name="afii10065" unicode="&#x430;" horiz-adv-x="459" 
d="M147 161h163l-81 160zM-4 0l212 417h41l214 -417h-70l-54 106h-220l-54 -106h-69z" />
    <glyph glyph-name="afii10066" unicode="&#x431;" horiz-adv-x="549" 
d="M143 197v-137h210c22 0 40 6 53 18c11 9 19 25 19 50c0 20 -6 36 -18 48c-19 19 -42 21 -58 21h-206zM346 0h-269v417h376v-61h-310v-98h186c56 0 97 -11 129 -46c21 -23 34 -50 34 -89c0 -41 -15 -68 -34 -85c-37 -34 -84 -38 -112 -38z" />
    <glyph glyph-name="afii10067" unicode="&#x432;" horiz-adv-x="554" 
d="M331 356h-189v-98h190c42 0 63 16 63 49s-21 49 -64 49zM353 197h-211v-137h211c47 0 72 26 72 69s-25 68 -72 68zM77 0v416h256c86 0 129 -34 129 -103c0 -35 -13 -60 -40 -77c47 -27 70 -64 70 -111c0 -76 -51 -125 -146 -125h-269z" />
    <glyph glyph-name="afii10068" unicode="&#x433;" horiz-adv-x="454" 
d="M141 356v-356h-65v417h359v-61h-294z" />
    <glyph glyph-name="afii10069" unicode="&#x434;" horiz-adv-x="493" 
d="M122 58h247l-124 274zM270 417l170 -359h57v-155h-56v97h-389v-97h-56v155h60l165 359h49z" />
    <glyph glyph-name="afii10070" unicode="&#x435;" horiz-adv-x="512" 
d="M76 0v417h391v-61h-326v-104h214v-60h-214v-132h344v-60h-409z" />
    <glyph glyph-name="afii10072" unicode="&#x436;" horiz-adv-x="678" 
d="M370 154v-154h-62v154l-58 55l-160 -209h-80l196 248l-177 169h77l202 -194v194h62v-194l202 194h77l-177 -169l196 -248h-80l-160 209z" />
    <glyph glyph-name="afii10073" unicode="&#x437;" horiz-adv-x="510" 
d="M179 247h104c29 0 65 1 85 17c5 4 17 16 17 37c0 13 -4 29 -21 42c-27 21 -76 27 -108 27c-37 0 -62 -5 -93 -16c-29 -11 -52 -22 -75 -38l-31 50c29 17 59 31 88 42c39 13 74 20 119 20c41 0 88 -6 128 -30c43 -27 58 -61 58 -100c0 -24 -7 -39 -14 -50
c-8 -12 -19 -21 -30 -28c20 -11 33 -22 41 -33c15 -19 19 -34 19 -57c0 -43 -14 -73 -41 -96c-42 -37 -108 -47 -156 -47c-39 0 -86 7 -126 19c-11 3 -52 16 -103 47l34 52c27 -17 52 -30 85 -41c37 -12 69 -17 106 -17c56 0 81 11 89 15c31 15 44 42 44 67
c0 21 -11 33 -28 44c-24 15 -54 18 -105 18h-86v56z" />
    <glyph glyph-name="afii10074" unicode="&#x438;" horiz-adv-x="519" 
d="M442 0h-64v307l-259 -307h-42v417h64v-308l259 308h42v-417z" />
    <glyph glyph-name="afii10075" unicode="&#x439;" horiz-adv-x="519" 
d="M345 587h48c-4 -53 -21 -77 -32 -88c-29 -29 -68 -30 -95 -30c-40 0 -78 1 -107 30c-11 11 -28 35 -32 88h48c3 -28 13 -44 28 -52s40 -9 57 -9s42 1 57 9s25 24 28 52zM442 0h-64v307l-259 -307h-42v417h64v-308l259 308h42v-417z" />
    <glyph glyph-name="afii10076" unicode="&#x43a;" horiz-adv-x="480" 
d="M77 0v416h65v-190l223 190h85l-178 -153l198 -263h-73l-171 225l-84 -72v-153h-65z" />
    <glyph glyph-name="afii10077" unicode="&#x43b;" horiz-adv-x="439" 
d="M-4 0l202 417h42l203 -417h-74l-152 315l-148 -315h-73z" />
    <glyph glyph-name="afii10078" unicode="&#x43c;" horiz-adv-x="587" 
d="M76 0v417h54l163 -244l163 244h54v-417h-65v300l-152 -232l-152 232v-300h-65z" />
    <glyph glyph-name="afii10079" unicode="&#x43d;" horiz-adv-x="575" 
d="M141 194v-194h-65v417h65v-162h293v162h65v-417h-65v194h-293z" />
    <glyph glyph-name="afii10080" unicode="&#x43e;" horiz-adv-x="591" 
d="M295 48c116 0 189 71 189 160s-74 160 -189 160c-114 0 -188 -70 -188 -160s74 -160 188 -160zM295 -13c-152 0 -255 97 -255 221s103 220 255 220c154 0 256 -96 256 -220s-102 -221 -256 -221z" />
    <glyph glyph-name="afii10081" unicode="&#x43f;" horiz-adv-x="540" 
d="M141 356v-356h-65v417h388v-417h-65v356h-258z" />
    <glyph glyph-name="afii10082" unicode="&#x440;" horiz-adv-x="542" 
d="M142 243h238c45 0 69 21 69 57c0 35 -23 56 -66 56h-241v-113zM142 182v-182h-65v417h303c87 0 136 -43 136 -116c0 -67 -48 -119 -129 -119h-245z" />
    <glyph glyph-name="afii10083" unicode="&#x441;" horiz-adv-x="561" 
d="M465 138l52 -36c-47 -75 -125 -115 -225 -115c-148 0 -252 94 -252 220c0 125 104 221 252 221c92 0 169 -35 214 -98l-52 -36c-35 47 -91 74 -162 74c-108 0 -185 -68 -185 -160s78 -160 185 -160c73 0 131 30 173 90z" />
    <glyph glyph-name="afii10084" unicode="&#x442;" horiz-adv-x="427" 
d="M181 0v359h-176v58h417v-58h-176v-359h-65z" />
    <glyph glyph-name="afii10085" unicode="&#x443;" horiz-adv-x="469" 
d="M110 0l86 131l-190 286h81l151 -226l147 226h74l-275 -417h-74z" />
    <glyph glyph-name="afii10086" unicode="&#x444;" horiz-adv-x="573" 
d="M255 158v166h-80c-23 0 -45 -5 -60 -17s-25 -35 -25 -64c0 -28 9 -51 22 -64c11 -9 28 -21 63 -21h80zM317 158h80c35 0 52 12 63 21c13 13 22 35 22 62c0 31 -10 54 -25 66s-37 17 -60 17h-80v-166zM317 98v-98h-62v98h-76c-32 0 -77 1 -114 38c-35 35 -39 77 -39 105
c0 32 5 73 37 104c35 33 78 37 107 37h85v62h62v-62h85c60 0 91 -21 108 -38c23 -23 36 -60 36 -103c0 -55 -20 -87 -40 -106c-36 -36 -84 -37 -112 -37h-77z" />
    <glyph glyph-name="afii10087" unicode="&#x445;" horiz-adv-x="461" 
d="M15 0l175 209l-173 208h79l134 -160l134 160h80l-174 -206l176 -211h-79l-137 163l-138 -163h-77z" />
    <glyph glyph-name="afii10088" unicode="&#x446;" horiz-adv-x="536" 
d="M141 61h237v356h65v-361h83v-153h-56v97h-394v417h65v-356z" />
    <glyph glyph-name="afii10089" unicode="&#x447;" horiz-adv-x="491" 
d="M415 0h-65v175h-125c-48 0 -125 0 -159 37c-31 31 -31 76 -31 108v97h65v-95c0 -19 1 -46 17 -63c21 -23 67 -23 118 -23h115v181h65v-417z" />
    <glyph glyph-name="afii10090" unicode="&#x448;" horiz-adv-x="699" 
d="M618 0h-538v417h66v-356h170v356h66v-356h170v356h66v-417z" />
    <glyph glyph-name="afii10091" unicode="&#x449;" horiz-adv-x="714" 
d="M317 417h66v-356h171v356h66v-361h85v-153h-56v97h-569v417h66v-356h171v356z" />
    <glyph glyph-name="afii10092" unicode="&#x44a;" horiz-adv-x="563" 
d="M213 197v-136h190c17 0 39 3 52 14c15 11 21 33 21 54c0 24 -9 42 -21 53c-17 15 -39 15 -59 15h-183zM213 258h190c35 0 71 -3 103 -34c13 -12 37 -41 37 -94c0 -43 -16 -76 -37 -96c-32 -31 -74 -34 -101 -34h-257v357h-148v60h213v-159z" />
    <glyph glyph-name="afii10093" unicode="&#x44b;" horiz-adv-x="673" 
d="M142 197v-136h190c17 0 39 3 52 14c15 11 21 33 21 54c0 24 -9 42 -21 53c-17 15 -39 15 -59 15h-183zM530 -1v419h65v-419h-65zM142 258h190c35 0 71 -3 103 -34c13 -12 37 -41 37 -94c0 -43 -16 -76 -37 -96c-32 -31 -74 -34 -101 -34h-257v417h65v-159z" />
    <glyph glyph-name="afii10094" unicode="&#x44c;" horiz-adv-x="498" 
d="M142 197v-136h190c17 0 39 3 52 14c15 11 21 33 21 54c0 24 -9 42 -21 53c-17 15 -39 15 -59 15h-183zM142 258h190c35 0 71 -3 103 -34c13 -12 37 -41 37 -94c0 -43 -16 -76 -37 -96c-32 -31 -74 -34 -101 -34h-257v417h65v-159z" />
    <glyph glyph-name="afii10095" unicode="&#x44d;" horiz-adv-x="560" 
d="M45 81l46 45c23 -25 48 -44 75 -56c33 -15 68 -21 105 -21c40 0 83 5 119 32c27 19 51 53 59 101h-242v60h241c-7 29 -21 67 -64 95s-94 31 -123 31c-37 0 -69 -6 -100 -21c-25 -12 -46 -30 -65 -53l-52 35c31 36 63 58 90 71c45 23 91 28 132 28c115 0 174 -48 197 -71
c33 -33 57 -79 57 -143c0 -88 -42 -141 -62 -161c-56 -56 -127 -66 -183 -66c-47 0 -95 8 -134 24c-36 15 -71 42 -96 70z" />
    <glyph glyph-name="afii10096" unicode="&#x44e;" horiz-adv-x="749" 
d="M455 368c-39 0 -87 -6 -130 -45c-37 -35 -50 -76 -50 -115c0 -47 22 -86 50 -113c35 -32 90 -47 135 -47c48 0 100 18 131 45c33 28 51 72 51 115c0 41 -16 79 -47 110c-44 41 -99 50 -140 50zM141 255h75c9 37 29 85 82 124c39 28 91 49 158 49c79 0 145 -28 188 -68
c27 -27 65 -74 65 -152c0 -72 -32 -120 -64 -151c-33 -30 -90 -70 -187 -70c-81 0 -146 29 -189 73c-27 28 -54 71 -57 134h-71v-194h-65v417h65v-162z" />
    <glyph glyph-name="afii10097" unicode="&#x44f;" horiz-adv-x="546" 
d="M404 231v125h-227c-31 0 -45 -9 -52 -16c-8 -8 -17 -21 -17 -44c0 -19 5 -35 20 -47c23 -18 63 -18 87 -18h189zM404 173h-158l-129 -173h-78l133 175c-27 3 -71 12 -100 40c-23 23 -31 47 -31 78c0 37 13 67 33 87c33 32 82 36 115 36h280v-416h-65v173z" />
    <glyph glyph-name="afii10071" unicode="&#x451;" horiz-adv-x="512" 
d="M320 519c0 24 19 44 43 44s44 -20 44 -44c0 -25 -20 -44 -44 -44s-43 19 -43 44zM134 519c0 24 20 44 44 44s43 -20 43 -44c0 -25 -19 -44 -43 -44s-44 19 -44 44zM76 0v417h391v-61h-326v-104h214v-60h-214v-132h344v-60h-409z" />
    <glyph glyph-name="afii10099" unicode="&#x452;" horiz-adv-x="558" 
d="M135 0v359h-145v58h391v-58h-181v-114h114c61 0 134 -1 180 -41c28 -27 34 -57 34 -85c0 -33 -8 -63 -32 -88c-40 -43 -99 -45 -134 -45c-39 0 -70 2 -109 17l17 57c27 -11 55 -17 84 -17c19 0 55 0 80 19c17 12 28 30 28 54c0 23 -9 39 -26 50c-23 15 -62 18 -126 18
h-110v-184h-65z" />
    <glyph glyph-name="afii10100" unicode="&#x453;" horiz-adv-x="454" 
d="M141 356v-356h-65v417h359v-61h-294zM254 470h-45l102 171h74z" />
    <glyph glyph-name="afii10101" unicode="&#x454;" horiz-adv-x="561" 
d="M468 131l53 -39c-19 -24 -47 -55 -94 -78s-89 -27 -134 -27c-57 0 -136 11 -193 68c-41 43 -60 103 -60 159c0 59 26 107 58 142c31 34 95 72 195 72c43 0 88 -5 133 -28c27 -13 59 -35 90 -71l-52 -35c-19 23 -40 41 -65 53c-31 15 -63 21 -100 21
c-31 0 -79 -3 -122 -31c-28 -19 -54 -48 -65 -95h241v-60h-242c8 -55 38 -85 59 -100c39 -28 89 -33 126 -33c35 0 66 4 97 19c40 19 64 47 75 63z" />
    <glyph glyph-name="afii10102" unicode="&#x455;" horiz-adv-x="495" 
d="M35 53l32 55c60 -40 131 -61 191 -61c79 0 124 36 124 81c0 49 -42 69 -130 72c-128 3 -199 20 -199 109c0 69 64 119 172 119c71 0 139 -20 202 -60l-33 -54c-55 36 -117 55 -170 55c-67 0 -105 -25 -105 -60c0 -40 42 -51 130 -51c134 0 201 -45 201 -134
c0 -75 -69 -137 -185 -137c-80 0 -162 23 -230 66z" />
    <glyph glyph-name="afii10103" unicode="&#x456;" horiz-adv-x="211" 
d="M57 519c0 27 22 49 49 49s48 -22 48 -49s-21 -48 -48 -48s-49 21 -49 48zM72 -1v419h66v-419h-66z" />
    <glyph glyph-name="afii10104" unicode="&#x457;" horiz-adv-x="211" 
d="M120 525c0 24 17 44 38 44c23 0 40 -20 40 -44c0 -25 -17 -44 -40 -44c-21 0 -38 19 -38 44zM13 525c0 24 18 44 41 44c21 0 38 -20 38 -44c0 -25 -17 -44 -38 -44c-23 0 -41 19 -41 44zM72 -1v419h66v-419h-66z" />
    <glyph glyph-name="afii10105" unicode="&#x458;" horiz-adv-x="447" 
d="M24 178h65v-44c0 -61 38 -87 119 -87c85 0 108 30 108 122v247h65v-268c0 -116 -52 -161 -181 -161c-119 0 -176 43 -176 138v53z" />
    <glyph glyph-name="afii10106" unicode="&#x459;" horiz-adv-x="661" 
d="M339 197l67 -136h108c19 0 38 4 51 13c21 15 24 38 24 54s-3 39 -23 54c-19 13 -46 15 -62 15h-165zM0 0l194 417h42l75 -159h201c25 0 75 -2 109 -36c21 -21 35 -53 35 -92c0 -43 -16 -76 -37 -96c-32 -31 -74 -34 -101 -34h-83h-73l-149 315l-140 -315h-73z" />
    <glyph glyph-name="afii10107" unicode="&#x45a;" horiz-adv-x="829" 
d="M489 197v-136h190c15 0 39 4 51 13c13 11 22 30 22 55c0 24 -9 42 -21 53c-17 15 -39 15 -59 15h-183zM424 417h65v-159h190c35 0 71 -3 103 -34c13 -12 37 -41 37 -94c0 -43 -16 -76 -37 -96c-32 -31 -74 -34 -101 -34h-257v197h-283v-197h-65v417h65v-159h283v159z" />
    <glyph glyph-name="afii10108" unicode="&#x45b;" horiz-adv-x="556" 
d="M135 0v359h-145v58h391v-58h-181v-118h136c63 0 126 -5 159 -37c31 -31 31 -76 31 -108v-96h-65v94c0 17 -1 48 -17 64c-12 12 -41 22 -118 22h-126v-180h-65z" />
    <glyph glyph-name="afii10109" unicode="&#x45c;" horiz-adv-x="480" 
d="M77 0v416h65v-190l223 190h85l-178 -153l198 -263h-73l-171 225l-84 -72v-153h-65zM249 470h-45l102 171h74z" />
    <glyph glyph-name="afii10110" unicode="&#x45e;" horiz-adv-x="469" 
d="M110 0l86 131l-190 286h81l151 -226l147 226h74l-275 -417h-74zM319 587h48c-4 -53 -21 -77 -32 -88c-29 -29 -68 -30 -97 -30c-35 0 -74 -1 -105 30c-11 11 -28 35 -32 88h48c3 -28 13 -44 28 -52s40 -9 57 -9s42 1 57 9s25 24 28 52z" />
    <glyph glyph-name="afii10193" unicode="&#x45f;" horiz-adv-x="540" 
d="M141 61h258v356h65v-417h-166v-117h-56v117h-166v417h65v-356z" />
    <glyph glyph-name="afii10146" unicode="&#x462;" horiz-adv-x="622" 
d="M204 253v-191h221c51 0 72 14 83 25c16 16 24 45 24 73c0 35 -14 56 -26 67c-27 24 -65 26 -85 26h-217zM204 477v-161h222c40 0 90 -3 136 -49c29 -31 40 -67 40 -108c0 -57 -20 -92 -40 -112c-27 -27 -71 -47 -143 -47h-282v477h-137v62h136v67h67v-67h198v-62h-197z
" />
    <glyph glyph-name="afii10194" unicode="&#x463;" horiz-adv-x="519" 
d="M169 197v-136h189c17 0 40 4 52 13c13 11 22 30 22 55c0 24 -9 42 -21 53c-17 15 -39 15 -59 15h-183zM169 359v-101h190c35 0 71 -3 103 -34c13 -12 37 -41 37 -94c0 -43 -16 -76 -37 -96c-32 -31 -74 -34 -101 -34h-257v359h-104v58h104v80h65v-80h131v-58h-131z" />
    <glyph glyph-name="afii10147" unicode="&#x472;" horiz-adv-x="645" 
d="M530 248h-417c4 -57 28 -107 63 -142c25 -25 71 -57 146 -57c67 0 113 25 145 56c26 23 60 72 63 143zM322 488c-49 0 -105 -18 -146 -58c-27 -27 -52 -66 -60 -122h412c-7 53 -32 96 -61 124c-39 37 -96 56 -145 56zM322 551c87 0 156 -36 201 -81
c34 -37 79 -99 79 -201c0 -95 -36 -160 -79 -203c-38 -38 -101 -80 -201 -80c-106 0 -170 50 -200 80c-39 39 -79 104 -79 202c0 88 32 156 79 203c47 48 117 80 200 80z" />
    <glyph glyph-name="afii10195" unicode="&#x473;" horiz-adv-x="581" 
d="M478 188h-375c4 -27 16 -63 53 -96c43 -37 91 -46 136 -46c49 0 94 11 133 46s49 71 53 96zM106 243h369c-12 43 -36 70 -56 86c-27 21 -68 41 -129 41c-64 0 -107 -19 -146 -58c-19 -19 -31 -42 -38 -69zM290 428c72 0 138 -16 194 -71c39 -39 62 -85 62 -149
c0 -69 -30 -117 -62 -149c-23 -23 -83 -72 -194 -72c-93 0 -152 33 -191 70c-49 48 -64 103 -64 151c0 68 29 116 62 149c36 36 96 71 193 71z" />
    <glyph glyph-name="afii10148" unicode="&#x474;" horiz-adv-x="576" 
d="M290 0h-42l-255 539h73l203 -432l156 352c9 20 24 47 41 64c16 15 40 28 73 28c12 0 27 -1 44 -8l-23 -59c-6 2 -13 3 -21 3c-13 0 -24 -5 -34 -16c-7 -8 -15 -21 -20 -32z" />
    <glyph glyph-name="afii10196" unicode="&#x475;" horiz-adv-x="483" 
d="M245 0h-32l-203 417h69l151 -312l100 239c9 21 23 47 38 60c15 15 37 24 64 24c15 0 33 -3 46 -7l-20 -54c-7 2 -15 3 -22 3c-10 0 -19 -4 -28 -11c-8 -7 -17 -24 -21 -33z" />
    <glyph glyph-name="afii10050" unicode="&#x490;" horiz-adv-x="479" 
d="M86 0v540h331v108h67v-171h-331v-477h-67z" />
    <glyph glyph-name="afii10098" unicode="&#x491;" horiz-adv-x="425" 
d="M141 356v-356h-65v417h289v100h60v-161h-284z" />
    <glyph glyph-name="uni04A2" unicode="&#x4a2;" horiz-adv-x="616" 
d="M81 0v539h68v-213h318v213h67v-477h59v-182h-60v120h-66v264h-318v-264h-68z" />
    <glyph glyph-name="uni04A3" unicode="&#x4a3;" horiz-adv-x="565" 
d="M136 194v-194h-65v417h65v-162h293v162h65v-359h56v-155h-56v97h-65v194h-293z" />
    <glyph glyph-name="uni04AE" unicode="&#x4ae;" horiz-adv-x="454" 
d="M193 0v270l-243 269h84l193 -213l192 213h85l-244 -270v-269h-67z" />
    <glyph glyph-name="uni04AF" unicode="&#x4af;" horiz-adv-x="447" 
d="M191 0v213l-190 204h84l138 -148l136 148h87l-191 -203v-214h-64z" />
    <glyph glyph-name="uni04BA" unicode="&#x4ba;" horiz-adv-x="585" 
d="M87 0v539h67v-213h177c64 0 125 -4 162 -40c33 -32 37 -78 37 -106v-180h-68v173c0 37 -13 57 -24 66c-27 24 -76 24 -105 24h-179v-263h-67z" />
    <glyph glyph-name="uni04BB" unicode="&#x4bb;" horiz-adv-x="502" 
d="M76 417h65v-161h136c63 0 126 -5 159 -37c31 -31 31 -76 31 -108v-111h-65v109c0 17 -1 48 -17 64c-12 12 -41 22 -118 22h-126v-195h-65v417z" />
    <glyph glyph-name="uni04D0" unicode="&#x4d0;" horiz-adv-x="598" 
d="M179 208h237l-119 239zM5 0l264 539h56l267 -539h-73l-73 145h-298l-71 -145h-72zM390 715h50c0 -28 -8 -66 -33 -91c-32 -32 -77 -32 -109 -32s-77 0 -109 32c-25 24 -33 62 -33 91h50c0 -10 2 -44 31 -57c16 -8 46 -9 61 -9s46 1 63 10c23 12 29 37 29 56z" />
    <glyph glyph-name="uni04D1" unicode="&#x4d1;" horiz-adv-x="459" 
d="M147 161h163l-81 160zM-4 0l212 417h41l214 -417h-70l-54 106h-220l-54 -106h-69zM314 587h48c-4 -53 -21 -77 -32 -88c-29 -29 -68 -30 -97 -30c-35 0 -74 -1 -105 30c-11 11 -28 35 -32 88h48c3 -28 13 -44 28 -52s40 -9 57 -9s42 1 57 9s25 24 28 52z" />
    <glyph glyph-name="uni04D2" unicode="&#x4d2;" horiz-adv-x="598" 
d="M179 208h237l-119 239zM5 0l264 539h56l267 -539h-73l-73 145h-298l-71 -145h-72zM330 665c0 24 19 44 43 44s44 -20 44 -44c0 -25 -20 -44 -44 -44s-43 19 -43 44zM173 665c0 24 20 44 44 44s43 -20 43 -44c0 -25 -19 -44 -43 -44s-44 19 -44 44z" />
    <glyph glyph-name="uni04D3" unicode="&#x4d3;" horiz-adv-x="459" 
d="M147 161h163l-81 160zM-4 0l212 417h41l214 -417h-70l-54 106h-220l-54 -106h-69zM266 525c0 24 19 44 43 44s44 -20 44 -44c0 -25 -20 -44 -44 -44s-43 19 -43 44zM109 525c0 24 20 44 44 44s43 -20 43 -44c0 -25 -19 -44 -43 -44s-44 19 -44 44z" />
    <glyph glyph-name="uni04D4" unicode="&#x4d4;" horiz-adv-x="859" 
d="M414 0v145h-283l-85 -145h-71l313 539h73h477v-62h-357v-158h217v-62h-217v-195h380v-62h-447zM166 208h248v269h-91z" />
    <glyph glyph-name="uni04D5" unicode="&#x4d5;" horiz-adv-x="810" 
d="M157 161h222v195h-110zM123 106l-61 -106h-70l240 417h72h468v-61h-328v-104h213v-60h-213v-132h344v-60h-409v106h-256z" />
    <glyph glyph-name="uni04D6" unicode="&#x4d6;" horiz-adv-x="556" 
d="M86 0v539h424v-62h-357v-158h216v-62h-216v-195h379v-62h-446zM395 715h50c0 -28 -8 -66 -33 -91c-32 -32 -77 -32 -109 -32s-77 0 -109 32c-25 24 -33 62 -33 91h50c0 -10 2 -44 31 -57c16 -8 46 -9 61 -9s46 1 63 10c23 12 29 37 29 56z" />
    <glyph glyph-name="uni04D7" unicode="&#x4d7;" horiz-adv-x="512" 
d="M76 0v417h391v-61h-326v-104h214v-60h-214v-132h344v-60h-409zM360 587h48c-4 -53 -21 -77 -32 -88c-29 -29 -68 -30 -97 -30c-35 0 -74 -1 -105 30c-11 11 -28 35 -32 88h48c3 -28 13 -44 28 -52s40 -9 57 -9s42 1 57 9s25 24 28 52z" />
    <glyph glyph-name="uni04DC" unicode="&#x4dc;" horiz-adv-x="814" 
d="M373 0v195l-79 81l-200 -276h-81l233 322l-205 218h82l250 -266v268h68v-268l250 266h82l-205 -218l233 -322h-81l-200 276l-79 -82v-194h-68zM442 665c0 24 19 44 43 44s44 -20 44 -44c0 -25 -20 -44 -44 -44s-43 19 -43 44zM285 665c0 24 20 44 44 44s43 -20 43 -44
c0 -25 -19 -44 -43 -44s-44 19 -44 44z" />
    <glyph glyph-name="uni04DD" unicode="&#x4dd;" horiz-adv-x="678" 
d="M370 154v-154h-62v154l-58 55l-160 -209h-80l196 248l-177 169h77l202 -194v194h62v-194l202 194h77l-177 -169l196 -248h-80l-160 209zM374 525c0 24 19 44 43 44s44 -20 44 -44c0 -25 -20 -44 -44 -44s-43 19 -43 44zM217 525c0 24 20 44 44 44s43 -20 43 -44
c0 -25 -19 -44 -43 -44s-44 19 -44 44z" />
    <glyph glyph-name="uni04DE" unicode="&#x4de;" horiz-adv-x="613" 
d="M101 418l-38 53c31 19 67 39 102 52c43 16 95 28 147 28c8 0 99 0 157 -37c52 -33 68 -82 68 -122c0 -51 -30 -86 -71 -103c24 -11 46 -27 61 -44c15 -19 27 -45 27 -81c0 -35 -10 -97 -74 -137c-56 -37 -138 -41 -180 -41c-45 0 -97 5 -148 24c-37 13 -76 34 -112 65
l41 55c32 -27 66 -44 98 -57c47 -19 89 -25 132 -25c64 0 99 15 116 24c51 27 56 71 56 89c0 30 -14 53 -42 68c-24 15 -63 25 -152 25h-99v64h102c81 0 114 6 133 15c31 15 43 41 43 64s-11 52 -52 71c-37 19 -80 20 -103 20c-35 0 -74 -5 -117 -20
c-31 -12 -67 -31 -95 -50zM341 665c0 24 19 44 43 44s44 -20 44 -44c0 -25 -20 -44 -44 -44s-43 19 -43 44zM184 665c0 24 20 44 44 44s43 -20 43 -44c0 -25 -19 -44 -43 -44s-44 19 -44 44z" />
    <glyph glyph-name="uni04DF" unicode="&#x4df;" horiz-adv-x="510" 
d="M179 247h104c29 0 65 1 85 17c5 4 17 16 17 37c0 13 -4 29 -21 42c-27 21 -76 27 -108 27c-37 0 -62 -5 -93 -16c-29 -11 -52 -22 -75 -38l-31 50c29 17 59 31 88 42c39 13 74 20 119 20c41 0 88 -6 128 -30c43 -27 58 -61 58 -100c0 -24 -7 -39 -14 -50
c-8 -12 -19 -21 -30 -28c20 -11 33 -22 41 -33c15 -19 19 -34 19 -57c0 -43 -14 -73 -41 -96c-42 -37 -108 -47 -156 -47c-39 0 -86 7 -126 19c-11 3 -52 16 -103 47l34 52c27 -17 52 -30 85 -41c37 -12 69 -17 106 -17c56 0 81 11 89 15c31 15 44 42 44 67
c0 21 -11 33 -28 44c-24 15 -54 18 -105 18h-86v56zM295 525c0 24 19 44 43 44s44 -20 44 -44c0 -25 -20 -44 -44 -44s-43 19 -43 44zM138 525c0 24 20 44 44 44s43 -20 43 -44c0 -25 -19 -44 -43 -44s-44 19 -44 44z" />
    <glyph glyph-name="uni04E2" unicode="&#x4e2;" horiz-adv-x="625" 
d="M540 0h-67v418l-343 -418h-44v539h67v-418l342 418h45v-539zM187 626v57h250v-57h-250z" />
    <glyph glyph-name="uni04E3" unicode="&#x4e3;" horiz-adv-x="519" 
d="M442 0h-64v307l-259 -307h-42v417h64v-308l259 308h42v-417zM140 480v57h250v-57h-250z" />
    <glyph glyph-name="uni04E4" unicode="&#x4e4;" horiz-adv-x="625" 
d="M540 0h-67v418l-343 -418h-44v539h67v-418l342 418h45v-539zM350 665c0 24 19 44 43 44s44 -20 44 -44c0 -25 -20 -44 -44 -44s-43 19 -43 44zM193 665c0 24 20 44 44 44s43 -20 43 -44c0 -25 -19 -44 -43 -44s-44 19 -44 44z" />
    <glyph glyph-name="uni04E5" unicode="&#x4e5;" horiz-adv-x="519" 
d="M442 0h-64v307l-259 -307h-42v417h64v-308l259 308h42v-417zM295 525c0 24 19 44 43 44s44 -20 44 -44c0 -25 -20 -44 -44 -44s-43 19 -43 44zM138 525c0 24 20 44 44 44s43 -20 43 -44c0 -25 -19 -44 -43 -44s-44 19 -44 44z" />
    <glyph glyph-name="uni04E6" unicode="&#x4e6;" horiz-adv-x="644" 
d="M322 49c120 0 210 92 210 219c0 128 -90 220 -210 220s-210 -92 -210 -220s90 -219 210 -219zM322 -14c-161 0 -279 118 -279 282s118 283 279 283s280 -119 280 -283s-119 -282 -280 -282zM357 665c0 24 19 44 43 44s44 -20 44 -44c0 -25 -20 -44 -44 -44s-43 19 -43 44
zM200 665c0 24 20 44 44 44s43 -20 43 -44c0 -25 -19 -44 -43 -44s-44 19 -44 44z" />
    <glyph glyph-name="uni04E7" unicode="&#x4e7;" horiz-adv-x="591" 
d="M295 48c116 0 189 71 189 160s-74 160 -189 160c-114 0 -188 -70 -188 -160s74 -160 188 -160zM295 -13c-152 0 -255 97 -255 221s103 220 255 220c154 0 256 -96 256 -220s-102 -221 -256 -221zM330 525c0 24 19 44 43 44s44 -20 44 -44c0 -25 -20 -44 -44 -44
s-43 19 -43 44zM173 525c0 24 20 44 44 44s43 -20 43 -44c0 -25 -19 -44 -43 -44s-44 19 -44 44z" />
    <glyph glyph-name="uni04E8" unicode="&#x4e8;" horiz-adv-x="645" 
d="M530 248h-417c4 -57 28 -107 63 -142c25 -25 71 -57 146 -57c67 0 113 25 145 56c26 23 60 72 63 143zM322 488c-49 0 -105 -18 -146 -58c-27 -27 -52 -66 -60 -122h412c-7 53 -32 96 -61 124c-39 37 -96 56 -145 56zM322 551c87 0 156 -36 201 -81
c34 -37 79 -99 79 -201c0 -95 -36 -160 -79 -203c-38 -38 -101 -80 -201 -80c-106 0 -170 50 -200 80c-39 39 -79 104 -79 202c0 88 32 156 79 203c47 48 117 80 200 80z" />
    <glyph glyph-name="uni04E9" unicode="&#x4e9;" horiz-adv-x="581" 
d="M478 188h-375c4 -27 16 -63 53 -96c43 -37 91 -46 136 -46c49 0 94 11 133 46s49 71 53 96zM106 243h369c-12 43 -36 70 -56 86c-27 21 -68 41 -129 41c-64 0 -107 -19 -146 -58c-19 -19 -31 -42 -38 -69zM290 428c72 0 138 -16 194 -71c39 -39 62 -85 62 -149
c0 -69 -30 -117 -62 -149c-23 -23 -83 -72 -194 -72c-93 0 -152 33 -191 70c-49 48 -64 103 -64 151c0 68 29 116 62 149c36 36 96 71 193 71z" />
    <glyph glyph-name="uni04EA" unicode="&#x4ea;" horiz-adv-x="645" 
d="M530 248h-417c4 -57 28 -107 63 -142c25 -25 71 -57 146 -57c67 0 113 25 145 56c26 23 60 72 63 143zM322 488c-49 0 -105 -18 -146 -58c-27 -27 -52 -66 -60 -122h412c-7 53 -32 96 -61 124c-39 37 -96 56 -145 56zM322 551c87 0 156 -36 201 -81
c34 -37 79 -99 79 -201c0 -95 -36 -160 -79 -203c-38 -38 -101 -80 -201 -80c-106 0 -170 50 -200 80c-39 39 -79 104 -79 202c0 88 32 156 79 203c47 48 117 80 200 80zM357 665c0 24 19 44 43 44s44 -20 44 -44c0 -25 -20 -44 -44 -44s-43 19 -43 44zM200 665
c0 24 20 44 44 44s43 -20 43 -44c0 -25 -19 -44 -43 -44s-44 19 -44 44z" />
    <glyph glyph-name="uni04EB" unicode="&#x4eb;" horiz-adv-x="581" 
d="M478 188h-375c4 -27 16 -63 53 -96c43 -37 91 -46 136 -46c49 0 94 11 133 46s49 71 53 96zM106 243h369c-12 43 -36 70 -56 86c-27 21 -68 41 -129 41c-64 0 -107 -19 -146 -58c-19 -19 -31 -42 -38 -69zM290 428c72 0 138 -16 194 -71c39 -39 62 -85 62 -149
c0 -69 -30 -117 -62 -149c-23 -23 -83 -72 -194 -72c-93 0 -152 33 -191 70c-49 48 -64 103 -64 151c0 68 29 116 62 149c36 36 96 71 193 71zM330 525c0 24 19 44 43 44s44 -20 44 -44c0 -25 -20 -44 -44 -44s-43 19 -43 44zM173 525c0 24 20 44 44 44s43 -20 43 -44
c0 -25 -19 -44 -43 -44s-44 19 -44 44z" />
    <glyph glyph-name="uni04EE" unicode="&#x4ee;" horiz-adv-x="582" 
d="M153 0l105 178l-239 361h86l199 -296l185 296h78l-337 -539h-77zM166 626v57h250v-57h-250z" />
    <glyph glyph-name="uni04EF" unicode="&#x4ef;" horiz-adv-x="469" 
d="M110 0l86 131l-190 286h81l151 -226l147 226h74l-275 -417h-74zM111 480v57h250v-57h-250z" />
    <glyph glyph-name="uni04F0" unicode="&#x4f0;" horiz-adv-x="582" 
d="M153 0l105 178l-239 361h86l199 -296l185 296h78l-337 -539h-77zM330 665c0 24 19 44 43 44s44 -20 44 -44c0 -25 -20 -44 -44 -44s-43 19 -43 44zM173 665c0 24 20 44 44 44s43 -20 43 -44c0 -25 -19 -44 -43 -44s-44 19 -44 44z" />
    <glyph glyph-name="uni04F1" unicode="&#x4f1;" horiz-adv-x="469" 
d="M110 0l86 131l-190 286h81l151 -226l147 226h74l-275 -417h-74zM271 525c0 24 19 44 43 44s44 -20 44 -44c0 -25 -20 -44 -44 -44s-43 19 -43 44zM114 525c0 24 20 44 44 44s43 -20 43 -44c0 -25 -19 -44 -43 -44s-44 19 -44 44z" />
    <glyph glyph-name="uni04F2" unicode="&#x4f2;" horiz-adv-x="582" 
d="M153 0l105 178l-239 361h86l199 -296l185 296h78l-337 -539h-77zM320 597l82 171h65l-111 -171h-36zM205 597l73 171h65l-102 -171h-36z" />
    <glyph glyph-name="uni04F3" unicode="&#x4f3;" horiz-adv-x="469" 
d="M110 0l86 131l-190 286h81l151 -226l147 226h74l-275 -417h-74zM265 472l82 171h65l-111 -171h-36zM150 472l73 171h65l-102 -171h-36z" />
    <glyph glyph-name="uni04F4" unicode="&#x4f4;" horiz-adv-x="570" 
d="M483 539v-539h-67v244h-162c-50 0 -121 0 -161 40c-35 33 -38 79 -38 106v149h68v-143c0 -17 2 -45 25 -65c17 -15 45 -25 104 -25h164v233h67zM315 665c0 24 19 44 43 44s44 -20 44 -44c0 -25 -20 -44 -44 -44s-43 19 -43 44zM158 665c0 24 20 44 44 44s43 -20 43 -44
c0 -25 -19 -44 -43 -44s-44 19 -44 44z" />
    <glyph glyph-name="uni04F5" unicode="&#x4f5;" horiz-adv-x="491" 
d="M415 0h-65v175h-125c-48 0 -125 0 -159 37c-31 31 -31 76 -31 108v97h65v-95c0 -19 1 -46 17 -63c21 -23 67 -23 118 -23h115v181h65v-417zM266 525c0 24 19 44 43 44s44 -20 44 -44c0 -25 -20 -44 -44 -44s-43 19 -43 44zM109 525c0 24 20 44 44 44s43 -20 43 -44
c0 -25 -19 -44 -43 -44s-44 19 -44 44z" />
    <glyph glyph-name="uni04F8" unicode="&#x4f8;" horiz-adv-x="759" 
d="M153 253v-191h213c24 0 58 1 82 25c17 17 25 44 25 73c0 35 -14 55 -26 67c-27 24 -65 26 -85 26h-209zM605 -2v544h68v-544h-68zM153 316h214c40 0 90 -3 136 -49c29 -31 40 -67 40 -108c0 -57 -20 -92 -40 -112c-27 -27 -71 -47 -143 -47h-274v539h67v-223zM414 665
c0 24 19 44 43 44s44 -20 44 -44c0 -25 -20 -44 -44 -44s-43 19 -43 44zM257 665c0 24 20 44 44 44s43 -20 43 -44c0 -25 -19 -44 -43 -44s-44 19 -44 44z" />
    <glyph glyph-name="uni04F9" unicode="&#x4f9;" horiz-adv-x="673" 
d="M142 197v-136h190c17 0 39 3 52 14c15 11 21 33 21 54c0 24 -9 42 -21 53c-17 15 -39 15 -59 15h-183zM530 -1v419h65v-419h-65zM142 258h190c35 0 71 -3 103 -34c13 -12 37 -41 37 -94c0 -43 -16 -76 -37 -96c-32 -31 -74 -34 -101 -34h-257v417h65v-159zM371 525
c0 24 19 44 43 44s44 -20 44 -44c0 -25 -20 -44 -44 -44s-43 19 -43 44zM214 525c0 24 20 44 44 44s43 -20 43 -44c0 -25 -19 -44 -43 -44s-44 19 -44 44z" />
    <glyph glyph-name="uni1E9E" unicode="&#x1e9e;" horiz-adv-x="1149" 
d="M30 81l39 58c77 -60 161 -91 241 -91c103 0 168 49 168 113c0 49 -42 89 -126 96c-91 8 -166 7 -222 34c-51 25 -77 62 -77 111c0 83 81 149 209 149c92 0 179 -31 258 -88l-39 -56c-67 54 -140 81 -218 81c-85 0 -140 -38 -140 -83c0 -19 9 -35 26 -48
c45 -35 123 -27 222 -38c113 -13 178 -77 178 -160c0 -93 -86 -173 -238 -173c-107 0 -197 30 -281 95zM582 81l39 58c77 -60 161 -91 241 -91c103 0 168 49 168 113c0 49 -42 89 -126 96c-91 8 -166 7 -222 34c-51 25 -77 62 -77 111c0 83 81 149 209 149
c92 0 179 -31 258 -88l-39 -56c-67 54 -140 81 -218 81c-85 0 -140 -38 -140 -83c0 -19 9 -35 26 -48c45 -35 123 -27 222 -38c113 -13 178 -77 178 -160c0 -93 -86 -173 -238 -173c-107 0 -197 30 -281 95z" />
    <glyph glyph-name="uni2010" unicode="&#x2010;" horiz-adv-x="257" 
d="M23 298h211v-59h-211v59z" />
    <glyph glyph-name="uni2011" unicode="&#x2011;" horiz-adv-x="257" 
d="M23 298h211v-59h-211v59z" />
    <glyph glyph-name="figuredash" unicode="&#x2012;" 
d="M0 284h500v-41h-500v41z" />
    <glyph glyph-name="endash" unicode="&#x2013;" 
d="M0 289h500v-41h-500v41z" />
    <glyph glyph-name="emdash" unicode="&#x2014;" horiz-adv-x="1000" 
d="M1000 289v-41h-1000v41h1000z" />
    <glyph glyph-name="afii00208" unicode="&#x2015;" horiz-adv-x="1000" 
d="M1000 289v-41h-1000v41h1000z" />
    <glyph glyph-name="quoteleft" unicode="&#x2018;" horiz-adv-x="333" 
d="M194 551l19 -17c-21 -29 -35 -58 -44 -86h4c19 0 35 -17 35 -44c0 -28 -17 -47 -41 -47c-25 0 -46 22 -46 65c0 37 24 80 73 129z" />
    <glyph glyph-name="quoteright" unicode="&#x2019;" horiz-adv-x="333" 
d="M139 357l-18 17c19 28 34 57 43 86h-5c-19 0 -34 16 -34 43c0 28 18 48 42 48c25 0 46 -23 46 -66c0 -36 -25 -79 -74 -128z" />
    <glyph glyph-name="quotesinglbase" unicode="&#x201a;" horiz-adv-x="333" 
d="M139 -102l-18 17c19 29 34 57 43 85h-4c-19 0 -35 17 -35 44c0 28 18 48 42 48c25 0 46 -23 46 -66c0 -36 -25 -79 -74 -128z" />
    <glyph glyph-name="quotedblleft" unicode="&#x201c;" horiz-adv-x="495" 
d="M194 551l19 -17c-21 -29 -35 -58 -44 -86h4c19 0 35 -17 35 -44c0 -28 -17 -47 -41 -47c-25 0 -46 22 -46 65c0 37 24 80 73 129zM356 551l19 -17c-21 -29 -35 -58 -44 -86h4c19 0 35 -17 35 -44c0 -28 -17 -47 -41 -47c-25 0 -46 22 -46 65c0 37 24 80 73 129z" />
    <glyph glyph-name="quotedblright" unicode="&#x201d;" horiz-adv-x="495" 
d="M301 357l-18 17c19 28 34 57 43 86h-5c-19 0 -34 16 -34 43c0 28 18 48 42 48c25 0 46 -23 46 -66c0 -36 -25 -79 -74 -128zM139 357l-18 17c19 28 34 57 43 86h-5c-19 0 -34 16 -34 43c0 28 18 48 42 48c25 0 46 -23 46 -66c0 -36 -25 -79 -74 -128z" />
    <glyph glyph-name="quotedblbase" unicode="&#x201e;" horiz-adv-x="495" 
d="M301 -103l-18 17c19 28 34 57 43 86h-5c-19 0 -34 16 -34 43c0 28 18 48 42 48c25 0 46 -23 46 -66c0 -36 -25 -79 -74 -128zM139 -103l-18 17c19 28 34 57 43 86h-5c-19 0 -34 16 -34 43c0 28 18 48 42 48c25 0 46 -23 46 -66c0 -36 -25 -79 -74 -128z" />
    <glyph glyph-name="dagger" unicode="&#x2020;" 
d="M219 -75v405h-138v57h138v152h63v-152h137v-57h-137v-405h-63z" />
    <glyph glyph-name="daggerdbl" unicode="&#x2021;" 
d="M218 330h-137v58h137v151h64v-151h137v-58h-137v-196h137v-58h-137v-151h-64v151h-137v58h137v196z" />
    <glyph glyph-name="bullet" unicode="&#x2022;" horiz-adv-x="590" 
d="M150 372c0 79 65 144 145 144c79 0 144 -65 144 -144s-65 -145 -145 -145c-81 0 -144 65 -144 145z" />
    <glyph glyph-name="ellipsis" unicode="&#x2026;" horiz-adv-x="872" 
d="M706 75c23 0 40 -18 40 -45s-17 -44 -40 -44s-41 17 -41 44s18 45 41 45zM372 75c23 0 40 -18 40 -45s-17 -44 -40 -44s-41 17 -41 44s18 45 41 45zM39 75c23 0 40 -18 40 -45s-17 -44 -40 -44s-41 17 -41 44s18 45 41 45z" />
    <glyph glyph-name="perthousand" unicode="&#x2030;" horiz-adv-x="1206" 
d="M1026 44c52 0 91 41 91 97s-39 98 -91 98c-51 0 -90 -41 -90 -98c0 -56 39 -97 90 -97zM1028 -14c-87 0 -154 64 -154 155s66 155 154 155c89 0 153 -64 153 -155s-65 -155 -153 -155zM663 44c52 0 91 41 91 97s-39 98 -91 98c-51 0 -90 -41 -90 -98c0 -56 39 -97 90 -97
zM663 -14c-88 0 -153 64 -153 155s65 155 153 155c89 0 154 -64 154 -155s-66 -155 -154 -155zM523 513h70l-274 -513h-70zM179 272c52 0 91 42 91 98s-39 97 -91 97c-51 0 -90 -40 -90 -97c0 -56 39 -98 90 -98zM179 214c-87 0 -154 64 -154 155s66 156 154 156
c89 0 153 -65 153 -156s-65 -155 -153 -155z" />
    <glyph glyph-name="guilsinglleft" unicode="&#x2039;" horiz-adv-x="216" 
d="M181 41l-158 118v97l158 119v-71l-124 -96l124 -98v-69z" />
    <glyph glyph-name="guilsinglright" unicode="&#x203a;" horiz-adv-x="216" 
d="M35 41v69l124 98l-124 96v71l158 -119v-97z" />
    <glyph glyph-name="fraction" unicode="&#x2044;" horiz-adv-x="162" 
d="M266 524h62l-432 -538h-63z" />
    <glyph glyph-name="Euro" unicode="&#x20ac;" horiz-adv-x="667" 
d="M560 172l54 -40c-31 -56 -71 -90 -103 -109c-51 -31 -104 -37 -147 -37c-92 0 -148 30 -181 58c-41 35 -72 89 -85 141h-84l26 45h49c-1 12 -2 25 -2 38c0 8 0 15 1 23h-74l26 45h55c11 47 36 98 71 135c41 43 109 80 204 80c56 0 98 -13 131 -32c32 -17 65 -45 92 -81
l-47 -53c-15 28 -38 56 -75 77c-33 19 -65 26 -104 26c-49 0 -95 -12 -134 -44c-29 -24 -55 -61 -67 -108h343l-27 -45h-325c-1 -7 -1 -14 -1 -21c0 -13 1 -26 3 -40h287l-28 -45h-247c15 -44 39 -74 63 -93c32 -25 78 -43 135 -43c39 0 75 9 111 32c29 19 59 50 80 91z" />
    <glyph glyph-name="uni20B6" unicode="&#x20b6;" horiz-adv-x="667" 
d="M48 299h70v240h309c107 0 169 -55 169 -146c0 -90 -60 -157 -160 -157h-251v-75h251v-62h-251v-99h-67v99h-70v62h70v76h-70v62zM185 299h238c69 0 103 29 103 88c0 56 -35 90 -100 90h-241v-178z" />
    <glyph glyph-name="uni20B6" unicode="&#x20cf;" horiz-adv-x="667" 
d="M48 299h70v240h309c107 0 169 -55 169 -146c0 -90 -60 -157 -160 -157h-251v-75h251v-62h-251v-99h-67v99h-70v62h70v76h-70v62zM185 299h238c69 0 103 29 103 88c0 56 -35 90 -100 90h-241v-178z" />
    <glyph glyph-name="uni20B6" unicode="&#x20ce;" horiz-adv-x="667" 
d="M48 299h70v240h309c107 0 169 -55 169 -146c0 -90 -60 -157 -160 -157h-251v-75h251v-62h-251v-99h-67v99h-70v62h70v76h-70v62zM185 299h238c69 0 103 29 103 88c0 56 -35 90 -100 90h-241v-178z" />
    <glyph glyph-name="uni20B6" unicode="&#x20cd;" horiz-adv-x="667" 
d="M48 299h70v240h309c107 0 169 -55 169 -146c0 -90 -60 -157 -160 -157h-251v-75h251v-62h-251v-99h-67v99h-70v62h70v76h-70v62zM185 299h238c69 0 103 29 103 88c0 56 -35 90 -100 90h-241v-178z" />
    <glyph glyph-name="uni20B6" unicode="&#x20cc;" horiz-adv-x="667" 
d="M48 299h70v240h309c107 0 169 -55 169 -146c0 -90 -60 -157 -160 -157h-251v-75h251v-62h-251v-99h-67v99h-70v62h70v76h-70v62zM185 299h238c69 0 103 29 103 88c0 56 -35 90 -100 90h-241v-178z" />
    <glyph glyph-name="uni20B6" unicode="&#x20cb;" horiz-adv-x="667" 
d="M48 299h70v240h309c107 0 169 -55 169 -146c0 -90 -60 -157 -160 -157h-251v-75h251v-62h-251v-99h-67v99h-70v62h70v76h-70v62zM185 299h238c69 0 103 29 103 88c0 56 -35 90 -100 90h-241v-178z" />
    <glyph glyph-name="uni20B6" unicode="&#x20ca;" horiz-adv-x="667" 
d="M48 299h70v240h309c107 0 169 -55 169 -146c0 -90 -60 -157 -160 -157h-251v-75h251v-62h-251v-99h-67v99h-70v62h70v76h-70v62zM185 299h238c69 0 103 29 103 88c0 56 -35 90 -100 90h-241v-178z" />
    <glyph glyph-name="uni20B6" unicode="&#x20c9;" horiz-adv-x="667" 
d="M48 299h70v240h309c107 0 169 -55 169 -146c0 -90 -60 -157 -160 -157h-251v-75h251v-62h-251v-99h-67v99h-70v62h70v76h-70v62zM185 299h238c69 0 103 29 103 88c0 56 -35 90 -100 90h-241v-178z" />
    <glyph glyph-name="uni20B6" unicode="&#x20c8;" horiz-adv-x="667" 
d="M48 299h70v240h309c107 0 169 -55 169 -146c0 -90 -60 -157 -160 -157h-251v-75h251v-62h-251v-99h-67v99h-70v62h70v76h-70v62zM185 299h238c69 0 103 29 103 88c0 56 -35 90 -100 90h-241v-178z" />
    <glyph glyph-name="uni20B6" unicode="&#x20c7;" horiz-adv-x="667" 
d="M48 299h70v240h309c107 0 169 -55 169 -146c0 -90 -60 -157 -160 -157h-251v-75h251v-62h-251v-99h-67v99h-70v62h70v76h-70v62zM185 299h238c69 0 103 29 103 88c0 56 -35 90 -100 90h-241v-178z" />
    <glyph glyph-name="uni20B6" unicode="&#x20c6;" horiz-adv-x="667" 
d="M48 299h70v240h309c107 0 169 -55 169 -146c0 -90 -60 -157 -160 -157h-251v-75h251v-62h-251v-99h-67v99h-70v62h70v76h-70v62zM185 299h238c69 0 103 29 103 88c0 56 -35 90 -100 90h-241v-178z" />
    <glyph glyph-name="uni20B6" unicode="&#x20c5;" horiz-adv-x="667" 
d="M48 299h70v240h309c107 0 169 -55 169 -146c0 -90 -60 -157 -160 -157h-251v-75h251v-62h-251v-99h-67v99h-70v62h70v76h-70v62zM185 299h238c69 0 103 29 103 88c0 56 -35 90 -100 90h-241v-178z" />
    <glyph glyph-name="uni20B6" unicode="&#x20c4;" horiz-adv-x="667" 
d="M48 299h70v240h309c107 0 169 -55 169 -146c0 -90 -60 -157 -160 -157h-251v-75h251v-62h-251v-99h-67v99h-70v62h70v76h-70v62zM185 299h238c69 0 103 29 103 88c0 56 -35 90 -100 90h-241v-178z" />
    <glyph glyph-name="uni20B6" unicode="&#x20c3;" horiz-adv-x="667" 
d="M48 299h70v240h309c107 0 169 -55 169 -146c0 -90 -60 -157 -160 -157h-251v-75h251v-62h-251v-99h-67v99h-70v62h70v76h-70v62zM185 299h238c69 0 103 29 103 88c0 56 -35 90 -100 90h-241v-178z" />
    <glyph glyph-name="uni20B6" unicode="&#x20c2;" horiz-adv-x="667" 
d="M48 299h70v240h309c107 0 169 -55 169 -146c0 -90 -60 -157 -160 -157h-251v-75h251v-62h-251v-99h-67v99h-70v62h70v76h-70v62zM185 299h238c69 0 103 29 103 88c0 56 -35 90 -100 90h-241v-178z" />
    <glyph glyph-name="uni20B6" unicode="&#x20c1;" horiz-adv-x="667" 
d="M48 299h70v240h309c107 0 169 -55 169 -146c0 -90 -60 -157 -160 -157h-251v-75h251v-62h-251v-99h-67v99h-70v62h70v76h-70v62zM185 299h238c69 0 103 29 103 88c0 56 -35 90 -100 90h-241v-178z" />
    <glyph glyph-name="uni20B6" unicode="&#x20c0;" horiz-adv-x="667" 
d="M48 299h70v240h309c107 0 169 -55 169 -146c0 -90 -60 -157 -160 -157h-251v-75h251v-62h-251v-99h-67v99h-70v62h70v76h-70v62zM185 299h238c69 0 103 29 103 88c0 56 -35 90 -100 90h-241v-178z" />
    <glyph glyph-name="uni20B6" unicode="&#x20bf;" horiz-adv-x="667" 
d="M48 299h70v240h309c107 0 169 -55 169 -146c0 -90 -60 -157 -160 -157h-251v-75h251v-62h-251v-99h-67v99h-70v62h70v76h-70v62zM185 299h238c69 0 103 29 103 88c0 56 -35 90 -100 90h-241v-178z" />
    <glyph glyph-name="uni20B6" unicode="&#x20be;" horiz-adv-x="667" 
d="M48 299h70v240h309c107 0 169 -55 169 -146c0 -90 -60 -157 -160 -157h-251v-75h251v-62h-251v-99h-67v99h-70v62h70v76h-70v62zM185 299h238c69 0 103 29 103 88c0 56 -35 90 -100 90h-241v-178z" />
    <glyph glyph-name="uni20B6" unicode="&#x20bd;" horiz-adv-x="667" 
d="M48 299h70v240h309c107 0 169 -55 169 -146c0 -90 -60 -157 -160 -157h-251v-75h251v-62h-251v-99h-67v99h-70v62h70v76h-70v62zM185 299h238c69 0 103 29 103 88c0 56 -35 90 -100 90h-241v-178z" />
    <glyph glyph-name="uni20B6" unicode="&#x20bc;" horiz-adv-x="667" 
d="M48 299h70v240h309c107 0 169 -55 169 -146c0 -90 -60 -157 -160 -157h-251v-75h251v-62h-251v-99h-67v99h-70v62h70v76h-70v62zM185 299h238c69 0 103 29 103 88c0 56 -35 90 -100 90h-241v-178z" />
    <glyph glyph-name="uni20B6" unicode="&#x20bb;" horiz-adv-x="667" 
d="M48 299h70v240h309c107 0 169 -55 169 -146c0 -90 -60 -157 -160 -157h-251v-75h251v-62h-251v-99h-67v99h-70v62h70v76h-70v62zM185 299h238c69 0 103 29 103 88c0 56 -35 90 -100 90h-241v-178z" />
    <glyph glyph-name="uni20B6" unicode="&#x20ba;" horiz-adv-x="667" 
d="M48 299h70v240h309c107 0 169 -55 169 -146c0 -90 -60 -157 -160 -157h-251v-75h251v-62h-251v-99h-67v99h-70v62h70v76h-70v62zM185 299h238c69 0 103 29 103 88c0 56 -35 90 -100 90h-241v-178z" />
    <glyph glyph-name="uni20B6" unicode="&#x20b9;" horiz-adv-x="667" 
d="M48 299h70v240h309c107 0 169 -55 169 -146c0 -90 -60 -157 -160 -157h-251v-75h251v-62h-251v-99h-67v99h-70v62h70v76h-70v62zM185 299h238c69 0 103 29 103 88c0 56 -35 90 -100 90h-241v-178z" />
    <glyph glyph-name="uni20B6" unicode="&#x20b7;" horiz-adv-x="667" 
d="M48 299h70v240h309c107 0 169 -55 169 -146c0 -90 -60 -157 -160 -157h-251v-75h251v-62h-251v-99h-67v99h-70v62h70v76h-70v62zM185 299h238c69 0 103 29 103 88c0 56 -35 90 -100 90h-241v-178z" />
    <glyph glyph-name="afii61352" unicode="&#x2116;" horiz-adv-x="880" 
d="M616 236h211v-59h-211v59zM800 422c0 44 -35 79 -78 79c-44 0 -79 -35 -79 -79s35 -78 79 -78s78 35 78 78zM722 551c71 0 128 -57 128 -129c0 -69 -57 -129 -129 -129s-128 57 -128 129s57 129 129 129zM81 0v539h35l350 -403v403h67v-539h-34l-351 403v-403h-67z" />
    <glyph glyph-name="uni2117" unicode="&#x2117;" horiz-adv-x="655" 
d="M327 576c79 0 151 -29 207 -85c55 -55 83 -126 83 -205s-28 -149 -83 -202c-57 -56 -130 -88 -207 -88c-76 0 -148 31 -204 87s-85 127 -85 203c0 77 31 150 87 206c49 56 123 84 202 84zM572 285c0 67 -27 126 -70 173c-48 47 -107 73 -175 73c-67 0 -128 -26 -172 -71
c-47 -49 -72 -111 -72 -175c0 -65 26 -126 71 -173c48 -45 108 -71 173 -71s127 24 176 72c44 44 69 104 69 172zM233 295h165c33 0 51 15 51 42s-16 40 -49 40h-167v-82zM233 250v-132h-48v303h216c63 0 99 -29 99 -84c0 -48 -34 -87 -93 -87h-174z" />
    <glyph glyph-name="trademark" unicode="&#x2122;" horiz-adv-x="709" 
d="M336 455v255h33l99 -149l98 149h33v-255h-40v184l-91 -142l-92 142v-184h-40zM168 455v221h-108v34h256v-34h-109v-221h-39z" />
    <glyph glyph-name="partialdiff" unicode="&#x2202;" horiz-adv-x="545" 
d="M263 303c-40 0 -79 -9 -108 -32c-33 -25 -53 -62 -53 -105c0 -37 15 -67 38 -86c25 -21 60 -32 104 -32c57 0 92 17 115 33c33 24 53 62 53 105c0 40 -21 70 -46 89c-38 27 -91 28 -103 28zM184 424l-17 54c29 7 61 11 97 11c84 0 142 -24 182 -60c45 -41 64 -94 64 -155
c0 -66 -24 -159 -83 -218c-61 -58 -131 -69 -186 -69c-48 0 -107 7 -156 55c-37 36 -50 78 -50 121c0 45 14 107 81 155c41 29 95 44 151 44c35 0 67 -6 102 -23s58 -39 75 -72c0 53 -9 93 -46 124c-41 35 -92 41 -135 41c-29 0 -54 -3 -79 -8z" />
    <glyph glyph-name="product" unicode="&#x220f;" horiz-adv-x="621" 
d="M86 -170v709h448v-709h-67v647h-313v-647h-68z" />
    <glyph glyph-name="summation" unicode="&#x2211;" horiz-adv-x="476" 
d="M466 -170h-446v82l271 288v12l-271 245v82h424v-62h-357l274 -245v-50l-276 -290h381v-62z" />
    <glyph glyph-name="minus" unicode="&#x2212;" horiz-adv-x="780" 
d="M656 282v-48h-532v48h532z" />
    <glyph glyph-name="uni2215" unicode="&#x2215;" horiz-adv-x="278" 
d="M238 551h59l-257 -644h-59z" />
    <glyph glyph-name="radical" unicode="&#x221a;" horiz-adv-x="504" 
d="M272 0h-38l-170 353h-49v64h89l147 -312l199 545h64z" />
    <glyph glyph-name="infinity" unicode="&#x221e;" horiz-adv-x="730" 
d="M338 278l-17 20c-21 23 -39 41 -56 53c-20 15 -46 27 -78 27c-28 0 -53 -10 -69 -25s-32 -38 -32 -75c0 -39 17 -61 32 -76c16 -15 41 -25 69 -25c32 0 58 12 78 27c19 13 41 34 56 53zM392 278l17 -21c15 -19 37 -40 56 -53c20 -15 46 -27 78 -27c28 0 53 10 69 25
c15 15 32 37 32 76c0 37 -16 60 -32 75s-41 25 -69 25c-32 0 -58 -12 -78 -27c-17 -12 -35 -30 -56 -53zM365 322l15 16c9 9 31 32 54 49c32 23 66 37 107 37c52 0 87 -21 108 -42c32 -31 41 -65 41 -104c0 -37 -9 -73 -41 -105c-21 -21 -56 -42 -108 -42
c-43 0 -74 14 -107 37c-23 16 -39 32 -54 48l-15 16l-15 -16c-15 -16 -31 -32 -54 -48c-33 -23 -64 -37 -107 -37c-52 0 -87 21 -108 42c-32 31 -41 66 -41 105s9 72 41 104c21 21 56 42 108 42c41 0 75 -14 107 -37c23 -17 45 -40 54 -49z" />
    <glyph glyph-name="integral" unicode="&#x222b;" horiz-adv-x="327" 
d="M129 41v399c0 38 4 94 37 129c16 17 46 36 98 36c28 0 61 -6 93 -18l-9 -57c-27 11 -50 12 -69 12s-38 -3 -54 -18c-25 -23 -27 -57 -27 -88v-399c0 -38 -4 -94 -37 -129c-28 -31 -67 -36 -98 -36c-29 0 -57 5 -93 18l9 57c28 -11 51 -12 68 -12c19 0 39 3 55 18
c25 23 27 57 27 88z" />
    <glyph glyph-name="approxequal" unicode="&#x2248;" horiz-adv-x="761" 
d="M675 235v-55c-41 -36 -97 -70 -162 -70c-43 0 -83 12 -118 27l-30 12c-35 15 -67 28 -102 28c-25 0 -82 -5 -176 -78v55c72 56 129 71 174 71c44 0 81 -15 112 -28l32 -14c29 -13 66 -26 103 -26c25 0 86 5 167 78zM675 401v-55c-41 -36 -97 -70 -162 -70
c-43 0 -83 12 -118 27l-30 12c-35 15 -67 28 -102 28c-25 0 -82 -5 -176 -78v55c72 56 129 71 174 71c44 0 81 -15 112 -28l32 -14c29 -13 66 -26 103 -26c25 0 86 5 167 78z" />
    <glyph glyph-name="notequal" unicode="&#x2260;" horiz-adv-x="833" 
d="M709 378v-48h-241l-53 -134h294v-48h-314l-47 -119h-53l47 119h-218v48h238l53 134h-291v48h310l51 128h53l-51 -128h222z" />
    <glyph glyph-name="lessequal" unicode="&#x2264;" horiz-adv-x="813" 
d="M684 -31l-555 225v52l555 -224v-53zM684 537l-479 -193l479 -192v-53l-555 225v40l555 226v-53z" />
    <glyph glyph-name="greaterequal" unicode="&#x2265;" horiz-adv-x="813" 
d="M129 -31v53l555 224v-52zM129 537v53l555 -226v-40l-555 -225v53l479 192z" />
    <glyph glyph-name="lozenge" unicode="&#x25ca;" horiz-adv-x="407" 
d="M297 289l-97 230l-97 -230l98 -231zM181 577h38l128 -288l-127 -289h-38l-129 289z" />
    <glyph glyph-name="openbullet" unicode="&#x25e6;" horiz-adv-x="329" 
d="M266 573c0 56 -45 102 -101 102s-102 -46 -102 -102s46 -101 102 -101s101 45 101 101zM165 709c75 0 135 -60 135 -136c0 -74 -60 -136 -136 -136s-135 60 -135 136s60 136 136 136z" />
    <glyph glyph-name="uniF400" unicode="&#xf400;" horiz-adv-x="2" 
d="M-240 470h-45l117 154h74z" />
    <glyph glyph-name="uniF401" unicode="&#xf401;" horiz-adv-x="2" 
d="M-270 595h-45l117 154h74z" />
    <glyph glyph-name="uniF406" unicode="&#xf406;" horiz-adv-x="486" 
d="M116 708h37c4 -47 31 -67 90 -67s86 19 89 67h38c-5 -84 -43 -121 -127 -121c-83 0 -122 37 -127 121z" />
    <glyph glyph-name="uniF407" unicode="&#xf407;" 
d="M133 -204v37c59 -12 87 -17 115 -17c12 0 38 0 53 15c7 7 11 18 11 32c0 13 -4 23 -12 31c-13 13 -34 17 -57 17h-12c-4 0 -8 0 -12 -1v90h31v-54h10c47 0 72 -14 85 -27c17 -17 21 -38 21 -54c0 -31 -11 -50 -22 -61c-25 -27 -64 -28 -87 -28c-36 0 -73 5 -124 20z" />
    <glyph glyph-name="uniF408" unicode="&#xf408;" 
d="M115 593l98 171h74l98 -171h-45l-90 129l-90 -129h-45z" />
    <glyph glyph-name="uniF409" unicode="&#xf409;" horiz-adv-x="333" 
d="M144 -236l-17 16c7 11 16 29 23 40c7 12 11 23 14 38h-2c-6 0 -12 1 -17 4c-3 1 -5 3 -6 4c-8 7 -12 20 -12 32c0 16 5 28 14 36c7 7 15 10 26 10s20 -5 29 -14c13 -15 15 -32 15 -44c0 -23 -7 -45 -20 -66c-17 -28 -38 -48 -47 -56z" />
    <glyph glyph-name="uniF40A" unicode="&#xf40a;" horiz-adv-x="333" 
d="M144 363l-17 16c7 11 16 29 23 40c7 12 11 23 14 38h-2c-6 0 -12 1 -17 4c-3 1 -5 3 -6 4c-8 7 -12 20 -12 32c0 16 5 28 14 36c7 7 15 10 26 10s20 -5 29 -14c13 -15 15 -32 15 -44c0 -23 -7 -45 -20 -66c-17 -28 -38 -48 -47 -56z" />
    <glyph glyph-name="uniF40B" unicode="&#xf40b;" 
d="M201 670c0 27 22 49 49 49s48 -22 48 -49s-21 -48 -48 -48s-49 21 -49 48z" />
    <glyph glyph-name="uniF40C" unicode="&#xf40c;" 
d="M177 715c0 -41 32 -73 73 -73c40 0 73 32 73 73s-33 74 -73 74c-41 0 -73 -33 -73 -74zM133 716c0 65 50 117 117 117c64 0 118 -52 118 -117c0 -64 -54 -118 -118 -118c-67 0 -117 54 -117 118z" />
    <glyph glyph-name="uniF40D" unicode="&#xf40d;" 
d="M351 702h40c-17 -59 -48 -89 -93 -89c-9 0 -20 2 -32 5l-47 15c-7 3 -15 4 -26 4c-20 0 -35 -12 -45 -35h-39c15 59 48 89 95 89c10 0 19 -1 26 -4l47 -15c11 -4 20 -6 27 -6c23 0 36 12 47 36z" />
    <glyph glyph-name="uniF40E" unicode="&#xf40e;" 
d="M252 0h30c-15 -13 -34 -33 -46 -49c-17 -23 -25 -45 -25 -66c0 -12 3 -24 10 -31c9 -9 31 -11 43 -11h37v-51h-35c-24 0 -61 2 -84 25c-11 11 -19 26 -19 51c0 32 15 57 32 78c16 20 38 39 57 54z" />
    <glyph glyph-name="uniF47E" unicode="&#xf47e;" horiz-adv-x="579" 
d="M134 539v-349c0 -112 32 -141 155 -141s155 29 155 141v349h67v-367c0 -132 -63 -186 -222 -186s-222 54 -222 186v367h67zM240 670c0 27 22 49 49 49s48 -22 48 -49s-21 -48 -48 -48s-49 21 -49 48z" />
    <glyph glyph-name="uniF47F" unicode="&#xf47f;" horiz-adv-x="556" 
d="M72 416h65v-267c0 -82 31 -102 141 -102s141 20 141 102v267h65v-284c0 -104 -62 -145 -207 -145c-147 0 -205 42 -205 145v284zM229 545c0 27 22 49 49 49s48 -22 48 -49s-21 -48 -48 -48s-49 21 -49 48z" />
    <glyph glyph-name="uniF481" unicode="&#xf481;" horiz-adv-x="588" 
d="M174 208h237l-119 239zM0 0l264 539h56l267 -539h-73l-73 145h-298l-71 -145h-72zM187 -204v37c59 -12 87 -17 115 -17c12 0 38 0 53 15c7 7 11 18 11 32c0 13 -4 23 -12 31c-13 13 -34 17 -57 17h-12c-4 0 -8 0 -12 -1v90h31v-54h10c47 0 72 -14 85 -27
c17 -17 21 -38 21 -54c0 -31 -11 -50 -22 -61c-25 -27 -64 -28 -87 -28c-36 0 -73 5 -124 20z" />
    <glyph glyph-name="uniF482" unicode="&#xf482;" horiz-adv-x="449" 
d="M142 161h163l-81 160zM-9 0l212 417h41l214 -417h-70l-54 106h-220l-54 -106h-69zM123 -204v37c59 -12 87 -17 115 -17c12 0 38 0 53 15c7 7 11 18 11 32c0 13 -4 23 -12 31c-13 13 -34 17 -57 17h-12c-4 0 -8 0 -12 -1v90h31v-54h10c47 0 72 -14 85 -27
c17 -17 21 -38 21 -54c0 -31 -11 -50 -22 -61c-25 -27 -64 -28 -87 -28c-36 0 -73 5 -124 20z" />
    <glyph glyph-name="uniF483" unicode="&#xf483;" horiz-adv-x="509" 
d="M-2 0l364 477h-333v62h455l-356 -477h354v-62h-484zM181 715c0 -41 32 -73 73 -73c40 0 73 32 73 73s-33 74 -73 74c-41 0 -73 -33 -73 -74zM137 716c0 65 50 117 117 117c64 0 118 -52 118 -117c0 -64 -54 -118 -118 -118c-67 0 -117 54 -117 118z" />
    <glyph glyph-name="uniF484" unicode="&#xf484;" horiz-adv-x="437" 
d="M17 0l270 356h-246v61h366l-272 -357h270v-60h-388zM157 549c0 -35 28 -63 63 -63s63 28 63 63s-28 64 -63 64s-63 -29 -63 -64zM120 550c0 55 43 100 100 100c56 0 101 -45 101 -100c0 -56 -45 -101 -101 -101c-57 0 -100 45 -100 101z" />
    <glyph glyph-name="uniF4C4" unicode="&#xf4c4;" horiz-adv-x="417" 
d="M175 0v477h-227v62h521v-62h-227v-477h-18v-54h10c47 0 72 -14 85 -27c17 -17 21 -38 21 -54c0 -31 -11 -50 -22 -61c-25 -27 -64 -28 -87 -28c-36 0 -73 5 -124 20v37c59 -12 87 -17 115 -17c12 0 38 0 53 15c7 7 11 18 11 32c0 13 -4 23 -12 31c-13 13 -34 17 -57 17
h-12c-4 0 -8 0 -12 -1v90h-18z" />
    <glyph glyph-name="uniF4C5" unicode="&#xf4c5;" horiz-adv-x="405" 
d="M170 0v359h-176v58h417v-58h-176v-359h-17v-54h10c47 0 72 -14 85 -27c17 -17 21 -38 21 -54c0 -31 -11 -50 -22 -61c-25 -27 -64 -28 -87 -28c-36 0 -73 5 -124 20v37c59 -12 87 -17 115 -17c12 0 38 0 53 15c7 7 11 18 11 32c0 13 -4 23 -12 31c-13 13 -34 17 -57 17
h-12c-4 0 -8 0 -12 -1v90h-17z" />
    <glyph glyph-name="uniF4C8" unicode="&#xf4c8;" horiz-adv-x="604" 
d="M511 172l54 -40c-16 -31 -44 -72 -97 -105c-47 -29 -91 -39 -132 -40v-41h10c35 0 67 -8 86 -28c9 -9 20 -25 20 -56c0 -20 -4 -40 -21 -57c-25 -25 -64 -29 -89 -29c-33 0 -68 5 -123 20v37c79 -17 110 -17 115 -17c16 0 37 3 48 11c7 4 16 14 16 37c0 20 -9 32 -24 39
c-12 7 -32 8 -49 8h-11c-3 0 -6 0 -9 -1v77c-91 3 -153 43 -189 79c-45 47 -78 117 -78 202c0 104 47 170 79 202c37 37 100 81 200 81c49 0 95 -10 138 -34c49 -27 79 -61 98 -92l-56 -40c-19 37 -45 58 -68 73c-28 19 -65 30 -112 30c-69 0 -116 -29 -144 -56
c-33 -31 -66 -84 -66 -164c0 -69 27 -126 63 -161s91 -58 147 -58c44 0 88 11 129 43c11 9 42 35 65 80z" />
    <glyph glyph-name="uniF4C9" unicode="&#xf4c9;" horiz-adv-x="551" 
d="M460 138l52 -36c-25 -38 -55 -66 -92 -85c-31 -16 -73 -27 -116 -30v-41h10c35 0 67 -8 86 -28c9 -9 20 -25 20 -56c0 -20 -4 -40 -21 -57c-25 -25 -64 -29 -89 -29c-33 0 -68 5 -123 20v37c79 -17 110 -17 115 -17c16 0 37 3 48 11c7 4 16 14 16 37c0 20 -9 32 -24 39
c-12 7 -32 8 -49 8h-11c-3 0 -6 0 -9 -1v77c-75 3 -138 32 -177 71c-35 35 -61 88 -61 149c0 59 23 112 63 151c24 21 81 70 189 70c56 0 98 -13 129 -28c40 -20 66 -45 85 -70l-52 -36c-16 23 -38 41 -71 56c-39 17 -76 18 -92 18c-55 0 -107 -19 -142 -55
c-24 -25 -42 -61 -42 -105c0 -43 18 -80 42 -105c29 -31 79 -55 143 -55c49 0 86 13 113 32c24 16 45 38 60 58z" />
    <glyph glyph-name="uniF4CC" unicode="&#xf4cc;" horiz-adv-x="582" 
d="M153 0l105 178l-239 361h86l199 -296l185 296h78l-337 -539h-77zM304 595h-45l102 171h74z" />
    <glyph glyph-name="uniF4CD" unicode="&#xf4cd;" horiz-adv-x="469" 
d="M110 0l86 131l-190 286h81l151 -226l147 226h74l-275 -417h-74zM249 470h-45l102 171h74z" />
    <glyph glyph-name="dollar.fitted" unicode="&#xf5f5;" horiz-adv-x="624" 
d="M335 247v-202c97 7 152 49 152 108c0 55 -52 94 -152 94zM60 77l37 54c59 -45 120 -72 181 -81v200c-129 7 -196 53 -196 132c0 78 75 140 196 143v80h57v-85c72 -12 132 -37 191 -80l-34 -51c-49 39 -98 61 -157 72v-154c143 -3 219 -65 219 -156
c0 -88 -83 -165 -219 -165v-114h-57v117c-81 9 -153 38 -218 88zM278 310v155c-83 -4 -129 -39 -129 -80c0 -43 43 -68 129 -75z" />
    <glyph glyph-name="Euro.fitted" unicode="&#xf5f6;" horiz-adv-x="667" 
d="M560 172l54 -40c-31 -56 -71 -90 -103 -109c-51 -31 -104 -37 -147 -37c-92 0 -148 30 -181 58c-41 35 -72 89 -85 141h-84l26 45h49c-1 12 -2 25 -2 38c0 8 0 15 1 23h-74l26 45h55c11 47 36 98 71 135c41 43 109 80 204 80c56 0 98 -13 131 -32c32 -17 65 -45 92 -81
l-47 -53c-15 28 -38 56 -75 77c-33 19 -65 26 -104 26c-49 0 -95 -12 -134 -44c-29 -24 -55 -61 -67 -108h343l-27 -45h-325c-1 -7 -1 -14 -1 -21c0 -13 1 -26 3 -40h287l-28 -45h-247c15 -44 39 -74 63 -93c32 -25 78 -43 135 -43c39 0 75 9 111 32c29 19 59 50 80 91z" />
    <glyph glyph-name="cent.fitted" unicode="&#xf5f7;" horiz-adv-x="531" 
d="M463 378l-53 -37c-24 39 -60 62 -107 71v-315c55 13 87 37 116 88l54 -36c-36 -66 -93 -104 -170 -113v-164h-58v163c-117 16 -195 105 -195 220c0 117 78 203 195 219v131h58v-132c69 -7 123 -39 160 -95zM245 98v315c-76 -13 -128 -77 -128 -158s48 -141 128 -157z" />
    <glyph glyph-name="sterling.fitted" unicode="&#xf5f8;" horiz-adv-x="634" 
d="M93 0l4 62h59l-14 162h-76v63h71l-5 42c-1 9 -2 19 -2 28c0 104 74 168 198 168c88 0 166 -32 242 -91l-40 -52c-75 52 -137 80 -200 80c-83 0 -134 -45 -134 -113c0 -9 1 -22 2 -34l3 -28h167v-63h-161l14 -162h351v-62h-479z" />
    <glyph glyph-name="yen.fitted" unicode="&#xf5f9;" horiz-adv-x="638" 
d="M449 371h128v-45h-167l-53 -56h220v-45h-226v-225h-65v225h-225v45h218l-50 56h-168v45h127l-138 153h82l187 -207l186 207h83z" />
    <glyph glyph-name="florin.fitted" unicode="&#xf5fa;" horiz-adv-x="554" 
d="M293 282l-53 -245c-24 -109 -73 -165 -180 -165c-28 0 -62 7 -103 18l22 59c31 -9 57 -14 76 -14c68 0 102 34 117 106l52 241h-120l13 63h120l20 95c23 111 76 165 180 165c28 0 62 -7 103 -18l-22 -59c-31 9 -57 14 -76 14c-67 0 -103 -34 -118 -106l-18 -91h136
l-13 -63h-136z" />
    <glyph glyph-name="uni20B6.fitted" unicode="&#xf5fc;" horiz-adv-x="586" 
d="M9 299h70v240h309c107 0 169 -55 169 -146c0 -90 -60 -157 -160 -157h-251v-75h251v-62h-251v-99h-67v99h-70v62h70v76h-70v62zM146 299h238c69 0 103 29 103 88c0 56 -35 90 -100 90h-241v-178z" />
    <glyph glyph-name="uniF639" unicode="&#xf639;" horiz-adv-x="667" 
d="M333 48c135 0 227 91 227 207s-91 207 -227 207s-227 -91 -227 -207s93 -207 227 -207zM333 -14c-176 0 -296 117 -296 269s120 270 296 270s297 -118 297 -270s-121 -269 -297 -269z" />
    <glyph glyph-name="uniF63A" unicode="&#xf63a;" horiz-adv-x="562" 
d="M508 0h-458c-1 35 -2 57 -2 64c0 102 32 157 151 199c150 54 229 66 229 119c0 43 -47 80 -127 80c-68 0 -133 -28 -208 -80l-40 52c79 60 155 91 242 91c125 0 203 -66 203 -144c0 -88 -94 -106 -211 -154c-116 -48 -171 -58 -171 -139c0 -8 1 -17 2 -26h390v-62z" />
    <glyph glyph-name="uniF63B" unicode="&#xf63b;" horiz-adv-x="610" 
d="M0 105l42 51c79 -74 153 -108 248 -108c122 0 195 56 195 112c0 61 -57 91 -171 91h-23v62c6 -1 12 -1 17 -1h17c81 0 121 20 121 69c0 47 -47 81 -131 81c-71 0 -140 -25 -209 -75l-40 55c73 55 159 83 252 83c124 0 197 -59 197 -144c0 -39 -16 -71 -47 -95
c58 -25 87 -67 87 -124c0 -92 -100 -176 -261 -176c-119 0 -210 35 -294 119z" />
    <glyph glyph-name="uniF63C" unicode="&#xf63c;" horiz-adv-x="613" 
d="M113 187h307v244zM420 0v124h-410v63l410 326h67v-326h86v-63h-86v-124h-67z" />
    <glyph glyph-name="uniF63D" unicode="&#xf63d;" horiz-adv-x="633" 
d="M52 81l34 57c84 -59 153 -89 230 -89c100 0 169 60 169 135c0 63 -65 116 -176 116c-64 0 -116 -17 -176 -52h-42v265h415v-63h-348v-114c53 17 102 27 151 27c152 0 246 -82 246 -187c0 -101 -94 -190 -242 -190c-92 0 -177 31 -261 95z" />
    <glyph glyph-name="uniF63E" unicode="&#xf63e;" horiz-adv-x="667" 
d="M133 226c11 -96 115 -177 241 -177c105 0 176 60 176 124c0 70 -79 125 -183 125c-80 0 -154 -24 -234 -72zM588 437l-39 -47c-60 48 -127 72 -192 72c-124 0 -207 -62 -223 -162c79 41 148 61 231 61c151 0 255 -79 255 -187c0 -107 -93 -188 -246 -188
c-191 0 -316 124 -316 273c0 155 120 266 296 266c91 0 162 -28 234 -88z" />
    <glyph glyph-name="uniF63F" unicode="&#xf63f;" horiz-adv-x="575" 
d="M120 0l315 450h-395v63h521l-362 -513h-79z" />
    <glyph glyph-name="uniF640" unicode="&#xf640;" horiz-adv-x="637" 
d="M132 159c0 -64 66 -110 187 -110s186 46 186 110c0 75 -63 97 -186 97s-187 -22 -187 -97zM483 292c61 -29 92 -73 92 -132c0 -101 -93 -174 -256 -174c-164 0 -257 70 -257 173c0 61 31 105 93 133c-38 25 -57 56 -57 94c0 81 80 138 221 138s221 -57 221 -138
c0 -38 -19 -69 -57 -94zM470 389c0 40 -52 73 -151 73c-97 0 -150 -32 -150 -75c0 -41 50 -68 150 -68s151 26 151 70z" />
    <glyph glyph-name="uniF641" unicode="&#xf641;" horiz-adv-x="667" 
d="M533 285c-13 96 -113 177 -241 177c-105 0 -176 -61 -176 -125c0 -70 80 -125 184 -125c80 0 153 25 233 73zM78 74l40 46c60 -48 127 -71 192 -71c124 0 207 61 223 161c-79 -41 -148 -60 -231 -60c-151 0 -256 79 -256 187c0 107 94 188 247 188
c191 0 316 -124 316 -273c0 -155 -120 -266 -296 -266c-91 0 -163 28 -235 88z" />
    <glyph glyph-name="uniF6BA" unicode="&#xf6ba;" horiz-adv-x="257" 
d="M23 293h211v-59h-211v59z" />
    <glyph glyph-name="uniF6BB" unicode="&#xf6bb;" 
d="M0 284h500v-41h-500v41z" />
    <glyph glyph-name="uniF6BC" unicode="&#xf6bc;" horiz-adv-x="1000" 
d="M1000 284v-41h-1000v41h1000z" />
    <glyph glyph-name="uniF6C3" unicode="&#xf6c3;" horiz-adv-x="333" 
d="M144 -236l-17 16c7 11 16 29 23 40c7 12 11 23 14 38h-2c-6 0 -12 1 -17 4c-3 1 -5 3 -6 4c-8 7 -12 20 -12 32c0 16 5 28 14 36c7 7 15 10 26 10s20 -5 29 -14c13 -15 15 -32 15 -44c0 -23 -7 -45 -20 -66c-17 -28 -38 -48 -47 -56z" />
    <glyph glyph-name="uniF6C9" unicode="&#xf6c9;" 
d="M234 595h-45l102 171h74z" />
    <glyph glyph-name="uniF6CA" unicode="&#xf6ca;" 
d="M115 773h45l90 -128l90 128h45l-98 -171h-74z" />
    <glyph glyph-name="uniF6CB" unicode="&#xf6cb;" 
d="M285 665c0 24 19 44 43 44s44 -20 44 -44c0 -25 -20 -44 -44 -44s-43 19 -43 44zM128 665c0 24 20 44 44 44s43 -20 43 -44c0 -25 -19 -44 -43 -44s-44 19 -44 44z" />
    <glyph glyph-name="uniF6CE" unicode="&#xf6ce;" 
d="M266 595l-131 171h74l102 -171h-45z" />
    <glyph glyph-name="uniF6CF" unicode="&#xf6cf;" 
d="M279 597l82 171h65l-111 -171h-36zM164 597l73 171h65l-102 -171h-36z" />
    <glyph glyph-name="uniF6D0" unicode="&#xf6d0;" 
d="M125 626v57h250v-57h-250z" />
    <glyph glyph-name="uniF6D1" unicode="&#xf6d1;" horiz-adv-x="447" 
d="M320 715h50c0 -28 -8 -66 -33 -91c-32 -32 -77 -32 -109 -32s-77 0 -109 32c-25 24 -33 62 -33 91h50c0 -10 2 -44 31 -57c16 -8 46 -9 61 -9s46 1 63 10c23 12 29 37 29 56z" />
    <glyph glyph-name="uniF6D4" unicode="&#xf6d4;" horiz-adv-x="420" 
d="M295 587h48c-4 -53 -21 -77 -32 -88c-29 -29 -68 -30 -97 -30c-35 0 -74 -1 -105 30c-11 11 -28 35 -32 88h48c3 -28 13 -44 28 -52s40 -9 57 -9s42 1 57 9s25 24 28 52z" />
    <glyph glyph-name="uniF6DC" unicode="&#xf6dc;" horiz-adv-x="308" 
d="M120 -3v516h68v-516h-68z" />
    <glyph glyph-name="uniF6DE" unicode="&#xf6de;" horiz-adv-x="750" 
d="M750 289v-41h-750v41h750z" />
    <glyph glyph-name="dotlessi1" horiz-adv-x="211" 
d="M72 -1v419h66v-419h-66z" />
    <glyph glyph-name="hyphenminus" horiz-adv-x="257" 
d="M23 298h211v-59h-211v59z" />
    <glyph glyph-name="mu1" horiz-adv-x="546" 
d="M174 407l-37 -176c-4 -19 -9 -54 -9 -77s4 -57 29 -84s58 -30 83 -30c35 0 62 7 93 38c36 35 57 86 76 170l37 169h64l-54 -251c-13 -61 -15 -75 -15 -86s2 -18 7 -23s12 -8 21 -8c8 0 16 2 24 7l11 -57c-17 -7 -35 -10 -51 -10c-28 0 -44 8 -55 19c-15 15 -21 40 -21 59
c-13 -23 -34 -43 -58 -58c-25 -15 -58 -21 -87 -21c-33 0 -61 8 -86 23c-27 17 -39 38 -46 53l-56 -272h-64l130 615h64z" />
    </font>
</defs>
</svg>
