<?xml version="1.0" standalone="no"?>
<!DOCTYPE svg PUBLIC "-//W3C//DTD SVG 1.1//EN" "http://www.w3.org/Graphics/SVG/1.1/DTD/svg11.dtd" >
<svg xmlns="http://www.w3.org/2000/svg" xmlns:xlink="http://www.w3.org/1999/xlink" version="1.1">
<metadata>
Created by FontForge 20161003 at Fri Sep  8 14:05:37 2017
 By www-data
Copyright (c) 2005, ParaType Inc, ParaType Ltd. All rights reserved.
</metadata>
<defs>
<font id="EngraversGothicBold" horiz-adv-x="638" >
  <font-face 
    font-family="EngraversGothicBold"
    font-weight="700"
    font-stretch="normal"
    units-per-em="1000"
    panose-1="2 11 7 7 2 2 3 2 2 4"
    ascent="903"
    descent="-97"
    x-height="419"
    cap-height="530"
    bbox="-311 -232 1143 808"
    underline-thickness="50"
    underline-position="-150"
    unicode-range="U+0020-FB02"
  />
<missing-glyph horiz-adv-x="500" 
d="M58 8h384v496h-384v-496zM50 0v512h400v-512h-400z" />
    <glyph glyph-name="afii10017.var.accented" unicode="&#x410;`" horiz-adv-x="548" 
d="M272 374l-70 -142h141zM458 0l-65 131h-241l-63 -131h-116l260 530h79l262 -530h-116zM276 578h-84l99 172h125z" />
    <glyph glyph-name="afii10022.var.accented" unicode="&#x415;`" horiz-adv-x="547" 
d="M69 0v530h426v-101h-321v-97h195v-101h-195v-130h341v-101h-446zM276 578h-84l99 172h125z" />
    <glyph glyph-name="afii10026.var.accented" unicode="&#x418;`" horiz-adv-x="586" 
d="M411 344l-270 -344h-72v530h105v-344l269 344h73v-530h-105v344zM295 578h-84l99 172h125z" />
    <glyph glyph-name="afii10032.var.accented" unicode="&#x41e;`" horiz-adv-x="609" 
d="M304 439q-71 0 -118.5 -49t-47.5 -126t47.5 -126t118.5 -49q72 0 119.5 49t47.5 126t-47.5 126t-119.5 49zM304 -13q-118 0 -196 78.5t-78 198.5t78 198.5t196 78.5t196.5 -78.5t78.5 -198.5t-78.5 -198.5t-196.5 -78.5zM307 578h-84l99 172h125z" />
    <glyph glyph-name="afii10037.var.accented" unicode="&#x423;`" horiz-adv-x="531" 
d="M238 0h-117l89 163l-217 371h127l152 -259l147 259h119zM268 578h-84l99 172h125z" />
    <glyph glyph-name="afii10045.var.accented" unicode="&#x42b;`" horiz-adv-x="762" 
d="M174 99h180q39 0 56 14q22 18 22 54q0 34 -19 52q-18 17 -59 17h-180v-137zM174 337h139q68 0 111.5 -12t73.5 -46q38 -46 38 -106q0 -83 -49 -128q-46 -45 -137 -45h-281v530h105v-193zM587 0v530h106v-530h-106zM383 578h-84l99 172h125z" />
    <glyph glyph-name="afii10047.var.accented" unicode="&#x42d;`" horiz-adv-x="567" 
d="M20 110l82 70q20 -37 60 -64q42 -27 101 -27q78 0 119 42q38 38 42 97h-223v101h220q-9 52 -50 83q-40 30 -107 30q-57 0 -99 -26q-38 -23 -62 -60l-81 65q39 49 86 77q68 43 161 43q123 0 196 -73q72 -72 72 -200q0 -134 -77 -211q-73 -70 -191 -70q-93 0 -158 38
q-56 34 -91 85zM286 578h-84l99 172h125z" />
    <glyph glyph-name="afii10048.var.accented" unicode="&#x42e;`" horiz-adv-x="826" 
d="M526 89q67 0 110 43q52 52 52 134q0 80 -50 130q-43 43 -111 43q-72 0 -119 -45q-49 -49 -49 -130q0 -78 51 -129q46 -46 116 -46zM176 338h87q15 74 67 125q84 78 200 78q113 0 188 -77q78 -81 78 -197q0 -125 -79 -204q-75 -76 -189 -76q-123 0 -196 77q-69 69 -75 174
h-81v-238h-107v530h107v-192zM415 578h-84l99 172h125z" />
    <glyph glyph-name="afii10049.var.accented" unicode="&#x42f;`" horiz-adv-x="570" 
d="M260 212l-132 -212h-124l140 221q-55 12 -89 46q-38 38 -38 104q0 70 41 111q48 48 149 48h294v-530h-105v212h-136zM396 431h-199q-35 0 -52 -13q-21 -13 -21 -45q0 -30 19 -46t60 -16h193v120zM287 578h-84l99 172h125z" />
    <glyph glyph-name="afii10023.var.accented" unicode="&#x401;`" horiz-adv-x="547" 
d="M69 0v530h426v-101h-321v-97h195v-101h-195v-130h341v-101h-446zM422 572q-26 0 -43.5 18.5t-17.5 44.5q0 25 17.5 43.5t43.5 18.5t44 -18t18 -44q0 -27 -18.5 -45t-43.5 -18zM140 572q-25 0 -43.5 18t-18.5 45q0 26 18 44t44 18t44 -18.5t18 -43.5q0 -26 -18 -44.5
t-44 -18.5zM274 578h-74l99 172h115z" />
    <glyph glyph-name="afii10065.var.accented" unicode="&#x430;`" horiz-adv-x="439" 
d="M219 270l-45 -94h90zM353 0l-46 91h-176l-46 -91h-113l215 420h64l216 -420h-114zM223 461h-84l99 172h125z" />
    <glyph glyph-name="afii10070.var.accented" unicode="&#x435;`" horiz-adv-x="482" 
d="M59 0v420h397v-94h-294v-63h193v-90h-193v-78h310v-95h-413zM243 461h-84l99 172h125z" />
    <glyph glyph-name="afii10074.var.accented" unicode="&#x438;`" horiz-adv-x="506" 
d="M132 0h-72v420h100v-249l214 249h72v-420h-100v249zM255 461h-84l99 172h125z" />
    <glyph glyph-name="afii10080.var.accented" unicode="&#x43e;`" horiz-adv-x="551" 
d="M275 336q-67 0 -107 -36.5t-40 -88.5q0 -54 40 -90.5t107 -36.5q69 0 108.5 37t39.5 90q0 52 -40.5 88.5t-107.5 36.5zM275 -12q-110 0 -181 63.5t-71 158.5q0 96 70.5 158t181.5 62t182 -62t71 -158t-71 -159t-182 -63zM278 461h-84l99 172h125z" />
    <glyph glyph-name="afii10085.var.accented" unicode="&#x443;`" horiz-adv-x="453" 
d="M123 420l108 -181l106 181h123l-256 -420h-118l81 137l-174 283h130zM230 461h-84l99 172h125z" />
    <glyph glyph-name="afii10093.var.accented" unicode="&#x44b;`" horiz-adv-x="683" 
d="M165 177v-82h154q25 0 36 12q10 10 10 31q0 22 -13 31q-11 8 -35 8h-152zM165 272h164q71 0 107 -36q35 -34 35 -98q0 -62 -37 -98q-41 -40 -117 -40h-256v420h104v-148zM518 -1v422h104v-422h-104zM344 461h-84l99 172h125z" />
    <glyph glyph-name="afii10095.var.accented" unicode="&#x44d;`" horiz-adv-x="521" 
d="M18 95l82 59q23 -33 62 -55q38 -19 89 -19q59 0 86 24q31 25 39 69h-190v90h188q-14 40 -47 59q-33 18 -82 18q-52 0 -87 -19q-33 -20 -58 -49l-77 61q35 39 89 68q55 29 140 29q122 0 187 -65q57 -57 57 -155q0 -101 -64 -161q-63 -61 -180 -61q-82 0 -143 29
q-57 29 -91 78zM263 461h-84l99 172h125z" />
    <glyph glyph-name="afii10096.var.accented" unicode="&#x44e;`" horiz-adv-x="755" 
d="M484 331q-62 0 -98 -28q-45 -34 -45 -93q0 -36 15 -60.5t30 -33.5q37 -28 98 -28t98 28q45 34 45 94q0 59 -45 93q-36 28 -98 28zM163 268h84q24 78 87 119q62 43 147 43q122 0 193 -74q58 -61 58 -145q0 -89 -60 -149q-74 -74 -192 -74q-95 0 -163 55q-64 52 -74 135
h-80v-178h-104v420h104v-152zM380 461h-84l99 172h125z" />
    <glyph glyph-name="afii10097.var.accented" unicode="&#x44f;`" horiz-adv-x="516" 
d="M182 244h171v81h-177q-23 0 -35 -9q-13 -9 -13 -32q0 -20 12 -30t42 -10zM130 0h-117l121 162q-46 7 -76 37q-31 31 -31 87q0 61 33 94q37 39 130 39h266v-419h-103v154h-111zM260 461h-84l99 172h125z" />
    <glyph glyph-name="afii10071.var.accented" unicode="&#x451;`" horiz-adv-x="482" 
d="M389 464q-24 0 -41 17.5t-17 41.5t16 41t42 17q25 0 42 -17t17 -41q0 -25 -17.5 -42t-41.5 -17zM122 464q-24 0 -41.5 17t-17.5 42q0 24 17 41t42 17q24 0 41 -17t17 -41t-17 -41.5t-41 -17.5zM59 0v420h397v-94h-294v-63h193v-90h-193v-78h310v-95h-413zM244 461h-74
l99 172h115z" />
    <glyph glyph-name="fi" unicode="fi" horiz-adv-x="649" 
d="M163 326v-62h186v-90h-186v-174h-104v420h392v-94h-288zM483 0v420h105v-420h-105z" />
    <glyph glyph-name="fl" unicode="fl" horiz-adv-x="855" 
d="M162 326v-62h187v-90h-187v-174h-103v420h391v-94h-288zM482 0v420h103v-321h279v-99h-382z" />
    <glyph glyph-name=".notdef" horiz-adv-x="500" 
d="M58 8h384v496h-384v-496zM50 0v512h400v-512h-400z" />
    <glyph glyph-name=".null" horiz-adv-x="0" 
 />
    <glyph glyph-name="nonmarkingreturn" horiz-adv-x="333" 
 />
    <glyph glyph-name="space" unicode=" " horiz-adv-x="333" 
 />
    <glyph glyph-name="exclam" unicode="!" horiz-adv-x="343" 
d="M172 -13q-24 0 -41 17.5t-17 43.5t17 43.5t41 17.5t40.5 -18t16.5 -43q0 -26 -16.5 -43.5t-40.5 -17.5zM221 162h-98l-8 368h114z" />
    <glyph glyph-name="quotedbl" unicode="&#x22;" horiz-adv-x="280" 
d="M36 387v288h89v-288h-89zM155 387v288h90v-288h-90z" />
    <glyph glyph-name="numbersign" unicode="#" horiz-adv-x="723" 
d="M325 357l-27 -77h92l27 77h-92zM656 357h-139l-28 -77h149l-31 -92h-150l-66 -188h-100l67 188h-92l-69 -188h-99l68 188h-132l35 92h128l28 77h-139l29 92h143l64 180h99l-63 -180h91l63 181h99l-62 -181h139z" />
    <glyph glyph-name="dollar" unicode="$" 
d="M367 -12v-103h-96v104q-116 9 -205 83l52 83q75 -57 153 -68v140q-102 6 -144 55q-33 33 -33 81q0 57 40 97q52 52 137 57v73h96v-75q103 -8 176 -66l-53 -81q-67 42 -123 50v-98q109 -11 157 -59q40 -40 40 -101q0 -75 -57 -122q-54 -45 -140 -50zM274 327v92h-5
q-26 0 -48 -13q-23 -14 -23 -37q0 -22 23 -33q22 -9 47 -9h6zM363 221v-133q39 2 66 19q30 21 30 53t-32 47q-25 12 -64 14z" />
    <glyph glyph-name="percent" unicode="%" horiz-adv-x="802" 
d="M173 201q-69 0 -114.5 46t-45.5 116t45.5 116t114.5 46q70 0 115.5 -46t45.5 -116t-46 -116t-115 -46zM173 435q-27 0 -45.5 -19.5t-18.5 -53.5q0 -32 18 -51.5t46 -19.5t46.5 19.5t18.5 51.5t-19 52.5t-46 20.5zM627 221q-27 0 -45.5 -19.5t-18.5 -52.5q0 -32 18 -52
t46 -20t46.5 20t18.5 52t-18.5 52t-46.5 20zM315 0h-100l271 507h99zM627 -13q-69 0 -114.5 46t-45.5 116t45.5 116t114.5 46q70 0 115.5 -46t45.5 -116t-46 -116t-115 -46z" />
    <glyph glyph-name="ampersand" unicode="&#x26;" horiz-adv-x="578" 
d="M377 134l-124 145q-33 -11 -60 -39q-31 -33 -31 -71q0 -34 24 -56q27 -25 72 -25q60 0 119 46zM489 4l-47 53q-77 -71 -186 -71q-96 0 -150 52q-53 53 -53 130q0 65 44 118q38 45 96 66l-153 178h379l62 -98h-220l192 -225q25 24 52 60l66 -85q-20 -26 -51 -58l105 -120
h-136z" />
    <glyph glyph-name="quotesingle" unicode="'" horiz-adv-x="160" 
d="M36 387v288h89v-288h-89z" />
    <glyph glyph-name="parenleft" unicode="(" horiz-adv-x="279" 
d="M250 42l-61 -65q-62 55 -99 118q-45 72 -45 168q0 97 44 170q38 61 100 118l60 -60q-54 -59 -78 -107q-22 -46 -22 -118q0 -76 27 -129q26 -53 74 -95z" />
    <glyph glyph-name="parenright" unicode=")" horiz-adv-x="279" 
d="M90 -23l-61 65q48 42 74 95q27 53 27 129q0 72 -22 118q-24 48 -78 107l60 60q62 -57 100 -118q44 -73 44 -170q0 -96 -45 -168q-37 -63 -99 -118z" />
    <glyph glyph-name="asterisk" unicode="*" horiz-adv-x="490" 
d="M314 352l64 -77l-77 -57l-57 84l-57 -81l-76 54l63 79l-93 24l33 89l88 -32v95h86v-96l88 31l31 -88z" />
    <glyph glyph-name="plus" unicode="+" horiz-adv-x="733" 
d="M411 233v-215h-88v215h-211v88h211v215h88v-215h210v-88h-210z" />
    <glyph glyph-name="comma" unicode="," horiz-adv-x="333" 
d="M131 -107l-28 28q31 43 46 85q-26 2 -38 20q-10 13 -10 36q0 34 19 50q16 16 39 16q25 0 43 -15q23 -20 23 -61q0 -42 -26 -85.5t-68 -73.5z" />
    <glyph glyph-name="hyphen" unicode="-" horiz-adv-x="257" 
d="M11 215v98h235v-98h-235z" />
    <glyph glyph-name="period" unicode="." horiz-adv-x="345" 
d="M173 -13q-24 0 -41.5 18t-17.5 45t17 45t42 18q26 0 42 -18t16 -45t-16.5 -45t-41.5 -18z" />
    <glyph glyph-name="slash" unicode="/" horiz-adv-x="265" 
d="M58 -84h-101l249 625h102z" />
    <glyph glyph-name="zero" unicode="0" 
d="M318 -13q-127 0 -208 77.5t-81 199.5q0 121 81 199t208 78t208.5 -77.5t81.5 -199.5t-81.5 -199.5t-208.5 -77.5zM318 438q-83 0 -132.5 -49t-49.5 -126q0 -76 50.5 -125t131.5 -49q82 0 132 49t50 125q0 77 -49.5 126t-132.5 49z" />
    <glyph glyph-name="one" unicode="1" 
d="M266 0v529h106v-529h-106z" />
    <glyph glyph-name="two" unicode="2" 
d="M563 0h-451l-2 19q-4 24 -4 73q0 87 47 138q43 47 146 78l44 14q35 11 65 24q1 1 5.5 3t6 3t6 3.5t6.5 5t5 5.5t5 6.5t3 8t1 9.5q0 25 -30 38q-24 11 -64 11q-58 0 -106 -22q-42 -19 -89 -58l-63 82q44 38 102 67q67 33 147 33q97 0 151 -37q60 -42 60 -118
q0 -54 -39 -93q-17 -15 -48 -31.5t-52 -22.5l-58 -19q-11 -4 -30.5 -10.5t-27.5 -9.5t-21 -7.5t-19.5 -8t-14 -7.5t-12.5 -9q-24 -21 -24 -51q0 -2 2 -16h353v-101z" />
    <glyph glyph-name="three" unicode="3" 
d="M138 376l-53 84q50 35 103 55q67 26 143 26q114 0 173 -46q51 -43 51 -109q0 -62 -45 -91q39 -18 55 -41q25 -31 25 -76q0 -87 -65 -137q-67 -54 -189 -54q-102 0 -178 34q-59 26 -117 77l65 80q50 -44 101 -65q57 -25 129 -25t112 26q34 23 34 58q0 30 -30 47
q-29 19 -109 19h-35v100h37q61 0 79 10q23 14 23 37q0 30 -40 45q-33 11 -75 11q-61 0 -115 -22q-42 -17 -79 -43z" />
    <glyph glyph-name="four" unicode="4" 
d="M522 123v-123h-105v123h-369v90l383 316h91v-304h77v-102h-77zM417 397l-211 -172h211v172z" />
    <glyph glyph-name="five" unicode="5" 
d="M208 430v-80q48 21 119 21q112 0 174 -48q65 -52 65 -135q0 -88 -61 -143q-64 -58 -178 -58q-96 0 -165 29q-57 24 -99 59l54 86q40 -30 87 -50q55 -22 115 -22q66 0 101 26q38 30 38 72q0 46 -44 72q-43 23 -104 23q-81 0 -146 -46h-61v294h418v-100h-313z" />
    <glyph glyph-name="six" unicode="6" 
d="M573 460l-54 -77q-80 56 -172 56q-85 0 -133 -39q-40 -34 -51 -88q80 54 183 54q134 0 200 -63q54 -49 54 -125q0 -70 -52 -122q-70 -69 -193 -69q-152 0 -233 85q-72 75 -72 186q0 114 76 194q83 87 219 87q128 0 228 -79zM165 214q18 -54 61 -87q48 -38 130 -38
q61 0 98 23q38 26 38 65q0 40 -37 64q-41 27 -109 27q-53 0 -104 -18q-44 -17 -77 -36z" />
    <glyph glyph-name="seven" unicode="7" 
d="M271 0h-126l284 428h-335v102h534z" />
    <glyph glyph-name="eight" unicode="8" 
d="M491 299q38 -18 59 -46q25 -34 25 -82q0 -74 -46 -120q-64 -64 -211 -64q-146 0 -210 64q-46 46 -46 120q0 48 25 82q21 28 59 46q-52 34 -52 95q0 56 43 93q59 51 181 51q123 0 182 -51q43 -37 43 -93q0 -61 -52 -95zM318 245q-82 0 -121 -25q-27 -18 -27 -49
q0 -33 26 -54q35 -29 125 -29q85 0 120 29q26 21 26 54q0 31 -27 49q-39 25 -122 25zM320 439q-70 0 -100 -22q-17 -14 -17 -33q0 -21 20 -35q26 -18 97 -18t97 18q20 14 20 35q0 19 -17 33q-30 22 -100 22z" />
    <glyph glyph-name="nine" unicode="9" 
d="M60 63l58 77q30 -22 71 -36q47 -15 101 -15q79 0 126 34q45 33 59 92q-85 -55 -192 -55q-118 0 -176 43q-69 50 -69 137q0 75 57 130q72 69 201 69q135 0 222 -87q70 -73 70 -183q0 -122 -75 -200q-82 -82 -219 -82q-74 0 -137 21q-53 18 -97 55zM473 312q-20 58 -64 89
q-48 36 -125 36q-59 0 -97 -24q-41 -25 -41 -68q0 -35 32 -59q38 -28 113 -28q54 0 105 18q44 17 77 36z" />
    <glyph glyph-name="colon" unicode=":" horiz-adv-x="345" 
d="M173 -13q-24 0 -41.5 18t-17.5 45t17 45t42 18q26 0 42 -18t16 -45t-16.5 -45t-41.5 -18zM173 239q-25 0 -42 18t-17 45t17.5 45t41.5 18q25 0 41.5 -18t16.5 -45t-16 -45t-42 -18z" />
    <glyph glyph-name="semicolon" unicode=";" horiz-adv-x="333" 
d="M131 -107l-28 28q31 43 46 85q-22 0 -35 15t-13 41q0 31 17.5 48.5t40.5 17.5t44.5 -16.5t21.5 -59.5q0 -42 -26 -85.5t-68 -73.5zM161 365q23 0 41 -16.5t18 -46.5t-19.5 -46.5t-39.5 -16.5q-23 0 -41 17.5t-18 45.5q0 27 16.5 45t42.5 18z" />
    <glyph glyph-name="less" unicode="&#x3c;" horiz-adv-x="720" 
d="M117 257v67l486 230v-96l-363 -167l363 -167v-96z" />
    <glyph glyph-name="equal" unicode="=" horiz-adv-x="733" 
d="M112 138v88h509v-88h-509zM112 315v88h509v-88h-509z" />
    <glyph glyph-name="greater" unicode="&#x3e;" horiz-adv-x="720" 
d="M603 324v-67l-486 -229v96l363 167l-363 167v96z" />
    <glyph glyph-name="question" unicode="?" horiz-adv-x="349" 
d="M98 48q0 24 17 41.5t40 17.5q24 0 40 -17.5t16 -41.5q0 -25 -16.5 -42.5t-39.5 -17.5t-40 17.5t-17 42.5zM100 381l-90 39q16 54 53 84q44 37 113 37q78 0 122 -41q37 -36 37 -91q0 -54 -43 -94l-54 -49q-22 -22 -26 -29q-6 -10 -6 -41v-43h-105v58q0 39 7 55q8 21 31 39
l51 43q7 5 25 23q14 15 14 31q0 19 -17 30q-14 9 -39 9q-29 0 -49 -17q-18 -17 -24 -43z" />
    <glyph glyph-name="at" unicode="@" horiz-adv-x="772" 
d="M442 258l13 57q-4 24 -19 38t-38 14q-37 0 -63 -26q-45 -45 -45 -124q0 -33 14 -49q16 -16 42 -16q30 0 55 25q29 29 41 81zM616 83l34 -49q-114 -93 -260 -93q-172 0 -270 105q-75 82 -75 202q0 140 100 240q108 108 272 108q66 0 130 -22.5t108 -63.5q72 -72 72 -175
q0 -113 -69 -185q-60 -64 -146 -64q-60 0 -79 38q-38 -38 -96 -38q-56 0 -90 32q-37 36 -37 103q0 41 15.5 85.5t44.5 75.5q50 52 126 52q56 0 86 -39l11 24h69l-55 -221q-6 -24 -6 -28q0 -8 7 -12q6 -3 13 -3q40 0 75 34q55 55 55 142q0 82 -57 134q-67 62 -178 62
q-135 0 -214 -84q-36 -37 -57.5 -91t-21.5 -110q0 -100 67 -165q72 -70 200 -70q131 0 226 76z" />
    <glyph glyph-name="A" unicode="A" horiz-adv-x="548" 
d="M272 374l-70 -142h141zM458 0l-65 131h-241l-63 -131h-116l260 530h79l262 -530h-116z" />
    <glyph glyph-name="B" unicode="B" horiz-adv-x="623" 
d="M175 97h207q51 0 68 15q23 18 23 56q0 34 -19 48q-21 18 -64 18h-215v-137zM175 331h195q35 0 50 10q20 13 20 44q0 27 -20 39q-18 9 -42 9h-8h-195v-102zM69 530h291q107 0 152 -45q34 -34 34 -88q0 -63 -44 -100q37 -15 59 -52q20 -36 20 -80q0 -71 -45 -116
q-48 -49 -142 -49h-325v530z" />
    <glyph glyph-name="C" unicode="C" horiz-adv-x="564" 
d="M460 197l84 -63q-34 -66 -95 -107q-61 -40 -146 -40q-127 0 -201 77q-76 76 -76 197q0 125 77 203q77 77 201 77q85 0 143 -36q54 -31 92 -87l-89 -63q-26 42 -60 63q-37 21 -87 21q-74 0 -120 -46q-50 -50 -50 -131q0 -79 51 -130q43 -43 115 -43q56 0 100 32
q42 31 61 76z" />
    <glyph glyph-name="D" unicode="D" horiz-adv-x="602" 
d="M300 429h-125v-328h125q83 0 126.5 44t43.5 120q0 73 -45 118.5t-125 45.5zM300 0h-231v530h231q125 0 201 -75t76 -191t-75 -190t-202 -74z" />
    <glyph glyph-name="E" unicode="E" horiz-adv-x="522" 
d="M69 0v530h426v-101h-321v-97h195v-101h-195v-130h341v-101h-446z" />
    <glyph glyph-name="F" unicode="F" horiz-adv-x="473" 
d="M174 429v-97h194v-101h-194v-231h-105v530h426v-101h-321z" />
    <glyph glyph-name="G" unicode="G" horiz-adv-x="585" 
d="M541 290v-166q-37 -58 -89 -94q-61 -43 -147 -43q-129 0 -202 77q-77 81 -77 201q0 122 77 199t194 77q82 0 149 -37q49 -27 88 -79l-89 -63q-21 35 -56 56q-38 21 -85 21q-75 0 -120 -45q-51 -51 -51 -128q0 -84 47 -131q46 -46 125 -46q85 0 131 68v41h-123v92h228z
" />
    <glyph glyph-name="H" unicode="H" horiz-adv-x="592" 
d="M416 0v238h-241v-238h-106v530h106v-192h241v192h106v-530h-106z" />
    <glyph glyph-name="I" unicode="I" horiz-adv-x="245" 
d="M70 -2v532h106v-532h-106z" />
    <glyph glyph-name="J" unicode="J" horiz-adv-x="513" 
d="M451 530v-337q0 -32 -1.5 -50.5t-12.5 -49t-32 -53.5q-50 -53 -180 -53q-38 0 -63.5 2.5t-58.5 15t-54 35.5q-20 21 -30 48t-11 42.5t-1 46.5v68h105v-60q0 -52 27 -75q21 -21 90 -21q62 0 87 22q30 26 30 87v332h105z" />
    <glyph glyph-name="K" unicode="K" horiz-adv-x="554" 
d="M454 0l-189 262l-91 -77v-185h-105v530h105v-219l255 219h139l-225 -198l239 -332h-128z" />
    <glyph glyph-name="L" unicode="L" horiz-adv-x="480" 
d="M69 0v530h106v-429h317v-101h-423z" />
    <glyph glyph-name="M" unicode="M" horiz-adv-x="680" 
d="M510 0v328l-170 -245l-170 245v-328h-104v530h81l193 -271l194 271h81v-530h-105z" />
    <glyph glyph-name="N" unicode="N" horiz-adv-x="597" 
d="M466 0l-292 329v-329h-105v530h64l291 -329v329h105v-530h-63z" />
    <glyph glyph-name="O" unicode="O" horiz-adv-x="600" 
d="M300 439q-71 0 -118.5 -49t-47.5 -126t47.5 -126t118.5 -49q72 0 119.5 49t47.5 126t-47.5 126t-119.5 49zM300 -13q-118 0 -196 78.5t-78 198.5t78 198.5t196 78.5t196.5 -78.5t78.5 -198.5t-78.5 -198.5t-196.5 -78.5z" />
    <glyph glyph-name="P" unicode="P" horiz-adv-x="560" 
d="M172 305h186q38 0 56 15q20 20 20 50q0 27 -18 45q-16 14 -53 14h-191v-124zM66 530h301q86 0 132 -46q43 -41 43 -115q0 -72 -44 -120q-44 -46 -122 -46h-204v-203h-106v530z" />
    <glyph glyph-name="Q" unicode="Q" horiz-adv-x="600" 
d="M273 93l-29 64h110l21 -50q40 19 64 57q28 44 28 102q0 80 -49 129q-45 44 -116 44q-76 0 -123 -50q-45 -49 -45 -127q0 -72 41 -118q40 -43 98 -51zM421 14l37 -82h-110l-25 55h-6q-137 0 -216 80q-75 75 -75 196q0 123 80 201q77 77 193 77t197 -77q79 -75 79 -202
q0 -86 -45 -154q-42 -65 -109 -94z" />
    <glyph glyph-name="R" unicode="R" horiz-adv-x="567" 
d="M171 309h192q37 0 53 16q17 17 17 47q0 33 -22 47q-14 10 -56 10h-184v-120zM445 0l-122 207h-152v-207h-105v530h304q83 0 128 -45q43 -43 43 -120q0 -59 -30 -97q-28 -36 -74 -52l126 -216h-118z" />
    <glyph glyph-name="S" unicode="S" horiz-adv-x="562" 
d="M506 461l-56 -87q-47 31 -93 47q-52 18 -109 18q-49 0 -73 -13q-32 -15 -32 -42q0 -24 30 -35q21 -7 86 -13l71 -6q97 -9 145 -51q51 -42 51 -109q0 -79 -63 -131q-64 -52 -180 -52q-85 0 -157 25q-70 26 -117 67l64 89q45 -37 98 -59q52 -21 118 -21q58 0 90 19
q38 21 38 58q0 35 -42 53q-15 6 -77 14l-78 6q-108 8 -153 54q-32 32 -32 83q0 71 56 119q57 47 163 47q79 0 146 -25q61 -20 106 -55z" />
    <glyph glyph-name="T" unicode="T" horiz-adv-x="413" 
d="M259 429v-429h-105v429h-204v101h513v-101h-204z" />
    <glyph glyph-name="U" unicode="U" horiz-adv-x="565" 
d="M509 530v-353q0 -98 -53 -143q-54 -47 -177 -47q-125 0 -178 53q-46 47 -46 137v353h106v-342q0 -58 27 -79q24 -20 89 -20q69 0 97 21q30 25 30 88v332h105z" />
    <glyph glyph-name="V" unicode="V" horiz-adv-x="501" 
d="M283 0h-66l-251 530h116l168 -359l168 359h117z" />
    <glyph glyph-name="W" unicode="W" horiz-adv-x="666" 
d="M521 0h-72l-116 345l-115 -345h-72l-173 530h106l105 -333l111 333h78l111 -332l105 332h104z" />
    <glyph glyph-name="X" unicode="X" horiz-adv-x="512" 
d="M406 0l-151 186l-152 -186h-128l216 266l-214 264h132l148 -181l148 181h131l-214 -261l220 -269h-136z" />
    <glyph glyph-name="Y" unicode="Y" horiz-adv-x="422" 
d="M263 247v-247h-105v247l-238 283h136l155 -190l153 190h138z" />
    <glyph glyph-name="Z" unicode="Z" horiz-adv-x="477" 
d="M168 101h296v-101h-504l328 429h-276v101h477z" />
    <glyph glyph-name="bracketleft" unicode="[" horiz-adv-x="287" 
d="M44 0v530h194v-97h-93v-336h93v-97h-194z" />
    <glyph glyph-name="backslash" unicode="\" horiz-adv-x="265" 
d="M206 -84l-249 625h101l250 -625h-102z" />
    <glyph glyph-name="bracketright" unicode="]" horiz-adv-x="286" 
d="M243 530v-530h-194v97h93v336h-93v97h194z" />
    <glyph glyph-name="asciicircum" unicode="^" horiz-adv-x="956" 
d="M670 396l-192 191l-193 -191h-124l276 290h81l276 -290h-124z" />
    <glyph glyph-name="underscore" unicode="_" horiz-adv-x="471" 
d="M-12 -212v89h495v-89h-495z" />
    <glyph glyph-name="grave" unicode="`" horiz-adv-x="500" 
d="M234 461l-137 172h125l103 -172h-91z" />
    <glyph glyph-name="a" unicode="a" horiz-adv-x="439" 
d="M219 270l-45 -94h90zM353 0l-46 91h-176l-46 -91h-113l215 420h64l216 -420h-114z" />
    <glyph glyph-name="b" unicode="b" horiz-adv-x="514" 
d="M164 95h154q28 0 40 8q15 13 15 35q0 23 -18 33q-10 6 -41 6h-150v-82zM164 267h141q21 0 30 7q11 11 11 26q0 17 -13 24q-9 5 -30 5h-139v-62zM60 419h253q68 0 99 -23q40 -28 40 -84q0 -54 -39 -82q29 -13 47 -39q19 -27 19 -64q0 -64 -41 -97q-37 -30 -113 -30h-265
v419z" />
    <glyph glyph-name="c" unicode="c" horiz-adv-x="516" 
d="M415 158l83 -57q-40 -59 -98 -87q-54 -26 -127 -26q-124 0 -193 71q-57 59 -57 150q0 85 60 147q73 74 195 74q76 0 131 -29q49 -24 83 -67l-83 -58q-24 28 -54 41q-31 14 -81 14q-75 0 -113 -40q-32 -35 -32 -82q0 -52 37 -86q38 -35 110 -35q46 0 83 19q28 15 56 51z
" />
    <glyph glyph-name="d" unicode="d" horiz-adv-x="513" 
d="M258 326h-90v-231h90q61 0 91 30t30 85q0 52 -32 84t-89 32zM261 0h-196v420h196q103 0 165 -59.5t62 -151.5q0 -93 -61.5 -151t-165.5 -58z" />
    <glyph glyph-name="e" unicode="e" horiz-adv-x="482" 
d="M59 0v420h397v-94h-294v-63h193v-90h-193v-78h310v-95h-413z" />
    <glyph glyph-name="f" unicode="f" horiz-adv-x="452" 
d="M162 326v-62h187v-90h-187v-174h-103v420h391v-94h-288z" />
    <glyph glyph-name="g" unicode="g" horiz-adv-x="554" 
d="M516 230v-135q-39 -50 -85 -75q-60 -32 -148 -32q-128 0 -195 65q-60 58 -60 152q0 99 70 162q67 63 187 63q81 0 136 -29q53 -27 87 -68l-82 -59q-30 30 -61 44q-36 15 -80 15q-68 0 -107 -33q-44 -37 -44 -92q0 -58 43 -92q39 -31 109 -31q77 0 126 42v23h-96v80h200z
" />
    <glyph glyph-name="h" unicode="h" horiz-adv-x="553" 
d="M386 0v175h-219v-175h-103v420h103v-145h219v145h103v-420h-103z" />
    <glyph glyph-name="i" unicode="i" horiz-adv-x="225" 
d="M60 -1v422h104v-422h-104z" />
    <glyph glyph-name="j" unicode="j" horiz-adv-x="440" 
d="M386 419v-253q0 -90 -41 -134q-44 -44 -143 -44q-111 0 -154 45q-36 38 -36 128v22h103v-29q0 -36 18 -54q17 -17 63 -17q49 0 68 20q19 19 19 67v249h103z" />
    <glyph glyph-name="k" unicode="k" horiz-adv-x="455" 
d="M364 0l-146 193l-55 -47v-146h-103v419h103v-155l184 155h140l-194 -163l192 -256h-121z" />
    <glyph glyph-name="l" unicode="l" horiz-adv-x="427" 
d="M59 0v420h103v-321h274v-99h-377z" />
    <glyph glyph-name="m" unicode="m" horiz-adv-x="565" 
d="M406 0v225l-125 -167l-123 167v-225h-99v420h78l144 -211l146 211h78v-420h-99z" />
    <glyph glyph-name="n" unicode="n" horiz-adv-x="501" 
d="M386 0l-223 231v-231h-98v420h50l223 -232v232h98v-420h-50z" />
    <glyph glyph-name="o" unicode="o" horiz-adv-x="561" 
d="M280 336q-67 0 -107 -36.5t-40 -88.5q0 -54 40 -90.5t107 -36.5q69 0 108.5 37t39.5 90q0 52 -40.5 88.5t-107.5 36.5zM280 -12q-110 0 -181 63.5t-71 158.5q0 96 70.5 158t181.5 62t182 -62t71 -158t-71 -159t-182 -63z" />
    <glyph glyph-name="p" unicode="p" horiz-adv-x="510" 
d="M164 249h184q24 0 34 9q13 11 13 30q0 21 -13 30q-13 8 -36 8h-182v-77zM60 420h296q66 0 111 -38q34 -33 34 -91q0 -61 -37 -98q-38 -38 -115 -38h-185v-155h-104v420z" />
    <glyph glyph-name="q" unicode="q" horiz-adv-x="551" 
d="M260 86l-42 53h107l29 -37q28 10 48 41q21 34 21 68q0 56 -44 91q-42 31 -102 31q-73 0 -114 -40q-35 -30 -35 -84q0 -50 35 -85q40 -37 97 -38zM416 26l60 -72h-118l-30 40q-28 -6 -57 -6q-117 0 -184 62q-64 60 -64 154q0 92 59 153q70 73 193 73t193 -70
q60 -60 60 -150q0 -66 -33 -115q-27 -42 -79 -69z" />
    <glyph glyph-name="r" unicode="r" horiz-adv-x="528" 
d="M169 256h169q23 0 34 7q14 8 14 29q0 20 -13 27q-8 6 -36 6h-168v-69zM404 0l-106 160h-129v-160h-104v419h283q72 0 109 -36q35 -35 35 -93q0 -55 -30 -86q-23 -23 -56 -30l115 -174h-117z" />
    <glyph glyph-name="s" unicode="s" horiz-adv-x="468" 
d="M417 370l-45 -77q-38 24 -76 35q-33 12 -83 12q-31 0 -50 -9q-25 -11 -25 -28q0 -21 24 -28q3 -1 57 -6l43 -3q90 -8 126 -34q47 -33 47 -96q0 -72 -54 -112q-51 -36 -142 -36q-70 0 -130 20q-59 21 -95 43l47 87q37 -22 78 -35q49 -17 101 -17q39 0 60 9q29 13 29 38
q0 6 -3 12.5t-13.5 14t-27.5 10.5q-20 3 -59 6l-52 3q-74 8 -102 29q-39 27 -39 78q0 66 51 105t142 39q54 0 111 -19q42 -14 80 -41z" />
    <glyph glyph-name="t" unicode="t" horiz-adv-x="401" 
d="M252 323v-323h-103v323h-159v97h421v-97h-159z" />
    <glyph glyph-name="u" unicode="u" horiz-adv-x="543" 
d="M483 419v-279q0 -69 -41 -107q-45 -45 -169 -45q-128 0 -173 45q-40 37 -40 107v279h103v-246q0 -49 23 -68q23 -18 85 -18q58 0 85 17q23 19 23 64v251h104z" />
    <glyph glyph-name="v" unicode="v" horiz-adv-x="444" 
d="M251 0h-58l-210 420h111l128 -266l124 266h115z" />
    <glyph glyph-name="w" unicode="w" horiz-adv-x="573" 
d="M445 0h-74l-84 261l-84 -261h-73l-143 420h106l79 -235l80 235h70l80 -235l79 235h106z" />
    <glyph glyph-name="x" unicode="x" horiz-adv-x="423" 
d="M324 0l-113 139l-113 -139h-129l176 211l-173 209h129l110 -136l110 136h131l-175 -208l176 -212h-129z" />
    <glyph glyph-name="y" unicode="y" horiz-adv-x="428" 
d="M264 203v-203h-102v202l-200 218h137l114 -129l113 129h140z" />
    <glyph glyph-name="z" unicode="z" horiz-adv-x="408" 
d="M170 99h221v-99h-411l237 320h-199v100h397z" />
    <glyph glyph-name="braceleft" unicode="{" horiz-adv-x="488" 
d="M417 -94v-88h-48q-90 0 -128 41q-37 39 -37 145v106q0 62 -26 84q-25 22 -85 22h-20v80h20q60 0 85 22q26 24 26 84v107q0 104 37 144q38 41 128 41h48v-88h-35q-38 0 -53 -15q-13 -11 -19 -27t-6.5 -26.5t-0.5 -32.5v-96q0 -78 -22 -110q-29 -38 -76 -42q51 -9 76 -45
q22 -30 22 -109v-96q0 -22 0.5 -32.5t6.5 -26.5t19 -27q17 -15 59 -15h29z" />
    <glyph glyph-name="bar" unicode="|" horiz-adv-x="516" 
d="M212 -212v945h93v-945h-93z" />
    <glyph glyph-name="braceright" unicode="}" horiz-adv-x="488" 
d="M72 -94h26q43 0 62 15q13 9 19 23.5t6.5 23.5t0.5 28v107q0 79 22 109q25 36 76 45q-47 4 -76 42q-22 32 -22 110v110q0 51 -26 72q-19 15 -62 15h-26v88h43q95 0 133 -41q37 -39 37 -144v-107q0 -61 26 -84q25 -22 85 -22h20v-80h-20q-60 0 -85 -22q-26 -22 -26 -84
v-111q0 -97 -37 -140q-38 -41 -133 -41h-43v88z" />
    <glyph glyph-name="asciitilde" unicode="~" horiz-adv-x="744" 
d="M670 389v-105q-76 -67 -176 -67q-35 0 -102 21l-48 16q-6 2 -19.5 7t-22.5 8t-22.5 5.5t-26.5 2.5q-51 0 -103 -32q-51 -33 -75 -51v104q89 67 172 67q43 0 105 -22l50 -18q3 -1 17 -6.5t21.5 -7.5t22 -4.5t29.5 -2.5q49 0 96 27q47 28 82 58z" />
    <glyph glyph-name="uni00A0" unicode="&#xa0;" horiz-adv-x="333" 
 />
    <glyph glyph-name="exclamdown" unicode="&#xa1;" horiz-adv-x="343" 
d="M172 541q24 0 40.5 -17t16.5 -43t-16.5 -44t-40.5 -18t-41 18t-17 44t17 43t41 17zM221 366l8 -368h-114l8 368h98z" />
    <glyph glyph-name="cent" unicode="&#xa2;" 
d="M384 36v-151h-94v150q-82 12 -131 69q-51 58 -51 145q0 100 57 159q48 50 125 60v122h94v-122q44 -4 88 -30q42 -25 68 -67l-83 -57q-12 20 -35 35q-18 11 -42 15v-224q31 3 52 21q17 14 38 44l83 -49q-25 -54 -74 -87q-37 -26 -95 -33zM294 141v223q-35 -10 -58 -38
q-23 -29 -23 -77q0 -41 21 -69q25 -30 60 -39z" />
    <glyph glyph-name="sterling" unicode="&#xa3;" 
d="M99 0l7 101h50l-9 101h-71v101h62q-4 28 -4 44q0 67 43 113q55 58 158 58q76 0 146 -31q50 -20 105 -62l-62 -80q-37 26 -90 49q-54 22 -98 22q-51 0 -76 -25q-22 -22 -22 -61q0 -14 2 -27h153v-101h-143l9 -101h318v-101h-478z" />
    <glyph glyph-name="currency" unicode="&#xa4;" horiz-adv-x="574" 
d="M288 531q-50 0 -85.5 -35t-35.5 -84t35.5 -84.5t85.5 -35.5t84.5 35.5t34.5 84.5t-34.5 84t-84.5 35zM492 147l-92 92q-55 -33 -113 -33q-57 0 -112 33l-92 -92l-61 60l93 94q-33 52 -33 110q0 60 33 112l-93 93l61 60l92 -93q52 34 112 34q62 0 113 -33l92 92l61 -60
l-93 -93q32 -53 32 -112q0 -60 -32 -110l93 -94z" />
    <glyph glyph-name="yen" unicode="&#xa5;" 
d="M370 0h-102v206h-220v72h191l-28 33h-163v72h100l-121 134h135l157 -176l158 176h135l-122 -134h100v-72h-163l-28 -33h191v-72h-220v-206z" />
    <glyph glyph-name="brokenbar" unicode="&#xa6;" horiz-adv-x="516" 
d="M212 -154v360h93v-360h-93zM212 314v360h93v-360h-93z" />
    <glyph glyph-name="section" unicode="&#xa7;" horiz-adv-x="488" 
d="M266 259l-68 36q-21 -15 -21 -37q0 -15 13 -28q3 -3 29 -18l69 -36q18 17 18 37q0 15 -9 25q-10 11 -31 21zM380 403h-93v4q0 25 -12 37q-11 11 -29 11q-16 0 -25 -9q-11 -11 -11 -23q0 -15 12 -26q12 -12 36 -23l61 -30q36 -17 62 -43q30 -32 30 -80q0 -71 -55 -99
q28 -28 28 -71q0 -56 -37 -93q-38 -38 -106 -38q-66 0 -103 35q-38 36 -38 106v3h90v-4q0 -24 13 -37q11 -11 36 -11q23 0 32 9q10 10 10 23q0 18 -17 33q-4 2 -21.5 12.5t-21.5 12.5l-48 24q-5 3 -15 8t-16.5 8.5t-15.5 9.5t-16 13q-34 30 -34 83q0 63 59 96q-30 30 -30 69
q0 56 38 92q40 36 100 36q62 0 99 -32q38 -35 38 -99v-7z" />
    <glyph glyph-name="dieresis" unicode="&#xa8;" horiz-adv-x="524" 
d="M178 464q-25 0 -43.5 18t-18.5 45q0 26 18 44t44 18t44 -18.5t18 -43.5q0 -26 -18 -44.5t-44 -18.5zM346 464q-26 0 -43.5 18.5t-17.5 44.5q0 25 17.5 43.5t43.5 18.5t44 -18t18 -44q0 -27 -18.5 -45t-43.5 -18z" />
    <glyph glyph-name="copyright" unicode="&#xa9;" horiz-adv-x="646" 
d="M112 272q0 -89 61 -150q62 -62 150 -62q89 0 151 62q61 61 61 150q0 88 -62 149q-62 62 -150 62q-87 0 -149 -61q-62 -60 -62 -150zM47 272q0 118 83 197q81 79 193 79q114 0 194 -80q82 -82 82 -196t-81 -195q-78 -82 -195 -82q-114 0 -196 82q-80 80 -80 195zM418 239
l54 -36q-48 -73 -145 -73q-82 0 -125 45q-37 39 -37 97q0 56 38 96q44 48 127 48q82 0 138 -63l-54 -37q-34 36 -86 36q-45 0 -74 -27q-21 -19 -21 -52q0 -36 24 -56q27 -23 72 -23q63 0 89 45z" />
    <glyph glyph-name="ordfeminine" unicode="&#xaa;" horiz-adv-x="282" 
d="M141 351l-26 -49h52zM225 184l-33 57h-103l-32 -57h-93l151 270h51l152 -270h-93z" />
    <glyph glyph-name="guillemotleft" unicode="&#xab;" horiz-adv-x="380" 
d="M162 132v-103l-151 126v109l151 127v-106l-97 -75zM357 132v-103l-151 125v110l151 127v-106l-97 -75z" />
    <glyph glyph-name="logicalnot" unicode="&#xac;" horiz-adv-x="795" 
d="M596 157v176h-484v89h571v-265h-87z" />
    <glyph glyph-name="uni00AD" unicode="&#xad;" horiz-adv-x="257" 
d="M11 215v98h235v-98h-235z" />
    <glyph glyph-name="registered" unicode="&#xae;" horiz-adv-x="646" 
d="M400 141l-63 105h-80v-105h-66v271h178q46 0 70 -24q23 -23 23 -60q0 -35 -19 -54q-17 -17 -37 -21l70 -112h-76zM257 306h105q12 0 21 5q9 7 9 19q0 10 -9 17q-12 4 -22 4h-104v-45zM112 272q0 -89 61 -150q62 -62 150 -62q89 0 151 62q61 61 61 151q0 86 -62 148
t-150 62q-87 0 -149 -61q-62 -60 -62 -150zM47 272q0 118 83 197q81 79 193 79q114 0 194 -80q82 -82 82 -196t-81 -195q-78 -82 -195 -82q-114 0 -196 82q-80 80 -80 195z" />
    <glyph glyph-name="overscore" unicode="&#xaf;" horiz-adv-x="496" 
d="M113 478v87h270v-87h-270z" />
    <glyph glyph-name="degree" unicode="&#xb0;" horiz-adv-x="323" 
d="M162 608q-29 0 -49 -20.5t-20 -49.5t20 -48.5t49 -19.5t48.5 19.5t19.5 48.5t-19.5 49.5t-48.5 20.5zM161 393q-60 0 -102 42.5t-42 102.5t42.5 102.5t102.5 42.5q59 0 101.5 -42.5t42.5 -102.5q0 -59 -42.5 -102t-102.5 -43z" />
    <glyph glyph-name="plusminus" unicode="&#xb1;" horiz-adv-x="733" 
d="M112 23v88h509v-88h-509zM411 318v-153h-88v153h-211v88h211v153h88v-153h210v-88h-210z" />
    <glyph glyph-name="twosuperior" unicode="&#xb2;" horiz-adv-x="405" 
d="M139 275h218v-72h-300q0 3 -1 20.5t-1 24.5q0 59 30 90q28 28 77 39l58 13q30 7 38 11q13 8 13 17q0 10 -17 19q-17 7 -39 7q-29 0 -59 -8q-42 -15 -61 -27l-36 55q69 48 154 48q68 0 104 -26q38 -27 38 -70q0 -35 -24 -55q-22 -17 -69 -27l-58 -12q-41 -9 -50 -17
q-15 -12 -15 -26v-4z" />
    <glyph glyph-name="threesuperior" unicode="&#xb3;" horiz-adv-x="395" 
d="M85 410l-38 57q34 20 65 30q44 15 92 15q74 0 105 -24q39 -24 39 -64q0 -32 -24 -52q21 -10 30 -22q17 -20 17 -47q0 -51 -45 -80q-43 -28 -120 -28q-63 0 -107 16q-54 21 -83 44l45 57q27 -21 62 -33q39 -13 80 -13q35 0 60 9q24 10 24 28q0 19 -27 27q-24 6 -54 6h-24
v58h31q21 0 36 5q15 6 15 17q0 15 -20 23q-16 6 -42 6q-34 0 -61 -10q-28 -9 -56 -25z" />
    <glyph glyph-name="acute" unicode="&#xb4;" horiz-adv-x="479" 
d="M242 461h-84l99 172h125z" />
    <glyph glyph-name="mu" unicode="&#xb5;" horiz-adv-x="544" 
d="M498 89l3 -87q-27 -12 -58 -12q-38 0 -57 19t-19 52v3q-19 -32 -53 -51q-34 -18 -83 -18q-51 0 -81 21q-19 13 -31 36l-48 -239h-103l127 607h103l-36 -179q-10 -46 -10 -72q0 -40 19 -61q22 -23 69 -23q55 0 85 32q35 35 57 133l37 170h102l-58 -272q-8 -34 -8 -44
t5 -15t16 -5q10 0 22 5z" />
    <glyph glyph-name="mu" unicode="&#x3bc;" horiz-adv-x="544" 
d="M498 89l3 -87q-27 -12 -58 -12q-38 0 -57 19t-19 52v3q-19 -32 -53 -51q-34 -18 -83 -18q-51 0 -81 21q-19 13 -31 36l-48 -239h-103l127 607h103l-36 -179q-10 -46 -10 -72q0 -40 19 -61q22 -23 69 -23q55 0 85 32q35 35 57 133l37 170h102l-58 -272q-8 -34 -8 -44
t5 -15t16 -5q10 0 22 5z" />
    <glyph glyph-name="paragraph" unicode="&#xb6;" horiz-adv-x="519" 
d="M435 619v-619h-81v619h-79v-619h-81v346q-76 9 -120.5 55.5t-44.5 117.5q0 79 54 127.5t141 48.5h266v-76h-55z" />
    <glyph glyph-name="middot" unicode="&#xb7;" horiz-adv-x="345" 
d="M172 197q-26 0 -42.5 17.5t-16.5 42.5q0 26 17 43.5t42 17.5t43 -17.5t18 -43.5q0 -25 -18 -42.5t-43 -17.5z" />
    <glyph glyph-name="cedilla" unicode="&#xb8;" horiz-adv-x="498" 
d="M271 45v-60h3q43 0 69 -18q33 -23 33 -66q0 -50 -30 -75q-31 -28 -97 -28q-33 0 -73 7q-23 5 -55 14v70q14 -4 34 -7t24 -4q28 -5 54 -5q29 0 38 6q11 7 11 21q0 16 -15 23q-14 6 -35 6q-9 0 -33 -3v119h72z" />
    <glyph glyph-name="onesuperior" unicode="&#xb9;" horiz-adv-x="452" 
d="M185 203v304h81v-304h-81z" />
    <glyph glyph-name="ordmasculine" unicode="&#xba;" horiz-adv-x="371" 
d="M188 252q35 0 58 15q29 19 29 52q0 27 -27 47q-25 18 -61 18q-34 0 -61 -16q-30 -22 -30 -49q0 -30 26 -48q24 -19 66 -19zM185 460q67 0 114 -32q61 -39 61 -108q0 -55 -40 -95q-49 -49 -135 -49q-85 0 -135 48q-39 39 -39 95q0 55 39 92q51 49 135 49z" />
    <glyph glyph-name="guillemotright" unicode="&#xbb;" horiz-adv-x="380" 
d="M23 29v103l97 78l-97 75v106l151 -127v-110zM218 29v103l97 78l-97 75v106l151 -127v-109z" />
    <glyph glyph-name="onequarter" unicode="&#xbc;" horiz-adv-x="949" 
d="M800 213l-102 -73h102v73zM176 200v306h84v-306h-84zM329 -13h-119l426 530h118zM882 62v-62h-82v62h-212v67l227 174h67v-163h49v-78h-49z" />
    <glyph glyph-name="onehalf" unicode="&#xbd;" horiz-adv-x="949" 
d="M176 200v306h84v-306h-84zM291 -13h-110l426 530h108zM685 73h218v-73h-300q-3 22 -3 45q0 61 31 91q29 29 76 39l44 10q47 11 49 12q16 7 16 18q0 13 -17 20q-17 6 -39 6q-28 0 -58 -8q-42 -15 -61 -27l-42 55q73 49 159 49q68 0 108 -29q35 -24 35 -67q0 -32 -21 -53
q-21 -18 -66 -28l-51 -11q-30 -6 -59 -18q-19 -10 -19 -27v-4z" />
    <glyph glyph-name="threequarters" unicode="&#xbe;" horiz-adv-x="881" 
d="M82 410l-38 57q34 20 65 30q44 15 92 15q74 0 105 -24q39 -24 39 -64q0 -32 -24 -52q19 -9 31 -22q16 -20 16 -47q0 -50 -45 -80q-41 -28 -121 -28q-60 0 -106 16q-41 13 -83 44l45 57q28 -22 66 -35q34 -11 76 -11q36 0 60 9q24 10 24 28q0 19 -27 27q-24 6 -54 6h-24
v58h31q21 0 36 5q15 6 15 17q0 15 -20 23q-17 6 -42 6q-34 0 -61 -10q-28 -9 -56 -25zM731 213l-101 -73h101v73zM814 62v-62h-83v62h-211v67l227 174h67v-163h49v-78h-49zM298 -13h-118l425 530h118z" />
    <glyph glyph-name="questiondown" unicode="&#xbf;" horiz-adv-x="349" 
d="M249 148l90 -39q-16 -54 -53 -84q-44 -37 -113 -37q-78 0 -122 41q-37 36 -37 91q0 54 43 94l54 49q22 22 26 29q6 10 6 41v43h105v-58q0 -39 -7 -55q-8 -21 -31 -39l-51 -43q-7 -5 -25 -23q-14 -15 -14 -31q0 -19 17 -30q14 -9 39 -9q29 0 49 17q18 17 24 43zM251 482
q0 -25 -17 -42.5t-40 -17.5t-39.5 17.5t-16.5 42.5q0 24 16 41.5t40 17.5q23 0 40 -17.5t17 -41.5z" />
    <glyph glyph-name="Agrave" unicode="&#xc0;" horiz-adv-x="548" 
d="M272 374l-70 -142h141zM458 0l-65 131h-241l-63 -131h-116l260 530h79l262 -530h-116zM237 578l-137 172h125l103 -172h-91z" />
    <glyph glyph-name="Aacute" unicode="&#xc1;" horiz-adv-x="548" 
d="M272 374l-70 -142h141zM458 0l-65 131h-241l-63 -131h-116l260 530h79l262 -530h-116zM315 578h-84l99 172h125z" />
    <glyph glyph-name="Acircumflex" unicode="&#xc2;" horiz-adv-x="548" 
d="M272 374l-70 -142h141zM458 0l-65 131h-241l-63 -131h-116l260 530h79l262 -530h-116zM335 578l-59 85l-58 -85h-85l101 172h83l103 -172h-85z" />
    <glyph glyph-name="Atilde" unicode="&#xc3;" horiz-adv-x="548" 
d="M272 374l-70 -142h141zM458 0l-65 131h-241l-63 -131h-116l260 530h79l262 -530h-116zM370 708h65q-13 -45 -31 -72q-31 -44 -77 -44q-22 0 -46 8l-17 6q-16 6 -36 6q-21 0 -30 -11q-11 -14 -13 -20h-65q16 54 37 80q30 36 76 36q12 0 42 -8l19 -6q26 -7 35 -7
q18 0 28 10q2 2 4.5 6.5t5 9.5t3.5 6z" />
    <glyph glyph-name="Adieresis" unicode="&#xc4;" horiz-adv-x="548" 
d="M272 374l-70 -142h141zM458 0l-65 131h-241l-63 -131h-116l260 530h79l262 -530h-116zM193 581q-25 0 -43.5 18t-18.5 45q0 26 18 44t44 18t44 -18.5t18 -43.5q0 -26 -18 -44.5t-44 -18.5zM361 581q-26 0 -43.5 18.5t-17.5 44.5q0 25 17.5 43.5t43.5 18.5t44 -18t18 -44
q0 -27 -18.5 -45t-43.5 -18z" />
    <glyph glyph-name="Aring" unicode="&#xc5;" horiz-adv-x="548" 
d="M272 374l-70 -142h141zM458 0l-65 131h-241l-63 -131h-116l260 530h79l262 -530h-116zM277 741q-20 0 -33.5 -14t-13.5 -35q0 -20 13.5 -34t33.5 -14q19 0 33.5 14t14.5 34t-14.5 34.5t-33.5 14.5zM277 577q-48 0 -81.5 34t-33.5 82t33.5 81.5t81.5 33.5t82 -33.5
t34 -81.5t-34 -82t-82 -34z" />
    <glyph glyph-name="AE" unicode="&#xc6;" horiz-adv-x="789" 
d="M356 429h-47l-114 -197h161v197zM356 0v131h-220l-76 -131h-115l308 530h530v-101h-322v-97h196v-101h-196v-130h342v-101h-447z" />
    <glyph glyph-name="Ccedilla" unicode="&#xc7;" horiz-adv-x="564" 
d="M460 197l84 -63q-32 -63 -96 -106q-51 -35 -108 -39v-30h2q40 0 68 -18q35 -21 35 -66q0 -43 -26 -69q-30 -30 -100 -30q-35 0 -74 7q-35 7 -55 14v70q22 -7 57 -12q25 -4 53 -4t38 6q13 7 13 21t-15 22q-11 5 -38 5q-21 0 -31 -2v86q-101 9 -165 75q-76 77 -76 197
q0 125 77 203q77 77 201 77q78 0 140 -35q58 -33 95 -88l-89 -63q-26 40 -61 62q-36 22 -86 22q-74 0 -120 -46q-50 -50 -50 -131q0 -79 51 -130q45 -43 115 -43q56 0 99 32q41 30 62 76z" />
    <glyph glyph-name="Egrave" unicode="&#xc8;" horiz-adv-x="522" 
d="M69 0v530h426v-101h-321v-97h195v-101h-195v-130h341v-101h-446zM277 578l-137 172h125l103 -172h-91z" />
    <glyph glyph-name="Eacute" unicode="&#xc9;" horiz-adv-x="522" 
d="M69 0v530h426v-101h-321v-97h195v-101h-195v-130h341v-101h-446zM275 578h-84l99 172h125z" />
    <glyph glyph-name="Ecircumflex" unicode="&#xca;" horiz-adv-x="522" 
d="M69 0v530h426v-101h-321v-97h195v-101h-195v-130h341v-101h-446zM340 578l-59 85l-58 -85h-85l101 172h83l103 -172h-85z" />
    <glyph glyph-name="Edieresis" unicode="&#xcb;" horiz-adv-x="522" 
d="M69 0v530h426v-101h-321v-97h195v-101h-195v-130h341v-101h-446zM201 581q-25 0 -43.5 18t-18.5 45q0 26 18 44t44 18t44 -18.5t18 -43.5q0 -26 -18 -44.5t-44 -18.5zM369 581q-26 0 -43.5 18.5t-17.5 44.5q0 25 17.5 43.5t43.5 18.5t44 -18t18 -44q0 -27 -18.5 -45
t-43.5 -18z" />
    <glyph glyph-name="Igrave" unicode="&#xcc;" horiz-adv-x="245" 
d="M70 -2v532h106v-532h-106zM88 578l-137 172h125l103 -172h-91z" />
    <glyph glyph-name="Iacute" unicode="&#xcd;" horiz-adv-x="245" 
d="M73 -2v532h106v-532h-106zM151 578h-84l99 172h125z" />
    <glyph glyph-name="Icircumflex" unicode="&#xce;" horiz-adv-x="245" 
d="M73 -2v532h106v-532h-106zM181 578l-59 85l-58 -85h-85l101 172h83l103 -172h-85z" />
    <glyph glyph-name="Idieresis" unicode="&#xcf;" horiz-adv-x="245" 
d="M73 -2v532h106v-532h-106zM43 581q-25 0 -43.5 18t-18.5 45q0 26 18 44t44 18t44 -18.5t18 -43.5q0 -26 -18 -44.5t-44 -18.5zM211 581q-26 0 -43.5 18.5t-17.5 44.5q0 25 17.5 43.5t43.5 18.5t44 -18t18 -44q0 -27 -18.5 -45t-43.5 -18z" />
    <glyph glyph-name="Eth" unicode="&#xd0;" horiz-adv-x="627" 
d="M324 429h-125v-93h170v-96h-170v-139h125q83 0 126.5 44t43.5 120q0 73 -45 118.5t-125 45.5zM324 0h-231v240h-104v96h104v194h231q125 0 201 -75t76 -191t-75 -190t-202 -74z" />
    <glyph glyph-name="Ntilde" unicode="&#xd1;" horiz-adv-x="597" 
d="M466 0l-292 329v-329h-105v530h64l291 -329v329h105v-530h-63zM394 708h65q-13 -45 -31 -72q-31 -44 -77 -44q-22 0 -46 8l-17 6q-16 6 -36 6q-21 0 -30 -11q-11 -14 -13 -20h-65q16 54 37 80q30 36 76 36q12 0 42 -8l19 -6q26 -7 35 -7q18 0 28 10q2 2 4.5 6.5t5 9.5
t3.5 6z" />
    <glyph glyph-name="Ograve" unicode="&#xd2;" horiz-adv-x="600" 
d="M300 439q-71 0 -118.5 -49t-47.5 -126t47.5 -126t118.5 -49q72 0 119.5 49t47.5 126t-47.5 126t-119.5 49zM300 -13q-118 0 -196 78.5t-78 198.5t78 198.5t196 78.5t196.5 -78.5t78.5 -198.5t-78.5 -198.5t-196.5 -78.5zM277 578l-137 172h125l103 -172h-91z" />
    <glyph glyph-name="Oacute" unicode="&#xd3;" horiz-adv-x="600" 
d="M300 439q-71 0 -118.5 -49t-47.5 -126t47.5 -126t118.5 -49q72 0 119.5 49t47.5 126t-47.5 126t-119.5 49zM300 -13q-118 0 -196 78.5t-78 198.5t78 198.5t196 78.5t196.5 -78.5t78.5 -198.5t-78.5 -198.5t-196.5 -78.5zM335 578h-84l99 172h125z" />
    <glyph glyph-name="Ocircumflex" unicode="&#xd4;" horiz-adv-x="600" 
d="M300 439q-71 0 -118.5 -49t-47.5 -126t47.5 -126t118.5 -49q72 0 119.5 49t47.5 126t-47.5 126t-119.5 49zM300 -13q-118 0 -196 78.5t-78 198.5t78 198.5t196 78.5t196.5 -78.5t78.5 -198.5t-78.5 -198.5t-196.5 -78.5zM360 578l-59 85l-58 -85h-85l101 172h83l103 -172
h-85z" />
    <glyph glyph-name="Otilde" unicode="&#xd5;" horiz-adv-x="600" 
d="M300 439q-71 0 -118.5 -49t-47.5 -126t47.5 -126t118.5 -49q72 0 119.5 49t47.5 126t-47.5 126t-119.5 49zM300 -13q-118 0 -196 78.5t-78 198.5t78 198.5t196 78.5t196.5 -78.5t78.5 -198.5t-78.5 -198.5t-196.5 -78.5zM396 708h65q-13 -45 -31 -72q-31 -44 -77 -44
q-22 0 -46 8l-17 6q-16 6 -36 6q-21 0 -30 -11q-11 -14 -13 -20h-65q16 54 37 80q30 36 76 36q12 0 42 -8l19 -6q26 -7 35 -7q18 0 28 10q2 2 4.5 6.5t5 9.5t3.5 6z" />
    <glyph glyph-name="Odieresis" unicode="&#xd6;" horiz-adv-x="600" 
d="M300 439q-71 0 -118.5 -49t-47.5 -126t47.5 -126t118.5 -49q72 0 119.5 49t47.5 126t-47.5 126t-119.5 49zM300 -13q-118 0 -196 78.5t-78 198.5t78 198.5t196 78.5t196.5 -78.5t78.5 -198.5t-78.5 -198.5t-196.5 -78.5zM219 581q-25 0 -43.5 18t-18.5 45q0 26 18 44
t44 18t44 -18.5t18 -43.5q0 -26 -18 -44.5t-44 -18.5zM387 581q-26 0 -43.5 18.5t-17.5 44.5q0 25 17.5 43.5t43.5 18.5t44 -18t18 -44q0 -27 -18.5 -45t-43.5 -18z" />
    <glyph glyph-name="multiply" unicode="&#xd7;" horiz-adv-x="680" 
d="M404 293l152 -153l-62 -62l-152 152l-149 -149l-63 63l149 149l-152 152l63 62l152 -152l148 148l63 -62z" />
    <glyph glyph-name="Oslash" unicode="&#xd8;" horiz-adv-x="615" 
d="M173 158l193 270q-20 11 -57 11q-72 0 -117 -45q-51 -50 -51 -131q0 -62 32 -105zM441 370l-193 -269q33 -12 59 -12q71 0 115 44q52 52 52 132q0 58 -33 105zM578 561l-70 -104q74 -78 74 -191q0 -120 -80 -202q-74 -77 -194 -77q-62 0 -119 26l-30 -45h-125l72 103
q-73 78 -73 189q0 125 79 204q79 77 197 77q65 0 116 -25l29 45h124z" />
    <glyph glyph-name="Ugrave" unicode="&#xd9;" horiz-adv-x="565" 
d="M509 530v-353q0 -98 -53 -143q-54 -47 -177 -47q-125 0 -178 53q-46 47 -46 137v353h106v-342q0 -58 27 -79q24 -20 89 -20q69 0 97 21q30 25 30 88v332h105zM287 578l-137 172h125l103 -172h-91z" />
    <glyph glyph-name="Uacute" unicode="&#xda;" horiz-adv-x="565" 
d="M509 530v-353q0 -98 -53 -143q-54 -47 -177 -47q-125 0 -178 53q-46 47 -46 137v353h106v-342q0 -58 27 -79q24 -20 89 -20q69 0 97 21q30 25 30 88v332h105zM280 578h-84l99 172h125z" />
    <glyph glyph-name="Ucircumflex" unicode="&#xdb;" horiz-adv-x="565" 
d="M509 530v-353q0 -98 -53 -143q-54 -47 -177 -47q-125 0 -178 53q-46 47 -46 137v353h106v-342q0 -58 27 -79q24 -20 89 -20q69 0 97 21q30 25 30 88v332h105zM345 578l-59 85l-58 -85h-85l101 172h83l103 -172h-85z" />
    <glyph glyph-name="Udieresis" unicode="&#xdc;" horiz-adv-x="565" 
d="M509 530v-353q0 -98 -53 -143q-54 -47 -177 -47q-125 0 -178 53q-46 47 -46 137v353h106v-342q0 -58 27 -79q24 -20 89 -20q69 0 97 21q30 25 30 88v332h105zM201 581q-25 0 -43.5 18t-18.5 45q0 26 18 44t44 18t44 -18.5t18 -43.5q0 -26 -18 -44.5t-44 -18.5zM369 581
q-26 0 -43.5 18.5t-17.5 44.5q0 25 17.5 43.5t43.5 18.5t44 -18t18 -44q0 -27 -18.5 -45t-43.5 -18z" />
    <glyph glyph-name="Yacute" unicode="&#xdd;" horiz-adv-x="422" 
d="M263 247v-247h-105v247l-238 283h136l155 -190l153 190h138zM216 578h-84l99 172h125z" />
    <glyph glyph-name="Thorn" unicode="&#xde;" horiz-adv-x="560" 
d="M366 335h-194v-116h191q71 0 71 57q0 59 -68 59zM375 118h-203v-118h-106v530h106v-94h195q80 0 127.5 -42t47.5 -116q0 -68 -45.5 -114t-121.5 -46z" />
    <glyph glyph-name="germandbls" unicode="&#xdf;" horiz-adv-x="908" 
d="M417 370l-45 -77q-38 24 -76 35q-33 12 -83 12q-31 0 -50 -9q-25 -11 -25 -28q0 -21 24 -28q3 -1 57 -6l43 -3q90 -8 126 -34q47 -33 47 -96q0 -72 -54 -112q-51 -36 -142 -36q-70 0 -130 20q-59 21 -95 43l47 87q37 -22 78 -35q49 -17 101 -17q39 0 60 9q29 13 29 38
q0 6 -3 12.5t-13.5 14t-27.5 10.5q-20 3 -59 6l-52 3q-74 8 -102 29q-39 27 -39 78q0 66 51 105t142 39q54 0 111 -19q42 -14 80 -41zM857 370l-45 -77q-38 24 -76 35q-33 12 -83 12q-31 0 -50 -9q-25 -11 -25 -28q0 -21 24 -28q3 -1 57 -6l43 -3q90 -8 126 -34
q47 -33 47 -96q0 -72 -54 -112q-51 -36 -142 -36q-70 0 -130 20q-59 21 -95 43l47 87q37 -22 78 -35q49 -17 101 -17q39 0 60 9q29 13 29 38q0 6 -3 12.5t-13.5 14t-27.5 10.5q-20 3 -59 6l-52 3q-74 8 -102 29q-39 27 -39 78q0 66 51 105t142 39q54 0 111 -19
q42 -14 80 -41z" />
    <glyph glyph-name="agrave" unicode="&#xe0;" horiz-adv-x="439" 
d="M219 270l-45 -94h90zM353 0l-46 91h-176l-46 -91h-113l215 420h64l216 -420h-114zM168 461l-137 172h125l103 -172h-91z" />
    <glyph glyph-name="aacute" unicode="&#xe1;" horiz-adv-x="439" 
d="M219 270l-45 -94h90zM353 0l-46 91h-176l-46 -91h-113l215 420h64l216 -420h-114zM255 461h-84l99 172h125z" />
    <glyph glyph-name="acircumflex" unicode="&#xe2;" horiz-adv-x="439" 
d="M219 270l-45 -94h90zM353 0l-46 91h-176l-46 -91h-113l215 420h64l216 -420h-114zM271 461l-59 85l-58 -85h-85l101 172h83l103 -172h-85z" />
    <glyph glyph-name="atilde" unicode="&#xe3;" horiz-adv-x="439" 
d="M219 270l-45 -94h90zM353 0l-46 91h-176l-46 -91h-113l215 420h64l216 -420h-114zM313 591h65q-13 -45 -31 -72q-31 -44 -77 -44q-22 0 -46 8l-17 6q-16 6 -36 6q-21 0 -30 -11q-11 -14 -13 -20h-65q16 54 37 80q30 36 76 36q12 0 42 -8l19 -6q26 -7 35 -7q18 0 28 10
q2 2 4.5 6.5t5 9.5t3.5 6z" />
    <glyph glyph-name="adieresis" unicode="&#xe4;" horiz-adv-x="439" 
d="M219 270l-45 -94h90zM353 0l-46 91h-176l-46 -91h-113l215 420h64l216 -420h-114zM127 464q-25 0 -43.5 18t-18.5 45q0 26 18 44t44 18t44 -18.5t18 -43.5q0 -26 -18 -44.5t-44 -18.5zM295 464q-26 0 -43.5 18.5t-17.5 44.5q0 25 17.5 43.5t43.5 18.5t44 -18t18 -44
q0 -27 -18.5 -45t-43.5 -18z" />
    <glyph glyph-name="aring" unicode="&#xe5;" horiz-adv-x="439" 
d="M219 270l-45 -94h90zM353 0l-46 91h-176l-46 -91h-113l215 420h64l216 -420h-114zM215 624q-20 0 -33.5 -14t-13.5 -35q0 -20 13.5 -34t33.5 -14q19 0 33.5 14t14.5 34t-14.5 34.5t-33.5 14.5zM215 460q-48 0 -81.5 34t-33.5 82t33.5 81.5t81.5 33.5t82 -33.5t34 -81.5
t-34 -82t-82 -34z" />
    <glyph glyph-name="ae" unicode="&#xe6;" horiz-adv-x="750" 
d="M327 320h-64l-75 -130h139v130zM740 0h-413v95h-196l-54 -95h-115l242 420h520v-94h-294v-63h193v-90h-193v-78h310v-95z" />
    <glyph glyph-name="ccedilla" unicode="&#xe7;" horiz-adv-x="516" 
d="M415 158l83 -57q-32 -51 -88 -81q-49 -27 -105 -31v-30h2q40 0 68 -18q35 -21 35 -66q0 -43 -26 -69q-30 -30 -100 -30q-35 0 -74 7q-35 7 -55 14v70q23 -7 57 -12q25 -4 53 -4q27 0 38 6q13 7 13 21t-15 22q-11 5 -38 5q-21 0 -31 -2v87q-92 7 -152 69q-57 60 -57 150
q0 85 60 147q72 74 197 74q75 0 129 -29q49 -24 83 -67l-83 -58q-24 28 -54 41q-31 14 -81 14q-75 0 -113 -40q-32 -35 -32 -82q0 -52 37 -86q38 -35 113 -35q43 0 80 19q28 15 56 51z" />
    <glyph glyph-name="egrave" unicode="&#xe8;" horiz-adv-x="482" 
d="M59 0v420h397v-94h-294v-63h193v-90h-193v-78h310v-95h-413zM257 461l-137 172h125l103 -172h-91z" />
    <glyph glyph-name="eacute" unicode="&#xe9;" horiz-adv-x="482" 
d="M59 0v420h397v-94h-294v-63h193v-90h-193v-78h310v-95h-413zM270 461h-84l99 172h125z" />
    <glyph glyph-name="ecircumflex" unicode="&#xea;" horiz-adv-x="482" 
d="M59 0v420h397v-94h-294v-63h193v-90h-193v-78h310v-95h-413zM320 461l-59 85l-58 -85h-85l101 172h83l103 -172h-85z" />
    <glyph glyph-name="edieresis" unicode="&#xeb;" horiz-adv-x="482" 
d="M59 0v420h397v-94h-294v-63h193v-90h-193v-78h310v-95h-413zM177 464q-25 0 -43.5 18t-18.5 45q0 26 18 44t44 18t44 -18.5t18 -43.5q0 -26 -18 -44.5t-44 -18.5zM345 464q-26 0 -43.5 18.5t-17.5 44.5q0 25 17.5 43.5t43.5 18.5t44 -18t18 -44q0 -27 -18.5 -45
t-43.5 -18z" />
    <glyph glyph-name="igrave" unicode="&#xec;" horiz-adv-x="225" 
d="M63 -1v422h104v-422h-104zM83 461l-137 172h125l103 -172h-91z" />
    <glyph glyph-name="iacute" unicode="&#xed;" horiz-adv-x="225" 
d="M63 -1v422h104v-422h-104zM146 461h-84l99 172h125z" />
    <glyph glyph-name="icircumflex" unicode="&#xee;" horiz-adv-x="225" 
d="M63 -1v422h104v-422h-104zM171 461l-59 85l-58 -85h-85l101 172h83l103 -172h-85z" />
    <glyph glyph-name="idieresis" unicode="&#xef;" horiz-adv-x="225" 
d="M63 -1v422h104v-422h-104zM27 464q-25 0 -43.5 18t-18.5 45q0 26 18 44t44 18t44 -18.5t18 -43.5q0 -26 -18 -44.5t-44 -18.5zM195 464q-26 0 -43.5 18.5t-17.5 44.5q0 25 17.5 43.5t43.5 18.5t44 -18t18 -44q0 -27 -18.5 -45t-43.5 -18z" />
    <glyph glyph-name="eth" unicode="&#xf0;" horiz-adv-x="496" 
d="M366 171q-22 22 -54 36q-28 13 -72 13q-48 0 -78 -19q-35 -24 -35 -57q0 -30 25 -50q24 -20 77 -20q54 0 88 25q32 23 49 72zM194 358l34 35q-49 0 -88 -10l-19 70q43 11 92 11q40 0 70 -6l45 51l38 -35l-28 -33q58 -23 96 -73q39 -52 39 -131q0 -121 -74 -190
q-64 -59 -175 -59q-88 0 -140 36q-61 44 -61 122q0 72 59 117q53 41 143 41t159 -49q-1 50 -33 84q-24 29 -68 40l-51 -54z" />
    <glyph glyph-name="ntilde" unicode="&#xf1;" horiz-adv-x="501" 
d="M386 0l-223 231v-231h-98v420h50l223 -232v232h98v-420h-50zM342 591h65q-13 -45 -31 -72q-31 -44 -77 -44q-22 0 -46 8l-17 6q-16 6 -36 6q-21 0 -30 -11q-11 -14 -13 -20h-65q16 54 37 80q30 36 76 36q12 0 42 -8l19 -6q26 -7 35 -7q18 0 28 10q2 2 4.5 6.5t5 9.5
t3.5 6z" />
    <glyph glyph-name="ograve" unicode="&#xf2;" horiz-adv-x="561" 
d="M280 336q-67 0 -107 -36.5t-40 -88.5q0 -54 40 -90.5t107 -36.5q69 0 108.5 37t39.5 90q0 52 -40.5 88.5t-107.5 36.5zM280 -12q-110 0 -181 63.5t-71 158.5q0 96 70.5 158t181.5 62t182 -62t71 -158t-71 -159t-182 -63zM257 461l-137 172h125l103 -172h-91z" />
    <glyph glyph-name="oacute" unicode="&#xf3;" horiz-adv-x="561" 
d="M280 336q-67 0 -107 -36.5t-40 -88.5q0 -54 40 -90.5t107 -36.5q69 0 108.5 37t39.5 90q0 52 -40.5 88.5t-107.5 36.5zM280 -12q-110 0 -181 63.5t-71 158.5q0 96 70.5 158t181.5 62t182 -62t71 -158t-71 -159t-182 -63zM305 461h-84l99 172h125z" />
    <glyph glyph-name="ocircumflex" unicode="&#xf4;" horiz-adv-x="561" 
d="M280 336q-67 0 -107 -36.5t-40 -88.5q0 -54 40 -90.5t107 -36.5q69 0 108.5 37t39.5 90q0 52 -40.5 88.5t-107.5 36.5zM280 -12q-110 0 -181 63.5t-71 158.5q0 96 70.5 158t181.5 62t182 -62t71 -158t-71 -159t-182 -63zM338 461l-59 85l-58 -85h-85l101 172h83l103 -172
h-85z" />
    <glyph glyph-name="otilde" unicode="&#xf5;" horiz-adv-x="561" 
d="M280 336q-67 0 -107 -36.5t-40 -88.5q0 -54 40 -90.5t107 -36.5q69 0 108.5 37t39.5 90q0 52 -40.5 88.5t-107.5 36.5zM280 -12q-110 0 -181 63.5t-71 158.5q0 96 70.5 158t181.5 62t182 -62t71 -158t-71 -159t-182 -63zM371 591h65q-13 -45 -31 -72q-31 -44 -77 -44
q-22 0 -46 8l-17 6q-16 6 -36 6q-21 0 -30 -11q-11 -14 -13 -20h-65q16 54 37 80q30 36 76 36q12 0 42 -8l19 -6q26 -7 35 -7q18 0 28 10q2 2 4.5 6.5t5 9.5t3.5 6z" />
    <glyph glyph-name="odieresis" unicode="&#xf6;" horiz-adv-x="561" 
d="M280 336q-67 0 -107 -36.5t-40 -88.5q0 -54 40 -90.5t107 -36.5q69 0 108.5 37t39.5 90q0 52 -40.5 88.5t-107.5 36.5zM280 -12q-110 0 -181 63.5t-71 158.5q0 96 70.5 158t181.5 62t182 -62t71 -158t-71 -159t-182 -63zM194 464q-25 0 -43.5 18t-18.5 45q0 26 18 44
t44 18t44 -18.5t18 -43.5q0 -26 -18 -44.5t-44 -18.5zM362 464q-26 0 -43.5 18.5t-17.5 44.5q0 25 17.5 43.5t43.5 18.5t44 -18t18 -44q0 -27 -18.5 -45t-43.5 -18z" />
    <glyph glyph-name="divide" unicode="&#xf7;" horiz-adv-x="733" 
d="M367 44q-29 0 -49 20t-20 49t20.5 49.5t48.5 20.5q29 0 49 -20.5t20 -49.5q0 -28 -20 -48.5t-49 -20.5zM112 233v88h509v-88h-509zM367 372q-30 0 -49.5 20t-19.5 49t20 49.5t49 20.5t49 -20.5t20 -49.5q0 -28 -20 -48.5t-49 -20.5z" />
    <glyph glyph-name="oslash" unicode="&#xf8;" horiz-adv-x="574" 
d="M166 136l165 191q-21 7 -45 7q-71 0 -112 -40q-36 -35 -36 -83q0 -45 28 -75zM403 284l-165 -191q21 -7 46 -7q73 0 112 39q36 33 36 86q0 44 -29 73zM23 -24l71 84q-63 63 -63 150t58 145q72 75 200 75q61 0 109 -20l33 40h120l-77 -90q63 -58 63 -148q0 -86 -57 -148
q-71 -76 -196 -76q-62 0 -113 22l-27 -34h-121z" />
    <glyph glyph-name="ugrave" unicode="&#xf9;" horiz-adv-x="543" 
d="M483 419v-279q0 -69 -41 -107q-45 -45 -169 -45q-128 0 -173 45q-40 37 -40 107v279h103v-246q0 -49 23 -68q23 -18 85 -18q58 0 85 17q23 19 23 64v251h104zM272 461l-137 172h125l103 -172h-91z" />
    <glyph glyph-name="uacute" unicode="&#xfa;" horiz-adv-x="543" 
d="M483 419v-279q0 -69 -41 -107q-45 -45 -169 -45q-128 0 -173 45q-40 37 -40 107v279h103v-246q0 -49 23 -68q23 -18 85 -18q58 0 85 17q23 19 23 64v251h104zM275 461h-84l99 172h125z" />
    <glyph glyph-name="ucircumflex" unicode="&#xfb;" horiz-adv-x="543" 
d="M483 419v-279q0 -69 -41 -107q-45 -45 -169 -45q-128 0 -173 45q-40 37 -40 107v279h103v-246q0 -49 23 -68q23 -18 85 -18q58 0 85 17q23 19 23 64v251h104zM330 461l-59 85l-58 -85h-85l101 172h83l103 -172h-85z" />
    <glyph glyph-name="udieresis" unicode="&#xfc;" horiz-adv-x="543" 
d="M483 419v-279q0 -69 -41 -107q-45 -45 -169 -45q-128 0 -173 45q-40 37 -40 107v279h103v-246q0 -49 23 -68q23 -18 85 -18q58 0 85 17q23 19 23 64v251h104zM190 464q-25 0 -43.5 18t-18.5 45q0 26 18 44t44 18t44 -18.5t18 -43.5q0 -26 -18 -44.5t-44 -18.5zM358 464
q-26 0 -43.5 18.5t-17.5 44.5q0 25 17.5 43.5t43.5 18.5t44 -18t18 -44q0 -27 -18.5 -45t-43.5 -18z" />
    <glyph glyph-name="yacute" unicode="&#xfd;" horiz-adv-x="428" 
d="M264 203v-203h-102v202l-200 218h137l114 -129l113 129h140zM226 461h-84l99 172h125z" />
    <glyph glyph-name="thorn" unicode="&#xfe;" horiz-adv-x="510" 
d="M164 186h182q24 0 35 8q14 10 14 32q0 21 -13 30q-12 7 -38 7h-180v-77zM164 357h192q73 0 111 -38q34 -34 34 -92q0 -60 -37 -97q-38 -38 -115 -38h-185v-92h-104v420h104v-63z" />
    <glyph glyph-name="ydieresis" unicode="&#xff;" horiz-adv-x="428" 
d="M264 203v-203h-102v202l-200 218h137l114 -129l113 129h140zM127 464q-25 0 -43.5 18t-18.5 45q0 26 18 44t44 18t44 -18.5t18 -43.5q0 -26 -18 -44.5t-44 -18.5zM295 464q-26 0 -43.5 18.5t-17.5 44.5q0 25 17.5 43.5t43.5 18.5t44 -18t18 -44q0 -27 -18.5 -45
t-43.5 -18z" />
    <glyph glyph-name="Amacron" unicode="&#x100;" horiz-adv-x="548" 
d="M272 374l-70 -142h141zM458 0l-65 131h-241l-63 -131h-116l260 530h79l262 -530h-116zM142 595v87h270v-87h-270z" />
    <glyph glyph-name="amacron" unicode="&#x101;" horiz-adv-x="439" 
d="M219 270l-45 -94h90zM353 0l-46 91h-176l-46 -91h-113l215 420h64l216 -420h-114zM80 478v87h270v-87h-270z" />
    <glyph glyph-name="Abreve" unicode="&#x102;" horiz-adv-x="548" 
d="M272 374l-70 -142h141zM458 0l-65 131h-241l-63 -131h-116l260 530h79l262 -530h-116zM357 705h77q-8 -81 -49 -110q-34 -25 -108 -25t-108 25q-41 29 -49 110h77q3 -35 22 -47q17 -11 58 -11t59 11q15 11 21 47z" />
    <glyph glyph-name="abreve" unicode="&#x103;" horiz-adv-x="439" 
d="M219 270l-45 -94h90zM353 0l-46 91h-176l-46 -91h-113l215 420h64l216 -420h-114zM293 592h70q-2 -64 -36 -98t-113 -34q-27 0 -40 1t-34.5 9t-37.5 24q-36 36 -36 98h69q0 -24 18 -42q16 -14 61 -14t61 14q18 18 18 42z" />
    <glyph glyph-name="Aogonek" unicode="&#x104;" horiz-adv-x="546" 
d="M271 374l-70 -142h142zM311 530l262 -530q-35 -28 -51 -50q-26 -34 -26 -62q0 -20 20 -33q14 -6 51 -6h10v-81h-21q-81 0 -110 18q-38 21 -38 71q0 44 31 82q22 29 65 61h-46l-66 131h-240l-64 -131h-115l259 530h79z" />
    <glyph glyph-name="aogonek" unicode="&#x105;" horiz-adv-x="419" 
d="M209 270l-45 -94h90zM343 0l-45 91h-177l-46 -91h-112l214 420h64l216 -420q-35 -28 -51 -50q-26 -34 -26 -62q0 -20 20 -33q14 -6 51 -6h10v-81h-21q-81 0 -110 18q-38 21 -38 71q0 40 31 82q19 25 65 61h-45z" />
    <glyph glyph-name="Cacute" unicode="&#x106;" horiz-adv-x="564" 
d="M460 197l84 -63q-34 -66 -95 -107q-61 -40 -146 -40q-127 0 -201 77q-76 76 -76 197q0 125 77 203q77 77 201 77q85 0 143 -36q54 -31 92 -87l-89 -63q-26 42 -60 63q-37 21 -87 21q-74 0 -120 -46q-50 -50 -50 -131q0 -79 51 -130q43 -43 115 -43q56 0 100 32
q42 31 61 76zM335 578h-84l99 172h125z" />
    <glyph glyph-name="cacute" unicode="&#x107;" horiz-adv-x="516" 
d="M415 158l83 -57q-40 -59 -98 -87q-54 -26 -127 -26q-124 0 -193 71q-57 59 -57 150q0 85 60 147q73 74 195 74q76 0 131 -29q49 -24 83 -67l-83 -58q-24 28 -54 41q-31 14 -81 14q-75 0 -113 -40q-32 -35 -32 -82q0 -52 37 -86q38 -35 110 -35q46 0 83 19q28 15 56 51z
M305 461h-84l99 172h125z" />
    <glyph glyph-name="Ccircumflex" unicode="&#x108;" horiz-adv-x="564" 
d="M460 197l84 -63q-34 -66 -95 -107q-61 -40 -146 -40q-127 0 -201 77q-76 76 -76 197q0 125 77 203q77 77 201 77q85 0 143 -36q54 -31 92 -87l-89 -63q-26 42 -60 63q-37 21 -87 21q-74 0 -120 -46q-50 -50 -50 -131q0 -79 51 -130q43 -43 115 -43q56 0 100 32
q42 31 61 76zM365 578l-59 85l-58 -85h-85l101 172h83l103 -172h-85z" />
    <glyph glyph-name="ccircumflex" unicode="&#x109;" horiz-adv-x="516" 
d="M415 158l83 -57q-40 -59 -98 -87q-54 -26 -127 -26q-124 0 -193 71q-57 59 -57 150q0 85 60 147q73 74 195 74q76 0 131 -29q49 -24 83 -67l-83 -58q-24 28 -54 41q-31 14 -81 14q-75 0 -113 -40q-32 -35 -32 -82q0 -52 37 -86q38 -35 110 -35q46 0 83 19q28 15 56 51z
M330 461l-59 85l-58 -85h-85l101 172h83l103 -172h-85z" />
    <glyph glyph-name="Cdotaccent" unicode="&#x10a;" horiz-adv-x="564" 
d="M460 197l84 -63q-34 -66 -95 -107q-61 -40 -146 -40q-127 0 -201 77q-76 76 -76 197q0 125 77 203q77 77 201 77q85 0 143 -36q54 -31 92 -87l-89 -63q-26 42 -60 63q-37 21 -87 21q-74 0 -120 -46q-50 -50 -50 -131q0 -79 51 -130q43 -43 115 -43q56 0 100 32
q42 31 61 76zM283 587q-27 0 -47 19.5t-20 46.5t19.5 46.5t47.5 19.5t47 -19.5t19 -46.5q0 -28 -19 -47t-47 -19z" />
    <glyph glyph-name="cdotaccent" unicode="&#x10b;" horiz-adv-x="516" 
d="M415 158l83 -57q-40 -59 -98 -87q-54 -26 -127 -26q-124 0 -193 71q-57 59 -57 150q0 85 60 147q73 74 195 74q76 0 131 -29q49 -24 83 -67l-83 -58q-24 28 -54 41q-31 14 -81 14q-75 0 -113 -40q-32 -35 -32 -82q0 -52 37 -86q38 -35 110 -35q46 0 83 19q28 15 56 51z
M259 470q-27 0 -47 19.5t-20 46.5t19.5 46.5t47.5 19.5t47 -19.5t19 -46.5q0 -28 -19 -47t-47 -19z" />
    <glyph glyph-name="Ccaron" unicode="&#x10c;" horiz-adv-x="564" 
d="M460 197l84 -63q-34 -66 -95 -107q-61 -40 -146 -40q-127 0 -201 77q-76 76 -76 197q0 125 77 203q77 77 201 77q85 0 143 -36q54 -31 92 -87l-89 -63q-26 42 -60 63q-37 21 -87 21q-74 0 -120 -46q-50 -50 -50 -131q0 -79 51 -130q43 -43 115 -43q56 0 100 32
q42 31 61 76zM311 673l59 86h85l-103 -172h-83l-101 172h85z" />
    <glyph glyph-name="ccaron" unicode="&#x10d;" horiz-adv-x="516" 
d="M415 158l83 -57q-40 -59 -98 -87q-54 -26 -127 -26q-124 0 -193 71q-57 59 -57 150q0 85 60 147q73 74 195 74q76 0 131 -29q49 -24 83 -67l-83 -58q-24 28 -54 41q-31 14 -81 14q-75 0 -113 -40q-32 -35 -32 -82q0 -52 37 -86q38 -35 110 -35q46 0 83 19q28 15 56 51z
M276 556l59 86h85l-103 -172h-83l-101 172h85z" />
    <glyph glyph-name="Dcaron" unicode="&#x10e;" horiz-adv-x="602" 
d="M300 429h-125v-328h125q83 0 126.5 44t43.5 120q0 73 -45 118.5t-125 45.5zM300 0h-231v530h231q125 0 201 -75t76 -191t-75 -190t-202 -74zM291 673l59 86h85l-103 -172h-83l-101 172h85z" />
    <glyph glyph-name="dcaron" unicode="&#x10f;" horiz-adv-x="513" 
d="M258 326h-90v-231h90q61 0 91 30t30 85q0 52 -32 84t-89 32zM261 0h-196v420h196q103 0 165 -59.5t62 -151.5q0 -93 -61.5 -151t-165.5 -58zM246 556l59 86h85l-103 -172h-83l-101 172h85z" />
    <glyph glyph-name="Dcroat" unicode="&#x110;" horiz-adv-x="621" 
d="M321 429h-125v-93h170v-96h-170v-139h125q83 0 126.5 44t43.5 120q0 73 -45.5 118.5t-124.5 45.5zM321 0h-231v240h-104v96h104v194h231q125 0 201 -75t76 -191t-75 -190t-202 -74z" />
    <glyph glyph-name="dslash" unicode="&#x111;" horiz-adv-x="519" 
d="M273 326h-90v-66h112v-84h-112v-81h90q120 0 120 115q0 52 -32 84t-88 32zM276 0h-197v176h-74v84h74v160h197q102 0 164 -59.5t62 -151.5q0 -94 -61 -151.5t-165 -57.5z" />
    <glyph glyph-name="Emacron" unicode="&#x112;" horiz-adv-x="522" 
d="M69 0v530h426v-101h-321v-97h195v-101h-195v-130h341v-101h-446zM146 595v87h270v-87h-270z" />
    <glyph glyph-name="emacron" unicode="&#x113;" horiz-adv-x="482" 
d="M59 0v420h397v-94h-294v-63h193v-90h-193v-78h310v-95h-413zM131 478v87h270v-87h-270z" />
    <glyph glyph-name="Edotaccent" unicode="&#x116;" horiz-adv-x="522" 
d="M69 0v530h426v-101h-321v-97h195v-101h-195v-130h341v-101h-446zM281 587q-27 0 -47 19.5t-20 46.5t19.5 46.5t47.5 19.5t47 -19.5t19 -46.5q0 -28 -19 -47t-47 -19z" />
    <glyph glyph-name="edotaccent" unicode="&#x117;" horiz-adv-x="482" 
d="M59 0v420h397v-94h-294v-63h193v-90h-193v-78h310v-95h-413zM256 470q-27 0 -47 19.5t-20 46.5t19.5 46.5t47.5 19.5t47 -19.5t19 -46.5q0 -28 -19 -47t-47 -19z" />
    <glyph glyph-name="Eogonek" unicode="&#x118;" horiz-adv-x="547" 
d="M69 0v530h427v-101h-322v-97h195v-101h-195v-130h341v-101q-35 -28 -51 -50q-25 -32 -25 -62q0 -24 20 -33q14 -6 50 -6h11v-81h-22q-80 0 -109 18q-38 21 -38 71q0 44 30 82q28 35 65 61h-377z" />
    <glyph glyph-name="eogonek" unicode="&#x119;" horiz-adv-x="482" 
d="M59 0v420h397v-94h-293v-63h192v-90h-192v-78h309v-95q-35 -28 -51 -50q-25 -32 -25 -62q0 -24 20 -33q14 -6 50 -6h11v-81h-22q-81 0 -110 18q-37 23 -37 71q0 40 30 82q28 35 65 61h-344z" />
    <glyph glyph-name="Ecaron" unicode="&#x11a;" horiz-adv-x="522" 
d="M69 0v530h426v-101h-321v-97h195v-101h-195v-130h341v-101h-446zM286 673l59 86h85l-103 -172h-83l-101 172h85z" />
    <glyph glyph-name="ecaron" unicode="&#x11b;" horiz-adv-x="482" 
d="M59 0v420h397v-94h-294v-63h193v-90h-193v-78h310v-95h-413zM261 556l59 86h85l-103 -172h-83l-101 172h85z" />
    <glyph glyph-name="Gcircumflex" unicode="&#x11c;" horiz-adv-x="585" 
d="M541 290v-166q-37 -58 -89 -94q-61 -43 -147 -43q-129 0 -202 77q-77 81 -77 201q0 122 77 199t194 77q82 0 149 -37q49 -27 88 -79l-89 -63q-21 35 -56 56q-38 21 -85 21q-75 0 -120 -45q-51 -51 -51 -128q0 -84 47 -131q46 -46 125 -46q85 0 131 68v41h-123v92h228z
M355 578l-59 85l-58 -85h-85l101 172h83l103 -172h-85z" />
    <glyph glyph-name="gcircumflex" unicode="&#x11d;" horiz-adv-x="554" 
d="M516 230v-135q-39 -50 -85 -75q-60 -32 -148 -32q-128 0 -195 65q-60 58 -60 152q0 99 70 162q67 63 187 63q81 0 136 -29q53 -27 87 -68l-82 -59q-30 30 -61 44q-36 15 -80 15q-68 0 -107 -33q-44 -37 -44 -92q0 -58 43 -92q39 -31 109 -31q77 0 126 42v23h-96v80h200z
M340 461l-59 85l-58 -85h-85l101 172h83l103 -172h-85z" />
    <glyph glyph-name="Gbreve" unicode="&#x11e;" horiz-adv-x="585" 
d="M541 290v-166q-37 -58 -89 -94q-61 -43 -147 -43q-129 0 -202 77q-77 81 -77 201q0 122 77 199t194 77q82 0 149 -37q49 -27 88 -79l-89 -63q-21 35 -56 56q-38 21 -85 21q-75 0 -120 -45q-51 -51 -51 -128q0 -84 47 -131q46 -46 125 -46q85 0 131 68v41h-123v92h228z
M375 705h77q-8 -81 -49 -110q-34 -25 -108 -25t-108 25q-41 29 -49 110h77q3 -35 22 -47q17 -11 58 -11t59 11q15 11 21 47z" />
    <glyph glyph-name="gbreve" unicode="&#x11f;" horiz-adv-x="554" 
d="M516 230v-135q-39 -50 -85 -75q-60 -32 -148 -32q-128 0 -195 65q-60 58 -60 152q0 99 70 162q67 63 187 63q81 0 136 -29q53 -27 87 -68l-82 -59q-30 30 -61 44q-36 15 -80 15q-68 0 -107 -33q-44 -37 -44 -92q0 -58 43 -92q39 -31 109 -31q77 0 126 42v23h-96v80h200z
M362 592h70q-2 -64 -36 -98t-113 -34q-27 0 -40 1t-34.5 9t-37.5 24q-36 36 -36 98h69q0 -24 18 -42q16 -14 61 -14t61 14q18 18 18 42z" />
    <glyph glyph-name="Gdotaccent" unicode="&#x120;" horiz-adv-x="585" 
d="M541 290v-166q-37 -58 -89 -94q-61 -43 -147 -43q-129 0 -202 77q-77 81 -77 201q0 122 77 199t194 77q82 0 149 -37q49 -27 88 -79l-89 -63q-21 35 -56 56q-38 21 -85 21q-75 0 -120 -45q-51 -51 -51 -128q0 -84 47 -131q46 -46 125 -46q85 0 131 68v41h-123v92h228z
M293 587q-27 0 -47 19.5t-20 46.5t19.5 46.5t47.5 19.5t47 -19.5t19 -46.5q0 -28 -19 -47t-47 -19z" />
    <glyph glyph-name="gdotaccent" unicode="&#x121;" horiz-adv-x="554" 
d="M516 230v-135q-39 -50 -85 -75q-60 -32 -148 -32q-128 0 -195 65q-60 58 -60 152q0 99 70 162q67 63 187 63q81 0 136 -29q53 -27 87 -68l-82 -59q-30 30 -61 44q-36 15 -80 15q-68 0 -107 -33q-44 -37 -44 -92q0 -58 43 -92q39 -31 109 -31q77 0 126 42v23h-96v80h200z
M277 470q-27 0 -47 19.5t-20 46.5t19.5 46.5t47.5 19.5t47 -19.5t19 -46.5q0 -28 -19 -47t-47 -19z" />
    <glyph glyph-name="Gcommaaccent" unicode="&#x122;" horiz-adv-x="585" 
d="M541 290v-166q-37 -58 -89 -94q-61 -43 -147 -43q-129 0 -202 77q-77 81 -77 201q0 122 77 199t194 77q82 0 149 -37q49 -27 88 -79l-89 -63q-21 35 -56 56q-38 21 -85 21q-75 0 -120 -45q-51 -51 -51 -128q0 -84 47 -131q46 -46 125 -46q85 0 131 68v41h-123v92h228z
M287 -229l-23 24q12 15 19 30q9 15 13 32q-16 1 -26 11q-12 12 -12 36q0 20 12 35q14 16 36 16q26 0 38 -17q14 -18 14 -44q0 -42 -25 -76q-19 -28 -46 -47z" />
    <glyph glyph-name="gcommaaccent" unicode="&#x123;" horiz-adv-x="538" 
d="M299 659l24 -24q-22 -30 -33 -62q14 0 27 -11q12 -12 12 -31q0 -26 -12 -40q-13 -16 -38 -16q-19 0 -34 15q-17 17 -17 47q0 37 25 75q19 28 46 47zM508 230v-135q-35 -49 -94 -78q-61 -29 -137 -29q-132 0 -197 65q-60 60 -60 152q0 99 70 162q67 63 187 63
q81 0 136 -29q53 -27 87 -68l-82 -59q-29 29 -61 44q-31 15 -80 15q-69 0 -107 -33q-44 -37 -44 -93q0 -55 40 -88q38 -34 112 -34q75 0 126 42v23h-96v80h200z" />
    <glyph glyph-name="Hcircumflex" unicode="&#x124;" horiz-adv-x="592" 
d="M416 0v238h-241v-238h-106v530h106v-192h241v192h106v-530h-106zM350 578l-59 85l-58 -85h-85l101 172h83l103 -172h-85z" />
    <glyph glyph-name="hcircumflex" unicode="&#x125;" horiz-adv-x="553" 
d="M386 0v175h-219v-175h-103v420h103v-145h219v145h103v-420h-103zM334 461l-59 85l-58 -85h-85l101 172h83l103 -172h-85z" />
    <glyph glyph-name="Hbar" unicode="&#x126;" horiz-adv-x="592" 
d="M10 398v79h59v53h106v-53h241v53h106v-53h59v-79h-59v-398h-106v238h-241v-238h-106v398h-59zM175 338h241v60h-241v-60z" />
    <glyph glyph-name="hbar" unicode="&#x127;" horiz-adv-x="553" 
d="M11 318v72h53v30h103v-30h219v30h103v-30h53v-72h-53v-318h-103v175h-219v-175h-103v318h-53zM167 275h219v43h-219v-43z" />
    <glyph glyph-name="Imacron" unicode="&#x12a;" horiz-adv-x="245" 
d="M73 -2v532h106v-532h-106zM-8 595v87h270v-87h-270z" />
    <glyph glyph-name="imacron" unicode="&#x12b;" horiz-adv-x="225" 
d="M63 -1v422h104v-422h-104zM-18 478v87h270v-87h-270z" />
    <glyph glyph-name="Iogonek" unicode="&#x12e;" horiz-adv-x="239" 
d="M64 -2v535h106v-535q-33 -24 -51 -48q-25 -32 -25 -62q0 -24 19 -33q14 -6 51 -6h11v-81h-22q-81 0 -110 18q-38 21 -38 71q0 40 31 82q21 27 62 59h-34z" />
    <glyph glyph-name="iogonek" unicode="&#x12f;" horiz-adv-x="219" 
d="M54 -1v422h104v-422q-29 -21 -51 -49q-25 -32 -25 -62q0 -24 19 -33q14 -6 51 -6h11v-81h-22q-81 0 -110 18q-38 21 -38 71q0 40 31 82q23 31 64 60h-34z" />
    <glyph glyph-name="Idot" unicode="&#x130;" horiz-adv-x="245" 
d="M70 -2v532h106v-532h-106zM124 587q-27 0 -47 19.5t-20 46.5t19.5 46.5t47.5 19.5t47 -19.5t19 -46.5q0 -28 -19 -47t-47 -19z" />
    <glyph glyph-name="dotlessi" unicode="&#x131;" horiz-adv-x="225" 
d="M60 -1v422h104v-422h-104z" />
    <glyph glyph-name="Jcircumflex" unicode="&#x134;" horiz-adv-x="513" 
d="M451 530v-337q0 -32 -1.5 -50.5t-12.5 -49t-32 -53.5q-50 -53 -180 -53q-38 0 -63.5 2.5t-58.5 15t-54 35.5q-20 21 -30 48t-11 42.5t-1 46.5v68h105v-60q0 -52 27 -75q21 -21 90 -21q62 0 87 22q30 26 30 87v332h105zM455 578l-59 85l-58 -85h-85l101 172h83l103 -172
h-85z" />
    <glyph glyph-name="jcircumflex" unicode="&#x135;" horiz-adv-x="440" 
d="M386 419v-253q0 -90 -41 -134q-44 -44 -143 -44q-111 0 -154 45q-36 38 -36 128v22h103v-29q0 -36 18 -54q17 -17 63 -17q49 0 68 20q19 19 19 67v249h103zM393 461l-59 85l-58 -85h-85l101 172h83l103 -172h-85z" />
    <glyph glyph-name="Kcommaaccent" unicode="&#x136;" horiz-adv-x="554" 
d="M454 0l-189 262l-91 -77v-185h-105v530h105v-219l255 219h139l-225 -198l239 -332h-128zM292 -229l-23 24q12 15 19 30q9 15 13 32q-16 1 -26 11q-12 12 -12 36q0 20 12 35q14 16 36 16q26 0 38 -17q14 -18 14 -44q0 -42 -25 -76q-19 -28 -46 -47z" />
    <glyph glyph-name="kcommaaccent" unicode="&#x137;" horiz-adv-x="455" 
d="M364 0l-146 193l-55 -47v-146h-103v419h103v-155l184 155h140l-194 -163l192 -256h-121zM242 -229l-23 24q12 15 19 30q9 15 13 32q-16 1 -26 11q-12 12 -12 36q0 20 12 35q14 16 36 16q26 0 38 -17q14 -17 14 -44q0 -42 -25 -76q-19 -28 -46 -47z" />
    <glyph glyph-name="Lacute" unicode="&#x139;" horiz-adv-x="480" 
d="M69 0v530h106v-429h317v-101h-423zM176 578h-84l99 172h125z" />
    <glyph glyph-name="lacute" unicode="&#x13a;" horiz-adv-x="427" 
d="M59 0v420h103v-321h274v-99h-377zM166 461h-84l99 172h125z" />
    <glyph glyph-name="Lcommaaccent" unicode="&#x13b;" horiz-adv-x="480" 
d="M69 0v530h106v-429h317v-101h-423zM262 -229l-23 24q12 15 19 30q9 15 13 32q-16 1 -26 11q-12 12 -12 36q0 20 12 35q14 16 36 16q26 0 38 -17q14 -18 14 -44q0 -42 -25 -76q-19 -28 -46 -47z" />
    <glyph glyph-name="lcommaaccent" unicode="&#x13c;" horiz-adv-x="427" 
d="M59 0v420h103v-321h274v-99h-377zM227 -229l-23 24q12 15 19 30q9 15 13 32q-16 1 -26 11q-12 12 -12 36q0 20 12 35q14 16 36 16q26 0 38 -17q14 -17 14 -44q0 -42 -25 -76q-19 -28 -46 -47z" />
    <glyph glyph-name="Lcaron" unicode="&#x13d;" horiz-adv-x="480" 
d="M69 0v530h106v-429h317v-101h-423zM280 357l-23 24q12 15 19 30q9 15 13 32q-16 1 -26 11q-12 12 -12 36q0 20 12 35q14 16 36 16q26 0 38 -17q14 -17 14 -44q0 -42 -25 -76q-19 -28 -46 -47z" />
    <glyph glyph-name="lcaron" unicode="&#x13e;" horiz-adv-x="427" 
d="M59 0v420h103v-321h274v-99h-377zM253 250l-23 24q12 15 19 30q9 15 13 32q-16 1 -26 11q-12 12 -12 36q0 20 12 35q14 16 36 16q26 0 38 -17q14 -17 14 -44q0 -42 -25 -76q-19 -28 -46 -47z" />
    <glyph glyph-name="Ldot" unicode="&#x13f;" horiz-adv-x="480" 
d="M69 0v530h106v-429h317v-101h-423zM330 230q-27 0 -47 19.5t-20 46.5t19.5 46.5t47.5 19.5t47 -19.5t19 -46.5q0 -28 -19 -47t-47 -19z" />
    <glyph glyph-name="ldot" unicode="&#x140;" horiz-adv-x="427" 
d="M59 0v420h103v-321h274v-99h-377zM296 188q-27 0 -47 19.5t-20 46.5t19.5 46.5t47.5 19.5t47 -19.5t19 -46.5q0 -28 -19 -47t-47 -19z" />
    <glyph glyph-name="Lslash" unicode="&#x141;" horiz-adv-x="533" 
d="M123 0v204l-135 -76v110l135 76v216h105v-164l159 92v-109l-159 -92v-156h317v-101h-422z" />
    <glyph glyph-name="lslash" unicode="&#x142;" horiz-adv-x="449" 
d="M82 0v139l-79 -45v102l79 45v179h104v-125l122 71v-102l-122 -71v-94h271v-99h-375z" />
    <glyph glyph-name="Nacute" unicode="&#x143;" horiz-adv-x="597" 
d="M466 0l-292 329v-329h-105v530h64l291 -329v329h105v-530h-63zM304 578h-84l99 172h125z" />
    <glyph glyph-name="nacute" unicode="&#x144;" horiz-adv-x="501" 
d="M386 0l-223 231v-231h-98v420h50l223 -232v232h98v-420h-50zM275 461h-84l99 172h125z" />
    <glyph glyph-name="Ncommaaccent" unicode="&#x145;" horiz-adv-x="597" 
d="M466 0l-292 329v-329h-105v530h64l291 -329v329h105v-530h-63zM287 -229l-23 24q12 15 19 30q9 15 13 32q-16 1 -26 11q-12 12 -12 36q0 20 12 35q14 16 36 16q26 0 38 -17q14 -18 14 -44q0 -42 -25 -76q-19 -28 -46 -47z" />
    <glyph glyph-name="ncommaaccent" unicode="&#x146;" horiz-adv-x="501" 
d="M386 0l-223 231v-231h-98v420h50l223 -232v232h98v-420h-50zM237 -229l-23 24q12 15 19 30q9 15 13 32q-16 1 -26 11q-12 12 -12 36q0 20 12 35q14 16 36 16q26 0 38 -17q14 -17 14 -44q0 -42 -25 -76q-19 -28 -46 -47z" />
    <glyph glyph-name="Ncaron" unicode="&#x147;" horiz-adv-x="597" 
d="M466 0l-292 329v-329h-105v530h64l291 -329v329h105v-530h-63zM291 673l59 86h85l-103 -172h-83l-101 172h85z" />
    <glyph glyph-name="ncaron" unicode="&#x148;" horiz-adv-x="501" 
d="M386 0l-223 231v-231h-98v420h50l223 -232v232h98v-420h-50zM241 556l59 86h85l-103 -172h-83l-101 172h85z" />
    <glyph glyph-name="Omacron" unicode="&#x14c;" horiz-adv-x="600" 
d="M300 439q-71 0 -118.5 -49t-47.5 -126t47.5 -126t118.5 -49q72 0 119.5 49t47.5 126t-47.5 126t-119.5 49zM300 -13q-118 0 -196 78.5t-78 198.5t78 198.5t196 78.5t196.5 -78.5t78.5 -198.5t-78.5 -198.5t-196.5 -78.5zM166 595v87h270v-87h-270z" />
    <glyph glyph-name="omacron" unicode="&#x14d;" horiz-adv-x="561" 
d="M280 336q-67 0 -107 -36.5t-40 -88.5q0 -54 40 -90.5t107 -36.5q69 0 108.5 37t39.5 90q0 52 -40.5 88.5t-107.5 36.5zM280 -12q-110 0 -181 63.5t-71 158.5q0 96 70.5 158t181.5 62t182 -62t71 -158t-71 -159t-182 -63zM143 478v87h270v-87h-270z" />
    <glyph glyph-name="Obreve" unicode="&#x14e;" horiz-adv-x="600" 
d="M300 439q-71 0 -118.5 -49t-47.5 -126t47.5 -126t118.5 -49q72 0 119.5 49t47.5 126t-47.5 126t-119.5 49zM300 -13q-118 0 -196 78.5t-78 198.5t78 198.5t196 78.5t196.5 -78.5t78.5 -198.5t-78.5 -198.5t-196.5 -78.5zM383 705h77q-8 -81 -49 -110q-34 -25 -108 -25
t-108 25q-41 29 -49 110h77q3 -35 22 -47q17 -11 58 -11t59 11q15 11 21 47z" />
    <glyph glyph-name="obreve" unicode="&#x14f;" horiz-adv-x="561" 
d="M280 336q-67 0 -107 -36.5t-40 -88.5q0 -54 40 -90.5t107 -36.5q69 0 108.5 37t39.5 90q0 52 -40.5 88.5t-107.5 36.5zM280 -12q-110 0 -181 63.5t-71 158.5q0 96 70.5 158t181.5 62t182 -62t71 -158t-71 -159t-182 -63zM357 592h70q-2 -64 -36 -98t-113 -34q-27 0 -40 1
t-34.5 9t-37.5 24q-36 36 -36 98h69q0 -24 18 -42q16 -14 61 -14t61 14q18 18 18 42z" />
    <glyph glyph-name="Ohungarumlaut" unicode="&#x150;" horiz-adv-x="600" 
d="M300 439q-71 0 -118.5 -49t-47.5 -126t47.5 -126t118.5 -49q72 0 119.5 49t47.5 126t-47.5 126t-119.5 49zM300 -13q-118 0 -196 78.5t-78 198.5t78 198.5t196 78.5t196.5 -78.5t78.5 -198.5t-78.5 -198.5t-196.5 -78.5zM249 578h-74l68 172h113zM413 578h-76l77 172h114
z" />
    <glyph glyph-name="ohungarumlaut" unicode="&#x151;" horiz-adv-x="561" 
d="M280 336q-67 0 -107 -36.5t-40 -88.5q0 -54 40 -90.5t107 -36.5q69 0 108.5 37t39.5 90q0 52 -40.5 88.5t-107.5 36.5zM280 -12q-110 0 -181 63.5t-71 158.5q0 96 70.5 158t181.5 62t182 -62t71 -158t-71 -159t-182 -63zM225 461h-74l68 172h113zM389 461h-76l77 172h114
z" />
    <glyph glyph-name="OE" unicode="&#x152;" horiz-adv-x="914" 
d="M300 439q-72 0 -119.5 -49t-47.5 -126t47 -126t120 -49q72 0 119 49t47 126t-47 126t-119 49zM462 0v41q-66 -54 -162 -54q-119 0 -196.5 78.5t-77.5 198.5t77.5 198.5t196.5 78.5q98 0 162 -54v43h427v-101h-321v-97h194v-101h-194v-130h341v-101h-447z" />
    <glyph glyph-name="oe" unicode="&#x153;" horiz-adv-x="843" 
d="M275 331q-67 0 -107 -35.5t-40 -85.5q0 -52 40 -87t107 -35q68 0 108 35.5t40 86.5q0 50 -40.5 85.5t-107.5 35.5zM420 0v26q-62 -38 -145 -38q-110 0 -181 63.5t-71 158.5q0 97 71.5 158.5t186.5 61.5q84 0 139 -36v26h397v-94h-294v-63h193v-90h-193v-78h310v-95h-413z
" />
    <glyph glyph-name="Racute" unicode="&#x154;" horiz-adv-x="567" 
d="M171 309h192q37 0 53 16q17 17 17 47q0 33 -22 47q-14 10 -56 10h-184v-120zM445 0l-122 207h-152v-207h-105v530h304q83 0 128 -45q43 -43 43 -120q0 -59 -30 -97q-28 -36 -74 -52l126 -216h-118zM300 578h-84l99 172h125z" />
    <glyph glyph-name="racute" unicode="&#x155;" horiz-adv-x="528" 
d="M169 256h169q23 0 34 7q14 8 14 29q0 20 -13 27q-8 6 -36 6h-168v-69zM404 0l-106 160h-129v-160h-104v419h283q72 0 109 -36q35 -35 35 -93q0 -55 -30 -86q-23 -23 -56 -30l115 -174h-117zM280 461h-84l99 172h125z" />
    <glyph glyph-name="Rcommaaccent" unicode="&#x156;" horiz-adv-x="567" 
d="M171 309h192q37 0 53 16q17 17 17 47q0 33 -22 47q-14 10 -56 10h-184v-120zM445 0l-122 207h-152v-207h-105v530h304q83 0 128 -45q43 -43 43 -120q0 -59 -30 -97q-28 -36 -74 -52l126 -216h-118zM282 -229l-23 24q12 15 19 30q9 15 13 32q-16 1 -26 11q-12 12 -12 36
q0 20 12 35q14 16 36 16q26 0 38 -17q14 -18 14 -44q0 -42 -25 -76q-19 -28 -46 -47z" />
    <glyph glyph-name="rcommaaccent" unicode="&#x157;" horiz-adv-x="528" 
d="M169 256h169q23 0 34 7q14 8 14 29q0 20 -13 27q-8 6 -36 6h-168v-69zM404 0l-106 160h-129v-160h-104v419h283q72 0 109 -36q35 -35 35 -93q0 -55 -30 -86q-23 -23 -56 -30l115 -174h-117zM257 -229l-23 24q12 15 19 30q9 15 13 32q-16 1 -26 11q-12 12 -12 36
q0 20 12 35q14 16 36 16q26 0 38 -17q14 -18 14 -44q0 -42 -25 -76q-19 -28 -46 -47z" />
    <glyph glyph-name="Rcaron" unicode="&#x158;" horiz-adv-x="567" 
d="M171 309h192q37 0 53 16q17 17 17 47q0 33 -22 47q-14 10 -56 10h-184v-120zM445 0l-122 207h-152v-207h-105v530h304q83 0 128 -45q43 -43 43 -120q0 -59 -30 -97q-28 -36 -74 -52l126 -216h-118zM286 673l59 86h85l-103 -172h-83l-101 172h85z" />
    <glyph glyph-name="rcaron" unicode="&#x159;" horiz-adv-x="528" 
d="M169 256h169q23 0 34 7q14 8 14 29q0 20 -13 27q-8 6 -36 6h-168v-69zM404 0l-106 160h-129v-160h-104v419h283q72 0 109 -36q35 -35 35 -93q0 -55 -30 -86q-23 -23 -56 -30l115 -174h-117zM261 556l59 86h85l-103 -172h-83l-101 172h85z" />
    <glyph glyph-name="Sacute" unicode="&#x15a;" horiz-adv-x="562" 
d="M506 461l-56 -87q-47 31 -93 47q-52 18 -109 18q-49 0 -73 -13q-32 -15 -32 -42q0 -24 30 -35q21 -7 86 -13l71 -6q97 -9 145 -51q51 -42 51 -109q0 -79 -63 -131q-64 -52 -180 -52q-85 0 -157 25q-70 26 -117 67l64 89q45 -37 98 -59q52 -21 118 -21q58 0 90 19
q38 21 38 58q0 35 -42 53q-15 6 -77 14l-78 6q-108 8 -153 54q-32 32 -32 83q0 71 56 119q57 47 163 47q79 0 146 -25q61 -20 106 -55zM295 578h-84l99 172h125z" />
    <glyph glyph-name="sacute" unicode="&#x15b;" horiz-adv-x="468" 
d="M417 370l-45 -77q-38 24 -76 35q-33 12 -83 12q-31 0 -50 -9q-25 -11 -25 -28q0 -21 24 -28q3 -1 57 -6l43 -3q90 -8 126 -34q47 -33 47 -96q0 -72 -54 -112q-51 -36 -142 -36q-70 0 -130 20q-59 21 -95 43l47 87q37 -22 78 -35q49 -17 101 -17q39 0 60 9q29 13 29 38
q0 6 -3 12.5t-13.5 14t-27.5 10.5q-20 3 -59 6l-52 3q-74 8 -102 29q-39 27 -39 78q0 66 51 105t142 39q54 0 111 -19q42 -14 80 -41zM270 461h-84l99 172h125z" />
    <glyph glyph-name="Scircumflex" unicode="&#x15c;" horiz-adv-x="562" 
d="M506 461l-56 -87q-47 31 -93 47q-52 18 -109 18q-49 0 -73 -13q-32 -15 -32 -42q0 -24 30 -35q21 -7 86 -13l71 -6q97 -9 145 -51q51 -42 51 -109q0 -79 -63 -131q-64 -52 -180 -52q-85 0 -157 25q-70 26 -117 67l64 89q45 -37 98 -59q52 -21 118 -21q58 0 90 19
q38 21 38 58q0 35 -42 53q-15 6 -77 14l-78 6q-108 8 -153 54q-32 32 -32 83q0 71 56 119q57 47 163 47q79 0 146 -25q61 -20 106 -55zM330 578l-59 85l-58 -85h-85l101 172h83l103 -172h-85z" />
    <glyph glyph-name="scircumflex" unicode="&#x15d;" horiz-adv-x="468" 
d="M417 370l-45 -77q-38 24 -76 35q-33 12 -83 12q-31 0 -50 -9q-25 -11 -25 -28q0 -21 24 -28q3 -1 57 -6l43 -3q90 -8 126 -34q47 -33 47 -96q0 -72 -54 -112q-51 -36 -142 -36q-70 0 -130 20q-59 21 -95 43l47 87q37 -22 78 -35q49 -17 101 -17q39 0 60 9q29 13 29 38
q0 6 -3 12.5t-13.5 14t-27.5 10.5q-20 3 -59 6l-52 3q-74 8 -102 29q-39 27 -39 78q0 66 51 105t142 39q54 0 111 -19q42 -14 80 -41zM291 461l-59 85l-58 -85h-85l101 172h83l103 -172h-85z" />
    <glyph glyph-name="Scedilla" unicode="&#x15e;" horiz-adv-x="562" 
d="M506 461l-56 -87q-47 31 -93 47q-52 18 -109 18q-49 0 -73 -13q-32 -15 -32 -42q0 -24 30 -35q21 -7 86 -13l71 -6q97 -9 145 -51q51 -42 51 -109q0 -81 -63 -131q-58 -46 -149 -51v-29h2q40 0 68 -18q35 -21 35 -66q0 -43 -26 -69q-30 -30 -100 -30q-35 0 -74 7
q-35 7 -55 14v70q22 -7 57 -12q25 -4 53 -4t38 6q13 7 13 21t-15 22q-11 5 -38 5q-21 0 -31 -2v86q-65 6 -115 23q-67 24 -117 67l64 89q45 -37 98 -59q52 -21 118 -21q58 0 90 19q38 21 38 58q0 35 -42 53q-15 6 -77 14l-78 6q-108 8 -153 54q-32 32 -32 83q0 71 56 119
q57 47 163 47q79 0 146 -25q61 -20 106 -55z" />
    <glyph glyph-name="scedilla" unicode="&#x15f;" horiz-adv-x="468" 
d="M417 370l-45 -77q-38 24 -76 35q-33 12 -83 12q-31 0 -50 -9q-25 -11 -25 -28q0 -21 24 -28q7 -2 14.5 -2.5t20.5 -1.5t24 -2l41 -3q89 -6 126 -34q47 -33 47 -96q0 -69 -54 -112q-39 -30 -112 -35v-30h2q40 0 68 -18q35 -21 35 -66q0 -43 -26 -69q-30 -30 -100 -30
q-35 0 -74 7q-35 7 -55 14v70q23 -7 57 -12q25 -4 53 -4q27 0 38 6q13 7 13 21t-15 22q-11 5 -38 5q-21 0 -31 -2v87q-44 4 -87 18q-43 12 -95 43l47 87q37 -22 78 -35q49 -17 101 -17q39 0 60 9q29 13 29 38q0 29 -41 37q-5 2 -62 6l-52 3q-74 8 -102 29q-39 27 -39 78
q0 66 51 105t142 39q54 0 111 -19q42 -14 80 -41z" />
    <glyph glyph-name="Scaron" unicode="&#x160;" horiz-adv-x="562" 
d="M506 461l-56 -87q-47 31 -93 47q-52 18 -109 18q-49 0 -73 -13q-32 -15 -32 -42q0 -24 30 -35q21 -7 86 -13l71 -6q97 -9 145 -51q51 -42 51 -109q0 -79 -63 -131q-64 -52 -180 -52q-85 0 -157 25q-70 26 -117 67l64 89q45 -37 98 -59q52 -21 118 -21q58 0 90 19
q38 21 38 58q0 35 -42 53q-15 6 -77 14l-78 6q-108 8 -153 54q-32 32 -32 83q0 71 56 119q57 47 163 47q79 0 146 -25q61 -20 106 -55zM276 673l59 86h85l-103 -172h-83l-101 172h85z" />
    <glyph glyph-name="scaron" unicode="&#x161;" horiz-adv-x="468" 
d="M417 370l-45 -77q-38 24 -76 35q-33 12 -83 12q-31 0 -50 -9q-25 -11 -25 -28q0 -21 24 -28q3 -1 57 -6l43 -3q90 -8 126 -34q47 -33 47 -96q0 -72 -54 -112q-51 -36 -142 -36q-70 0 -130 20q-59 21 -95 43l47 87q37 -22 78 -35q49 -17 101 -17q39 0 60 9q29 13 29 38
q0 6 -3 12.5t-13.5 14t-27.5 10.5q-20 3 -59 6l-52 3q-74 8 -102 29q-39 27 -39 78q0 66 51 105t142 39q54 0 111 -19q42 -14 80 -41zM237 556l59 86h85l-103 -172h-83l-101 172h85z" />
    <glyph glyph-name="Tcedilla" unicode="&#x162;" horiz-adv-x="385" 
d="M245 429v-429h-16v-41h2q40 0 68 -18q35 -21 35 -66q0 -43 -26 -69q-30 -30 -100 -30q-35 0 -74 7q-35 7 -55 14v70q23 -7 57 -12q25 -4 53 -4q27 0 38 6q13 7 13 21t-15 22q-11 5 -38 5q-21 0 -31 -2v97h-16v429h-204v101h513v-101h-204z" />
    <glyph glyph-name="tcedilla" unicode="&#x163;" horiz-adv-x="407" 
d="M255 323v-323h-15v-41h2q40 0 68 -18q35 -21 35 -66q0 -43 -26 -69q-30 -30 -100 -30q-35 0 -74 7q-35 7 -55 14v70q22 -7 57 -12q25 -4 53 -4t38 6q13 7 13 21t-15 22q-11 5 -38 5q-21 0 -31 -2v97h-15v323h-159v97h421v-97h-159z" />
    <glyph glyph-name="Tcaron" unicode="&#x164;" horiz-adv-x="413" 
d="M259 429v-429h-105v429h-204v101h513v-101h-204zM209 673l59 86h85l-103 -172h-83l-101 172h85z" />
    <glyph glyph-name="tcaron" unicode="&#x165;" horiz-adv-x="401" 
d="M252 323v-323h-103v323h-159v97h421v-97h-159zM196 556l59 86h85l-103 -172h-83l-101 172h85z" />
    <glyph glyph-name="Utilde" unicode="&#x168;" horiz-adv-x="565" 
d="M509 530v-353q0 -98 -53 -143q-54 -47 -177 -47q-125 0 -178 53q-46 47 -46 137v353h106v-342q0 -58 27 -79q24 -20 89 -20q69 0 97 21q30 25 30 88v332h105zM375 701h65q-13 -45 -31 -72q-31 -44 -77 -44q-22 0 -46 8l-17 6q-16 6 -36 6q-21 0 -30 -11q-11 -14 -13 -20
h-65q16 54 37 80q30 36 76 36q12 0 42 -8l19 -6q26 -7 35 -7q18 0 28 10q2 2 4.5 6.5t5 9.5t3.5 6z" />
    <glyph glyph-name="utilde" unicode="&#x169;" horiz-adv-x="543" 
d="M483 419v-279q0 -69 -41 -107q-45 -45 -169 -45q-128 0 -173 45q-40 37 -40 107v279h103v-246q0 -49 23 -68q23 -18 85 -18q58 0 85 17q23 19 23 64v251h104zM364 591h65q-13 -45 -31 -72q-31 -44 -77 -44q-22 0 -46 8l-17 6q-16 6 -36 6q-21 0 -30 -11q-11 -14 -13 -20
h-65q16 54 37 80q30 36 76 36q12 0 42 -8l19 -6q26 -7 35 -7q18 0 28 10q2 2 4.5 6.5t5 9.5t3.5 6z" />
    <glyph glyph-name="Umacron" unicode="&#x16a;" horiz-adv-x="565" 
d="M509 530v-353q0 -98 -53 -143q-54 -47 -177 -47q-125 0 -178 53q-46 47 -46 137v353h106v-342q0 -58 27 -79q24 -20 89 -20q69 0 97 21q30 25 30 88v332h105zM150 595v87h270v-87h-270z" />
    <glyph glyph-name="umacron" unicode="&#x16b;" horiz-adv-x="543" 
d="M483 419v-279q0 -69 -41 -107q-45 -45 -169 -45q-128 0 -173 45q-40 37 -40 107v279h103v-246q0 -49 23 -68q23 -18 85 -18q58 0 85 17q23 19 23 64v251h104zM139 478v87h270v-87h-270z" />
    <glyph glyph-name="Ubreve" unicode="&#x16c;" horiz-adv-x="565" 
d="M509 530v-353q0 -98 -53 -143q-54 -47 -177 -47q-125 0 -178 53q-46 47 -46 137v353h106v-342q0 -58 27 -79q24 -20 89 -20q69 0 97 21q30 25 30 88v332h105zM365 705h77q-8 -81 -49 -110q-34 -25 -108 -25t-108 25q-41 29 -49 110h77q3 -35 22 -47q17 -11 58 -11t59 11
q15 11 21 47z" />
    <glyph glyph-name="ubreve" unicode="&#x16d;" horiz-adv-x="543" 
d="M483 419v-279q0 -69 -41 -107q-45 -45 -169 -45q-128 0 -173 45q-40 37 -40 107v279h103v-246q0 -49 23 -68q23 -18 85 -18q58 0 85 17q23 19 23 64v251h104zM353 592h70q-2 -64 -36 -98t-113 -34q-27 0 -40 1t-34.5 9t-37.5 24q-36 36 -36 98h69q0 -24 18 -42
q16 -14 61 -14t61 14q18 18 18 42z" />
    <glyph glyph-name="Uring" unicode="&#x16e;" horiz-adv-x="565" 
d="M509 530v-353q0 -98 -53 -143q-54 -47 -177 -47q-125 0 -178 53q-46 47 -46 137v353h106v-342q0 -58 27 -79q24 -20 89 -20q69 0 97 21q30 25 30 88v332h105zM285 741q-20 0 -33.5 -14t-13.5 -35q0 -20 13.5 -34t33.5 -14q19 0 33.5 14t14.5 34t-14.5 34.5t-33.5 14.5z
M285 577q-48 0 -81.5 34t-33.5 82t33.5 81.5t81.5 33.5t82 -33.5t34 -81.5t-34 -82t-82 -34z" />
    <glyph glyph-name="uring" unicode="&#x16f;" horiz-adv-x="543" 
d="M483 419v-279q0 -69 -41 -107q-45 -45 -169 -45q-128 0 -173 45q-40 37 -40 107v279h103v-246q0 -49 23 -68q23 -18 85 -18q58 0 85 17q23 19 23 64v251h104zM274 624q-20 0 -33.5 -14t-13.5 -35q0 -20 13.5 -34t33.5 -14q19 0 33.5 14t14.5 34t-14.5 34.5t-33.5 14.5z
M274 460q-48 0 -81.5 34t-33.5 82t33.5 81.5t81.5 33.5t82 -33.5t34 -81.5t-34 -82t-82 -34z" />
    <glyph glyph-name="Uhungarumlaut" unicode="&#x170;" horiz-adv-x="565" 
d="M509 530v-353q0 -98 -53 -143q-54 -47 -177 -47q-125 0 -178 53q-46 47 -46 137v353h106v-342q0 -58 27 -79q24 -20 89 -20q69 0 97 21q30 25 30 88v332h105zM202 578h-74l68 172h113zM366 578h-76l77 172h114z" />
    <glyph glyph-name="uhungarumlaut" unicode="&#x171;" horiz-adv-x="543" 
d="M483 419v-279q0 -69 -41 -107q-45 -45 -169 -45q-128 0 -173 45q-40 37 -40 107v279h103v-246q0 -49 23 -68q23 -18 85 -18q58 0 85 17q23 19 23 64v251h104zM197 461h-74l68 172h113zM361 461h-76l77 172h114z" />
    <glyph glyph-name="Uogonek" unicode="&#x172;" horiz-adv-x="565" 
d="M509 530v-353q0 -91 -45 -136q-27 -28 -74 -41q-40 -35 -51 -50q-25 -32 -25 -62q0 -24 19 -33q14 -6 51 -6h11v-81h-22q-81 0 -110 18q-38 21 -38 71q0 41 31 82q17 24 49 49q-7 -1 -19 -1h-18q-114 0 -167 53q-46 47 -46 137v353h106v-336q0 -21 1 -32t7 -26.5
t19 -26.5q24 -20 89 -20q69 0 97 21q30 25 30 88v332h105z" />
    <glyph glyph-name="uogonek" unicode="&#x173;" horiz-adv-x="543" 
d="M483 419v-279q0 -71 -41 -107q-27 -24 -72 -35q-33 -26 -49 -48q-26 -34 -26 -62q0 -20 20 -33q14 -6 51 -6h10v-81h-21q-81 0 -110 18q-38 21 -38 71q0 40 31 82q21 26 52 51q-22 -2 -33 -2q-109 0 -157 45q-40 37 -40 107v279h103v-246q0 -50 23 -69q20 -17 87 -17
q59 0 83 17q23 19 23 69v246h104z" />
    <glyph glyph-name="Ydieresis" unicode="&#x178;" horiz-adv-x="422" 
d="M263 247v-247h-105v247l-238 283h136l155 -190l153 190h138zM118 581q-25 0 -43.5 18t-18.5 45q0 26 18 44t44 18t44 -18.5t18 -43.5q0 -26 -18 -44.5t-44 -18.5zM286 581q-26 0 -43.5 18.5t-17.5 44.5q0 25 17.5 43.5t43.5 18.5t44 -18t18 -44q0 -27 -18.5 -45
t-43.5 -18z" />
    <glyph glyph-name="Zacute" unicode="&#x179;" horiz-adv-x="477" 
d="M168 101h296v-101h-504l328 429h-276v101h477zM260 578h-84l99 172h125z" />
    <glyph glyph-name="zacute" unicode="&#x17a;" horiz-adv-x="408" 
d="M170 99h221v-99h-411l237 320h-199v100h397zM226 461h-84l99 172h125z" />
    <glyph glyph-name="Zdotaccent" unicode="&#x17b;" horiz-adv-x="477" 
d="M168 101h296v-101h-504l328 429h-276v101h477zM240 587q-27 0 -47 19.5t-20 46.5t19.5 46.5t47.5 19.5t47 -19.5t19 -46.5q0 -28 -19 -47t-47 -19z" />
    <glyph glyph-name="zdotaccent" unicode="&#x17c;" horiz-adv-x="408" 
d="M170 99h221v-99h-411l237 320h-199v100h397zM212 470q-27 0 -47 19.5t-20 46.5t19.5 46.5t47.5 19.5t47 -19.5t19 -46.5q0 -28 -19 -47t-47 -19z" />
    <glyph glyph-name="Zcaron" unicode="&#x17d;" horiz-adv-x="477" 
d="M168 101h296v-101h-504l328 429h-276v101h477zM241 673l59 86h85l-103 -172h-83l-101 172h85z" />
    <glyph glyph-name="zcaron" unicode="&#x17e;" horiz-adv-x="408" 
d="M170 99h221v-99h-411l237 320h-199v100h397zM212 556l59 86h85l-103 -172h-83l-101 172h85z" />
    <glyph glyph-name="uni018F" unicode="&#x18f;" horiz-adv-x="577" 
d="M23 307h422q-7 68 -56 105q-40 30 -107 30q-57 0 -99 -26q-38 -23 -62 -60l-81 65q39 49 86 77q68 43 161 43q123 0 196 -73q72 -72 72 -200q0 -124 -79 -207q-74 -74 -190 -74q-129 0 -197 84q-66 80 -66 204v32zM437 209h-294q4 -53 43 -90q41 -38 104 -38q59 0 102 38
q38 36 45 90z" />
    <glyph glyph-name="florin" unicode="&#x192;" 
d="M603 567l-36 -92q-34 13 -72 13q-43 0 -65 -22q-20 -18 -30 -58l-11 -52h124l-22 -102h-122l-45 -203q-18 -82 -55 -119q-45 -47 -133 -47q-64 0 -118 23l35 94q39 -16 71 -16q44 0 63 17q23 20 34 66l40 185h-108l21 102h108l13 61q18 87 58 127q46 46 126 46
q66 0 124 -23z" />
    <glyph glyph-name="uni01CF" unicode="&#x1cf;" horiz-adv-x="245" 
d="M73 -2v532h106v-532h-106zM126 673l59 86h85l-103 -172h-83l-101 172h85z" />
    <glyph glyph-name="uni01D0" unicode="&#x1d0;" horiz-adv-x="225" 
d="M63 -1v422h104v-422h-104zM116 556l59 86h85l-103 -172h-83l-101 172h85z" />
    <glyph glyph-name="uni01DD" unicode="&#x1dd;" horiz-adv-x="540" 
d="M20 243h390q-14 56 -59 79q-33 18 -82 18q-52 0 -87 -19q-36 -21 -58 -49l-77 61q35 39 89 68q55 29 140 29q122 0 187 -65q57 -57 57 -153q0 -97 -62 -159q-66 -66 -183 -66q-123 0 -193 66q-62 62 -62 159v31zM405 163h-270q7 -38 42 -63q36 -25 92 -25q59 0 93 25
q33 25 43 63z" />
    <glyph glyph-name="Gcaron" unicode="&#x1e6;" horiz-adv-x="585" 
d="M541 290v-166q-37 -58 -89 -94q-61 -43 -147 -43q-129 0 -202 77q-77 81 -77 201q0 122 77 199t194 77q82 0 149 -37q49 -27 88 -79l-89 -63q-21 35 -56 56q-38 21 -85 21q-75 0 -120 -45q-51 -51 -51 -128q0 -84 47 -131q46 -46 125 -46q85 0 131 68v41h-123v92h228z
M301 673l59 86h85l-103 -172h-83l-101 172h85z" />
    <glyph glyph-name="gcaron" unicode="&#x1e7;" horiz-adv-x="554" 
d="M516 230v-135q-39 -50 -85 -75q-60 -32 -148 -32q-128 0 -195 65q-60 58 -60 152q0 99 70 162q67 63 187 63q81 0 136 -29q53 -27 87 -68l-82 -59q-30 30 -61 44q-36 15 -80 15q-68 0 -107 -33q-44 -37 -44 -92q0 -58 43 -92q39 -31 109 -31q77 0 126 42v23h-96v80h200z
M281 556l59 86h85l-103 -172h-83l-101 172h85z" />
    <glyph glyph-name="Scommaaccent" unicode="&#x218;" horiz-adv-x="562" 
d="M506 461l-56 -87q-47 31 -93 47q-52 18 -109 18q-49 0 -73 -13q-32 -15 -32 -42q0 -24 30 -35q21 -7 86 -13l71 -6q97 -9 145 -51q51 -42 51 -109q0 -79 -63 -131q-64 -52 -180 -52q-85 0 -157 25q-70 26 -117 67l64 89q45 -37 98 -59q52 -21 118 -21q58 0 90 19
q38 21 38 58q0 35 -42 53q-15 6 -77 14l-78 6q-108 8 -153 54q-32 32 -32 83q0 71 56 119q57 47 163 47q79 0 146 -25q61 -20 106 -55zM262 -229l-23 24q12 15 19 30q9 15 13 32q-16 1 -26 11q-12 12 -12 36q0 20 12 35q14 16 36 16q26 0 38 -17q14 -18 14 -44
q0 -42 -25 -76q-19 -28 -46 -47z" />
    <glyph glyph-name="scommaaccent" unicode="&#x219;" horiz-adv-x="468" 
d="M417 370l-45 -77q-38 24 -76 35q-33 12 -83 12q-31 0 -50 -9q-25 -11 -25 -28q0 -21 24 -28q3 -1 57 -6l43 -3q90 -8 126 -34q47 -33 47 -96q0 -72 -54 -112q-51 -36 -142 -36q-70 0 -130 20q-59 21 -95 43l47 87q37 -22 78 -35q49 -17 101 -17q39 0 60 9q29 13 29 38
q0 6 -3 12.5t-13.5 14t-27.5 10.5q-20 3 -59 6l-52 3q-74 8 -102 29q-39 27 -39 78q0 66 51 105t142 39q54 0 111 -19q42 -14 80 -41zM222 -229l-23 24q12 15 19 30q9 15 13 32q-16 1 -26 11q-12 12 -12 36q0 20 12 35q14 16 36 16q26 0 38 -17q14 -17 14 -44q0 -42 -25 -76
q-19 -28 -46 -47z" />
    <glyph glyph-name="Tcommaaccent" unicode="&#x21a;" horiz-adv-x="413" 
d="M259 429v-429h-105v429h-204v101h513v-101h-204zM183 -229l-23 24q12 15 19 30q9 15 13 32q-16 1 -26 11q-12 12 -12 36q0 20 12 35q14 16 36 16q26 0 38 -17q14 -17 14 -44q0 -42 -25 -76q-19 -28 -46 -47z" />
    <glyph glyph-name="tcommaaccent" unicode="&#x21b;" horiz-adv-x="401" 
d="M252 323v-323h-103v323h-159v97h421v-97h-159zM172 -229l-23 24q12 15 19 30q9 15 13 32q-16 1 -26 11q-12 12 -12 36q0 20 12 35q14 16 36 16q26 0 38 -17q14 -17 14 -44q0 -42 -25 -76q-19 -28 -46 -47z" />
    <glyph glyph-name="uni0228" unicode="&#x228;" horiz-adv-x="547" 
d="M69 0v530h426v-101h-321v-97h195v-101h-195v-130h341v-101h-187v-41h2q40 0 68 -18q35 -21 35 -66q0 -43 -26 -69q-30 -30 -100 -30q-35 0 -74 7q-35 7 -55 14v70q22 -7 57 -12q25 -4 53 -4t38 6q13 7 13 21t-15 22q-11 5 -38 5q-21 0 -31 -2v97h-186z" />
    <glyph glyph-name="uni0229" unicode="&#x229;" horiz-adv-x="482" 
d="M59 0v420h397v-94h-294v-63h193v-90h-193v-78h310v-95h-166v-41h2q40 0 68 -18q35 -21 35 -66q0 -43 -26 -69q-30 -30 -100 -30q-35 0 -74 7q-35 7 -55 14v70q22 -7 57 -12q25 -4 53 -4t38 6q13 7 13 21t-15 22q-11 5 -38 5q-21 0 -31 -2v97h-174z" />
    <glyph glyph-name="uni0237" unicode="&#x237;" horiz-adv-x="440" 
d="M386 419v-253q0 -90 -41 -134q-44 -44 -143 -44q-111 0 -154 45q-36 38 -36 128v22h103v-29q0 -36 18 -54q17 -17 63 -17q49 0 68 20q19 19 19 67v249h103z" />
    <glyph glyph-name="uni0259" unicode="&#x259;" horiz-adv-x="540" 
d="M20 243h390q-14 56 -59 79q-33 18 -82 18q-52 0 -87 -19q-36 -21 -58 -49l-77 61q35 39 89 68q55 29 140 29q122 0 187 -65q57 -57 57 -153q0 -97 -62 -159q-66 -66 -183 -66q-123 0 -193 66q-62 62 -62 159v31zM405 163h-270q7 -38 42 -63q36 -25 92 -25q59 0 93 25
q33 25 43 63z" />
    <glyph glyph-name="afii57929" unicode="&#x2bc;" horiz-adv-x="333" 
d="M130 250l-23 24q12 15 19 30q9 15 13 32q-16 1 -26 11q-12 12 -12 36q0 20 12 35q14 16 36 16q26 0 38 -17q14 -17 14 -44q0 -42 -25 -76q-19 -28 -46 -47z" />
    <glyph glyph-name="circumflex" unicode="&#x2c6;" horiz-adv-x="494" 
d="M307 461l-59 85l-58 -85h-85l101 172h83l103 -172h-85z" />
    <glyph glyph-name="caron" unicode="&#x2c7;" horiz-adv-x="457" 
d="M228 556l59 86h85l-103 -172h-83l-101 172h85z" />
    <glyph glyph-name="breve" unicode="&#x2d8;" horiz-adv-x="501" 
d="M329 592h70q-2 -64 -36 -98t-113 -34q-27 0 -40 1t-34.5 9t-37.5 24q-36 36 -36 98h69q0 -24 18 -42q16 -14 61 -14t61 14q18 18 18 42z" />
    <glyph glyph-name="dotaccent" unicode="&#x2d9;" horiz-adv-x="512" 
d="M256 470q-27 0 -47 19.5t-20 46.5t19.5 46.5t47.5 19.5t47 -19.5t19 -46.5q0 -28 -19 -47t-47 -19z" />
    <glyph glyph-name="ring" unicode="&#x2da;" horiz-adv-x="500" 
d="M250 624q-20 0 -33.5 -14t-13.5 -35q0 -20 13.5 -34t33.5 -14q19 0 33.5 14t14.5 34t-14.5 34.5t-33.5 14.5zM250 460q-48 0 -81.5 34t-33.5 82t33.5 81.5t81.5 33.5t82 -33.5t34 -81.5t-34 -82t-82 -34z" />
    <glyph glyph-name="ogonek" unicode="&#x2db;" horiz-adv-x="485" 
d="M321 -232h-22q-81 0 -110 18q-38 21 -38 71q0 40 31 82q28 35 65 61h69q-35 -28 -51 -50q-25 -32 -25 -62q0 -24 19 -33q14 -6 51 -6h11v-81z" />
    <glyph glyph-name="tilde" unicode="&#x2dc;" horiz-adv-x="494" 
d="M340 591h65q-13 -45 -31 -72q-31 -44 -77 -44q-22 0 -46 8l-17 6q-16 6 -36 6q-21 0 -30 -11q-11 -14 -13 -20h-65q16 54 37 80q30 36 76 36q12 0 42 -8l19 -6q26 -7 35 -7q18 0 28 10q2 2 4.5 6.5t5 9.5t3.5 6z" />
    <glyph glyph-name="hungarumlaut" unicode="&#x2dd;" horiz-adv-x="533" 
d="M213 461h-74l68 172h113zM377 461h-76l77 172h114z" />
    <glyph glyph-name="acutecomb" unicode="&#x301;" horiz-adv-x="2" 
d="M-200 461h-84l99 172h125z" />
    <glyph glyph-name="uni0313" unicode="&#x313;" horiz-adv-x="303" 
d="M127 250l-23 24q12 15 19 30q9 15 13 32q-16 1 -26 11q-12 12 -12 36q0 20 12 35q14 16 36 16q26 0 38 -17q14 -17 14 -44q0 -42 -25 -76q-19 -28 -46 -47z" />
    <glyph glyph-name="uni0315" unicode="&#x315;" horiz-adv-x="303" 
d="M127 250l-23 24q12 15 19 30q9 15 13 32q-16 1 -26 11q-12 12 -12 36q0 20 12 35q14 16 36 16q26 0 38 -17q14 -17 14 -44q0 -42 -25 -76q-19 -28 -46 -47z" />
    <glyph glyph-name="uni0326" unicode="&#x326;" horiz-adv-x="303" 
d="M127 -229l-23 24q12 15 19 30q9 15 13 32q-16 1 -26 11q-12 12 -12 36q0 20 12 35q14 16 36 16q26 0 38 -17q14 -17 14 -44q0 -42 -25 -76q-19 -28 -46 -47z" />
    <glyph glyph-name="anoteleia" unicode="&#x387;" horiz-adv-x="339" 
d="M169 197q-26 0 -42.5 17.5t-16.5 42.5q0 26 17 43.5t42 17.5t43 -17.5t18 -43.5q0 -25 -18 -42.5t-43 -17.5z" />
    <glyph glyph-name="uni0394" unicode="&#x394;" horiz-adv-x="548" 
d="M272 374l-134 -273h269zM574 0h-601l260 530h79z" />
    <glyph glyph-name="uni0394" unicode="&#x2206;" horiz-adv-x="548" 
d="M272 374l-134 -273h269zM574 0h-601l260 530h79z" />
    <glyph glyph-name="uni03A9" unicode="&#x3a9;" horiz-adv-x="578" 
d="M331 0v165q44 6 75 37q39 42 39 98q0 64 -43 101q-41 38 -113 38t-113 -38q-43 -37 -43 -101q0 -56 39 -98q31 -31 75 -37v-165h-203v92h110v19q-47 12 -81 48q-48 54 -48 143q0 101 64 167q72 72 200 72t200 -72q64 -66 64 -167q0 -87 -44 -138q-31 -36 -85 -53v-19h110
v-92h-203z" />
    <glyph glyph-name="uni03A9" unicode="&#x2126;" horiz-adv-x="578" 
d="M331 0v165q44 6 75 37q39 42 39 98q0 64 -43 101q-41 38 -113 38t-113 -38q-43 -37 -43 -101q0 -56 39 -98q31 -31 75 -37v-165h-203v92h110v19q-47 12 -81 48q-48 54 -48 143q0 101 64 167q72 72 200 72t200 -72q64 -66 64 -167q0 -87 -44 -138q-31 -36 -85 -53v-19h110
v-92h-203z" />
    <glyph glyph-name="pi" unicode="&#x3c0;" horiz-adv-x="595" 
d="M509 85l3 -82q-27 -13 -60 -13q-45 0 -66 20q-25 22 -25 66q0 28 7 54l40 196h-195l-70 -326h-102l69 326h-12q-36 0 -64 -17l-26 84q43 27 104 27h480l-18 -94h-63l-40 -189q-5 -18 -5 -36q0 -13 6 -17q7 -5 16 -5q12 0 21 6z" />
    <glyph glyph-name="afii10023" unicode="&#x401;" horiz-adv-x="547" 
d="M180 572q-25 0 -43.5 18t-18.5 45q0 26 18 44t44 18t44 -18.5t18 -43.5q0 -26 -18 -44.5t-44 -18.5zM392 572q-26 0 -43.5 18.5t-17.5 44.5q0 25 17.5 43.5t43.5 18.5t44 -18t18 -44q0 -27 -18.5 -45t-43.5 -18zM69 0v530h426v-101h-321v-97h195v-101h-195v-130h341v-101
h-446z" />
    <glyph glyph-name="afii10051" unicode="&#x402;" horiz-adv-x="643" 
d="M259 318h135q117 0 168 -50q43 -43 43 -110q0 -77 -47 -124t-142 -47q-57 0 -108 18l27 91q35 -13 75 -13q42 0 62 16q25 19 25 51q0 37 -35 54q-25 12 -78 12h-125v-216h-105v429h-151v101h433v-101h-177v-111z" />
    <glyph glyph-name="afii10052" unicode="&#x403;" horiz-adv-x="502" 
d="M178 429v-429h-106v530h418v-101h-312zM295 578h-84l99 172h125z" />
    <glyph glyph-name="afii10053" unicode="&#x404;" horiz-adv-x="577" 
d="M465 180l82 -70q-35 -51 -91 -85q-65 -38 -158 -38q-118 0 -191 70q-77 77 -77 211q0 128 72 200q73 73 196 73q93 0 161 -43q47 -28 86 -77l-81 -65q-24 37 -62 60q-42 26 -99 26q-67 0 -107 -30q-41 -31 -50 -83h220v-101h-223q4 -66 46 -102q42 -37 115 -37
q58 0 101 26q34 19 60 65z" />
    <glyph glyph-name="afii10054" unicode="&#x405;" horiz-adv-x="562" 
d="M506 461l-56 -87q-47 31 -93 47q-52 18 -109 18q-49 0 -73 -13q-32 -15 -32 -42q0 -24 30 -35q21 -7 86 -13l71 -6q97 -9 145 -51q51 -42 51 -109q0 -79 -63 -131q-64 -52 -180 -52q-85 0 -157 25q-70 26 -117 67l64 89q45 -37 98 -59q52 -21 118 -21q58 0 90 19
q38 21 38 58q0 35 -42 53q-15 6 -77 14l-78 6q-108 8 -153 54q-32 32 -32 83q0 71 56 119q57 47 163 47q79 0 146 -25q61 -20 106 -55z" />
    <glyph glyph-name="afii10055" unicode="&#x406;" horiz-adv-x="245" 
d="M70 -2v535h106v-535h-106z" />
    <glyph glyph-name="afii10056" unicode="&#x407;" horiz-adv-x="233" 
d="M59 581q-20 0 -34 18t-14 45q0 26 14 44t34 18t33.5 -18.5t13.5 -43.5q0 -26 -13.5 -44.5t-33.5 -18.5zM175 581q-20 0 -33.5 18.5t-13.5 44.5q0 25 13.5 43.5t33.5 18.5t33.5 -18t13.5 -44q0 -27 -13.5 -45t-33.5 -18zM64 -2v535h106v-535h-106z" />
    <glyph glyph-name="afii10057" unicode="&#x408;" horiz-adv-x="513" 
d="M451 530v-337q0 -32 -1.5 -50.5t-12.5 -49t-32 -53.5q-50 -53 -180 -53q-38 0 -63.5 2.5t-58.5 15t-54 35.5q-20 21 -30 48t-11 42.5t-1 46.5v68h105v-60q0 -52 27 -75q21 -21 90 -21q62 0 87 22q30 26 30 87v332h105z" />
    <glyph glyph-name="afii10058" unicode="&#x409;" horiz-adv-x="764" 
d="M469 99h106q38 0 55 14q22 18 22 54q0 38 -22 54q-20 15 -58 15h-159zM210 530h79l81 -193h163q63 0 107.5 -10t74.5 -43q41 -47 41 -114q0 -79 -46 -123q-47 -47 -140 -47h-62h-110l-148 378l-162 -378h-115z" />
    <glyph glyph-name="afii10059" unicode="&#x40a;" horiz-adv-x="906" 
d="M521 99h190q28 0 46 14q23 17 23 54q0 35 -22 54q-18 15 -50 15h-187v-137zM521 337h143q68 0 112 -12t74 -46q38 -45 38 -110q0 -80 -53 -125q-49 -44 -134 -44h-285v236h-241v-236h-106v530h106v-193h241v193h105v-193z" />
    <glyph glyph-name="afii10060" unicode="&#x40b;" horiz-adv-x="643" 
d="M600 0h-105v113q0 56 -25 81q-25 22 -86 22h-125v-216h-106v429h-150v101h433v-101h-177v-111h136q119 0 168 -51q37 -38 37 -110v-157z" />
    <glyph glyph-name="afii10061" unicode="&#x40c;" horiz-adv-x="562" 
d="M454 0l-189 262l-91 -77v-185h-105v530h105v-219l255 219h139l-225 -198l239 -332h-128zM305 578h-84l99 172h125z" />
    <glyph glyph-name="afii10062" unicode="&#x40e;" horiz-adv-x="531" 
d="M241 0h-117l89 163l-217 371h127l152 -259l147 259h119zM344 696h81q-8 -80 -49 -110q-34 -25 -108 -25t-108 25q-41 30 -49 110h81q2 -35 23 -48q17 -10 53 -10q37 0 54 11q17 12 22 47z" />
    <glyph glyph-name="afii10145" unicode="&#x40f;" horiz-adv-x="587" 
d="M413 530h105v-530h-178v-129h-92v129h-179v530h106v-429h238v429z" />
    <glyph glyph-name="afii10017" unicode="&#x410;" horiz-adv-x="548" 
d="M272 374l-70 -142h141zM458 0l-65 131h-241l-63 -131h-116l260 530h79l262 -530h-116z" />
    <glyph glyph-name="afii10018" unicode="&#x411;" horiz-adv-x="617" 
d="M174 101h209q42 0 62 17q22 20 22 53t-22 52q-18 15 -58 15h-213v-137zM69 530h452v-101h-347v-92h152q53 0 81.5 -2t63.5 -13.5t59 -34.5q45 -44 45 -117q0 -75 -50 -123q-49 -47 -136 -47h-320v530z" />
    <glyph glyph-name="afii10019" unicode="&#x412;" horiz-adv-x="623" 
d="M175 97h207q51 0 68 15q23 18 23 56q0 34 -19 48q-21 18 -64 18h-215v-137zM175 331h195q35 0 50 10q20 13 20 44q0 27 -20 39q-18 9 -42 9h-8h-195v-102zM69 530h291q107 0 152 -45q34 -34 34 -88q0 -63 -44 -100q37 -15 59 -52q20 -36 20 -80q0 -71 -45 -116
q-48 -49 -142 -49h-325v530z" />
    <glyph glyph-name="afii10020" unicode="&#x413;" horiz-adv-x="502" 
d="M175 429v-429h-106v530h418v-101h-312z" />
    <glyph glyph-name="afii10021" unicode="&#x414;" horiz-adv-x="615" 
d="M414 99l-107 265l-106 -265h213zM519 -120v120h-423v-120h-88v219h79l187 432h66l188 -432h79v-219h-88z" />
    <glyph glyph-name="afii10022" unicode="&#x415;" horiz-adv-x="547" 
d="M69 0v530h426v-101h-321v-97h195v-101h-195v-130h341v-101h-446z" />
    <glyph glyph-name="afii10024" unicode="&#x416;" horiz-adv-x="763" 
d="M330 192l-52 53l-145 -245h-130l200 318l-186 213h128l185 -217v217h103v-217l185 217h128l-186 -213l200 -318h-130l-145 245l-52 -56v-189h-103v192z" />
    <glyph glyph-name="afii10025" unicode="&#x417;" horiz-adv-x="582" 
d="M20 78l61 89q43 -38 99 -58q57 -21 119 -21q59 0 92 18q40 21 40 63q0 28 -29 45q-30 16 -116 16h-66v103h81q61 0 80 9q29 12 29 38q0 10 -3.5 18t-13 14.5t-11 7t-11.5 5.5q-33 13 -83 13q-57 0 -105 -17q-44 -16 -84 -46l-62 83q51 37 114 60q66 23 146 23
q99 0 160 -38q67 -47 67 -121q0 -72 -56 -94q31 -15 50 -41q22 -29 22 -73q0 -87 -58 -134q-64 -53 -184 -53q-91 0 -167 27q-61 23 -111 64z" />
    <glyph glyph-name="afii10026" unicode="&#x418;" horiz-adv-x="586" 
d="M411 344l-270 -344h-72v530h105v-344l269 344h73v-530h-105v344z" />
    <glyph glyph-name="afii10027" unicode="&#x419;" horiz-adv-x="585" 
d="M411 344l-270 -344h-72v530h105v-344l269 344h73v-530h-105v344zM372 696h81q-8 -80 -49 -110q-34 -25 -108 -25t-108 25q-41 30 -49 110h81q2 -35 23 -48q17 -10 53 -10q37 0 54 11q17 12 22 47z" />
    <glyph glyph-name="afii10028" unicode="&#x41a;" horiz-adv-x="562" 
d="M454 0l-189 262l-91 -77v-185h-105v530h105v-219l255 219h139l-225 -198l239 -332h-128z" />
    <glyph glyph-name="afii10029" unicode="&#x41b;" horiz-adv-x="504" 
d="M415 0l-165 378l-162 -378h-115l238 530h79l240 -530h-115z" />
    <glyph glyph-name="afii10030" unicode="&#x41c;" horiz-adv-x="680" 
d="M510 0v328l-170 -245l-170 245v-328h-104v530h81l193 -271l194 271h81v-530h-105z" />
    <glyph glyph-name="afii10031" unicode="&#x41d;" horiz-adv-x="592" 
d="M416 0v238h-241v-238h-106v530h106v-192h241v192h106v-530h-106z" />
    <glyph glyph-name="afii10032" unicode="&#x41e;" horiz-adv-x="609" 
d="M304 439q-71 0 -118.5 -49t-47.5 -126t47.5 -126t118.5 -49q72 0 119.5 49t47.5 126t-47.5 126t-119.5 49zM304 -13q-118 0 -196 78.5t-78 198.5t78 198.5t196 78.5t196.5 -78.5t78.5 -198.5t-78.5 -198.5t-196.5 -78.5z" />
    <glyph glyph-name="afii10033" unicode="&#x41f;" horiz-adv-x="592" 
d="M417 0v429h-242v-429h-106v530h453v-530h-105z" />
    <glyph glyph-name="afii10034" unicode="&#x420;" horiz-adv-x="560" 
d="M172 305h186q38 0 56 15q20 20 20 50q0 27 -18 45q-16 14 -53 14h-191v-124zM66 530h301q86 0 132 -46q43 -41 43 -115q0 -72 -44 -120q-44 -46 -122 -46h-204v-203h-106v530z" />
    <glyph glyph-name="afii10035" unicode="&#x421;" horiz-adv-x="568" 
d="M464 197l84 -63q-34 -66 -95 -107q-61 -40 -146 -40q-127 0 -201 77q-76 76 -76 197q0 125 77 203q77 77 201 77q85 0 143 -36q54 -31 92 -87l-89 -63q-26 42 -60 63q-37 21 -87 21q-74 0 -120 -46q-50 -50 -50 -131q0 -79 51 -130q43 -43 115 -43q56 0 100 32
q42 31 61 76z" />
    <glyph glyph-name="afii10036" unicode="&#x422;" horiz-adv-x="554" 
d="M331 429v-429h-105v429h-204v101h513v-101h-204z" />
    <glyph glyph-name="afii10037" unicode="&#x423;" horiz-adv-x="531" 
d="M238 0h-117l89 163l-217 371h127l152 -259l147 259h119z" />
    <glyph glyph-name="afii10038" unicode="&#x424;" horiz-adv-x="675" 
d="M285 380h-79q-44 0 -64 -20q-20 -18 -20 -57q0 -41 24 -59q19 -15 65 -15h74v151zM390 380v-151h76q43 0 63 15q24 18 24 59q0 38 -20 58q-21 19 -64 19h-79zM475 128h-85v-128h-105v128h-85q-88 0 -137 49q-45 45 -45 126q0 83 48 131q47 47 140 47h79v75h105v-75h79
q91 0 140 -47q48 -48 48 -131q0 -81 -45 -126q-49 -49 -137 -49z" />
    <glyph glyph-name="afii10039" unicode="&#x425;" horiz-adv-x="512" 
d="M406 0l-151 186l-152 -186h-128l216 266l-214 264h132l148 -181l148 181h131l-214 -261l220 -269h-136z" />
    <glyph glyph-name="afii10040" unicode="&#x426;" horiz-adv-x="604" 
d="M394 530h105v-431h92v-219h-92v120h-430v530h106v-429h219v429z" />
    <glyph glyph-name="afii10041" unicode="&#x427;" horiz-adv-x="559" 
d="M489 0h-105v216h-136q-117 0 -166 51q-39 42 -39 125v138h105v-112q0 -57 25 -81q26 -23 94 -23h117v216h105v-530z" />
    <glyph glyph-name="afii10042" unicode="&#x428;" horiz-adv-x="782" 
d="M709 0h-636v530h101v-429h167v429h100v-429h167v429h101v-530z" />
    <glyph glyph-name="afii10043" unicode="&#x429;" horiz-adv-x="814" 
d="M73 530h101v-429h167v429h101v-429h167v429h101v-431h92v-219h-92v120h-637v530z" />
    <glyph glyph-name="afii10044" unicode="&#x42a;" horiz-adv-x="634" 
d="M250 99h190q28 0 45 14q23 21 23 54q0 36 -22 54q-20 15 -47 15h-189v-137zM250 530v-193h143q68 0 111.5 -12t73.5 -46q38 -45 38 -110q0 -79 -52 -125q-49 -44 -134 -44h-286v429h-141v101h247z" />
    <glyph glyph-name="afii10045" unicode="&#x42b;" horiz-adv-x="762" 
d="M174 99h180q39 0 56 14q22 18 22 54q0 34 -19 52q-18 17 -59 17h-180v-137zM174 337h139q68 0 111.5 -12t73.5 -46q38 -46 38 -106q0 -83 -49 -128q-46 -45 -137 -45h-281v530h105v-193zM587 0v530h106v-530h-106z" />
    <glyph glyph-name="afii10046" unicode="&#x42c;" horiz-adv-x="559" 
d="M175 99h178q39 0 57 14q23 17 23 54q0 35 -22 54q-17 15 -55 15h-181v-137zM175 337h143q68 0 111.5 -12t73.5 -46q38 -45 38 -108q0 -83 -52 -127q-49 -44 -134 -44h-286v530h106v-193z" />
    <glyph glyph-name="afii10047" unicode="&#x42d;" horiz-adv-x="567" 
d="M20 110l82 70q20 -37 60 -64q42 -27 101 -27q78 0 119 42q38 38 42 97h-223v101h220q-9 52 -50 83q-40 30 -107 30q-57 0 -99 -26q-38 -23 -62 -60l-81 65q39 49 86 77q68 43 161 43q123 0 196 -73q72 -72 72 -200q0 -134 -77 -211q-73 -70 -191 -70q-93 0 -158 38
q-56 34 -91 85z" />
    <glyph glyph-name="afii10048" unicode="&#x42e;" horiz-adv-x="826" 
d="M526 89q67 0 110 43q52 52 52 134q0 80 -50 130q-43 43 -111 43q-72 0 -119 -45q-49 -49 -49 -130q0 -78 51 -129q46 -46 116 -46zM176 338h87q15 74 67 125q84 78 200 78q113 0 188 -77q78 -81 78 -197q0 -125 -79 -204q-75 -76 -189 -76q-123 0 -196 77q-69 69 -75 174
h-81v-238h-107v530h107v-192z" />
    <glyph glyph-name="afii10049" unicode="&#x42f;" horiz-adv-x="570" 
d="M260 212l-132 -212h-124l140 221q-55 12 -89 46q-38 38 -38 104q0 70 41 111q48 48 149 48h294v-530h-105v212h-136zM396 431h-199q-35 0 -52 -13q-21 -13 -21 -45q0 -30 19 -46t60 -16h193v120z" />
    <glyph glyph-name="afii10065" unicode="&#x430;" horiz-adv-x="439" 
d="M219 270l-45 -94h90zM353 0l-46 91h-176l-46 -91h-113l215 420h64l216 -420h-114z" />
    <glyph glyph-name="afii10066" unicode="&#x431;" horiz-adv-x="524" 
d="M164 177v-82h160q27 0 38 11t11 32t-13 31q-10 8 -35 8h-161zM60 420h377v-94h-273v-59h180q65 0 100 -35t35 -96q0 -58 -37 -95q-41 -41 -120 -41h-262v420z" />
    <glyph glyph-name="afii10067" unicode="&#x432;" horiz-adv-x="517" 
d="M164 95h154q28 0 40 8q15 13 15 35q0 23 -18 33q-10 6 -41 6h-150v-82zM164 267h141q21 0 30 7q11 11 11 26q0 17 -13 24q-9 5 -30 5h-139v-62zM60 419h253q68 0 99 -23q40 -28 40 -84q0 -54 -39 -82q29 -13 47 -39q19 -27 19 -64q0 -64 -41 -97q-37 -30 -113 -30h-265
v419z" />
    <glyph glyph-name="afii10068" unicode="&#x433;" horiz-adv-x="430" 
d="M162 320v-320h-103v420h369v-100h-266z" />
    <glyph glyph-name="afii10069" unicode="&#x434;" horiz-adv-x="485" 
d="M163 95h157l-78 180zM407 0h-329v-104h-85v199h65l152 325h64l153 -325h65v-199h-85v104z" />
    <glyph glyph-name="afii10070" unicode="&#x435;" horiz-adv-x="482" 
d="M59 0v420h397v-94h-294v-63h193v-90h-193v-78h310v-95h-413z" />
    <glyph glyph-name="afii10072" unicode="&#x436;" horiz-adv-x="634" 
d="M367 263l146 156h122l-158 -166l164 -253h-118l-116 188l-40 -38v-150h-99v150l-41 38l-116 -188h-118l164 253l-158 166h122l147 -155v155h99v-156z" />
    <glyph glyph-name="afii10073" unicode="&#x437;" horiz-adv-x="507" 
d="M23 61l54 85q34 -26 84 -44q48 -15 93 -15t71 11q29 13 29 38q0 21 -27 31q-18 6 -64 6h-81v85h84q40 0 48 5q20 9 20 25q0 24 -30 35q-23 9 -63 9q-47 0 -86 -14t-72 -37l-47 82q40 27 94 48q56 19 120 19q91 0 141 -34q52 -35 52 -96q0 -53 -40 -74q27 -12 43 -35
q16 -25 16 -57q0 -66 -52 -106q-54 -40 -149 -40q-75 0 -137 21q-51 17 -101 52z" />
    <glyph glyph-name="afii10074" unicode="&#x438;" horiz-adv-x="506" 
d="M132 0h-72v420h100v-249l214 249h72v-420h-100v249z" />
    <glyph glyph-name="afii10075" unicode="&#x439;" horiz-adv-x="506" 
d="M331 592h73q0 -63 -36 -98q-34 -34 -112 -34t-112 34q-36 35 -36 98h73q2 -27 18 -43q15 -13 57 -13t57 13q16 16 18 43zM132 0h-72v420h100v-249l214 249h72v-420h-100v249z" />
    <glyph glyph-name="afii10076" unicode="&#x43a;" horiz-adv-x="462" 
d="M364 0l-146 193l-55 -47v-146h-103v419h103v-155l184 155h140l-194 -163l192 -256h-121z" />
    <glyph glyph-name="afii10077" unicode="&#x43b;" horiz-adv-x="413" 
d="M325 0l-119 263l-118 -263h-116l203 420h63l203 -420h-116z" />
    <glyph glyph-name="afii10078" unicode="&#x43c;" horiz-adv-x="574" 
d="M411 0v225l-125 -167l-123 167v-225h-99v420h78l144 -211l146 211h78v-420h-99z" />
    <glyph glyph-name="afii10079" unicode="&#x43d;" horiz-adv-x="543" 
d="M381 0v175h-219v-175h-103v420h103v-145h219v145h103v-420h-103z" />
    <glyph glyph-name="afii10080" unicode="&#x43e;" horiz-adv-x="551" 
d="M275 336q-67 0 -107 -36.5t-40 -88.5q0 -54 40 -90.5t107 -36.5q69 0 108.5 37t39.5 90q0 52 -40.5 88.5t-107.5 36.5zM275 -12q-110 0 -181 63.5t-71 158.5q0 96 70.5 158t181.5 62t182 -62t71 -158t-71 -159t-182 -63z" />
    <glyph glyph-name="afii10081" unicode="&#x43f;" horiz-adv-x="535" 
d="M372 0v320h-209v-320h-104v420h417v-420h-104z" />
    <glyph glyph-name="afii10082" unicode="&#x440;" horiz-adv-x="510" 
d="M164 249h184q24 0 34 9q13 11 13 30q0 21 -13 30q-13 8 -36 8h-182v-77zM60 420h296q66 0 111 -38q34 -33 34 -91q0 -61 -37 -98q-38 -38 -115 -38h-185v-155h-104v420z" />
    <glyph glyph-name="afii10083" unicode="&#x441;" horiz-adv-x="518" 
d="M417 158l83 -57q-40 -59 -98 -87q-54 -26 -127 -26q-124 0 -193 71q-57 59 -57 150q0 85 60 147q73 74 195 74q76 0 131 -29q49 -24 83 -67l-83 -58q-24 28 -54 41q-32 14 -81 14q-75 0 -113 -40q-32 -35 -32 -82q0 -52 37 -86q38 -35 110 -35q46 0 83 19q28 15 56 51z
" />
    <glyph glyph-name="afii10084" unicode="&#x442;" horiz-adv-x="407" 
d="M255 323v-323h-103v323h-159v97h421v-97h-159z" />
    <glyph glyph-name="afii10085" unicode="&#x443;" horiz-adv-x="453" 
d="M123 420l108 -181l106 181h123l-256 -420h-118l81 137l-174 283h130z" />
    <glyph glyph-name="afii10086" unicode="&#x444;" horiz-adv-x="611" 
d="M254 310h-63q-35 0 -50 -12q-20 -16 -20 -50q0 -27 14 -42q16 -17 51 -17h68v121zM357 310v-121h68q35 0 51 17q14 17 14 44q0 33 -20 48q-15 12 -50 12h-63zM357 398h70q77 0 121 -41q40 -39 40 -111q0 -73 -46 -112q-38 -33 -109 -33h-76v-101h-103v101h-76
q-71 0 -109 33q-46 39 -46 112q0 72 40 111q44 41 121 41h70v67h103v-67z" />
    <glyph glyph-name="afii10087" unicode="&#x445;" horiz-adv-x="423" 
d="M324 0l-113 139l-113 -139h-129l176 211l-173 209h129l110 -136l110 136h131l-175 -208l176 -212h-129z" />
    <glyph glyph-name="afii10088" unicode="&#x446;" horiz-adv-x="522" 
d="M337 420h104v-320h88v-204h-86v104h-384v420h104v-320h174v320z" />
    <glyph glyph-name="afii10089" unicode="&#x447;" horiz-adv-x="502" 
d="M340 0v155h-103q-39 0 -63 1.5t-55.5 12t-50.5 30.5q-35 36 -35 104v117h103v-88q0 -49 26 -67q24 -15 82 -15h96v170h103v-420h-103z" />
    <glyph glyph-name="afii10090" unicode="&#x448;" horiz-adv-x="686" 
d="M623 420v-420h-560v420h104v-320h124v320h104v-320h124v320h104z" />
    <glyph glyph-name="afii10091" unicode="&#x449;" horiz-adv-x="709" 
d="M623 420v-320h88v-204h-85v104h-563v420h104v-320h124v320h104v-320h124v320h104z" />
    <glyph glyph-name="afii10092" unicode="&#x44a;" horiz-adv-x="585" 
d="M256 177v-82h154q24 0 35 12q11 11 11 32q0 19 -12 29q-12 9 -36 9h-152zM256 272h164q70 0 106 -36t36 -99q0 -56 -37 -97q-40 -40 -117 -40h-256v325h-139v95h243v-148z" />
    <glyph glyph-name="afii10093" unicode="&#x44b;" horiz-adv-x="683" 
d="M165 177v-82h154q25 0 36 12q10 10 10 31q0 22 -13 31q-11 8 -35 8h-152zM165 272h164q71 0 107 -36q35 -34 35 -98q0 -62 -37 -98q-41 -40 -117 -40h-256v420h104v-148zM518 -1v422h104v-422h-104z" />
    <glyph glyph-name="afii10094" unicode="&#x44c;" horiz-adv-x="493" 
d="M164 177v-82h152q26 0 37 11q12 10 12 31q0 22 -12 31q-11 9 -37 9h-152zM164 272h165q70 0 106 -36q35 -34 35 -98q0 -62 -37 -98q-41 -40 -117 -40h-255v420h103v-148z" />
    <glyph glyph-name="afii10095" unicode="&#x44d;" horiz-adv-x="521" 
d="M18 95l82 59q23 -33 62 -55q38 -19 89 -19q59 0 86 24q31 25 39 69h-190v90h188q-14 40 -47 59q-33 18 -82 18q-52 0 -87 -19q-33 -20 -58 -49l-77 61q35 39 89 68q55 29 140 29q122 0 187 -65q57 -57 57 -155q0 -101 -64 -161q-63 -61 -180 -61q-82 0 -143 29
q-57 29 -91 78z" />
    <glyph glyph-name="afii10096" unicode="&#x44e;" horiz-adv-x="755" 
d="M484 331q-62 0 -98 -28q-45 -34 -45 -93q0 -36 15 -60.5t30 -33.5q37 -28 98 -28t98 28q45 34 45 94q0 59 -45 93q-36 28 -98 28zM163 268h84q24 78 87 119q62 43 147 43q122 0 193 -74q58 -61 58 -145q0 -89 -60 -149q-74 -74 -192 -74q-95 0 -163 55q-64 52 -74 135
h-80v-178h-104v420h104v-152z" />
    <glyph glyph-name="afii10097" unicode="&#x44f;" horiz-adv-x="516" 
d="M182 244h171v81h-177q-23 0 -35 -9q-13 -9 -13 -32q0 -20 12 -30t42 -10zM130 0h-117l121 162q-46 7 -76 37q-31 31 -31 87q0 61 33 94q37 39 130 39h266v-419h-103v154h-111z" />
    <glyph glyph-name="afii10071" unicode="&#x451;" horiz-adv-x="482" 
d="M59 0v420h397v-94h-294v-63h193v-90h-193v-78h310v-95h-413zM157 464q-24 0 -41.5 17t-17.5 42q0 24 17 41t42 17q24 0 41 -17t17 -41t-17 -41.5t-41 -17.5zM359 464q-24 0 -41 17.5t-17 41.5t16 41t42 17q25 0 42 -17t17 -41q0 -25 -17.5 -42t-41.5 -17z" />
    <glyph glyph-name="afii10099" unicode="&#x452;" horiz-adv-x="581" 
d="M241 260h107q123 0 168 -48q32 -35 32 -86q0 -63 -36 -99q-43 -43 -126 -43q-50 0 -97 15l18 84q27 -10 63 -10q31 0 50 10q25 13 25 37q0 29 -40 39q-30 7 -74 7h-90v-166h-103v328h-125v92h396v-92h-168v-68z" />
    <glyph glyph-name="afii10100" unicode="&#x453;" horiz-adv-x="430" 
d="M165 320v-320h-103v420h369v-100h-266zM250 461h-84l99 172h125z" />
    <glyph glyph-name="afii10101" unicode="&#x454;" horiz-adv-x="518" 
d="M420 150l80 -54q-31 -47 -81 -77q-54 -31 -147 -31q-121 0 -186 62q-63 60 -63 162q0 97 64 155q67 63 183 63q83 0 142 -29q53 -26 86 -70l-82 -56q-24 30 -53 46q-35 19 -88 19q-49 0 -81 -19q-35 -20 -48 -58h187v-90h-190q9 -45 44 -69t96 -24q49 0 81 18
q34 19 56 52z" />
    <glyph glyph-name="afii10102" unicode="&#x455;" horiz-adv-x="468" 
d="M417 370l-45 -77q-38 24 -76 35q-33 12 -83 12q-31 0 -50 -9q-25 -11 -25 -28q0 -21 24 -28q3 -1 57 -6l43 -3q90 -8 126 -34q47 -33 47 -96q0 -72 -54 -112q-51 -36 -142 -36q-70 0 -130 20q-59 21 -95 43l47 87q37 -22 78 -35q49 -17 101 -17q39 0 60 9q29 13 29 38
q0 6 -3 12.5t-13.5 14t-27.5 10.5q-20 3 -59 6l-52 3q-74 8 -102 29q-39 27 -39 78q0 66 51 105t142 39q54 0 111 -19q42 -14 80 -41z" />
    <glyph glyph-name="afii10103" unicode="&#x456;" horiz-adv-x="223" 
d="M112 470q-27 0 -47 19.5t-20 46.5t19.5 46.5t47.5 19.5t47 -19.5t19 -46.5q0 -28 -19 -47t-47 -19zM59 -1v422h104v-422h-104z" />
    <glyph glyph-name="afii10104" unicode="&#x457;" horiz-adv-x="215" 
d="M54 464q-18 0 -30.5 18t-12.5 45q0 26 13 44t30 18q18 0 30 -18.5t12 -43.5q0 -26 -12.5 -44.5t-29.5 -18.5zM162 464q-18 0 -30.5 18.5t-12.5 44.5q0 25 12.5 43.5t30.5 18.5q17 0 29.5 -18t12.5 -44q0 -27 -12.5 -45t-29.5 -18zM55 -1v422h104v-422h-104z" />
    <glyph glyph-name="afii10105" unicode="&#x458;" horiz-adv-x="440" 
d="M386 419v-253q0 -90 -41 -134q-44 -44 -143 -44q-111 0 -154 45q-36 38 -36 128v22h103v-29q0 -36 18 -54q17 -17 63 -17q49 0 68 20q19 19 19 67v249h103z" />
    <glyph glyph-name="afii10106" unicode="&#x459;" horiz-adv-x="666" 
d="M356 177l42 -82h86q32 0 43 12q11 11 11 32q0 17 -12 28q-11 10 -42 10h-128zM-32 0l203 420h64l75 -148h191q70 0 106 -36q36 -35 36 -96q0 -63 -37 -100q-40 -40 -128 -40h-30h-113l-129 267l-121 -267h-117z" />
    <glyph glyph-name="afii10107" unicode="&#x45a;" horiz-adv-x="808" 
d="M484 177v-82h152q27 0 38 12q11 11 11 32q0 17 -12 28q-12 10 -37 10h-152zM484 272h159q75 0 112 -36q35 -35 35 -98q0 -62 -37 -98q-41 -40 -117 -40h-255v177h-219v-177h-103v420h103v-148h219v148h103v-148z" />
    <glyph glyph-name="afii10108" unicode="&#x45b;" horiz-adv-x="581" 
d="M548 0h-103v82q0 49 -25 67q-21 15 -83 15h-96v-164h-103v328h-125v92h396v-92h-168v-70h110q35 0 57.5 -1.5t54.5 -12t52 -30.5q33 -35 33 -103v-111z" />
    <glyph glyph-name="afii10109" unicode="&#x45c;" horiz-adv-x="462" 
d="M364 0l-146 193l-55 -47v-146h-103v419h103v-155l184 155h140l-194 -163l192 -256h-121zM265 461h-84l99 172h125z" />
    <glyph glyph-name="afii10110" unicode="&#x45e;" horiz-adv-x="453" 
d="M126 420l108 -181l106 181h123l-256 -420h-118l81 137l-174 283h130zM305 592h73q0 -63 -36 -98q-34 -34 -112 -34t-112 34q-36 35 -36 98h73q2 -27 18 -43q15 -13 57 -13t57 13q16 16 18 43z" />
    <glyph glyph-name="afii10193" unicode="&#x45f;" horiz-adv-x="529" 
d="M366 420h104v-420h-163v-113h-85v113h-163v420h104v-320h203v320z" />
    <glyph glyph-name="afii10146" unicode="&#x462;" horiz-adv-x="598" 
d="M214 99h190q28 0 45 14q23 21 23 54q0 36 -22 54q-18 15 -50 15h-186v-137zM214 337h143q68 0 111.5 -12t73.5 -46q38 -45 38 -110q0 -79 -52 -125q-49 -44 -134 -44h-286v436h-105v94h105v63h106v-63h166v-94h-166v-99z" />
    <glyph glyph-name="afii10194" unicode="&#x463;" horiz-adv-x="531" 
d="M202 177v-82h154q24 0 35 12q11 11 11 31q0 19 -11 29t-37 10h-152zM202 272h164q70 0 106 -36t36 -98q0 -61 -37 -98q-40 -40 -117 -40h-256v336h-85v84h85v72h104v-72h121v-84h-121v-64z" />
    <glyph glyph-name="afii10147" unicode="&#x472;" horiz-adv-x="599" 
d="M139 315h320q-12 50 -46 82q-47 42 -112 42q-69 0 -116 -44q-30 -27 -46 -80zM459 218h-321q8 -49 47 -85q47 -44 117 -44q65 0 112 45q35 35 45 84zM299 541q118 0 196 -78q79 -79 79 -199q0 -119 -79 -198t-196 -79t-196 79q-78 78 -78 198t79 199q78 78 195 78z" />
    <glyph glyph-name="afii10195" unicode="&#x473;" horiz-adv-x="551" 
d="M139 257h272q-15 38 -46 60q-34 25 -89 25q-54 0 -92 -27q-27 -18 -45 -58zM415 176h-279q9 -44 39 -66q37 -30 99 -30q59 0 98 30q33 27 43 66zM277 430q119 0 192 -73q59 -62 59 -146q0 -85 -58 -147q-72 -76 -195 -76q-119 0 -191 72q-61 61 -61 150q0 90 64 152
q70 68 190 68z" />
    <glyph glyph-name="afii10148" unicode="&#x474;" horiz-adv-x="517" 
d="M286 0h-68l-252 530h117l168 -359l95 249q24 63 52 89q34 32 85 32q36 0 68 -10l-27 -96q-9 4 -26 4q-18 0 -32 -14q-9 -9 -26 -50z" />
    <glyph glyph-name="afii10196" unicode="&#x475;" horiz-adv-x="459" 
d="M257 0h-63l-211 420h112l128 -266l66 175q22 49 39 66q35 35 99 35q19 0 49 -8l-21 -89q-12 4 -25 4q-21 0 -35 -14q-15 -14 -25 -39z" />
    <glyph glyph-name="afii10050" unicode="&#x490;" horiz-adv-x="492" 
d="M175 429v-429h-106v530h306v108h102v-209h-302z" />
    <glyph glyph-name="afii10098" unicode="&#x491;" horiz-adv-x="430" 
d="M162 320v-320h-103v420h279v99h90v-199h-266z" />
    <glyph glyph-name="uni04A2" unicode="&#x4a2;" horiz-adv-x="595" 
d="M416 0v238h-241v-238h-106v530h106v-192h241v192h105v-431h61v-219h-92v120h-74z" />
    <glyph glyph-name="uni04A3" unicode="&#x4a3;" horiz-adv-x="557" 
d="M468 0h-86v175h-219v-175h-104v420h104v-145h219v145h103v-320h69v-204h-86v104z" />
    <glyph glyph-name="uni04AE" unicode="&#x4ae;" horiz-adv-x="396" 
d="M250 247v-247h-105v247l-238 283h136l155 -190l153 190h138z" />
    <glyph glyph-name="uni04AF" unicode="&#x4af;" horiz-adv-x="417" 
d="M259 203v-203h-102v202l-200 218h137l114 -129l113 129h140z" />
    <glyph glyph-name="uni04BA" unicode="&#x4ba;" horiz-adv-x="559" 
d="M70 530h105v-212h136q119 0 168 -51q37 -38 37 -110v-157h-105v113q0 59 -24 81q-22 22 -87 22h-125v-216h-105v530z" />
    <glyph glyph-name="uni04BB" unicode="&#x4bb;" horiz-adv-x="502" 
d="M162 420v-153h110q35 0 57.5 -1.5t54.5 -12t52 -30.5q33 -35 33 -103v-120h-103v95q0 49 -25 67q-19 14 -83 14h-96v-176h-103v420h103z" />
    <glyph glyph-name="uni04D0" unicode="&#x4d0;" horiz-adv-x="548" 
d="M272 374l-70 -142h141zM458 0l-65 131h-241l-63 -131h-116l260 530h79l262 -530h-116zM353 696h81q-8 -80 -49 -110q-34 -25 -108 -25t-108 25q-41 30 -49 110h81q2 -35 23 -48q17 -10 53 -10q37 0 54 11q17 12 22 47z" />
    <glyph glyph-name="uni04D1" unicode="&#x4d1;" horiz-adv-x="439" 
d="M219 270l-45 -94h90zM353 0l-46 91h-176l-46 -91h-113l215 420h64l216 -420h-114zM289 592h73q0 -63 -36 -98q-34 -34 -112 -34t-112 34q-36 35 -36 98h73q2 -27 18 -43q15 -13 57 -13t57 13q16 16 18 43z" />
    <glyph glyph-name="uni04D2" unicode="&#x4d2;" horiz-adv-x="548" 
d="M272 374l-70 -142h141zM458 0l-65 131h-241l-63 -131h-116l260 530h79l262 -530h-116zM193 581q-25 0 -43.5 18t-18.5 45q0 26 18 44t44 18t44 -18.5t18 -43.5q0 -26 -18 -44.5t-44 -18.5zM361 581q-26 0 -43.5 18.5t-17.5 44.5q0 25 17.5 43.5t43.5 18.5t44 -18t18 -44
q0 -27 -18.5 -45t-43.5 -18z" />
    <glyph glyph-name="uni04D3" unicode="&#x4d3;" horiz-adv-x="439" 
d="M219 270l-45 -94h90zM353 0l-46 91h-176l-46 -91h-113l215 420h64l216 -420h-114zM127 464q-25 0 -43.5 18t-18.5 45q0 26 18 44t44 18t44 -18.5t18 -43.5q0 -26 -18 -44.5t-44 -18.5zM295 464q-26 0 -43.5 18.5t-17.5 44.5q0 25 17.5 43.5t43.5 18.5t44 -18t18 -44
q0 -27 -18.5 -45t-43.5 -18z" />
    <glyph glyph-name="uni04D4" unicode="&#x4d4;" horiz-adv-x="789" 
d="M356 429h-47l-114 -197h161v197zM356 0v131h-220l-76 -131h-115l308 530h530v-101h-322v-97h196v-101h-196v-130h342v-101h-447z" />
    <glyph glyph-name="uni04D5" unicode="&#x4d5;" horiz-adv-x="750" 
d="M327 320h-64l-75 -130h139v130zM740 0h-413v95h-196l-54 -95h-115l242 420h520v-94h-294v-63h193v-90h-193v-78h310v-95z" />
    <glyph glyph-name="uni04D6" unicode="&#x4d6;" horiz-adv-x="547" 
d="M69 0v530h426v-101h-321v-97h195v-101h-195v-130h341v-101h-446zM360 696h81q-8 -80 -49 -110q-34 -25 -108 -25t-108 25q-41 30 -49 110h81q2 -35 23 -48q17 -10 53 -10q37 0 54 11q17 12 22 47z" />
    <glyph glyph-name="uni04D7" unicode="&#x4d7;" horiz-adv-x="482" 
d="M59 0v420h397v-94h-294v-63h193v-90h-193v-78h310v-95h-413zM333 592h73q0 -63 -36 -98q-34 -34 -112 -34t-112 34q-36 35 -36 98h73q2 -27 18 -43q15 -13 57 -13t57 13q16 16 18 43z" />
    <glyph glyph-name="uni04DC" unicode="&#x4dc;" horiz-adv-x="763" 
d="M333 192l-52 53l-145 -245h-130l200 318l-186 213h128l185 -217v217h103v-217l185 217h128l-186 -213l200 -318h-130l-145 245l-52 -56v-189h-103v192zM300 581q-25 0 -43.5 18t-18.5 45q0 26 18 44t44 18t44 -18.5t18 -43.5q0 -26 -18 -44.5t-44 -18.5zM468 581
q-26 0 -43.5 18.5t-17.5 44.5q0 25 17.5 43.5t43.5 18.5t44 -18t18 -44q0 -27 -18.5 -45t-43.5 -18z" />
    <glyph glyph-name="uni04DD" unicode="&#x4dd;" horiz-adv-x="634" 
d="M370 263l146 156h122l-158 -166l164 -253h-118l-116 188l-40 -38v-150h-99v150l-41 38l-116 -188h-118l164 253l-158 166h122l147 -155v155h99v-156zM236 464q-25 0 -43.5 18t-18.5 45q0 26 18 44t44 18t44 -18.5t18 -43.5q0 -26 -18 -44.5t-44 -18.5zM404 464
q-26 0 -43.5 18.5t-17.5 44.5q0 25 17.5 43.5t43.5 18.5t44 -18t18 -44q0 -27 -18.5 -45t-43.5 -18z" />
    <glyph glyph-name="uni04DE" unicode="&#x4de;" horiz-adv-x="582" 
d="M23 78l61 89q43 -38 99 -58q57 -21 119 -21q59 0 92 18q40 21 40 63q0 28 -29 45q-30 16 -116 16h-66v103h81q61 0 80 9q29 12 29 38q0 10 -3.5 18t-13 14.5t-11 7t-11.5 5.5q-32 13 -83 13q-57 0 -105 -17q-44 -16 -84 -46l-62 83q51 37 114 60q66 23 146 23
q99 0 160 -38q67 -47 67 -121q0 -72 -56 -94q31 -15 50 -41q22 -29 22 -73q0 -87 -58 -134q-64 -53 -184 -53q-91 0 -167 27q-61 23 -111 64zM211 581q-25 0 -43.5 18t-18.5 45q0 26 18 44t44 18t44 -18.5t18 -43.5q0 -26 -18 -44.5t-44 -18.5zM379 581q-26 0 -43.5 18.5
t-17.5 44.5q0 25 17.5 43.5t43.5 18.5t44 -18t18 -44q0 -27 -18.5 -45t-43.5 -18z" />
    <glyph glyph-name="uni04DF" unicode="&#x4df;" horiz-adv-x="507" 
d="M26 61l54 85q34 -26 84 -44q48 -15 93 -15t71 11q29 13 29 38q0 21 -27 31q-18 6 -64 6h-81v85h84q40 0 48 5q20 9 20 25q0 24 -30 35q-23 9 -63 9q-47 0 -86 -14t-72 -37l-47 82q40 27 94 48q56 19 120 19q91 0 141 -34q52 -35 52 -96q0 -53 -40 -74q27 -12 43 -35
q16 -25 16 -57q0 -66 -52 -106q-54 -40 -149 -40q-75 0 -137 21q-51 17 -101 52zM167 464q-25 0 -43.5 18t-18.5 45q0 26 18 44t44 18t44 -18.5t18 -43.5q0 -26 -18 -44.5t-44 -18.5zM335 464q-26 0 -43.5 18.5t-17.5 44.5q0 25 17.5 43.5t43.5 18.5t44 -18t18 -44
q0 -27 -18.5 -45t-43.5 -18z" />
    <glyph glyph-name="uni04E2" unicode="&#x4e2;" horiz-adv-x="586" 
d="M414 344l-270 -344h-72v530h105v-344l269 344h73v-530h-105v344zM161 595v87h270v-87h-270z" />
    <glyph glyph-name="uni04E3" unicode="&#x4e3;" horiz-adv-x="506" 
d="M135 0h-72v420h100v-249l214 249h72v-420h-100v249zM121 478v87h270v-87h-270z" />
    <glyph glyph-name="uni04E4" unicode="&#x4e4;" horiz-adv-x="586" 
d="M414 344l-270 -344h-72v530h105v-344l269 344h73v-530h-105v344zM212 581q-25 0 -43.5 18t-18.5 45q0 26 18 44t44 18t44 -18.5t18 -43.5q0 -26 -18 -44.5t-44 -18.5zM380 581q-26 0 -43.5 18.5t-17.5 44.5q0 25 17.5 43.5t43.5 18.5t44 -18t18 -44q0 -27 -18.5 -45
t-43.5 -18z" />
    <glyph glyph-name="uni04E5" unicode="&#x4e5;" horiz-adv-x="506" 
d="M135 0h-72v420h100v-249l214 249h72v-420h-100v249zM173 464q-25 0 -43.5 18t-18.5 45q0 26 18 44t44 18t44 -18.5t18 -43.5q0 -26 -18 -44.5t-44 -18.5zM341 464q-26 0 -43.5 18.5t-17.5 44.5q0 25 17.5 43.5t43.5 18.5t44 -18t18 -44q0 -27 -18.5 -45t-43.5 -18z" />
    <glyph glyph-name="uni04E6" unicode="&#x4e6;" horiz-adv-x="609" 
d="M304 439q-71 0 -118.5 -49t-47.5 -126t47.5 -126t118.5 -49q72 0 119.5 49t47.5 126t-47.5 126t-119.5 49zM304 -13q-118 0 -196 78.5t-78 198.5t78 198.5t196 78.5t196.5 -78.5t78.5 -198.5t-78.5 -198.5t-196.5 -78.5zM218 581q-25 0 -43.5 18t-18.5 45q0 26 18 44
t44 18t44 -18.5t18 -43.5q0 -26 -18 -44.5t-44 -18.5zM386 581q-26 0 -43.5 18.5t-17.5 44.5q0 25 17.5 43.5t43.5 18.5t44 -18t18 -44q0 -27 -18.5 -45t-43.5 -18z" />
    <glyph glyph-name="uni04E7" unicode="&#x4e7;" horiz-adv-x="551" 
d="M275 336q-67 0 -107 -36.5t-40 -88.5q0 -54 40 -90.5t107 -36.5q69 0 108.5 37t39.5 90q0 52 -40.5 88.5t-107.5 36.5zM275 -12q-110 0 -181 63.5t-71 158.5q0 96 70.5 158t181.5 62t182 -62t71 -158t-71 -159t-182 -63zM194 464q-25 0 -43.5 18t-18.5 45q0 26 18 44
t44 18t44 -18.5t18 -43.5q0 -26 -18 -44.5t-44 -18.5zM362 464q-26 0 -43.5 18.5t-17.5 44.5q0 25 17.5 43.5t43.5 18.5t44 -18t18 -44q0 -27 -18.5 -45t-43.5 -18z" />
    <glyph glyph-name="uni04E8" unicode="&#x4e8;" horiz-adv-x="599" 
d="M139 315h320q-12 50 -46 82q-47 42 -112 42q-69 0 -116 -44q-30 -27 -46 -80zM459 218h-321q8 -49 47 -85q47 -44 117 -44q65 0 112 45q35 35 45 84zM299 541q118 0 196 -78q79 -79 79 -199q0 -119 -79 -198t-196 -79t-196 79q-78 78 -78 198t79 199q78 78 195 78z" />
    <glyph glyph-name="uni04E9" unicode="&#x4e9;" horiz-adv-x="551" 
d="M139 257h272q-15 38 -46 60q-34 25 -89 25q-54 0 -92 -27q-27 -18 -45 -58zM415 176h-279q9 -44 39 -66q37 -30 99 -30q59 0 98 30q33 27 43 66zM277 430q119 0 192 -73q59 -62 59 -146q0 -85 -58 -147q-72 -76 -195 -76q-119 0 -191 72q-61 61 -61 150q0 90 64 152
q70 68 190 68z" />
    <glyph glyph-name="uni04EA" unicode="&#x4ea;" horiz-adv-x="599" 
d="M142 315h320q-12 50 -46 82q-47 42 -112 42q-69 0 -116 -44q-30 -27 -46 -80zM462 218h-321q8 -49 47 -85q47 -44 117 -44q65 0 112 45q35 35 45 84zM302 541q118 0 196 -78q79 -79 79 -199q0 -119 -79 -198t-196 -79t-196 79q-78 78 -78 198t79 199q78 78 195 78z
M218 581q-25 0 -43.5 18t-18.5 45q0 26 18 44t44 18t44 -18.5t18 -43.5q0 -26 -18 -44.5t-44 -18.5zM386 581q-26 0 -43.5 18.5t-17.5 44.5q0 25 17.5 43.5t43.5 18.5t44 -18t18 -44q0 -27 -18.5 -45t-43.5 -18z" />
    <glyph glyph-name="uni04EB" unicode="&#x4eb;" horiz-adv-x="551" 
d="M142 257h272q-15 38 -46 60q-34 25 -89 25t-92 -27q-27 -18 -45 -58zM418 176h-279q9 -44 39 -66q38 -30 99 -30q59 0 98 30q33 27 43 66zM280 430q119 0 192 -73q59 -62 59 -146q0 -85 -58 -147q-72 -76 -195 -76q-119 0 -191 72q-61 61 -61 150q0 90 64 152
q70 68 190 68zM194 464q-25 0 -43.5 18t-18.5 45q0 26 18 44t44 18t44 -18.5t18 -43.5q0 -26 -18 -44.5t-44 -18.5zM362 464q-26 0 -43.5 18.5t-17.5 44.5q0 25 17.5 43.5t43.5 18.5t44 -18t18 -44q0 -27 -18.5 -45t-43.5 -18z" />
    <glyph glyph-name="uni04EE" unicode="&#x4ee;" horiz-adv-x="531" 
d="M241 0h-117l89 163l-217 371h127l152 -259l147 259h119zM133 595v87h270v-87h-270z" />
    <glyph glyph-name="uni04EF" unicode="&#x4ef;" horiz-adv-x="453" 
d="M126 420l108 -181l106 181h123l-256 -420h-118l81 137l-174 283h130zM96 478v87h270v-87h-270z" />
    <glyph glyph-name="uni04F0" unicode="&#x4f0;" horiz-adv-x="531" 
d="M241 0h-117l89 163l-217 371h127l152 -259l147 259h119zM186 581q-25 0 -43.5 18t-18.5 45q0 26 18 44t44 18t44 -18.5t18 -43.5q0 -26 -18 -44.5t-44 -18.5zM354 581q-26 0 -43.5 18.5t-17.5 44.5q0 25 17.5 43.5t43.5 18.5t44 -18t18 -44q0 -27 -18.5 -45t-43.5 -18z
" />
    <glyph glyph-name="uni04F1" unicode="&#x4f1;" horiz-adv-x="453" 
d="M126 420l108 -181l106 181h123l-256 -420h-118l81 137l-174 283h130zM147 464q-25 0 -43.5 18t-18.5 45q0 26 18 44t44 18t44 -18.5t18 -43.5q0 -26 -18 -44.5t-44 -18.5zM315 464q-26 0 -43.5 18.5t-17.5 44.5q0 25 17.5 43.5t43.5 18.5t44 -18t18 -44q0 -27 -18.5 -45
t-43.5 -18z" />
    <glyph glyph-name="uni04F2" unicode="&#x4f2;" horiz-adv-x="531" 
d="M241 0h-117l89 163l-217 371h127l152 -259l147 259h119zM215 578h-74l68 172h113zM379 578h-76l77 172h114z" />
    <glyph glyph-name="uni04F3" unicode="&#x4f3;" horiz-adv-x="453" 
d="M126 420l108 -181l106 181h123l-256 -420h-118l81 137l-174 283h130zM162 461h-74l68 172h113zM326 461h-76l77 172h114z" />
    <glyph glyph-name="uni04F4" unicode="&#x4f4;" horiz-adv-x="559" 
d="M492 0h-105v216h-136q-117 0 -166 51q-39 42 -39 125v138h105v-112q0 -57 25 -81q26 -23 94 -23h117v216h105v-530zM191 581q-25 0 -43.5 18t-18.5 45q0 26 18 44t44 18t44 -18.5t18 -43.5q0 -26 -18 -44.5t-44 -18.5zM359 581q-26 0 -43.5 18.5t-17.5 44.5
q0 25 17.5 43.5t43.5 18.5t44 -18t18 -44q0 -27 -18.5 -45t-43.5 -18z" />
    <glyph glyph-name="uni04F5" unicode="&#x4f5;" horiz-adv-x="502" 
d="M343 0v155h-103q-39 0 -63 1.5t-55.5 12t-50.5 30.5q-35 36 -35 104v117h103v-88q0 -49 26 -67q24 -15 82 -15h96v170h103v-420h-103zM162 464q-25 0 -43.5 18t-18.5 45q0 26 18 44t44 18t44 -18.5t18 -43.5q0 -26 -18 -44.5t-44 -18.5zM330 464q-26 0 -43.5 18.5
t-17.5 44.5q0 25 17.5 43.5t43.5 18.5t44 -18t18 -44q0 -27 -18.5 -45t-43.5 -18z" />
    <glyph glyph-name="uni04F8" unicode="&#x4f8;" horiz-adv-x="762" 
d="M177 99h180q39 0 56 14q22 18 22 54q0 34 -19 52q-18 17 -59 17h-180v-137zM177 337h139q68 0 111.5 -12t73.5 -46q38 -46 38 -106q0 -83 -49 -128q-46 -45 -137 -45h-281v530h105v-193zM590 0v530h106v-530h-106zM291 581q-25 0 -43.5 18t-18.5 45q0 26 18 44t44 18
t44 -18.5t18 -43.5q0 -26 -18 -44.5t-44 -18.5zM459 581q-26 0 -43.5 18.5t-17.5 44.5q0 25 17.5 43.5t43.5 18.5t44 -18t18 -44q0 -27 -18.5 -45t-43.5 -18z" />
    <glyph glyph-name="uni04F9" unicode="&#x4f9;" horiz-adv-x="683" 
d="M168 177v-82h154q25 0 36 12q10 10 10 31q0 22 -13 31q-11 8 -35 8h-152zM168 272h164q71 0 107 -36q35 -34 35 -98q0 -62 -37 -98q-41 -40 -117 -40h-256v420h104v-148zM521 -1v422h104v-422h-104zM260 464q-25 0 -43.5 18t-18.5 45q0 26 18 44t44 18t44 -18.5t18 -43.5
q0 -26 -18 -44.5t-44 -18.5zM428 464q-26 0 -43.5 18.5t-17.5 44.5q0 25 17.5 43.5t43.5 18.5t44 -18t18 -44q0 -27 -18.5 -45t-43.5 -18z" />
    <glyph glyph-name="uni1E9E" unicode="&#x1e9e;" horiz-adv-x="1102" 
d="M1046 461l-56 -87q-47 31 -93 47q-52 18 -109 18q-49 0 -73 -13q-32 -15 -32 -42q0 -24 30 -35q21 -7 86 -13l71 -6q97 -9 145 -51q51 -42 51 -109q0 -79 -63 -131q-64 -52 -180 -52q-85 0 -157 25q-70 26 -117 67l64 89q45 -37 98 -59q52 -21 118 -21q58 0 90 19
q38 21 38 58q0 35 -42 53q-15 6 -77 14l-78 6q-108 8 -153 54q-32 32 -32 83q0 71 56 119q57 47 163 47q79 0 146 -25q61 -20 106 -55zM506 461l-56 -87q-47 31 -93 47q-52 18 -109 18q-49 0 -73 -13q-32 -15 -32 -42q0 -24 30 -35q21 -7 86 -13l71 -6q97 -9 145 -51
q51 -42 51 -109q0 -79 -63 -131q-64 -52 -180 -52q-85 0 -157 25q-70 26 -117 67l64 89q45 -37 98 -59q52 -21 118 -21q58 0 90 19q38 21 38 58q0 35 -42 53q-15 6 -77 14l-78 6q-108 8 -153 54q-32 32 -32 83q0 71 56 119q57 47 163 47q79 0 146 -25q61 -20 106 -55z" />
    <glyph glyph-name="uni2010" unicode="&#x2010;" horiz-adv-x="257" 
d="M11 215v98h235v-98h-235z" />
    <glyph glyph-name="uni2011" unicode="&#x2011;" horiz-adv-x="257" 
d="M11 215v98h235v-98h-235z" />
    <glyph glyph-name="figuredash" unicode="&#x2012;" horiz-adv-x="471" 
d="M-12 229v82h495v-82h-495z" />
    <glyph glyph-name="endash" unicode="&#x2013;" horiz-adv-x="471" 
d="M-12 223v82h495v-82h-495z" />
    <glyph glyph-name="emdash" unicode="&#x2014;" horiz-adv-x="921" 
d="M-12 223v82h945v-82h-945z" />
    <glyph glyph-name="afii00208" unicode="&#x2015;" horiz-adv-x="921" 
d="M-12 223v82h945v-82h-945z" />
    <glyph glyph-name="quoteleft" unicode="&#x2018;" horiz-adv-x="333" 
d="M200 552l29 -29q-34 -42 -44 -80q26 -3 38 -20q10 -13 10 -36q0 -26 -16 -46q-19 -20 -44 -20q-27 0 -45 20q-19 23 -19 55q0 53 31 95q23 35 60 61z" />
    <glyph glyph-name="quoteright" unicode="&#x2019;" horiz-adv-x="333" 
d="M134 311l-29 28q31 42 44 80q-20 1 -34 15t-14 41t15 46q16 20 44 20q26 0 43 -17q22 -21 22 -61q0 -48 -31 -91q-16 -25 -60 -61z" />
    <glyph glyph-name="quotesinglbase" unicode="&#x201a;" horiz-adv-x="333" 
d="M134 -103l-29 29q31 42 44 80q-23 1 -38 20q-10 13 -10 36q0 27 16 46q19 20 44 20q28 0 46 -20t18 -54q0 -51 -31 -95q-25 -33 -60 -62z" />
    <glyph glyph-name="quotedblleft" unicode="&#x201c;" horiz-adv-x="487" 
d="M200 552l29 -29q-30 -37 -43 -80q26 -3 38 -20q10 -13 10 -36q0 -26 -17 -46q-18 -20 -42 -20q-29 0 -49 22q-17 21 -17 56q0 46 32 91q22 32 59 62zM353 552l29 -29q-30 -37 -43 -80q26 -3 38 -20q10 -13 10 -36q0 -26 -17 -46q-18 -20 -42 -20q-29 0 -49 22
q-17 21 -17 56q0 46 32 91q22 32 59 62z" />
    <glyph glyph-name="quotedblright" unicode="&#x201d;" horiz-adv-x="487" 
d="M288 311l-29 29q30 37 43 80q-26 3 -38 20q-10 13 -10 36q0 26 17 46q18 20 42 20q29 0 49 -22q17 -21 17 -56q0 -46 -32 -91q-22 -32 -59 -62zM135 311l-29 29q30 37 43 80q-26 3 -38 20q-10 13 -10 36q0 26 17 46q18 20 42 20q29 0 49 -22q17 -21 17 -56q0 -46 -32 -91
q-22 -32 -59 -62z" />
    <glyph glyph-name="quotedblbase" unicode="&#x201e;" horiz-adv-x="487" 
d="M288 -103l-29 29q30 37 43 80q-26 3 -38 20q-10 13 -10 36q0 26 17 46q18 20 42 20q29 0 49 -22q17 -21 17 -56q0 -46 -32 -91q-22 -32 -59 -62zM135 -103l-29 29q30 37 43 80q-26 3 -38 20q-10 13 -10 36q0 26 17 46q18 20 42 20q29 0 49 -22q17 -21 17 -56
q0 -46 -32 -91q-22 -32 -59 -62z" />
    <glyph glyph-name="dagger" unicode="&#x2020;" horiz-adv-x="488" 
d="M295 297v-365h-101v365h-124v96h124v137h101v-137h124v-96h-124z" />
    <glyph glyph-name="daggerdbl" unicode="&#x2021;" horiz-adv-x="488" 
d="M295 68v-136h-102v136h-124v98h124v131h-124v97h124v136h102v-136h124v-97h-124v-131h124v-98h-124z" />
    <glyph glyph-name="bullet" unicode="&#x2022;" horiz-adv-x="582" 
d="M290 204q-63 0 -107.5 45t-44.5 108t44.5 107.5t108.5 44.5q63 0 107.5 -44.5t44.5 -107.5t-44.5 -108t-108.5 -45z" />
    <glyph glyph-name="ellipsis" unicode="&#x2026;" horiz-adv-x="946" 
d="M173 -13q-24 0 -41.5 18t-17.5 45t17 45t42 18q26 0 42.5 -18t16.5 -45t-16.5 -45t-42.5 -18zM473 -13q-24 0 -41.5 18t-17.5 45t17 45t42 18q26 0 42.5 -18t16.5 -45t-17 -45t-42 -18zM774 -13q-25 0 -42.5 18t-17.5 45t17 45t43 18t42 -18t16 -45t-16.5 -45t-41.5 -18z
" />
    <glyph glyph-name="perthousand" unicode="&#x2030;" horiz-adv-x="1156" 
d="M173 194q-69 0 -114.5 46t-45.5 116t45.5 116t114.5 46q70 0 115.5 -46t45.5 -116t-46 -116t-115 -46zM173 428q-27 0 -45.5 -19.5t-18.5 -53.5q0 -32 18 -51.5t46 -19.5t46.5 19.5t18.5 51.5t-19 52.5t-46 20.5zM982 221q-27 0 -45.5 -19.5t-18.5 -52.5q0 -32 18 -52
t46 -20t46.5 20t18.5 52t-18.5 52t-46.5 20zM314 0h-100l271 507h100zM982 -13q-69 0 -114.5 46t-45.5 116t45.5 116t114.5 46q70 0 115.5 -46t45.5 -116t-46 -116t-115 -46zM627 221q-27 0 -45.5 -19.5t-18.5 -52.5q0 -32 18 -52t46 -20t46 20t18 52t-18.5 52t-45.5 20z
M627 -13q-69 0 -115 46.5t-46 115.5q0 70 46 116t115 46t115 -46t46 -116q0 -69 -46 -115.5t-115 -46.5z" />
    <glyph glyph-name="guilsinglleft" unicode="&#x2039;" horiz-adv-x="186" 
d="M163 132v-103l-152 126v109l152 127v-106l-98 -75z" />
    <glyph glyph-name="guilsinglright" unicode="&#x203a;" horiz-adv-x="186" 
d="M23 29v103l98 78l-98 75v106l152 -127v-109z" />
    <glyph glyph-name="fraction" unicode="&#x2044;" horiz-adv-x="123" 
d="M-96 -13h-110l425 530h109z" />
    <glyph glyph-name="Euro" unicode="&#x20ac;" 
d="M525 185l78 -64q-36 -60 -88 -94q-62 -40 -147 -40q-115 0 -182 58q-59 50 -75 131h-87l40 67h35v26h-75l40 68h44q17 76 68 127q72 77 196 77q69 0 132 -28q44 -20 84 -63l-69 -86q-27 36 -60 54q-38 21 -86 21q-65 0 -103 -28q-38 -29 -51 -74h260l-39 -68h-230v-26
h214l-40 -67h-158q11 -37 52 -64q38 -23 90 -23q67 0 106 33q26 23 51 63z" />
    <glyph glyph-name="uni20B6" unicode="&#x20b6;" 
d="M40 203v102h65v225h301q86 0 132 -46q43 -41 43 -115q0 -72 -44 -120q-44 -46 -122 -46h-204v-50h204v-88h-204v-65h-106v65h-65v88h65v50h-65zM211 305h186q38 0 56 15q20 20 20 50q0 27 -18 45q-16 14 -53 14h-191v-124z" />
    <glyph glyph-name="uni20B6" unicode="&#x20cf;" 
d="M40 203v102h65v225h301q86 0 132 -46q43 -41 43 -115q0 -72 -44 -120q-44 -46 -122 -46h-204v-50h204v-88h-204v-65h-106v65h-65v88h65v50h-65zM211 305h186q38 0 56 15q20 20 20 50q0 27 -18 45q-16 14 -53 14h-191v-124z" />
    <glyph glyph-name="uni20B6" unicode="&#x20ce;" 
d="M40 203v102h65v225h301q86 0 132 -46q43 -41 43 -115q0 -72 -44 -120q-44 -46 -122 -46h-204v-50h204v-88h-204v-65h-106v65h-65v88h65v50h-65zM211 305h186q38 0 56 15q20 20 20 50q0 27 -18 45q-16 14 -53 14h-191v-124z" />
    <glyph glyph-name="uni20B6" unicode="&#x20cd;" 
d="M40 203v102h65v225h301q86 0 132 -46q43 -41 43 -115q0 -72 -44 -120q-44 -46 -122 -46h-204v-50h204v-88h-204v-65h-106v65h-65v88h65v50h-65zM211 305h186q38 0 56 15q20 20 20 50q0 27 -18 45q-16 14 -53 14h-191v-124z" />
    <glyph glyph-name="uni20B6" unicode="&#x20cc;" 
d="M40 203v102h65v225h301q86 0 132 -46q43 -41 43 -115q0 -72 -44 -120q-44 -46 -122 -46h-204v-50h204v-88h-204v-65h-106v65h-65v88h65v50h-65zM211 305h186q38 0 56 15q20 20 20 50q0 27 -18 45q-16 14 -53 14h-191v-124z" />
    <glyph glyph-name="uni20B6" unicode="&#x20cb;" 
d="M40 203v102h65v225h301q86 0 132 -46q43 -41 43 -115q0 -72 -44 -120q-44 -46 -122 -46h-204v-50h204v-88h-204v-65h-106v65h-65v88h65v50h-65zM211 305h186q38 0 56 15q20 20 20 50q0 27 -18 45q-16 14 -53 14h-191v-124z" />
    <glyph glyph-name="uni20B6" unicode="&#x20ca;" 
d="M40 203v102h65v225h301q86 0 132 -46q43 -41 43 -115q0 -72 -44 -120q-44 -46 -122 -46h-204v-50h204v-88h-204v-65h-106v65h-65v88h65v50h-65zM211 305h186q38 0 56 15q20 20 20 50q0 27 -18 45q-16 14 -53 14h-191v-124z" />
    <glyph glyph-name="uni20B6" unicode="&#x20c9;" 
d="M40 203v102h65v225h301q86 0 132 -46q43 -41 43 -115q0 -72 -44 -120q-44 -46 -122 -46h-204v-50h204v-88h-204v-65h-106v65h-65v88h65v50h-65zM211 305h186q38 0 56 15q20 20 20 50q0 27 -18 45q-16 14 -53 14h-191v-124z" />
    <glyph glyph-name="uni20B6" unicode="&#x20c8;" 
d="M40 203v102h65v225h301q86 0 132 -46q43 -41 43 -115q0 -72 -44 -120q-44 -46 -122 -46h-204v-50h204v-88h-204v-65h-106v65h-65v88h65v50h-65zM211 305h186q38 0 56 15q20 20 20 50q0 27 -18 45q-16 14 -53 14h-191v-124z" />
    <glyph glyph-name="uni20B6" unicode="&#x20c7;" 
d="M40 203v102h65v225h301q86 0 132 -46q43 -41 43 -115q0 -72 -44 -120q-44 -46 -122 -46h-204v-50h204v-88h-204v-65h-106v65h-65v88h65v50h-65zM211 305h186q38 0 56 15q20 20 20 50q0 27 -18 45q-16 14 -53 14h-191v-124z" />
    <glyph glyph-name="uni20B6" unicode="&#x20c6;" 
d="M40 203v102h65v225h301q86 0 132 -46q43 -41 43 -115q0 -72 -44 -120q-44 -46 -122 -46h-204v-50h204v-88h-204v-65h-106v65h-65v88h65v50h-65zM211 305h186q38 0 56 15q20 20 20 50q0 27 -18 45q-16 14 -53 14h-191v-124z" />
    <glyph glyph-name="uni20B6" unicode="&#x20c5;" 
d="M40 203v102h65v225h301q86 0 132 -46q43 -41 43 -115q0 -72 -44 -120q-44 -46 -122 -46h-204v-50h204v-88h-204v-65h-106v65h-65v88h65v50h-65zM211 305h186q38 0 56 15q20 20 20 50q0 27 -18 45q-16 14 -53 14h-191v-124z" />
    <glyph glyph-name="uni20B6" unicode="&#x20c4;" 
d="M40 203v102h65v225h301q86 0 132 -46q43 -41 43 -115q0 -72 -44 -120q-44 -46 -122 -46h-204v-50h204v-88h-204v-65h-106v65h-65v88h65v50h-65zM211 305h186q38 0 56 15q20 20 20 50q0 27 -18 45q-16 14 -53 14h-191v-124z" />
    <glyph glyph-name="uni20B6" unicode="&#x20c3;" 
d="M40 203v102h65v225h301q86 0 132 -46q43 -41 43 -115q0 -72 -44 -120q-44 -46 -122 -46h-204v-50h204v-88h-204v-65h-106v65h-65v88h65v50h-65zM211 305h186q38 0 56 15q20 20 20 50q0 27 -18 45q-16 14 -53 14h-191v-124z" />
    <glyph glyph-name="uni20B6" unicode="&#x20c2;" 
d="M40 203v102h65v225h301q86 0 132 -46q43 -41 43 -115q0 -72 -44 -120q-44 -46 -122 -46h-204v-50h204v-88h-204v-65h-106v65h-65v88h65v50h-65zM211 305h186q38 0 56 15q20 20 20 50q0 27 -18 45q-16 14 -53 14h-191v-124z" />
    <glyph glyph-name="uni20B6" unicode="&#x20c1;" 
d="M40 203v102h65v225h301q86 0 132 -46q43 -41 43 -115q0 -72 -44 -120q-44 -46 -122 -46h-204v-50h204v-88h-204v-65h-106v65h-65v88h65v50h-65zM211 305h186q38 0 56 15q20 20 20 50q0 27 -18 45q-16 14 -53 14h-191v-124z" />
    <glyph glyph-name="uni20B6" unicode="&#x20c0;" 
d="M40 203v102h65v225h301q86 0 132 -46q43 -41 43 -115q0 -72 -44 -120q-44 -46 -122 -46h-204v-50h204v-88h-204v-65h-106v65h-65v88h65v50h-65zM211 305h186q38 0 56 15q20 20 20 50q0 27 -18 45q-16 14 -53 14h-191v-124z" />
    <glyph glyph-name="uni20B6" unicode="&#x20bf;" 
d="M40 203v102h65v225h301q86 0 132 -46q43 -41 43 -115q0 -72 -44 -120q-44 -46 -122 -46h-204v-50h204v-88h-204v-65h-106v65h-65v88h65v50h-65zM211 305h186q38 0 56 15q20 20 20 50q0 27 -18 45q-16 14 -53 14h-191v-124z" />
    <glyph glyph-name="uni20B6" unicode="&#x20be;" 
d="M40 203v102h65v225h301q86 0 132 -46q43 -41 43 -115q0 -72 -44 -120q-44 -46 -122 -46h-204v-50h204v-88h-204v-65h-106v65h-65v88h65v50h-65zM211 305h186q38 0 56 15q20 20 20 50q0 27 -18 45q-16 14 -53 14h-191v-124z" />
    <glyph glyph-name="uni20B6" unicode="&#x20bd;" 
d="M40 203v102h65v225h301q86 0 132 -46q43 -41 43 -115q0 -72 -44 -120q-44 -46 -122 -46h-204v-50h204v-88h-204v-65h-106v65h-65v88h65v50h-65zM211 305h186q38 0 56 15q20 20 20 50q0 27 -18 45q-16 14 -53 14h-191v-124z" />
    <glyph glyph-name="uni20B6" unicode="&#x20bc;" 
d="M40 203v102h65v225h301q86 0 132 -46q43 -41 43 -115q0 -72 -44 -120q-44 -46 -122 -46h-204v-50h204v-88h-204v-65h-106v65h-65v88h65v50h-65zM211 305h186q38 0 56 15q20 20 20 50q0 27 -18 45q-16 14 -53 14h-191v-124z" />
    <glyph glyph-name="uni20B6" unicode="&#x20bb;" 
d="M40 203v102h65v225h301q86 0 132 -46q43 -41 43 -115q0 -72 -44 -120q-44 -46 -122 -46h-204v-50h204v-88h-204v-65h-106v65h-65v88h65v50h-65zM211 305h186q38 0 56 15q20 20 20 50q0 27 -18 45q-16 14 -53 14h-191v-124z" />
    <glyph glyph-name="uni20B6" unicode="&#x20ba;" 
d="M40 203v102h65v225h301q86 0 132 -46q43 -41 43 -115q0 -72 -44 -120q-44 -46 -122 -46h-204v-50h204v-88h-204v-65h-106v65h-65v88h65v50h-65zM211 305h186q38 0 56 15q20 20 20 50q0 27 -18 45q-16 14 -53 14h-191v-124z" />
    <glyph glyph-name="uni20B6" unicode="&#x20b9;" 
d="M40 203v102h65v225h301q86 0 132 -46q43 -41 43 -115q0 -72 -44 -120q-44 -46 -122 -46h-204v-50h204v-88h-204v-65h-106v65h-65v88h65v50h-65zM211 305h186q38 0 56 15q20 20 20 50q0 27 -18 45q-16 14 -53 14h-191v-124z" />
    <glyph glyph-name="uni20B6" unicode="&#x20b7;" 
d="M40 203v102h65v225h301q86 0 132 -46q43 -41 43 -115q0 -72 -44 -120q-44 -46 -122 -46h-204v-50h204v-88h-204v-65h-106v65h-65v88h65v50h-65zM211 305h186q38 0 56 15q20 20 20 50q0 27 -18 45q-16 14 -53 14h-191v-124z" />
    <glyph glyph-name="afii61352" unicode="&#x2116;" horiz-adv-x="870" 
d="M587 152v77h235v-77h-235zM705 469q-27 0 -46 -19.5t-19 -46.5q0 -28 18.5 -46.5t46.5 -18.5t46.5 19t18.5 46q0 28 -19 47t-46 19zM704 266q-57 0 -96.5 39.5t-39.5 97.5t40 98t97 40t97 -40.5t40 -97.5t-40 -97t-98 -40zM458 0l-284 325v-325h-105v530h64l282 -325v325
h106v-530h-63z" />
    <glyph glyph-name="uni2117" unicode="&#x2117;" horiz-adv-x="646" 
d="M204 412h178q48 0 71 -22q22 -22 22 -61q0 -38 -21 -59q-24 -24 -95 -24h-88v-105h-67v271zM271 306h104q14 0 21 4q10 8 10 19q0 9 -9 18q-4 4 -23 4h-103v-45zM112 272q0 -89 61 -150q62 -62 150 -62q89 0 151 62q61 61 61 151q0 87 -62 148q-62 62 -150 62
q-87 0 -149 -61q-62 -60 -62 -150zM47 272q0 118 83 197q81 79 193 79q114 0 194 -80q82 -82 82 -196t-81 -195q-78 -82 -195 -82q-114 0 -196 82q-80 80 -80 195z" />
    <glyph glyph-name="trademark" unicode="&#x2122;" horiz-adv-x="862" 
d="M645 404v148l-81 -118l-81 118v-148h-69v280h55l95 -135l94 135h55v-280h-68zM293 619v-215h-71v215h-105v65h280v-65h-104z" />
    <glyph glyph-name="partialdiff" unicode="&#x2202;" horiz-adv-x="504" 
d="M246 240q-55 0 -86 -25q-30 -22 -30 -62q0 -36 28 -57q31 -22 79 -22q45 0 74 21q38 27 38 69q0 39 -35 60q-28 16 -68 16zM184 376l-19 73q41 12 87 12q116 0 175 -59q54 -54 54 -150q0 -148 -98 -220q-59 -44 -153 -44q-96 0 -147 38q-60 43 -60 121q0 85 75 139
q55 38 146 38q52 0 94 -18q41 -20 61 -51v5q0 64 -45 94q-39 29 -107 29q-30 0 -63 -7z" />
    <glyph glyph-name="product" unicode="&#x220f;" horiz-adv-x="587" 
d="M412 -171v600h-236v-600h-106v701h447v-701h-105z" />
    <glyph glyph-name="summation" unicode="&#x2211;" horiz-adv-x="477" 
d="M23 -171v101l202 290l-202 209v101h426v-101h-299l157 -166v-83l-171 -250h333v-101h-446z" />
    <glyph glyph-name="minus" unicode="&#x2212;" horiz-adv-x="733" 
d="M112 233v88h509v-88h-509z" />
    <glyph glyph-name="uni2215" unicode="&#x2215;" horiz-adv-x="265" 
d="M58 -84h-101l249 625h102z" />
    <glyph glyph-name="radical" unicode="&#x221a;" horiz-adv-x="501" 
d="M292 0h-58l-165 330h-66v90h126l130 -266l185 475h99z" />
    <glyph glyph-name="infinity" unicode="&#x221e;" horiz-adv-x="759" 
d="M328 268q-23 27 -61 53q-45 32 -89 32q-39 0 -63 -24q-22 -22 -22 -62q0 -36 21 -59q22 -23 63 -23q46 0 90 30q27 19 61 53zM424 268q54 -49 61 -53q41 -30 89 -30q43 0 65 23q21 22 21 59q0 40 -22 62q-24 24 -65 24q-43 0 -88 -32q-27 -19 -61 -53zM379 216
q-36 -39 -71 -63q-66 -46 -131 -46q-71 0 -114 45q-42 42 -42 116q0 71 42 117q43 45 114 45q67 0 131 -46q61 -53 71 -64q32 35 71 64q64 46 131 46q71 0 114 -45q42 -44 42 -117q0 -74 -42 -116q-43 -45 -114 -45q-67 0 -131 46q-28 20 -71 63z" />
    <glyph glyph-name="integral" unicode="&#x222b;" horiz-adv-x="384" 
d="M391 578l-25 -97q-13 1 -29 4t-25 3q-32 0 -49 -17q-18 -18 -18 -63v-352q0 -86 -40 -131q-38 -40 -110 -40q-53 0 -102 11l25 98q32 -8 54 -8q31 0 49 18q18 20 18 63v352q0 87 40 130q39 41 110 41q31 0 102 -12z" />
    <glyph glyph-name="approxequal" unicode="&#x2248;" horiz-adv-x="744" 
d="M670 288v-105q-76 -67 -176 -67q-35 0 -102 21l-48 16q-6 2 -19.5 7t-22.5 8t-22.5 5.5t-26.5 2.5q-51 0 -103 -32q-51 -33 -75 -51v104q86 68 172 68q45 0 105 -23l50 -18q59 -21 90 -21q44 0 96 27q29 16 82 58zM670 456v-105q-40 -33 -77 -48q-42 -19 -99 -19
q-41 0 -102 21l-48 16q-6 2 -20 7.5t-23 8.5t-23.5 5.5t-28.5 2.5q-47 0 -99 -33q-30 -18 -75 -51v104q89 68 172 68q38 0 105 -23l50 -18q49 -20 90 -20q50 0 96 27q25 13 82 57z" />
    <glyph glyph-name="notequal" unicode="&#x2260;" horiz-adv-x="733" 
d="M112 315v88h262l47 118h88l-47 -118h159v-88h-194l-35 -89h229v-88h-264l-47 -119h-88l47 119h-157v88h192l35 89h-227z" />
    <glyph glyph-name="lessequal" unicode="&#x2264;" horiz-adv-x="720" 
d="M117 176v80l486 -212v-87zM117 320v67l486 212v-96l-363 -149l363 -149v-96z" />
    <glyph glyph-name="greaterequal" unicode="&#x2265;" horiz-adv-x="720" 
d="M603 387v-67l-486 -211v96l363 149l-363 149v96zM603 256v-80l-486 -219v87z" />
    <glyph glyph-name="lozenge" unicode="&#x25ca;" horiz-adv-x="429" 
d="M289 266l-78 193l-78 -193l79 -195zM175 530h72l119 -264l-118 -266h-72l-120 266z" />
    <glyph glyph-name="openbullet" unicode="&#x25e6;" horiz-adv-x="317" 
d="M159 608q-29 0 -49 -20.5t-20 -49.5t20 -48.5t49 -19.5t48.5 19.5t19.5 48.5t-19.5 49.5t-48.5 20.5zM158 393q-60 0 -102 42.5t-42 102.5t42.5 102.5t102.5 42.5q59 0 101.5 -42.5t42.5 -102.5q0 -59 -42.5 -102t-102.5 -43z" />
    <glyph glyph-name="uniF400" unicode="&#xf400;" horiz-adv-x="2" 
d="M-200 461h-84l99 172h125z" />
    <glyph glyph-name="uniF401" unicode="&#xf401;" horiz-adv-x="2" 
d="M-227 578h-84l99 172h125z" />
    <glyph glyph-name="uniF406" unicode="&#xf406;" horiz-adv-x="452" 
d="M306 705h77q-8 -81 -49 -110q-34 -25 -108 -25t-108 25q-41 29 -49 110h77q3 -35 22 -47q17 -11 58 -11t59 11q15 11 21 47z" />
    <glyph glyph-name="uniF407" unicode="&#xf407;" horiz-adv-x="498" 
d="M271 45v-60h5q42 0 67 -18q33 -23 33 -68q0 -46 -30 -73q-32 -28 -90 -28q-33 0 -75 7q-42 8 -60 14v70q44 -7 61 -11q22 -5 59 -5q19 0 30 6q11 8 11 22q0 15 -15 22q-13 6 -38 6q-19 0 -30 -3v119h72z" />
    <glyph glyph-name="uniF408" unicode="&#xf408;" horiz-adv-x="494" 
d="M307 578l-59 85l-58 -85h-85l101 172h83l103 -172h-85z" />
    <glyph glyph-name="uniF409" unicode="&#xf409;" horiz-adv-x="303" 
d="M127 -229l-23 24q12 15 19 30q9 15 13 32q-16 1 -26 11q-12 12 -12 36q0 20 12 35q14 16 36 16q26 0 38 -17q14 -17 14 -44q0 -42 -25 -76q-19 -28 -46 -47z" />
    <glyph glyph-name="uniF40A" unicode="&#xf40a;" horiz-adv-x="303" 
d="M127 357l-23 24q12 15 19 30q9 15 13 32q-16 1 -26 11q-12 12 -12 36q0 20 12 35q14 16 36 16q26 0 38 -17q14 -17 14 -44q0 -42 -25 -76q-19 -28 -46 -47z" />
    <glyph glyph-name="uniF40B" unicode="&#xf40b;" horiz-adv-x="512" 
d="M256 587q-27 0 -47 19.5t-20 46.5t19.5 46.5t47.5 19.5t47 -19.5t19 -46.5q0 -28 -19 -47t-47 -19z" />
    <glyph glyph-name="uniF40C" unicode="&#xf40c;" horiz-adv-x="500" 
d="M250 741q-20 0 -33.5 -14t-13.5 -35q0 -20 13.5 -34t33.5 -14q19 0 33.5 14t14.5 34t-14.5 34.5t-33.5 14.5zM250 577q-48 0 -81.5 34t-33.5 82t33.5 81.5t81.5 33.5t82 -33.5t34 -81.5t-34 -82t-82 -34z" />
    <glyph glyph-name="uniF40D" unicode="&#xf40d;" horiz-adv-x="494" 
d="M340 708h65q-13 -45 -31 -72q-31 -44 -77 -44q-22 0 -46 8l-17 6q-16 6 -36 6q-21 0 -30 -11q-11 -14 -13 -20h-65q16 54 37 80q30 36 76 36q12 0 42 -8l19 -6q26 -7 35 -7q18 0 28 10q2 2 4.5 6.5t5 9.5t3.5 6z" />
    <glyph glyph-name="uniF40E" unicode="&#xf40e;" horiz-adv-x="485" 
d="M321 -232h-22q-81 0 -110 18q-38 21 -38 71q0 40 31 82q28 35 65 61h69q-35 -28 -51 -50q-25 -32 -25 -62q0 -24 19 -33q14 -6 51 -6h11v-81z" />
    <glyph glyph-name="uniF47E" unicode="&#xf47e;" horiz-adv-x="565" 
d="M509 530v-353q0 -98 -53 -143q-54 -47 -177 -47q-125 0 -178 53q-46 47 -46 137v353h106v-342q0 -58 27 -79q24 -20 89 -20q69 0 97 21q30 25 30 88v332h105zM282 587q-27 0 -47 19.5t-20 46.5t19.5 46.5t47.5 19.5t47 -19.5t19 -46.5q0 -28 -19 -47t-47 -19z" />
    <glyph glyph-name="uniF47F" unicode="&#xf47f;" horiz-adv-x="543" 
d="M483 419v-279q0 -69 -41 -107q-45 -45 -169 -45q-128 0 -173 45q-40 37 -40 107v279h103v-246q0 -49 23 -68q23 -18 85 -18q58 0 85 17q23 19 23 64v251h104zM271 470q-27 0 -47 19.5t-20 46.5t19.5 46.5t47.5 19.5t47 -19.5t19 -46.5q0 -28 -19 -47t-47 -19z" />
    <glyph glyph-name="uniF481" unicode="&#xf481;" horiz-adv-x="548" 
d="M310 0v-41h2q40 0 68 -18q35 -21 35 -66q0 -43 -26 -69q-30 -30 -100 -30q-35 0 -74 7q-35 7 -55 14v70q22 -7 57 -12q25 -4 53 -4t38 6q13 7 13 21t-15 22q-11 5 -38 5q-21 0 -31 -2v97h73zM272 374l-70 -142h141zM458 0l-65 131h-241l-63 -131h-116l260 530h79
l262 -530h-116z" />
    <glyph glyph-name="uniF482" unicode="&#xf482;" horiz-adv-x="421" 
d="M245 0v-41h2q40 0 68 -18q35 -21 35 -66q0 -43 -26 -69q-30 -30 -100 -30q-35 0 -74 7q-35 7 -55 14v70q23 -7 57 -12q25 -4 53 -4t38 6q13 7 13 21t-15 22q-11 5 -38 5q-21 0 -31 -2v97h73zM210 270l-45 -94h90zM344 0l-46 91h-176l-46 -91h-113l215 420h64l216 -420
h-114z" />
    <glyph glyph-name="uniF483" unicode="&#xf483;" horiz-adv-x="477" 
d="M168 101h296v-101h-504l328 429h-276v101h477zM253 741q-20 0 -33.5 -14t-13.5 -35q0 -20 13.5 -34t33.5 -14q19 0 33.5 14t14.5 34t-14.5 34.5t-33.5 14.5zM253 577q-48 0 -81.5 34t-33.5 82t33.5 81.5t81.5 33.5t82 -33.5t34 -81.5t-34 -82t-82 -34z" />
    <glyph glyph-name="uniF484" unicode="&#xf484;" horiz-adv-x="408" 
d="M170 99h221v-99h-411l237 320h-199v100h397zM219 624q-20 0 -33.5 -14t-13.5 -35q0 -20 13.5 -34t33.5 -14q19 0 33.5 14t14.5 34t-14.5 34.5t-33.5 14.5zM219 460q-48 0 -81.5 34t-33.5 82t33.5 81.5t81.5 33.5t82 -33.5t34 -81.5t-34 -82t-82 -34z" />
    <glyph glyph-name="uniF4C4" unicode="&#xf4c4;" horiz-adv-x="379" 
d="M242 429v-429h-16v-41h2q40 0 68 -18q35 -21 35 -66q0 -43 -26 -69q-30 -30 -100 -30q-35 0 -74 7q-35 7 -55 14v70q22 -7 57 -12q25 -4 53 -4t38 6q13 7 13 21t-15 22q-11 5 -38 5q-21 0 -31 -2v97h-16v429h-204v101h513v-101h-204z" />
    <glyph glyph-name="uniF4C5" unicode="&#xf4c5;" horiz-adv-x="401" 
d="M252 323v-323h-15v-41h2q40 0 68 -18q35 -21 35 -66q0 -43 -26 -69q-30 -30 -100 -30q-35 0 -74 7q-35 7 -55 14v70q23 -7 57 -12q25 -4 53 -4q27 0 38 6q13 7 13 21t-15 22q-11 5 -38 5q-21 0 -31 -2v97h-15v323h-159v97h421v-97h-159z" />
    <glyph glyph-name="uniF4C8" unicode="&#xf4c8;" horiz-adv-x="564" 
d="M460 197l84 -63q-32 -63 -96 -106q-51 -35 -108 -39v-30h2q40 0 68 -18q35 -21 35 -66q0 -43 -26 -69q-30 -30 -100 -30q-35 0 -74 7q-35 7 -55 14v70q22 -7 57 -12q25 -4 53 -4t38 6q13 7 13 21t-15 22q-11 5 -38 5q-21 0 -31 -2v86q-101 9 -165 75q-76 77 -76 197
q0 125 77 203q77 77 201 77q78 0 140 -35q58 -33 95 -88l-89 -63q-26 40 -61 62q-36 22 -86 22q-74 0 -120 -46q-50 -50 -50 -131q0 -79 51 -130q45 -43 115 -43q56 0 99 32q41 30 62 76z" />
    <glyph glyph-name="uniF4C9" unicode="&#xf4c9;" horiz-adv-x="516" 
d="M415 158l83 -57q-32 -51 -88 -81q-49 -27 -105 -31v-30h2q40 0 68 -18q35 -21 35 -66q0 -43 -26 -69q-30 -30 -100 -30q-35 0 -74 7q-35 7 -55 14v70q23 -7 57 -12q25 -4 53 -4q27 0 38 6q13 7 13 21t-15 22q-11 5 -38 5q-21 0 -31 -2v87q-92 7 -152 69q-57 60 -57 150
q0 85 60 147q72 74 197 74q75 0 129 -29q49 -24 83 -67l-83 -58q-24 28 -54 41q-31 14 -81 14q-75 0 -113 -40q-32 -35 -32 -82q0 -52 37 -86q38 -35 113 -35q43 0 80 19q28 15 56 51z" />
    <glyph glyph-name="uniF4CC" unicode="&#xf4cc;" horiz-adv-x="531" 
d="M241 0h-117l89 163l-217 371h127l152 -259l147 259h119zM280 578h-84l99 172h125z" />
    <glyph glyph-name="uniF4CD" unicode="&#xf4cd;" horiz-adv-x="453" 
d="M126 420l108 -181l106 181h123l-256 -420h-118l81 137l-174 283h130zM255 461h-84l99 172h125z" />
    <glyph glyph-name="dollar.fitted" unicode="&#xf5f5;" horiz-adv-x="586" 
d="M335 -12v-103h-96v104q-116 9 -205 83l52 83q75 -57 153 -68v140q-102 6 -144 55q-33 33 -33 81q0 57 40 97q52 52 137 57v73h96v-75q103 -8 176 -66l-53 -81q-67 42 -123 50v-98q109 -11 157 -59q40 -40 40 -101q0 -75 -57 -122q-54 -45 -140 -50zM242 327v92h-5
q-26 0 -48 -13q-23 -14 -23 -37q0 -22 23 -33q22 -9 47 -9h6zM331 221v-133q39 2 66 19q30 21 30 53t-32 47q-25 12 -64 14z" />
    <glyph glyph-name="Euro.fitted" unicode="&#xf5f6;" 
d="M525 185l78 -64q-36 -60 -88 -94q-62 -40 -147 -40q-115 0 -182 58q-59 50 -75 131h-87l40 67h35v26h-75l40 68h44q17 76 68 127q72 77 196 77q69 0 132 -28q44 -20 84 -63l-69 -86q-27 36 -60 54q-38 21 -86 21q-65 0 -103 -28q-38 -29 -51 -74h260l-39 -68h-230v-26
h214l-40 -67h-158q11 -37 52 -64q38 -23 90 -23q67 0 106 33q26 23 51 63z" />
    <glyph glyph-name="cent.fitted" unicode="&#xf5f7;" horiz-adv-x="549" 
d="M336 36v-151h-94v150q-82 12 -131 69q-51 58 -51 145q0 100 57 159q48 50 125 60v122h94v-122q44 -4 88 -30q42 -25 68 -67l-83 -57q-12 20 -35 35q-18 11 -42 15v-224q31 3 52 21q17 14 38 44l83 -49q-25 -54 -74 -87q-37 -26 -95 -33zM246 141v223q-35 -10 -58 -38
q-23 -29 -23 -77q0 -41 21 -69q25 -30 60 -39z" />
    <glyph glyph-name="sterling.fitted" unicode="&#xf5f8;" horiz-adv-x="616" 
d="M77 0l7 101h50l-9 101h-71v101h62q-4 28 -4 44q0 67 43 113q55 58 158 58q76 0 146 -31q50 -20 105 -62l-62 -80q-37 26 -90 49q-54 22 -98 22q-51 0 -76 -25q-22 -22 -22 -61q0 -14 2 -27h153v-101h-143l9 -101h318v-101h-478z" />
    <glyph glyph-name="yen.fitted" unicode="&#xf5f9;" 
d="M370 0h-102v206h-220v72h191l-28 33h-163v72h100l-121 134h135l157 -176l158 176h135l-122 -134h100v-72h-163l-28 -33h191v-72h-220v-206z" />
    <glyph glyph-name="florin.fitted" unicode="&#xf5fa;" horiz-adv-x="564" 
d="M550 567l-36 -92q-34 13 -72 13q-43 0 -65 -22q-20 -18 -30 -58l-11 -52h124l-22 -102h-122l-45 -203q-18 -82 -55 -119q-45 -47 -133 -47q-64 0 -118 23l35 94q39 -16 71 -16q44 0 63 17q23 20 34 66l40 185h-108l21 102h108l13 61q18 87 58 127q46 46 126 46
q66 0 124 -23z" />
    <glyph glyph-name="uni20B6.fitted" unicode="&#xf5fc;" horiz-adv-x="560" 
d="M2 203v102h65v225h301q86 0 132 -46q43 -41 43 -115q0 -72 -44 -120q-44 -46 -122 -46h-204v-50h204v-88h-204v-65h-106v65h-65v88h65v50h-65zM173 305h186q38 0 56 15q20 20 20 50q0 27 -18 45q-16 14 -53 14h-191v-124z" />
    <glyph glyph-name="uniF639" unicode="&#xf639;" 
d="M318 -13q-127 0 -208 77.5t-81 199.5q0 121 81 199t208 78t208.5 -77.5t81.5 -199.5t-81.5 -199.5t-208.5 -77.5zM318 438q-83 0 -132.5 -49t-49.5 -126q0 -76 50.5 -125t131.5 -49q82 0 132 49t50 125q0 77 -49.5 126t-132.5 49z" />
    <glyph glyph-name="uniF63A" unicode="&#xf63a;" horiz-adv-x="596" 
d="M521 0h-451l-2 19q-4 24 -4 73q0 87 47 138q43 47 146 78l44 14q35 11 65 24q1 1 5.5 3t6 3t6 3.5t6.5 5t5 5.5t5 6.5t3 8t1 9.5q0 25 -30 38q-24 11 -64 11q-58 0 -106 -22q-42 -19 -89 -58l-63 82q44 38 102 67q67 33 147 33q97 0 151 -37q60 -42 60 -118
q0 -54 -39 -93q-17 -15 -48 -31.5t-52 -22.5l-58 -19q-11 -4 -30.5 -10.5t-27.5 -9.5t-21 -7.5t-19.5 -8t-14 -7.5t-12.5 -9q-24 -21 -24 -51q0 -2 2 -16h353v-101z" />
    <glyph glyph-name="uniF63B" unicode="&#xf63b;" horiz-adv-x="634" 
d="M122 376l-53 84q50 35 103 55q67 26 143 26q114 0 173 -46q51 -43 51 -109q0 -62 -45 -91q39 -18 55 -41q25 -31 25 -76q0 -87 -65 -137q-67 -54 -189 -54q-102 0 -178 34q-59 26 -117 77l65 80q50 -44 101 -65q57 -25 129 -25t112 26q34 23 34 58q0 30 -30 47
q-29 19 -109 19h-35v100h37q61 0 79 10q23 14 23 37q0 30 -40 45q-33 11 -75 11q-61 0 -115 -22q-42 -17 -79 -43z" />
    <glyph glyph-name="uniF63C" unicode="&#xf63c;" horiz-adv-x="614" 
d="M498 123v-123h-105v123h-369v90l383 316h91v-304h77v-102h-77zM393 397l-211 -172h211v172z" />
    <glyph glyph-name="uniF63D" unicode="&#xf63d;" 
d="M208 430v-80q48 21 119 21q112 0 174 -48q65 -52 65 -135q0 -88 -61 -143q-64 -58 -178 -58q-96 0 -165 29q-57 24 -99 59l54 86q40 -30 87 -50q55 -22 115 -22q66 0 101 26q38 30 38 72q0 46 -44 72q-43 23 -104 23q-81 0 -146 -46h-61v294h418v-100h-313z" />
    <glyph glyph-name="uniF63E" unicode="&#xf63e;" 
d="M573 460l-54 -77q-80 56 -172 56q-85 0 -133 -39q-40 -34 -51 -88q80 54 183 54q134 0 200 -63q54 -49 54 -125q0 -70 -52 -122q-70 -69 -193 -69q-152 0 -233 85q-72 75 -72 186q0 114 76 194q83 87 219 87q128 0 228 -79zM165 214q18 -54 61 -87q48 -38 130 -38
q61 0 98 23q38 26 38 65q0 40 -37 64q-41 27 -109 27q-53 0 -104 -18q-44 -17 -77 -36z" />
    <glyph glyph-name="uniF63F" unicode="&#xf63f;" horiz-adv-x="584" 
d="M213 0h-126l284 428h-335v102h534z" />
    <glyph glyph-name="uniF640" unicode="&#xf640;" horiz-adv-x="625" 
d="M485 299q38 -18 59 -46q25 -34 25 -82q0 -74 -46 -120q-64 -64 -211 -64q-146 0 -210 64q-46 46 -46 120q0 48 25 82q21 28 59 46q-52 34 -52 95q0 56 43 93q59 51 181 51q123 0 182 -51q43 -37 43 -93q0 -61 -52 -95zM312 245q-82 0 -121 -25q-27 -18 -27 -49
q0 -33 26 -54q35 -29 125 -29q85 0 120 29q26 21 26 54q0 31 -27 49q-39 25 -122 25zM314 439q-70 0 -100 -22q-17 -14 -17 -33q0 -21 20 -35q26 -18 97 -18t97 18q20 14 20 35q0 19 -17 33q-30 22 -100 22z" />
    <glyph glyph-name="uniF641" unicode="&#xf641;" 
d="M60 63l58 77q30 -22 71 -36q47 -15 101 -15q79 0 126 34q45 33 59 92q-85 -55 -192 -55q-118 0 -176 43q-69 50 -69 137q0 75 57 130q72 69 201 69q135 0 222 -87q70 -73 70 -183q0 -122 -75 -200q-82 -82 -219 -82q-74 0 -137 21q-53 18 -97 55zM473 312q-20 58 -64 89
q-48 36 -125 36q-59 0 -97 -24q-41 -25 -41 -68q0 -35 32 -59q38 -28 113 -28q54 0 105 18q44 17 77 36z" />
    <glyph glyph-name="uniF6BA" unicode="&#xf6ba;" horiz-adv-x="257" 
d="M11 221v98h235v-98h-235z" />
    <glyph glyph-name="uniF6BB" unicode="&#xf6bb;" horiz-adv-x="471" 
d="M-12 229v82h495v-82h-495z" />
    <glyph glyph-name="uniF6BC" unicode="&#xf6bc;" horiz-adv-x="921" 
d="M-12 229v82h945v-82h-945z" />
    <glyph glyph-name="uniF6C3" unicode="&#xf6c3;" horiz-adv-x="303" 
d="M127 -229l-23 24q12 15 19 30q9 15 13 32q-16 1 -26 11q-12 12 -12 36q0 20 12 35q14 16 36 16q26 0 38 -17q14 -17 14 -44q0 -42 -25 -76q-19 -28 -46 -47z" />
    <glyph glyph-name="uniF6C9" unicode="&#xf6c9;" horiz-adv-x="479" 
d="M242 578h-84l99 172h125z" />
    <glyph glyph-name="uniF6CA" unicode="&#xf6ca;" horiz-adv-x="457" 
d="M228 673l59 86h85l-103 -172h-83l-101 172h85z" />
    <glyph glyph-name="uniF6CB" unicode="&#xf6cb;" horiz-adv-x="524" 
d="M178 581q-25 0 -43.5 18t-18.5 45q0 26 18 44t44 18t44 -18.5t18 -43.5q0 -26 -18 -44.5t-44 -18.5zM346 581q-26 0 -43.5 18.5t-17.5 44.5q0 25 17.5 43.5t43.5 18.5t44 -18t18 -44q0 -27 -18.5 -45t-43.5 -18z" />
    <glyph glyph-name="uniF6CE" unicode="&#xf6ce;" horiz-adv-x="500" 
d="M234 578l-137 172h125l103 -172h-91z" />
    <glyph glyph-name="uniF6CF" unicode="&#xf6cf;" horiz-adv-x="533" 
d="M213 578h-74l68 172h113zM377 578h-76l77 172h114z" />
    <glyph glyph-name="uniF6D0" unicode="&#xf6d0;" horiz-adv-x="496" 
d="M113 595v87h270v-87h-270z" />
    <glyph glyph-name="uniF6D1" unicode="&#xf6d1;" horiz-adv-x="452" 
d="M302 696h81q-8 -80 -49 -110q-34 -25 -108 -25t-108 25q-41 30 -49 110h81q2 -35 23 -48q17 -10 53 -10q37 0 54 11q17 12 22 47z" />
    <glyph glyph-name="uniF6D4" unicode="&#xf6d4;" horiz-adv-x="500" 
d="M325 592h73q0 -63 -36 -98q-34 -34 -112 -34t-112 34q-36 35 -36 98h73q2 -27 18 -43q15 -13 57 -13t57 13q16 16 18 43z" />
    <glyph glyph-name="uniF6DC" unicode="&#xf6dc;" horiz-adv-x="386" 
d="M140 0v529h106v-529h-106z" />
    <glyph glyph-name="uniF6DE" unicode="&#xf6de;" horiz-adv-x="690" 
d="M-9 223v82h709v-82h-709z" />
    <glyph glyph-name="NULL" horiz-adv-x="0" 
 />
    <glyph glyph-name="CR" horiz-adv-x="333" 
 />
    <glyph glyph-name="mu1" horiz-adv-x="544" 
d="M498 89l3 -87q-27 -12 -58 -12q-38 0 -57 19t-19 52v3q-19 -32 -53 -51q-34 -18 -83 -18q-51 0 -81 21q-19 13 -31 36l-48 -239h-103l127 607h103l-36 -179q-10 -46 -10 -72q0 -40 19 -61q22 -23 69 -23q55 0 85 32q35 35 57 133l37 170h102l-58 -272q-8 -34 -8 -44
t5 -15t16 -5q10 0 22 5z" />
    <glyph glyph-name="dotlessi1" horiz-adv-x="225" 
d="M60 -1v422h104v-422h-104z" />
    <glyph glyph-name="hyphenminus" horiz-adv-x="257" 
d="M11 215v98h235v-98h-235z" />
    </font>
</defs>
</svg>
