<?xml version="1.0" encoding="utf-8"?>
<!-- Generator: Adobe Illustrator 19.0.0, SVG Export Plug-In . SVG Version: 6.00 Build 0)  -->
<svg version="1.1" id="Layer_1" xmlns="http://www.w3.org/2000/svg" xmlns:xlink="http://www.w3.org/1999/xlink" x="0px" y="0px"
	 viewBox="-216 258.3 757.6 325.6" style="enable-background:new -216 258.3 757.6 325.6;" xml:space="preserve">
<style type="text/css">
	.st0{enable-background:new    ;}
	.st1{fill:#727376;}
	.st2{fill:#898A8D;}
	.st3{fill:#A0A1A3;}
	.st4{fill:#8D8E91;}
	.st5{fill:#6C6E70;}
	.st6{fill:#FF7308;}
	.st7{fill:#FFA64A;}
	.st8{fill:#A0A0A0;}
	.st9{fill:#FF8A22;}
	.st10{fill:#FF7C00;}
	.st11{fill:#FFAB30;}
	.st12{fill:#FF521E;}
	.st13{fill:#FF7729;}
	.st14{fill:#FB470E;}
	.st15{fill:#FF8A2C;}
	.st16{fill:#FF782A;}
	.st17{fill:#FB3C12;}
	.st18{fill:#FFA428;}
	.st19{fill:#FB7100;}
	.st20{fill:#808183;}
	.st21{fill:#FC7800;}
	.st22{fill:#FF591D;}
	.st23{fill:#FD4114;}
	.st24{fill:#FFAF32;}
	.st25{fill:#FF911B;}
	.st26{fill:#FF9922;}
	.st27{fill:#FF991A;}
	.st28{fill:#9C9EA0;}
	.st29{fill:#FF9F20;}
	.st30{fill:#B9B9BA;}
	.st31{fill:#FF9528;}
	.st32{fill:#FF991C;}
	.st33{fill:#FF7B0A;}
	.st34{fill:#FF7A23;}
	.st35{fill:#6E6F72;}
	.st36{fill:#FE4117;}
	.st37{fill:#FF992D;}
	.st38{fill:#FF8C28;}
	.st39{fill:#FF9311;}
	.st40{fill:#FF9A18;}
	.st41{fill:#FB3F11;}
	.st42{fill:#FF8213;}
	.st43{fill:#FF7207;}
	.st44{fill:#B9BABA;}
	.st45{fill:#FFAE5F;}
	.st46{fill:#FF9417;}
	.st47{fill:#FF9620;}
	.st48{fill:#FFA634;}
	.st49{fill:#FF471A;}
	.st50{fill:#FF511E;}
	.st51{fill:#FF9B26;}
	.st52{fill:#FF9625;}
	.st53{fill:#F67408;}
	.st54{fill:#FF7C08;}
	.st55{fill:#FF9213;}
	.st56{fill:#FFA422;}
	.st57{fill:#FF7A02;}
	.st58{fill:#FF8A2D;}
	.st59{fill:#FF631E;}
	.st60{fill:#FF8105;}
	.st61{fill:#FF8506;}
	.st62{fill:#FF8721;}
	.st63{fill:#FF8E23;}
	.st64{fill:#FF5518;}
	.st65{fill:#FF7021;}
	.st66{fill:#FF9230;}
	.st67{fill:#FF771F;}
	.st68{fill:#FF8D27;}
	.st69{fill:#FF8E2C;}
	.st70{fill:#FF4D1A;}
	.st71{fill:#FF4A19;}
	.st72{fill:#FF7728;}
	.st73{fill:#FF913A;}
	.st74{fill:#FF9A19;}
	.st75{fill:#FF9324;}
	.st76{fill:#FF792B;}
	.st77{fill:#FF5018;}
	.st78{fill:#FF4517;}
	.st79{fill:#FF5820;}
	.st80{fill:#FF8519;}
	.st81{fill:#FF9521;}
	.st82{fill:#FF7C24;}
	.st83{fill:#FF852A;}
	.st84{fill:#FF9218;}
	.st85{fill:#FF982E;}
	.st86{fill:#FF901C;}
	.st87{fill:#FF9419;}
	.st88{fill:#FF7B09;}
	.st89{fill:#FF8819;}
	.st90{fill:#FF951E;}
	.st91{fill:#FF7D07;}
	.st92{fill:#FF810A;}
	.st93{fill:#FF581E;}
	.st94{fill:#FF9114;}
	.st95{fill:#FF9A1A;}
	.st96{fill:#FF7B26;}
	.st97{fill:#FF8C30;}
	.st98{fill:#FF541A;}
	.st99{fill:#FD500E;}
	.st100{fill:#FF7D22;}
	.st101{fill:#FF9229;}
	.st102{fill:#FF9A21;}
	.st103{fill:#FF8B17;}
	.st104{fill:#FF9C28;}
	.st105{fill:#FF9E23;}
	.st106{fill:#FF9E1F;}
	.st107{fill:#FF870D;}
	.st108{fill:#FF762B;}
	.st109{fill:#FD4813;}
	.st110{fill:#FF5129;}
	.st111{fill:#FF7B28;}
	.st112{fill:#FF5318;}
	.st113{fill:#FFAA47;}
	.st114{fill:#FF9124;}
	.st115{fill:#FF9126;}
	.st116{fill:#FF7712;}
	.st117{fill:#FF8B20;}
	.st118{fill:#FF921B;}
	.st119{fill:#FF4A17;}
	.st120{fill:#FF542C;}
	.st121{fill:#FF922A;}
	.st122{fill:#FF7818;}
	.st123{fill:#FF5F0D;}
	.st124{fill:#FF6317;}
	.st125{fill:#FF8524;}
	.st126{fill:#FF8828;}
	.st127{fill:#FF7721;}
	.st128{fill:#FF9B39;}
	.st129{fill:#FF9C20;}
	.st130{fill:#FF981A;}
	.st131{fill:#FF9C26;}
	.st132{fill:#FFA02A;}
	.st133{fill:#FF581C;}
	.st134{fill:#F8380E;}
	.st135{fill:#FF971D;}
	.st136{fill:#FF9E21;}
	.st137{fill:#FE5210;}
	.st138{fill:#FF6319;}
	.st139{fill:#F73A0B;}
	.st140{fill:#FF5112;}
	.st141{fill:#FC4610;}
	.st142{fill:#FF961F;}
	.st143{fill:#FF8B19;}
	.st144{fill:#FF8F22;}
	.st145{fill:#FF630C;}
	.st146{fill:#FF9D31;}
	.st147{fill:#FE570E;}
	.st148{fill:#FF7A1B;}
	.st149{fill:#FF9524;}
	.st150{fill:#FF7708;}
	.st151{fill:#FF8914;}
	.st152{fill:#FA5D03;}
	.st153{fill:#FF9B24;}
	.st154{fill:#FF750C;}
	.st155{fill:#F9400D;}
	.st156{fill:#FF5D13;}
	.st157{fill:#FD4F0F;}
	.st158{fill:#FE4814;}
	.st159{fill:#FF5E13;}
	.st160{fill:#FF7924;}
	.st161{fill:#FF7A27;}
	.st162{fill:#F42E00;}
	.st163{fill:#FE4813;}
	.st164{fill:#FF9224;}
	.st165{fill:#FD5D08;}
	.st166{fill:#FF8818;}
	.st167{fill:#FF8F19;}
	.st168{fill:#FF760C;}
	.st169{fill:#FF8A15;}
	.st170{fill:#FF710C;}
	.st171{fill:#FF901E;}
	.st172{fill:#F95C02;}
	.st173{fill:#FF6412;}
	.st174{fill:#FF7216;}
	.st175{fill:#FB4E0C;}
	.st176{fill:#FF6A19;}
	.st177{fill:#FF9D30;}
	.st178{fill:#EF3B0A;}
	.st179{fill:#FB530A;}
	.st180{fill:#FF821A;}
	.st181{fill:#FF5C14;}
	.st182{fill:#F44719;}
	.st183{fill:#FF8127;}
	.st184{fill:#FF5012;}
	.st185{fill:#FF6716;}
	.st186{fill:#FF9724;}
	.st187{fill:#FF8C1E;}
	.st188{fill:#F64A03;}
	.st189{fill:#FFA730;}
	.st190{fill:#FA5606;}
	.st191{fill:#FF9E2E;}
	.st192{fill:#FF811F;}
	.st193{fill:#FC550A;}
	.st194{fill:#FF831D;}
	.st195{fill:#FF6816;}
	.st196{fill:#F74707;}
	.st197{fill:#96A91A;}
	.st198{fill:#B8CE2B;}
	.st199{fill:#A9C015;}
	.st200{fill:#C9D676;}
</style>
<g class="st0">
	<path d="M84.4,406.2h2.7c0.3,5.7,2.8,10.4,7.6,14c4.8,3.6,10.8,5.5,18,5.5c7,0,12.8-1.8,17.3-5.4s6.7-8.2,6.7-13.8
		c0-4.4-1.5-7.9-4.6-10.6s-8.1-4.9-15.1-6.6l-9.1-2.3c-7.4-1.8-12.8-4.3-16.2-7.3c-3.4-3-5.1-7-5.1-11.8c0-5.9,2.5-10.9,7.4-14.9
		s10.9-6,17.8-6c7.3,0,13.4,1.9,18.4,5.7c5,3.8,7.6,8.5,7.8,14.1h-2.7c-0.3-4.9-2.6-9-7.1-12.3c-4.4-3.3-9.9-4.9-16.4-4.9
		c-6.3,0-11.6,1.7-15.9,5.2c-4.4,3.5-6.5,7.8-6.5,13.1c0,4.2,1.5,7.5,4.6,10.1s8,4.7,14.8,6.4l9,2.2c7.5,1.9,13.1,4.4,16.5,7.5
		c3.5,3.1,5.2,7.2,5.2,12.2c0,6.4-2.5,11.6-7.5,15.7s-11.4,6.1-19.4,6.1S98,426,92.7,421.9C87.5,417.9,84.6,412.6,84.4,406.2z"/>
	<path d="M224.5,348.2v78.9h-2.7v-72.6h-0.2l-31.9,72.6h-2.9l-31.9-72.6h-0.2v72.6H152v-78.9h2.9l33.3,75.5h0.2l33.1-75.5H224.5z"/>
	<path d="M295.8,427.1l-10.3-27.4h-36.7l-10.4,27.4h-3l30.4-78.9h2.8l30.4,78.9H295.8z M267,351.9l-17.2,45.2h34.7l-17.2-45.2H267z"
		/>
	<path d="M312.3,392.6v34.5h-2.7v-78.9H334c7.9,0,14.1,2,18.6,5.9c4.5,4,6.8,9.4,6.8,16.3c0,5.8-1.7,10.6-5,14.4s-8,6.3-13.9,7.3
		l20.8,35h-3.1l-20.6-34.6c-1.3,0.1-2.5,0.1-3.6,0.1L312.3,392.6L312.3,392.6z M312.3,350.7v39.4H334c7,0,12.6-1.8,16.6-5.3
		s6-8.3,6-14.4c0-6.2-2-11-6-14.5s-9.6-5.2-16.7-5.2H312.3z"/>
	<path d="M397.8,427.1h-2.7v-76.3h-28.5v-2.6h59.6v2.6h-28.5L397.8,427.1L397.8,427.1z"/>
</g>
<g class="st0">
	<path d="M119.8,435.1c10.6,0,19.1,3.7,25.3,11c6.3,7.3,9.4,17.2,9.4,29.6s-3.1,22.3-9.4,29.6c-6.3,7.3-14.7,11-25.4,11
		c-10.7,0-19.1-3.7-25.4-11s-9.4-17.2-9.4-29.6s3.1-22.2,9.4-29.6C100.6,438.7,109,435.1,119.8,435.1z M119.8,437.6
		c-9.8,0-17.6,3.4-23.4,10.3c-5.8,6.8-8.7,16.1-8.7,27.7s2.9,20.8,8.7,27.7c5.8,6.9,13.6,10.3,23.4,10.3c9.7,0,17.5-3.4,23.3-10.3
		s8.7-16.1,8.7-27.7s-2.9-20.8-8.7-27.7C137.3,441.1,129.5,437.6,119.8,437.6z"/>
	<path d="M170.3,480.6v34.5h-2.7v-78.9H192c7.9,0,14.1,2,18.6,5.9c4.5,4,6.8,9.4,6.8,16.3c0,5.8-1.7,10.6-5,14.4
		c-3.4,3.8-8,6.3-13.9,7.3l20.8,35h-3.1l-20.6-34.6c-1.3,0.1-2.5,0.1-3.6,0.1L170.3,480.6L170.3,480.6z M170.3,438.7v39.4H192
		c7,0,12.6-1.8,16.6-5.3s6-8.3,6-14.4c0-6.2-2-11-6-14.5s-9.6-5.2-16.7-5.2H170.3z"/>
	<path d="M286.5,515.1l-10.3-27.4h-36.7l-10.4,27.4h-3l30.4-78.9h2.8l30.4,78.9H286.5z M257.8,439.9l-17.2,45.2h34.7L258,439.9
		H257.8z"/>
	<path d="M303,515.1h-2.8v-78.9h3l52.4,73.7h0.2v-73.7h2.7v78.9h-2.5l-52.8-74.3H303V515.1z"/>
	<path d="M437,484.2c0,9.9-2.8,17.7-8.4,23.4c-5.6,5.7-13.3,8.5-23,8.5c-6.6,0-12.5-1.7-17.7-5.2c-5.2-3.4-9.2-8.3-12-14.5
		c-2.9-6.2-4.3-13.4-4.3-21.4c0-12,3.1-21.7,9.4-29c6.2-7.3,14.5-11,24.7-11c7.8,0,14.5,2.2,20.2,6.5s9.2,9.9,10.7,16.9H434
		c-1.5-6.3-4.9-11.3-10-15.1c-5.1-3.8-11.2-5.7-18.2-5.7c-9.4,0-17,3.4-22.7,10.3s-8.6,15.9-8.6,27.2c0,11.4,2.9,20.7,8.7,27.8
		c5.8,7.1,13.3,10.7,22.6,10.7c8.9,0,15.9-2.6,21-7.8c5.1-5.2,7.7-12.4,7.7-21.4v-5.5h-29v-2.5h31.7v7.8H437z"/>
	<path d="M495.8,512.5v2.6h-45.2v-78.9h45.2v2.6h-42.4v34.6h40.5v2.5h-40.5v36.7h42.4V512.5z"/>
</g>
<g>
	<polygon class="st1" points="47.6,450.8 46.6,445.2 58.5,423.5 47,405.1 51.5,393.8 40.5,385.3 39,362.3 17.4,352.6 13.4,343.3 
		7,341.2 -2.5,326.1 -22.6,327 -39.6,311.9 -55.1,317.2 -60.1,314.5 -72.4,320.5 -96.1,315.4 -105.6,325.4 -112.1,324.5 
		-121.4,338.8 -147.8,347.1 -153.4,370.8 -158.1,374.3 -158.4,379.6 -160.8,381.9 -160.6,385.1 -176.6,402.6 -169.6,421.1 
		-175.4,431.9 -169.3,442.7 -173.4,460.8 -157.4,477.1 -155.6,491.4 -145.3,496.5 -138.1,518.4 -113.8,522.6 -105.6,533.2 
		-93.9,532.8 -79.6,543.3 -61.1,536.3 -40.4,544.4 -31.5,536.8 -23.5,538.4 -10.4,523.8 13,521 19.1,505.7 23.5,503.8 27.5,490.9 
		48.6,476.8 46,453.3 	"/>
	<polygon class="st2" points="22.8,472.4 17.6,482.8 28,460 	"/>
	<polygon class="st3" points="-14,517.4 -21.3,520.3 -0.5,505.1 	"/>
	<polygon class="st4" points="41.8,411.5 33,383.9 41,398.5 	"/>
	<polygon class="st5" points="-110.4,518.1 -118.1,513.8 -92.6,522.9 	"/>
	<polygon class="st6" points="47.6,450.8 40,461.9 45.4,437.1 	"/>
	<polygon class="st7" points="-160.6,393.2 -160.8,381.9 -148.1,369.5 	"/>
	<polygon class="st8" points="-4,515.6 12.6,506.4 23.5,503.8 	"/>
	<polygon class="st9" points="23.5,503.8 12.6,506.4 29,486.1 	"/>
	<polygon class="st10" points="0,340 13.4,343.3 19.8,358.2 	"/>
	<polygon class="st11" points="-14.8,334 13.4,343.3 0,340 	"/>
	<polygon class="st12" points="-156.4,473.5 -140.6,498.7 -155.6,491.4 	"/>
	<polygon class="st13" points="-156.4,473.5 -155.6,491.4 -159.8,459.4 	"/>
	<polygon class="st14" points="-23.5,538.4 -51.5,532.6 -33.5,533.4 	"/>
	<polygon class="st15" points="-23.5,538.4 -33.5,533.4 -9,522.3 	"/>
	<polygon class="st16" points="-165.9,444.7 -159.8,459.4 -175.4,431.9 	"/>
	<polygon class="st13" points="-168.1,418 -165.9,444.7 -175.4,431.9 	"/>
	<polygon class="st17" points="-51.5,532.6 -79.6,543.3 -60.6,535.1 	"/>
	<polygon class="st18" points="-39.6,311.9 -14.8,334 -24.6,327.1 	"/>
	<polygon class="st19" points="58.5,423.5 45.3,409.4 41.1,395.8 	"/>
	<polygon class="st20" points="45.3,409.4 36.9,382.4 41.1,395.8 	"/>
	<polygon class="st21" points="41.1,395.8 36.9,382.4 39,362.3 	"/>
	<polygon class="st22" points="-79.6,543.3 -90.1,530.2 -60.6,535.1 	"/>
	<polygon class="st23" points="-79.6,543.3 -105.8,524 -90.1,530.2 	"/>
	<polygon class="st24" points="-100.9,328 -116.8,337.4 -96.1,315.4 	"/>
	<polygon class="st25" points="-96.1,315.4 -67.9,321.5 -76.8,322.5 	"/>
	<polygon class="st26" points="-100.9,328 -96.1,315.4 -76.8,322.5 	"/>
	<polygon class="st27" points="-51,321.4 -39.6,311.9 -24.6,327.1 	"/>
	<polygon class="st28" points="-67.9,321.5 -51,321.4 -76.8,322.5 	"/>
	<polygon class="st29" points="-67.9,321.5 -39.6,311.9 -51,321.4 	"/>
	<polygon class="st30" points="-124.3,343.1 -116.8,337.4 -100.9,328 	"/>
	<polygon class="st31" points="-124.3,343.1 -147.8,347.1 -116.8,337.4 	"/>
	<polygon class="st32" points="58.5,423.5 44.9,433.4 45.3,409.4 	"/>
	<polygon class="st33" points="45.3,447.8 44.9,433.4 58.5,423.5 	"/>
	<polygon class="st34" points="-33.5,533.4 -17.4,524.6 -9,522.3 	"/>
	<polygon class="st13" points="-166.4,430 -165.9,444.7 -168.1,418 	"/>
	<polygon class="st35" points="-105.8,524 -117.1,518 -90.1,530.2 	"/>
	<polygon class="st36" points="-105.8,524 -138.1,518.4 -117.1,518 	"/>
	<polygon class="st37" points="-145.8,366.4 -147.8,347.1 -124.3,343.1 	"/>
	<polygon class="st38" points="-145.8,366.4 -155.6,379.5 -147.8,347.1 	"/>
	<polygon class="st39" points="13,350.7 39,362.3 22.6,364.8 	"/>
	<polygon class="st40" points="22.6,364.8 39,362.3 36.9,382.4 	"/>
	<polygon class="st41" points="-90.1,530.2 -72.4,532 -60.6,535.1 	"/>
	<polygon class="st42" points="48.6,476.8 39.1,454.1 45.3,447.8 	"/>
	<polygon class="st43" points="39.1,454.1 44.9,433.4 45.3,447.8 	"/>
	<polygon class="st44" points="-158.9,391.2 -155.6,379.5 -145.8,366.4 	"/>
	<polygon class="st45" points="-158.9,391.2 -176.6,402.6 -155.6,379.5 	"/>
	<polygon class="st46" points="-51,321.4 -24.6,327.1 -33.5,328.5 	"/>
	<polygon class="st24" points="-33.5,328.5 -24.6,327.1 -2.5,326.1 	"/>
	<polygon class="st47" points="-100.9,328 -76.8,322.5 -84.1,328.2 	"/>
	<polygon class="st48" points="-145.8,366.4 -124.3,343.1 -131.3,354.2 	"/>
	<polygon class="st49" points="-136.3,496.3 -117.1,518 -138.1,518.4 	"/>
	<polygon class="st50" points="-136.3,496.3 -138.1,518.4 -148.6,486.2 	"/>
	<polygon class="st51" points="48.6,476.8 28.6,475.1 39.1,454.1 	"/>
	<polygon class="st52" points="24,493.3 28.6,475.1 48.6,476.8 	"/>
	<polygon class="st53" points="45.3,409.4 39.8,413.9 51.5,393.8 	"/>
	<polygon class="st54" points="44.9,433.4 39.8,413.9 45.3,409.4 	"/>
	<polygon class="st55" points="31,385.8 36.9,382.4 51.5,393.8 	"/>
	<polygon class="st56" points="31,385.8 51.5,393.8 39.8,413.9 	"/>
	<polygon class="st57" points="22.6,364.8 36.9,382.4 31,385.8 	"/>
	<polygon class="st58" points="-158.9,391.2 -161.1,415.2 -176.6,402.6 	"/>
	<polygon class="st59" points="-161.1,415.2 -166.4,430 -176.6,402.6 	"/>
	<polygon class="st60" points="13,350.7 22.6,364.8 5.8,352.7 	"/>
	<polygon class="st61" points="-2.5,326.1 13,350.7 5.8,352.7 	"/>
	<polygon class="st24" points="-84.1,328.2 -76.8,322.5 -60.1,314.5 	"/>
	<polygon class="st62" points="13,521 13.8,493.4 24,493.3 	"/>
	<polygon class="st63" points="13.8,493.4 28.6,475.1 24,493.3 	"/>
	<polygon class="st64" points="-40.4,544.4 -72.4,532 -52.8,527.8 	"/>
	<polygon class="st65" points="-40.4,544.4 -52.8,527.8 -26.6,520.7 	"/>
	<polygon class="st66" points="-40.4,544.4 -26.6,520.7 -17.4,524.6 	"/>
	<polygon class="st67" points="-17.4,524.6 -5.5,509 13,521 	"/>
	<polygon class="st68" points="13,521 -5.5,509 13.8,493.4 	"/>
	<polygon class="st69" points="-26.6,520.7 -5.5,509 -17.4,524.6 	"/>
	<polygon class="st70" points="-150.4,468.9 -148.6,486.2 -173.4,460.8 	"/>
	<polygon class="st71" points="-136.3,496.3 -148.6,486.2 -150.4,468.9 	"/>
	<polygon class="st17" points="-158.6,440.9 -150.4,468.9 -173.4,460.8 	"/>
	<polygon class="st72" points="-158.6,440.9 -166.4,430 -161.1,415.2 	"/>
	<polygon class="st73" points="-158.6,440.9 -173.4,460.8 -166.4,430 	"/>
	<polygon class="st74" points="-15.9,343.1 -2.5,326.1 5.8,352.7 	"/>
	<polygon class="st55" points="-33.5,328.5 -2.5,326.1 -15.9,343.1 	"/>
	<polygon class="st75" points="-111.4,346.9 -131.3,354.2 -112.1,324.5 	"/>
	<polygon class="st76" points="-72.4,532 -105.6,533.2 -81.4,523.1 	"/>
	<polygon class="st77" points="-72.4,532 -81.4,523.1 -52.8,527.8 	"/>
	<polygon class="st78" points="-118.8,503.7 -117.1,518 -136.3,496.3 	"/>
	<polygon class="st79" points="-118.8,503.7 -105.6,533.2 -117.1,518 	"/>
	<polygon class="st80" points="-111.4,346.9 -112.1,324.5 -86.9,338.1 	"/>
	<polygon class="st81" points="-112.1,324.5 -84.1,328.2 -86.9,338.1 	"/>
	<polygon class="st82" points="-158.1,374.3 -150.8,401.5 -158.9,391.2 	"/>
	<polygon class="st83" points="-150.8,401.5 -161.1,415.2 -158.9,391.2 	"/>
	<polygon class="st32" points="-33.5,328.5 -15.9,343.1 -39.4,338.4 	"/>
	<polygon class="st84" points="-60.1,314.5 -33.5,328.5 -39.4,338.4 	"/>
	<polygon class="st48" points="-131.9,369.4 -131.3,354.2 -111.4,346.9 	"/>
	<polygon class="st85" points="-131.9,369.4 -158.1,374.3 -131.3,354.2 	"/>
	<polygon class="st18" points="-84.1,328.2 -60.1,314.5 -64.1,337 	"/>
	<polygon class="st33" points="-64.1,337 -60.1,314.5 -39.4,338.4 	"/>
	<polygon class="st86" points="-84.1,328.2 -64.1,337 -86.9,338.1 	"/>
	<polygon class="st87" points="31,385.8 39.8,413.9 25.5,403 	"/>
	<polygon class="st88" points="25.5,403 39.8,413.9 46.1,434.1 	"/>
	<polygon class="st89" points="28.6,475.1 26.8,452.4 39.1,454.1 	"/>
	<polygon class="st90" points="39.1,454.1 26.8,452.4 46.1,434.1 	"/>
	<polygon class="st91" points="5.8,352.7 22.6,364.8 24.8,366.9 	"/>
	<polygon class="st92" points="24.8,366.9 31,385.8 25.5,403 	"/>
	<polygon class="st23" points="-98.6,506.9 -105.6,533.2 -118.8,503.7 	"/>
	<polygon class="st93" points="-98.6,506.9 -81.4,523.1 -105.6,533.2 	"/>
	<polygon class="st94" points="-15.9,343.1 5.8,352.7 -2,362.9 	"/>
	<polygon class="st95" points="-2,362.9 5.8,352.7 24.8,366.9 	"/>
	<polygon class="st96" points="-52.8,527.8 -42.5,513.3 -26.6,520.7 	"/>
	<polygon class="st97" points="-52.8,527.8 -62.6,531.1 -42.5,513.3 	"/>
	<polygon class="st98" points="-143.4,452.1 -150.4,468.9 -158.6,440.9 	"/>
	<polygon class="st99" points="-136.1,392.1 -150.8,401.5 -158.1,374.3 	"/>
	<polygon class="st100" points="-131.9,369.4 -136.1,392.1 -158.1,374.3 	"/>
	<polygon class="st101" points="-5.5,509 -2.5,488.1 13.8,493.4 	"/>
	<polygon class="st102" points="25.5,403 46.1,434.1 17.8,422.2 	"/>
	<polygon class="st103" points="17.8,422.2 46.1,434.1 26.8,452.4 	"/>
	<polygon class="st104" points="-111.4,346.9 -86.9,338.1 -93.4,355.8 	"/>
	<polygon class="st105" points="25.5,403 17.8,422.2 7.8,390.1 	"/>
	<polygon class="st106" points="24.8,366.9 25.5,403 7.8,390.1 	"/>
	<polygon class="st107" points="-2,362.9 24.8,366.9 7.8,390.1 	"/>
	<polygon class="st17" points="-142.4,485.6 -118.8,503.7 -136.3,496.3 	"/>
	<polygon class="st108" points="-143.4,452.1 -142.4,485.6 -150.4,468.9 	"/>
	<polygon class="st109" points="-72.1,508.3 -62.6,531.1 -81.4,523.1 	"/>
	<polygon class="st110" points="-72.1,508.3 -81.4,523.1 -98.6,506.9 	"/>
	<polygon class="st111" points="-72.1,508.3 -42.5,513.3 -62.6,531.1 	"/>
	<polygon class="st112" points="-159.4,424 -143.4,452.1 -158.6,440.9 	"/>
	<polygon class="st113" points="-150.8,401.5 -159.4,424 -161.1,415.2 	"/>
	<polygon class="st72" points="-159.4,424 -158.6,440.9 -161.1,415.2 	"/>
	<polygon class="st114" points="-121.1,352.7 -111.4,346.9 -93.4,355.8 	"/>
	<polygon class="st115" points="13.8,493.4 -2.5,488.1 22.3,476.1 	"/>
	<polygon class="st116" points="28.6,475.1 22.3,476.1 26.8,452.4 	"/>
	<polygon class="st117" points="13.8,493.4 22.3,476.1 28.6,475.1 	"/>
	<polygon class="st118" points="-64.1,337 -39.4,338.4 -47.1,352.4 	"/>
	<polygon class="st119" points="-110.1,486.8 -118.8,503.7 -142.4,485.6 	"/>
	<polygon class="st120" points="-98.6,506.9 -118.8,503.7 -110.1,486.8 	"/>
	<polygon class="st121" points="-114.6,379.1 -136.1,392.1 -131.9,369.4 	"/>
	<polygon class="st122" points="-121.1,352.7 -93.4,355.8 -114.6,379.1 	"/>
	<polygon class="st123" points="-121.1,352.7 -114.6,379.1 -131.9,369.4 	"/>
	<polygon class="st124" points="-26.6,520.7 -42.5,513.3 -16.8,510.9 	"/>
	<polygon class="st125" points="-5.5,509 -16.8,510.9 -2.5,488.1 	"/>
	<polygon class="st126" points="-26.6,520.7 -16.8,510.9 -5.5,509 	"/>
	<polygon class="st127" points="-132.6,413.2 -150.8,401.5 -136.1,392.1 	"/>
	<polygon class="st128" points="-132.6,413.2 -159.4,424 -150.8,401.5 	"/>
	<polygon class="st129" points="-47.1,352.4 -39.4,338.4 -18.8,348.4 	"/>
	<polygon class="st130" points="-39.4,338.4 -15.9,343.1 -18.8,348.4 	"/>
	<polygon class="st91" points="-18.8,348.4 -15.9,343.1 -2,362.9 	"/>
	<polygon class="st131" points="17.8,422.2 26.8,452.4 5,442.3 	"/>
	<polygon class="st132" points="5,442.3 26.8,452.4 22.3,476.1 	"/>
	<polygon class="st133" points="-120.9,463 -142.4,485.6 -143.4,452.1 	"/>
	<polygon class="st134" points="-120.9,463 -110.1,486.8 -142.4,485.6 	"/>
	<polygon class="st135" points="-2,362.9 7.8,390.1 -14.9,380.9 	"/>
	<polygon class="st136" points="-18.8,348.4 -2,362.9 -14.9,380.9 	"/>
	<polygon class="st137" points="-51,494.3 -16.8,510.9 -42.5,513.3 	"/>
	<polygon class="st138" points="-51,494.3 -42.5,513.3 -72.1,508.3 	"/>
	<polygon class="st139" points="-120.9,463 -143.4,452.1 -127.9,438.1 	"/>
	<polygon class="st140" points="-132.6,413.2 -127.9,438.1 -159.4,424 	"/>
	<polygon class="st141" points="-127.9,438.1 -143.4,452.1 -159.4,424 	"/>
	<polygon class="st142" points="-71.1,343.2 -64.1,337 -47.1,352.4 	"/>
	<polygon class="st143" points="-86.9,338.1 -64.1,337 -71.1,343.2 	"/>
	<polygon class="st11" points="-93.4,355.8 -86.9,338.1 -71.1,343.2 	"/>
	<polygon class="st144" points="5,442.3 22.3,476.1 -11,461.5 	"/>
	<polygon class="st145" points="-11,461.5 22.3,476.1 -2.5,488.1 	"/>
	<polygon class="st146" points="-30.4,479.8 -2.5,488.1 -16.8,510.9 	"/>
	<polygon class="st147" points="-30.4,479.8 -16.8,510.9 -51,494.3 	"/>
	<polygon class="st148" points="-11,461.5 -2.5,488.1 -30.4,479.8 	"/>
	<polygon class="st149" points="-93.4,355.8 -71.1,343.2 -89.6,376.3 	"/>
	<polygon class="st9" points="-93.4,355.8 -89.6,376.3 -114.6,379.1 	"/>
	<polygon class="st150" points="-47.1,352.4 -18.8,348.4 -39.5,374.8 	"/>
	<polygon class="st151" points="-18.8,348.4 -14.9,380.9 -39.5,374.8 	"/>
	<polygon class="st152" points="-71.1,343.2 -65.4,372.6 -89.6,376.3 	"/>
	<polygon class="st153" points="-71.1,343.2 -47.1,352.4 -65.4,372.6 	"/>
	<polygon class="st154" points="-47.1,352.4 -39.5,374.8 -65.4,372.6 	"/>
	<polygon class="st155" points="-94.4,469.9 -110.1,486.8 -120.9,463 	"/>
	<polygon class="st156" points="-30.4,479.8 -51,494.3 -63.4,473.8 	"/>
	<polygon class="st157" points="-109.4,422.6 -127.9,438.1 -132.6,413.2 	"/>
	<polygon class="st158" points="-86.8,497.9 -72.1,508.3 -98.6,506.9 	"/>
	<polygon class="st159" points="-94.4,469.9 -63.4,473.8 -86.8,497.9 	"/>
	<polygon class="st160" points="-63.4,473.8 -51,494.3 -86.8,497.9 	"/>
	<polygon class="st161" points="-86.8,497.9 -51,494.3 -72.1,508.3 	"/>
	<polygon class="st162" points="-94.4,469.9 -86.8,497.9 -110.1,486.8 	"/>
	<polygon class="st163" points="-86.8,497.9 -98.6,506.9 -110.1,486.8 	"/>
	<polygon class="st164" points="5,442.3 -11,461.5 -23,431.1 	"/>
	<polygon class="st165" points="-65.4,372.6 -88.8,398.8 -89.6,376.3 	"/>
	<polygon class="st166" points="-14.9,380.9 -33.3,401.4 -39.5,374.8 	"/>
	<polygon class="st167" points="7.8,390.1 17.8,422.2 1.3,407.3 	"/>
	<polygon class="st168" points="-14.9,380.9 1.3,407.3 -33.3,401.4 	"/>
	<polygon class="st169" points="-14.9,380.9 7.8,390.1 1.3,407.3 	"/>
	<polygon class="st170" points="1.3,407.3 5,442.3 -23,431.1 	"/>
	<polygon class="st171" points="1.3,407.3 17.8,422.2 5,442.3 	"/>
	<polygon class="st172" points="-33.3,401.4 1.3,407.3 -23,431.1 	"/>
	<polygon class="st173" points="-119.9,397.3 -88.8,398.8 -109.4,422.6 	"/>
	<polygon class="st174" points="-89.6,376.3 -88.8,398.8 -119.9,397.3 	"/>
	<polygon class="st175" points="-119.9,397.3 -109.4,422.6 -132.6,413.2 	"/>
	<polygon class="st176" points="-119.9,397.3 -132.6,413.2 -136.1,392.1 	"/>
	<polygon class="st113" points="-114.6,379.1 -119.9,397.3 -136.1,392.1 	"/>
	<polygon class="st177" points="-114.6,379.1 -89.6,376.3 -119.9,397.3 	"/>
	<polygon class="st178" points="-73.6,449 -63.4,473.8 -94.4,469.9 	"/>
	<polygon class="st179" points="-88.8,398.8 -82.6,423.9 -109.4,422.6 	"/>
	<polygon class="st110" points="-53.1,424.5 -73.6,449 -82.6,423.9 	"/>
	<polygon class="st180" points="-33.3,401.4 -23,431.1 -53.1,424.5 	"/>
	<polygon class="st181" points="-107.6,449.8 -73.6,449 -94.4,469.9 	"/>
	<polygon class="st182" points="-107.6,449.8 -94.4,469.9 -120.9,463 	"/>
	<polygon class="st183" points="-109.4,422.6 -107.6,449.8 -127.9,438.1 	"/>
	<polygon class="st184" points="-107.6,449.8 -120.9,463 -127.9,438.1 	"/>
	<polygon class="st67" points="-82.6,423.9 -73.6,449 -107.6,449.8 	"/>
	<polygon class="st185" points="-109.4,422.6 -82.6,423.9 -107.6,449.8 	"/>
	<polygon class="st117" points="-62.8,392.5 -33.3,401.4 -53.1,424.5 	"/>
	<polygon class="st186" points="-39.5,374.8 -33.3,401.4 -62.8,392.5 	"/>
	<polygon class="st187" points="-65.4,372.6 -39.5,374.8 -62.8,392.5 	"/>
	<polygon class="st188" points="-62.8,392.5 -53.1,424.5 -82.6,423.9 	"/>
	<polygon class="st189" points="-65.4,372.6 -62.8,392.5 -88.8,398.8 	"/>
	<polygon class="st190" points="-88.8,398.8 -62.8,392.5 -82.6,423.9 	"/>
	<polygon class="st191" points="-23,431.1 -11,461.5 -40.4,456.4 	"/>
	<polygon class="st192" points="-40.4,456.4 -11,461.5 -30.4,479.8 	"/>
	<polygon class="st193" points="-53.1,424.5 -40.4,456.4 -73.6,449 	"/>
	<polygon class="st194" points="-53.1,424.5 -23,431.1 -40.4,456.4 	"/>
	<polygon class="st195" points="-40.4,456.4 -30.4,479.8 -63.4,473.8 	"/>
	<polygon class="st196" points="-73.6,449 -40.4,456.4 -63.4,473.8 	"/>
</g>
<polygon class="st197" points="-158.1,309.6 -134.9,319.5 -126.3,340.3 "/>
<polygon class="st198" points="-131.3,310.8 -126.3,340.3 -134.9,319.5 -142.9,301.9 "/>
<polygon class="st199" points="-175.1,301.9 -158.1,309.6 -134.9,319.5 -142.9,301.9 "/>
<polygon class="st200" points="-156.8,289.3 -142.9,301.9 -175.1,301.9 "/>
<polygon class="st197" points="-183.3,289.3 -156.8,289.3 -175.1,301.9 "/>
<polygon class="st199" points="-156.8,289.3 -138.9,290.6 -155.1,280.3 -183.3,289.3 "/>
<polygon class="st198" points="-130.4,290.6 -138.9,290.6 -155.1,280.3 "/>
<polygon class="st197" points="-131.3,310.8 -138.9,290.6 -156.8,289.3 -142.9,301.9 "/>
<polygon class="st197" points="-121.4,338.8 -131.3,310.8 -126.3,340.3 "/>
<polygon class="st199" points="-130.4,290.6 -121.4,338.8 -131.3,310.8 -138.9,290.6 "/>
</svg>
