<?xml version="1.0" encoding="utf-8"?>
<!-- Generator: Adobe Illustrator 19.0.0, SVG Export Plug-In . SVG Version: 6.00 Build 0)  -->
<svg version="1.1" id="Layer_1" xmlns="http://www.w3.org/2000/svg" xmlns:xlink="http://www.w3.org/1999/xlink" x="0px" y="0px"
	 viewBox="-216 258.3 757.6 325.6" style="enable-background:new -216 258.3 757.6 325.6;" xml:space="preserve">
<style type="text/css">
	.st0{enable-background:new    ;}
	.st1{fill:#333333;}
	.st2{fill:#727376;}
	.st3{fill:#898A8D;}
	.st4{fill:#A0A1A3;}
	.st5{fill:#8D8E91;}
	.st6{fill:#6C6E70;}
	.st7{fill:#F2F2F2;}
	.st8{fill:#E5E5E5;}
	.st9{fill:#A0A0A0;}
	.st10{fill:#CCCCCC;}
	.st11{fill:#D8D8D8;}
	.st12{fill:#999999;}
	.st13{fill:#A5A5A5;}
	.st14{fill:#BFBFBF;}
	.st15{fill:#808183;}
	.st16{fill:#9C9EA0;}
	.st17{fill:#B9B9BA;}
	.st18{fill:#6E6F72;}
	.st19{fill:#B9BABA;}
	.st20{fill:#B2B2B2;}
	.st21{fill:#727272;}
	.st22{fill:#8C8C8C;}
</style>
<g>
	<g class="st0">
		<path class="st1" d="M98.2,388.4h2.7c0.3,5.7,2.8,10.4,7.6,14c4.8,3.6,10.8,5.5,18,5.5c7,0,12.8-1.8,17.3-5.4s6.7-8.2,6.7-13.8
			c0-4.4-1.5-7.9-4.6-10.6s-8.1-4.9-15.1-6.6l-9.1-2.3c-7.4-1.8-12.8-4.3-16.2-7.3c-3.4-3-5.1-7-5.1-11.8c0-5.9,2.5-10.9,7.4-14.9
			s10.9-6,17.8-6c7.3,0,13.4,1.9,18.4,5.7c5,3.8,7.6,8.5,7.8,14.1h-2.7c-0.3-4.9-2.6-9-7.1-12.3c-4.4-3.3-9.9-4.9-16.4-4.9
			c-6.3,0-11.6,1.7-15.9,5.2c-4.4,3.5-6.5,7.8-6.5,13.1c0,4.2,1.5,7.5,4.6,10.1s8,4.7,14.8,6.4l9,2.2c7.5,1.9,13.1,4.4,16.5,7.5
			c3.5,3.1,5.2,7.2,5.2,12.2c0,6.4-2.5,11.6-7.5,15.7s-11.4,6.1-19.4,6.1s-14.6-2.1-19.9-6.2C101.3,400.1,98.4,394.8,98.2,388.4z"/>
		<path class="st1" d="M238.3,330.4v78.9h-2.7v-72.6h-0.2l-31.9,72.6h-2.9l-31.9-72.6h-0.2v72.6h-2.7v-78.9h2.9l33.3,75.5h0.2
			l33.1-75.5H238.3z"/>
		<path class="st1" d="M309.6,409.3l-10.3-27.4h-36.7l-10.5,27.4h-3l30.4-78.9h2.8l30.4,78.9H309.6z M280.8,334.1l-17.2,45.2h34.7
			l-17.2-45.2H280.8z"/>
		<path class="st1" d="M326.1,374.8v34.5h-2.8v-78.9h24.5c7.9,0,14.1,2,18.6,5.9c4.5,4,6.8,9.4,6.8,16.3c0,5.8-1.7,10.6-5,14.4
			s-8,6.3-13.9,7.3l20.8,35H372l-20.6-34.6c-1.3,0.1-2.5,0.1-3.6,0.1L326.1,374.8L326.1,374.8z M326.1,332.9v39.4h21.7
			c7,0,12.6-1.8,16.6-5.3s6-8.3,6-14.4c0-6.2-2-11-6-14.5s-9.6-5.2-16.7-5.2H326.1z"/>
		<path class="st1" d="M411.6,409.3h-2.7V333h-28.5v-2.6H440v2.6h-28.5L411.6,409.3L411.6,409.3z"/>
	</g>
	<g class="st0">
		<path class="st1" d="M133.6,417.3c10.6,0,19.1,3.7,25.3,11c6.3,7.3,9.4,17.2,9.4,29.6s-3.1,22.3-9.4,29.6
			c-6.3,7.3-14.7,11-25.4,11c-10.7,0-19.1-3.7-25.4-11s-9.4-17.2-9.4-29.6s3.1-22.2,9.4-29.6C114.4,420.9,122.8,417.3,133.6,417.3z
			 M133.6,419.8c-9.8,0-17.6,3.4-23.4,10.3c-5.8,6.8-8.7,16.1-8.7,27.7s2.9,20.8,8.7,27.7c5.8,6.9,13.6,10.3,23.4,10.3
			c9.7,0,17.5-3.4,23.3-10.3s8.7-16.1,8.7-27.7s-2.9-20.8-8.7-27.7C151.1,423.3,143.3,419.8,133.6,419.8z"/>
		<path class="st1" d="M184.1,462.8v34.5h-2.8v-78.9h24.5c7.9,0,14.1,2,18.6,5.9c4.5,4,6.8,9.4,6.8,16.3c0,5.8-1.7,10.6-5,14.4
			c-3.4,3.8-8,6.3-13.9,7.3l20.8,35H230l-20.6-34.6c-1.3,0.1-2.5,0.1-3.6,0.1L184.1,462.8L184.1,462.8z M184.1,420.9v39.4h21.7
			c7,0,12.6-1.8,16.6-5.3s6-8.3,6-14.4c0-6.2-2-11-6-14.5s-9.6-5.2-16.7-5.2H184.1z"/>
		<path class="st1" d="M300.3,497.3L290,469.9h-36.7l-10.4,27.4h-3l30.4-78.9h2.8l30.4,78.9H300.3z M271.6,422.1l-17.3,45.2H289
			l-17.2-45.2H271.6z"/>
		<path class="st1" d="M316.8,497.3H314v-78.9h3l52.4,73.7h0.2v-73.7h2.7v78.9h-2.5L317,423h-0.2L316.8,497.3L316.8,497.3z"/>
		<path class="st1" d="M450.8,466.4c0,9.9-2.8,17.7-8.4,23.4c-5.6,5.7-13.3,8.5-23,8.5c-6.6,0-12.5-1.7-17.7-5.2
			c-5.2-3.4-9.2-8.3-12-14.5c-2.9-6.2-4.3-13.4-4.3-21.4c0-12,3.1-21.7,9.4-29c6.2-7.3,14.5-11,24.7-11c7.8,0,14.5,2.2,20.2,6.5
			s9.2,9.9,10.7,16.9h-2.7c-1.5-6.3-4.9-11.3-10-15.1c-5.1-3.8-11.2-5.7-18.2-5.7c-9.4,0-17,3.4-22.7,10.3s-8.5,15.9-8.5,27.2
			c0,11.4,2.9,20.7,8.7,27.8c5.8,7.1,13.3,10.7,22.6,10.7c8.9,0,15.9-2.6,21-7.8c5.1-5.2,7.7-12.4,7.7-21.4v-5.5h-29v-2.5H451v7.8
			H450.8z"/>
		<path class="st1" d="M509.6,494.7v2.6h-45.2v-78.9h45.2v2.6h-42.4v34.6h40.5v2.5h-40.5v36.7h42.4V494.7z"/>
	</g>
</g>
<g>
	<polygon class="st2" points="61.4,436.5 60.4,430.9 72.3,409.2 60.8,390.8 65.3,379.5 54.3,371 52.8,348 31.2,338.3 27.2,329 
		20.8,326.9 11.3,311.8 -8.8,312.7 -25.8,297.6 -41.3,302.9 -46.3,300.2 -58.6,306.2 -82.3,301.1 -91.8,311.1 -98.3,310.2 
		-107.6,324.5 -134,332.8 -139.6,356.5 -144.3,360 -144.6,365.3 -147,367.6 -146.8,370.8 -162.8,388.3 -155.8,406.8 -161.6,417.6 
		-155.5,428.4 -159.6,446.5 -143.6,462.8 -141.8,477.1 -131.5,482.2 -124.3,504.1 -100,508.3 -91.8,518.9 -80.1,518.5 -65.8,529 
		-47.3,522 -26.6,530.1 -17.7,522.5 -9.7,524.1 3.4,509.5 26.8,506.7 32.9,491.4 37.3,489.5 41.3,476.6 62.4,462.5 59.8,439 	"/>
	<polygon class="st3" points="36.6,458.1 31.4,468.5 41.8,445.7 	"/>
	<polygon class="st4" points="-0.2,503.1 -7.5,506 13.3,490.8 	"/>
	<polygon class="st5" points="55.6,397.2 46.8,369.6 54.8,384.2 	"/>
	<polygon class="st6" points="-96.6,503.8 -104.3,499.5 -78.8,508.6 	"/>
	<polygon class="st7" points="61.4,436.5 53.8,447.6 59.2,422.8 	"/>
	<polygon class="st8" points="-146.8,378.9 -147,367.6 -134.3,355.2 	"/>
	<polygon class="st9" points="9.8,501.3 26.4,492.1 37.3,489.5 	"/>
	<polygon class="st10" points="37.3,489.5 26.4,492.1 42.8,471.8 	"/>
	<polygon class="st11" points="13.8,325.7 27.2,329 33.6,343.9 	"/>
	<polygon class="st7" points="-1,319.7 27.2,329 13.8,325.7 	"/>
	<polygon class="st12" points="-142.6,459.2 -126.8,484.4 -141.8,477.1 	"/>
	<polygon class="st13" points="-142.6,459.2 -141.8,477.1 -146,445.1 	"/>
	<polygon class="st14" points="-9.7,524.1 -37.7,518.3 -19.7,519.1 	"/>
	<polygon class="st11" points="-9.7,524.1 -19.7,519.1 4.8,508 	"/>
	<polygon class="st14" points="-152.1,430.4 -146,445.1 -161.6,417.6 	"/>
	<polygon class="st11" points="-154.3,403.7 -152.1,430.4 -161.6,417.6 	"/>
	<polygon class="st10" points="-37.7,518.3 -65.8,529 -46.8,520.8 	"/>
	<polygon class="st8" points="-25.8,297.6 -1,319.7 -10.8,312.8 	"/>
	<polygon class="st8" points="72.3,409.2 59.1,395.1 54.9,381.5 	"/>
	<polygon class="st15" points="59.1,395.1 50.7,368.1 54.9,381.5 	"/>
	<polygon class="st11" points="54.9,381.5 50.7,368.1 52.8,348 	"/>
	<polygon class="st12" points="-65.8,529 -76.3,515.9 -46.8,520.8 	"/>
	<polygon class="st12" points="-65.8,529 -92,509.7 -76.3,515.9 	"/>
	<polygon class="st7" points="-87.1,313.7 -103,323.1 -82.3,301.1 	"/>
	<polygon class="st7" points="-82.3,301.1 -54.1,307.2 -63,308.2 	"/>
	<polygon class="st8" points="-87.1,313.7 -82.3,301.1 -63,308.2 	"/>
	<polygon class="st7" points="-37.2,307.1 -25.8,297.6 -10.8,312.8 	"/>
	<polygon class="st16" points="-54.1,307.2 -37.2,307.1 -63,308.2 	"/>
	<polygon class="st8" points="-54.1,307.2 -25.8,297.6 -37.2,307.1 	"/>
	<polygon class="st17" points="-110.5,328.8 -103,323.1 -87.1,313.7 	"/>
	<polygon class="st8" points="-110.5,328.8 -134,332.8 -103,323.1 	"/>
	<polygon class="st7" points="72.3,409.2 58.7,419.1 59.1,395.1 	"/>
	<polygon class="st8" points="59.1,433.5 58.7,419.1 72.3,409.2 	"/>
	<polygon class="st14" points="-19.7,519.1 -3.6,510.3 4.8,508 	"/>
	<polygon class="st13" points="-152.6,415.7 -152.1,430.4 -154.3,403.7 	"/>
	<polygon class="st18" points="-92,509.7 -103.3,503.7 -76.3,515.9 	"/>
	<polygon class="st12" points="-92,509.7 -124.3,504.1 -103.3,503.7 	"/>
	<polygon class="st7" points="-132,352.1 -134,332.8 -110.5,328.8 	"/>
	<polygon class="st8" points="-132,352.1 -141.8,365.2 -134,332.8 	"/>
	<polygon class="st8" points="26.8,336.4 52.8,348 36.4,350.5 	"/>
	<polygon class="st7" points="36.4,350.5 52.8,348 50.7,368.1 	"/>
	<polygon class="st10" points="-76.3,515.9 -58.6,517.7 -46.8,520.8 	"/>
	<polygon class="st11" points="62.4,462.5 52.9,439.8 59.1,433.5 	"/>
	<polygon class="st10" points="52.9,439.8 58.7,419.1 59.1,433.5 	"/>
	<polygon class="st19" points="-145.1,376.9 -141.8,365.2 -132,352.1 	"/>
	<polygon class="st7" points="-145.1,376.9 -162.8,388.3 -141.8,365.2 	"/>
	<polygon class="st10" points="-37.2,307.1 -10.8,312.8 -19.7,314.2 	"/>
	<polygon class="st7" points="-19.7,314.2 -10.8,312.8 11.3,311.8 	"/>
	<polygon class="st10" points="-87.1,313.7 -63,308.2 -70.3,313.9 	"/>
	<polygon class="st8" points="-132,352.1 -110.5,328.8 -117.5,339.9 	"/>
	<polygon class="st13" points="-122.5,482 -103.3,503.7 -124.3,504.1 	"/>
	<polygon class="st20" points="-122.5,482 -124.3,504.1 -134.8,471.9 	"/>
	<polygon class="st8" points="62.4,462.5 42.4,460.8 52.9,439.8 	"/>
	<polygon class="st7" points="37.8,479 42.4,460.8 62.4,462.5 	"/>
	<polygon class="st10" points="59.1,395.1 53.6,399.6 65.3,379.5 	"/>
	<polygon class="st11" points="58.7,419.1 53.6,399.6 59.1,395.1 	"/>
	<polygon class="st8" points="44.8,371.5 50.7,368.1 65.3,379.5 	"/>
	<polygon class="st7" points="44.8,371.5 65.3,379.5 53.6,399.6 	"/>
	<polygon class="st10" points="36.4,350.5 50.7,368.1 44.8,371.5 	"/>
	<polygon class="st11" points="-145.1,376.9 -147.3,400.9 -162.8,388.3 	"/>
	<polygon class="st20" points="-147.3,400.9 -152.6,415.7 -162.8,388.3 	"/>
	<polygon class="st10" points="26.8,336.4 36.4,350.5 19.6,338.4 	"/>
	<polygon class="st8" points="11.3,311.8 26.8,336.4 19.6,338.4 	"/>
	<polygon class="st11" points="-70.3,313.9 -63,308.2 -46.3,300.2 	"/>
	<polygon class="st11" points="26.8,506.7 27.6,479.1 37.8,479 	"/>
	<polygon class="st8" points="27.6,479.1 42.4,460.8 37.8,479 	"/>
	<polygon class="st13" points="-26.6,530.1 -58.6,517.7 -39,513.5 	"/>
	<polygon class="st10" points="-26.6,530.1 -39,513.5 -12.8,506.4 	"/>
	<polygon class="st8" points="-26.6,530.1 -12.8,506.4 -3.6,510.3 	"/>
	<polygon class="st10" points="-3.6,510.3 8.3,494.7 26.8,506.7 	"/>
	<polygon class="st8" points="26.8,506.7 8.3,494.7 27.6,479.1 	"/>
	<polygon class="st11" points="-12.8,506.4 8.3,494.7 -3.6,510.3 	"/>
	<polygon class="st20" points="-136.6,454.6 -134.8,471.9 -159.6,446.5 	"/>
	<polygon class="st12" points="-122.5,482 -134.8,471.9 -136.6,454.6 	"/>
	<polygon class="st12" points="-144.8,426.6 -136.6,454.6 -159.6,446.5 	"/>
	<polygon class="st11" points="-144.8,426.6 -152.6,415.7 -147.3,400.9 	"/>
	<polygon class="st7" points="-144.8,426.6 -159.6,446.5 -152.6,415.7 	"/>
	<polygon class="st7" points="-2.1,328.8 11.3,311.8 19.6,338.4 	"/>
	<polygon class="st8" points="-19.7,314.2 11.3,311.8 -2.1,328.8 	"/>
	<polygon class="st11" points="-97.6,332.6 -117.5,339.9 -98.3,310.2 	"/>
	<polygon class="st13" points="-58.6,517.7 -91.8,518.9 -67.6,508.8 	"/>
	<polygon class="st12" points="-58.6,517.7 -67.6,508.8 -39,513.5 	"/>
	<polygon class="st12" points="-105,489.4 -103.3,503.7 -122.5,482 	"/>
	<polygon class="st14" points="-105,489.4 -91.8,518.9 -103.3,503.7 	"/>
	<polygon class="st8" points="-97.6,332.6 -98.3,310.2 -73.1,323.8 	"/>
	<polygon class="st11" points="-98.3,310.2 -70.3,313.9 -73.1,323.8 	"/>
	<polygon class="st11" points="-144.3,360 -137,387.2 -145.1,376.9 	"/>
	<polygon class="st14" points="-137,387.2 -147.3,400.9 -145.1,376.9 	"/>
	<polygon class="st10" points="-19.7,314.2 -2.1,328.8 -25.6,324.1 	"/>
	<polygon class="st11" points="-46.3,300.2 -19.7,314.2 -25.6,324.1 	"/>
	<polygon class="st7" points="-118.1,355.1 -117.5,339.9 -97.6,332.6 	"/>
	<polygon class="st11" points="-118.1,355.1 -144.3,360 -117.5,339.9 	"/>
	<polygon class="st7" points="-70.3,313.9 -46.3,300.2 -50.3,322.7 	"/>
	<polygon class="st8" points="-50.3,322.7 -46.3,300.2 -25.6,324.1 	"/>
	<polygon class="st8" points="-70.3,313.9 -50.3,322.7 -73.1,323.8 	"/>
	<polygon class="st8" points="44.8,371.5 53.6,399.6 39.3,388.7 	"/>
	<polygon class="st10" points="39.3,388.7 53.6,399.6 59.9,419.8 	"/>
	<polygon class="st11" points="42.4,460.8 40.6,438.1 52.9,439.8 	"/>
	<polygon class="st7" points="52.9,439.8 40.6,438.1 59.9,419.8 	"/>
	<polygon class="st8" points="19.6,338.4 36.4,350.5 38.6,352.6 	"/>
	<polygon class="st11" points="38.6,352.6 44.8,371.5 39.3,388.7 	"/>
	<polygon class="st13" points="-84.8,492.6 -91.8,518.9 -105,489.4 	"/>
	<polygon class="st14" points="-84.8,492.6 -67.6,508.8 -91.8,518.9 	"/>
	<polygon class="st8" points="-2.1,328.8 19.6,338.4 11.8,348.6 	"/>
	<polygon class="st7" points="11.8,348.6 19.6,338.4 38.6,352.6 	"/>
	<polygon class="st11" points="-39,513.5 -28.7,499 -12.8,506.4 	"/>
	<polygon class="st8" points="-39,513.5 -48.8,516.8 -28.7,499 	"/>
	<polygon class="st14" points="-129.6,437.8 -136.6,454.6 -144.8,426.6 	"/>
	<polygon class="st10" points="-122.3,377.8 -137,387.2 -144.3,360 	"/>
	<polygon class="st8" points="-118.1,355.1 -122.3,377.8 -144.3,360 	"/>
	<polygon class="st11" points="8.3,494.7 11.3,473.8 27.6,479.1 	"/>
	<polygon class="st7" points="39.3,388.7 59.9,419.8 31.6,407.9 	"/>
	<polygon class="st11" points="31.6,407.9 59.9,419.8 40.6,438.1 	"/>
	<polygon class="st11" points="-97.6,332.6 -73.1,323.8 -79.6,341.5 	"/>
	<polygon class="st10" points="39.3,388.7 31.6,407.9 21.6,375.8 	"/>
	<polygon class="st7" points="38.6,352.6 39.3,388.7 21.6,375.8 	"/>
	<polygon class="st11" points="11.8,348.6 38.6,352.6 21.6,375.8 	"/>
	<polygon class="st13" points="-128.6,471.3 -105,489.4 -122.5,482 	"/>
	<polygon class="st13" points="-129.6,437.8 -128.6,471.3 -136.6,454.6 	"/>
	<polygon class="st20" points="-58.3,494 -48.8,516.8 -67.6,508.8 	"/>
	<polygon class="st12" points="-58.3,494 -67.6,508.8 -84.8,492.6 	"/>
	<polygon class="st11" points="-58.3,494 -28.7,499 -48.8,516.8 	"/>
	<polygon class="st20" points="-145.6,409.7 -129.6,437.8 -144.8,426.6 	"/>
	<polygon class="st7" points="-137,387.2 -145.6,409.7 -147.3,400.9 	"/>
	<polygon class="st13" points="-145.6,409.7 -144.8,426.6 -147.3,400.9 	"/>
	<polygon class="st8" points="-107.3,338.4 -97.6,332.6 -79.6,341.5 	"/>
	<polygon class="st10" points="27.6,479.1 11.3,473.8 36.1,461.8 	"/>
	<polygon class="st10" points="42.4,460.8 36.1,461.8 40.6,438.1 	"/>
	<polygon class="st11" points="27.6,479.1 36.1,461.8 42.4,460.8 	"/>
	<polygon class="st11" points="-50.3,322.7 -25.6,324.1 -33.3,338.1 	"/>
	<polygon class="st14" points="-96.3,472.5 -105,489.4 -128.6,471.3 	"/>
	<polygon class="st12" points="-84.8,492.6 -105,489.4 -96.3,472.5 	"/>
	<polygon class="st11" points="-100.8,364.8 -122.3,377.8 -118.1,355.1 	"/>
	<polygon class="st11" points="-107.3,338.4 -79.6,341.5 -100.8,364.8 	"/>
	<polygon class="st8" points="-107.3,338.4 -100.8,364.8 -118.1,355.1 	"/>
	<polygon class="st14" points="-12.8,506.4 -28.7,499 -3,496.6 	"/>
	<polygon class="st14" points="8.3,494.7 -3,496.6 11.3,473.8 	"/>
	<polygon class="st8" points="-12.8,506.4 -3,496.6 8.3,494.7 	"/>
	<polygon class="st14" points="-118.8,398.9 -137,387.2 -122.3,377.8 	"/>
	<polygon class="st8" points="-118.8,398.9 -145.6,409.7 -137,387.2 	"/>
	<polygon class="st7" points="-33.3,338.1 -25.6,324.1 -5,334.1 	"/>
	<polygon class="st11" points="-25.6,324.1 -2.1,328.8 -5,334.1 	"/>
	<polygon class="st10" points="-5,334.1 -2.1,328.8 11.8,348.6 	"/>
	<polygon class="st8" points="31.6,407.9 40.6,438.1 18.8,428 	"/>
	<polygon class="st7" points="18.8,428 40.6,438.1 36.1,461.8 	"/>
	<polygon class="st14" points="-107.1,448.7 -128.6,471.3 -129.6,437.8 	"/>
	<polygon class="st13" points="-107.1,448.7 -96.3,472.5 -128.6,471.3 	"/>
	<polygon class="st8" points="11.8,348.6 21.6,375.8 -1.1,366.6 	"/>
	<polygon class="st7" points="-5,334.1 11.8,348.6 -1.1,366.6 	"/>
	<polygon class="st13" points="-37.2,480 -3,496.6 -28.7,499 	"/>
	<polygon class="st14" points="-37.2,480 -28.7,499 -58.3,494 	"/>
	<polygon class="st12" points="-107.1,448.7 -129.6,437.8 -114.1,423.8 	"/>
	<polygon class="st20" points="-118.8,398.9 -114.1,423.8 -145.6,409.7 	"/>
	<polygon class="st13" points="-114.1,423.8 -129.6,437.8 -145.6,409.7 	"/>
	<polygon class="st10" points="-57.3,328.9 -50.3,322.7 -33.3,338.1 	"/>
	<polygon class="st11" points="-73.1,323.8 -50.3,322.7 -57.3,328.9 	"/>
	<polygon class="st7" points="-79.6,341.5 -73.1,323.8 -57.3,328.9 	"/>
	<polygon class="st8" points="18.8,428 36.1,461.8 2.8,447.2 	"/>
	<polygon class="st10" points="2.8,447.2 36.1,461.8 11.3,473.8 	"/>
	<polygon class="st10" points="-16.6,465.5 11.3,473.8 -3,496.6 	"/>
	<polygon class="st20" points="-16.6,465.5 -3,496.6 -37.2,480 	"/>
	<polygon class="st14" points="2.8,447.2 11.3,473.8 -16.6,465.5 	"/>
	<polygon class="st8" points="-79.6,341.5 -57.3,328.9 -75.8,362 	"/>
	<polygon class="st10" points="-79.6,341.5 -75.8,362 -100.8,364.8 	"/>
	<polygon class="st11" points="-33.3,338.1 -5,334.1 -25.7,360.5 	"/>
	<polygon class="st8" points="-5,334.1 -1.1,366.6 -25.7,360.5 	"/>
	<polygon class="st14" points="-57.3,328.9 -51.6,358.3 -75.8,362 	"/>
	<polygon class="st8" points="-57.3,328.9 -33.3,338.1 -51.6,358.3 	"/>
	<polygon class="st10" points="-33.3,338.1 -25.7,360.5 -51.6,358.3 	"/>
	<polygon class="st12" points="-80.6,455.6 -96.3,472.5 -107.1,448.7 	"/>
	<polygon class="st13" points="-16.6,465.5 -37.2,480 -49.6,459.5 	"/>
	<polygon class="st12" points="-95.6,408.3 -114.1,423.8 -118.8,398.9 	"/>
	<polygon class="st14" points="-73,483.6 -58.3,494 -84.8,492.6 	"/>
	<polygon class="st14" points="-80.6,455.6 -49.6,459.5 -73,483.6 	"/>
	<polygon class="st12" points="-49.6,459.5 -37.2,480 -73,483.6 	"/>
	<polygon class="st20" points="-73,483.6 -37.2,480 -58.3,494 	"/>
	<polygon class="st13" points="-80.6,455.6 -73,483.6 -96.3,472.5 	"/>
	<polygon class="st20" points="-73,483.6 -84.8,492.6 -96.3,472.5 	"/>
	<polygon class="st10" points="18.8,428 2.8,447.2 -9.2,416.8 	"/>
	<polygon class="st20" points="-51.6,358.3 -75,384.5 -75.8,362 	"/>
	<polygon class="st11" points="-1.1,366.6 -19.5,387.1 -25.7,360.5 	"/>
	<polygon class="st8" points="21.6,375.8 31.6,407.9 15.1,393 	"/>
	<polygon class="st8" points="-1.1,366.6 15.1,393 -19.5,387.1 	"/>
	<polygon class="st11" points="-1.1,366.6 21.6,375.8 15.1,393 	"/>
	<polygon class="st7" points="15.1,393 18.8,428 -9.2,416.8 	"/>
	<polygon class="st11" points="15.1,393 31.6,407.9 18.8,428 	"/>
	<polygon class="st11" points="-19.5,387.1 15.1,393 -9.2,416.8 	"/>
	<polygon class="st14" points="-106.1,383 -75,384.5 -95.6,408.3 	"/>
	<polygon class="st11" points="-75.8,362 -75,384.5 -106.1,383 	"/>
	<polygon class="st13" points="-106.1,383 -95.6,408.3 -118.8,398.9 	"/>
	<polygon class="st20" points="-106.1,383 -118.8,398.9 -122.3,377.8 	"/>
	<polygon class="st7" points="-100.8,364.8 -106.1,383 -122.3,377.8 	"/>
	<polygon class="st8" points="-100.8,364.8 -75.8,362 -106.1,383 	"/>
	<polygon class="st13" points="-59.8,434.7 -49.6,459.5 -80.6,455.6 	"/>
	<polygon class="st12" points="-75,384.5 -68.8,409.6 -95.6,408.3 	"/>
	<polygon class="st12" points="-39.3,410.2 -59.8,434.7 -68.8,409.6 	"/>
	<polygon class="st10" points="-19.5,387.1 -9.2,416.8 -39.3,410.2 	"/>
	<polygon class="st14" points="-93.8,435.5 -59.8,434.7 -80.6,455.6 	"/>
	<polygon class="st13" points="-93.8,435.5 -80.6,455.6 -107.1,448.7 	"/>
	<polygon class="st13" points="-95.6,408.3 -93.8,435.5 -114.1,423.8 	"/>
	<polygon class="st14" points="-93.8,435.5 -107.1,448.7 -114.1,423.8 	"/>
	<polygon class="st13" points="-68.8,409.6 -59.8,434.7 -93.8,435.5 	"/>
	<polygon class="st20" points="-95.6,408.3 -68.8,409.6 -93.8,435.5 	"/>
	<polygon class="st11" points="-49,378.2 -19.5,387.1 -39.3,410.2 	"/>
	<polygon class="st7" points="-25.7,360.5 -19.5,387.1 -49,378.2 	"/>
	<polygon class="st14" points="-51.6,358.3 -25.7,360.5 -49,378.2 	"/>
	<polygon class="st13" points="-49,378.2 -39.3,410.2 -68.8,409.6 	"/>
	<polygon class="st7" points="-51.6,358.3 -49,378.2 -75,384.5 	"/>
	<polygon class="st20" points="-75,384.5 -49,378.2 -68.8,409.6 	"/>
	<polygon class="st7" points="-9.2,416.8 2.8,447.2 -26.6,442.1 	"/>
	<polygon class="st11" points="-26.6,442.1 2.8,447.2 -16.6,465.5 	"/>
	<polygon class="st20" points="-39.3,410.2 -26.6,442.1 -59.8,434.7 	"/>
	<polygon class="st11" points="-39.3,410.2 -9.2,416.8 -26.6,442.1 	"/>
	<polygon class="st14" points="-26.6,442.1 -16.6,465.5 -49.6,459.5 	"/>
	<polygon class="st12" points="-59.8,434.7 -26.6,442.1 -49.6,459.5 	"/>
</g>
<g>
	<polygon class="st21" points="-144.3,295.6 -121.1,305.5 -112.5,326.3 	"/>
	<polygon class="st13" points="-117.5,296.8 -112.5,326.3 -121.1,305.5 -129.1,287.9 	"/>
	<polygon class="st22" points="-161.3,287.9 -144.3,295.6 -121.1,305.5 -129.1,287.9 	"/>
	<polygon class="st20" points="-143,275.3 -129.1,287.9 -161.3,287.9 	"/>
	<polygon class="st14" points="-169.5,275.3 -143,275.3 -161.3,287.9 	"/>
	<polygon class="st22" points="-143,275.3 -125.1,276.6 -141.3,266.3 -169.5,275.3 	"/>
	<polygon class="st13" points="-116.6,276.6 -125.1,276.6 -141.3,266.3 	"/>
	<polygon class="st21" points="-117.5,296.8 -125.1,276.6 -143,275.3 -129.1,287.9 	"/>
	<polygon class="st21" points="-107.6,324.8 -117.5,296.8 -112.5,326.3 	"/>
	<polygon class="st22" points="-116.6,276.6 -107.6,324.8 -117.5,296.8 -125.1,276.6 	"/>
</g>
</svg>
